<?xml version="1.0" encoding="UTF-8"?>
<svg width="30px" height="30px" viewBox="0 0 30 30" version="1.1" xmlns="http://www.w3.org/2000/svg" xmlns:xlink="http://www.w3.org/1999/xlink">
    <title>add</title>
    <g id="Page-1" stroke="none" stroke-width="1" fill="none" fill-rule="evenodd">
        <g id="profile-step7" transform="translate(-461.000000, -632.000000)" fill="#616B82" fill-rule="nonzero">
            <g id="Group" transform="translate(421.000000, 209.000000)">
                <g id="add" transform="translate(40.000000, 423.000000)">
                    <path d="M15,0 C6.72849609,0 0,6.72849609 0,15 C0,23.2715039 6.72849609,30 15,30 C23.2715039,30 30,23.270332 30,15 C30,6.72966797 23.2715039,0 15,0 Z M15,27.6762305 C8.01123047,27.6762305 2.32376953,21.9899414 2.32376953,15 C2.32376953,8.01005859 8.01123047,2.32376953 15,2.32376953 C21.9887695,2.32376953 27.6762305,8.01005859 27.6762305,15 C27.6762305,21.9899414 21.9899414,27.6762305 15,27.6762305 Z" id="Shape"></path>
                    <path d="M20.8333137,13.8333137 L16.1666863,13.8333137 L16.1666863,9.16668628 C16.1666863,8.52268487 15.6451781,8 15,8 C14.3548219,8 13.8333137,8.52268487 13.8333137,9.16668628 L13.8333137,13.8333137 L9.16668628,13.8333137 C8.52150818,13.8333137 8,14.3559986 8,15 C8,15.6440014 8.52150818,16.1666863 9.16668628,16.1666863 L13.8333137,16.1666863 L13.8333137,20.8333137 C13.8333137,21.4773151 14.3548219,22 15,22 C15.6451781,22 16.1666863,21.4773151 16.1666863,20.8333137 L16.1666863,16.1666863 L20.8333137,16.1666863 C21.4784918,16.1666863 22,15.6440014 22,15 C22,14.3559986 21.4784918,13.8333137 20.8333137,13.8333137 Z" id="Path"></path>
                </g>
            </g>
        </g>
    </g>
</svg>