<?xml version="1.0" encoding="UTF-8"?>
<svg width="120px" height="135px" viewBox="0 0 120 135" version="1.1" xmlns="http://www.w3.org/2000/svg" xmlns:xlink="http://www.w3.org/1999/xlink">
    <title>Group 112</title>
    <defs>
        <polygon id="path-1" points="0 135 119.722703 135 119.722703 0.188380952 0 0.188380952"></polygon>
    </defs>
    <g id="Page-1" stroke="none" stroke-width="1" fill="none" fill-rule="evenodd">
        <g id="hiring" transform="translate(-274.000000, -1108.000000)">
            <g id="t1" transform="translate(274.000000, 1108.000000)">
                <g id="Group-112">
                    <path d="M54.1315135,91.9806095 L18.7963784,91.9806095 C18.7963784,90.0749905 20.3434054,88.530419 22.2520541,88.530419 L50.6758378,88.530419 C52.5844865,88.530419 54.1315135,90.0749905 54.1315135,91.9806095" id="Fill-8" fill="#3D4359"></path>
                    <path d="M50.676,88.5307429 L35.8154595,88.5307429 C37.7241081,88.5307429 39.2711351,90.0753143 39.2711351,91.9809333 L54.1316757,91.9809333 C54.1316757,90.0753143 52.5846486,88.5307429 50.676,88.5307429" id="Fill-10" fill="#323749"></path>
                    <path d="M18.8524865,91.3767048 C18.8184324,91.5742286 18.7957297,91.7749905 18.7957297,91.9806095 L54.1308649,91.9806095 C54.1308649,91.7749905 54.1097838,91.5742286 54.0757297,91.3767048 L18.8524865,91.3767048 Z" id="Fill-12" fill="#323749"></path>
                    <mask id="mask-2" fill="white">
                        <use xlink:href="#path-1"></use>
                    </mask>
                    <g id="Clip-15"></g>
                    <polygon id="Fill-14" fill="#3D4359" mask="url(#mask-2)" points="17.4145946 96.5006667 55.5145946 96.5006667 55.5145946 91.8426667 17.4145946 91.8426667"></polygon>
                    <polygon id="Fill-16" fill="#323749" mask="url(#mask-2)" points="30.8918919 96.5006667 55.5145946 96.5006667 55.5145946 91.8426667 30.8918919 91.8426667"></polygon>
                    <polygon id="Fill-17" fill="#323749" mask="url(#mask-2)" points="17.4145946 92.4028571 55.5145946 92.4028571 55.5145946 91.8426667 17.4145946 91.8426667"></polygon>
                    <path d="M42.5244324,63.8370286 C42.5244324,78.6108381 35.7752432,84.4377905 27.4498378,84.4377905 C19.1244324,84.4377905 12.3752432,78.6108381 12.3752432,63.8370286 C12.3752432,49.0648381 19.1244324,30.9428381 27.4498378,30.9428381 C35.7752432,30.9428381 42.5244324,49.0648381 42.5244324,63.8370286" id="Fill-18" fill="#323749" mask="url(#mask-2)"></path>
                    <path d="M44.0351351,63.6331905 C44.0351351,77.9148095 37.5113514,83.5490952 29.4632432,83.5490952 C21.4135135,83.5490952 14.8897297,77.9148095 14.8897297,63.6331905 C14.8897297,49.3515714 21.4135135,31.8318571 29.4632432,31.8318571 C37.5113514,31.8318571 44.0351351,49.3515714 44.0351351,63.6331905" id="Fill-19" fill="#3D4359" mask="url(#mask-2)"></path>
                    <path d="M31.1335135,101.552743 C29.4048649,101.552743 25.9735135,100.377314 25.5340541,100.225124 C25.427027,100.187886 25.3718919,100.071314 25.4091892,99.9660762 C25.4464865,99.8608381 25.5632432,99.8041714 25.6686486,99.8397905 C27.0032432,100.304457 30.6762162,101.432933 31.6427027,101.083219 C32.4454054,100.79179 32.5410811,98.0070286 32.4145946,96.3183619 C32.4064865,96.2066476 32.4891892,96.1095048 32.6027027,96.0997905 C32.7227027,96.1046476 32.8118919,96.1775048 32.8216216,96.289219 C32.8556757,96.7668381 33.1345946,100.974743 31.7821622,101.465314 C31.6151351,101.526838 31.3945946,101.552743 31.1335135,101.552743" id="Fill-20" fill="#323749" mask="url(#mask-2)"></path>
                    <path d="M24.5108108,98.4370476 C25.4010811,98.6718095 26.7178378,99.6189524 26.5345946,100.308667 C26.3513514,101 24.7394595,101.173238 23.8491892,100.938476 C22.9589189,100.703714 22.3848649,99.9540952 22.5681081,99.2627619 C22.7513514,98.5714286 23.6205405,98.2022857 24.5108108,98.4370476" id="Fill-21" fill="#323749" mask="url(#mask-2)"></path>
                    <path d="M70.2084324,55.7639714 C70.2084324,55.7639714 74.9743784,57.2680667 75.6116757,57.5060667 C78.0976216,58.4289238 77.9062703,59.1931143 77.8884324,59.4408286 C77.8884324,59.4408286 78.756,60.6955905 78.6116757,60.8979714 C78.3651892,61.2460667 78.1203243,60.851019 76.8781622,59.5816857 C76.6024865,59.2999714 75.8273514,58.6248286 75.6878919,58.7235905 C75.5484324,58.8207333 76.3073514,59.3453048 76.7662703,59.7614 C77.1538378,60.1127333 78.0165405,62.003781 77.6127568,62.1235905 C77.2300541,62.2369238 76.4614054,60.7085429 76.0414054,60.269781 C75.7284324,59.9443524 74.8122162,59.3339714 74.6354595,59.4489238 C74.4587027,59.5638762 75.3749189,60.439781 75.5224865,60.6567333 C75.6684324,60.8736857 76.4078919,62.0086381 76.1127568,62.2320667 C75.8516757,62.4279714 75.2808649,61.5391143 74.5673514,60.779781 C74.0354595,60.2147333 72.2354595,59.2384476 71.9970811,59.2303524 C71.7149189,59.2206381 71.9905946,59.9216857 72.3668108,60.4592095 C72.7414054,60.9967333 72.9992432,61.8467333 72.5905946,61.9341619 C72.1819459,62.0199714 71.4878919,60.4235905 70.6122162,59.3712095 C69.7349189,58.3172095 69.6132973,56.9296857 69.6132973,56.9296857 C69.6132973,56.9296857 69.9408649,55.7736857 70.2084324,55.7639714" id="Fill-22" fill="#E2A36A" mask="url(#mask-2)"></path>
                    <path d="M70.2084324,55.7639714 C69.7397838,55.6053048 67.236,55.5615905 65.3695135,55.7736857 L65.496,58.4855905 L69.9943784,57.4283524 L70.2084324,55.7639714 Z" id="Fill-23" fill="#E2A36A" mask="url(#mask-2)"></path>
                    <path d="M45.0810811,34.9282857 C40.2664865,36.4793333 43.1464865,61.3997143 47.2183784,63.601619 C51.0648649,65.946 62.1843243,60.1821905 68.3951351,58.1778095 C68.3951351,58.1778095 69.3583784,56.594381 69.1881081,55.2408571 C65.4097297,55.098381 53.5540541,57.8361905 52.1983784,57.6678095 C50.8410811,57.4978095 49.8794595,33.3820952 45.0810811,34.9282857" id="Fill-24" fill="#E44862" mask="url(#mask-2)"></path>
                    <path d="M55.9835676,129.503333 C55.9835676,129.503333 55.7014054,130.97019 55.8554595,132.537429 L53.7668108,132.084095 L53.6808649,129.503333 L55.9835676,129.503333 Z" id="Fill-25" fill="#E2A36A" mask="url(#mask-2)"></path>
                    <path d="M60.3661622,133.526505 C60.3661622,133.940981 53.7467027,133.701362 53.7467027,133.701362 L53.7677838,132.083933 L55.8499459,132.083933 C55.8499459,132.083933 60.3661622,133.112029 60.3661622,133.526505" id="Fill-26" fill="#E2A36A" mask="url(#mask-2)"></path>
                    <path d="M53.0974054,133.691 L53.1022703,133.310524 C53.8579459,133.33481 54.7514595,133.370429 56.4038919,133.419 C56.4038919,133.419 57.6687568,131.515 58.7017297,131.80481 C60.3995676,132.282429 62.0957838,133.12919 61.8817297,133.472429 C61.6076757,133.91119 53.0974054,133.691 53.0974054,133.691" id="Fill-27" fill="#E44862" mask="url(#mask-2)"></path>
                    <path d="M60.6171892,132.003952 C60.3642162,132.557667 60.0755676,132.672619 59.8290811,132.559286 C59.5842162,132.447571 59.4739459,132.151286 59.7269189,131.597571 C59.9798919,131.045476 60.5020541,130.44481 60.7469189,130.556524 C60.9934054,130.669857 60.8701622,131.451857 60.6171892,132.003952" id="Fill-28" fill="#E44862" mask="url(#mask-2)"></path>
                    <path d="M58.3558378,132.003952 C58.6088108,132.557667 58.8974595,132.672619 59.1423243,132.559286 C59.3888108,132.447571 59.4990811,132.151286 59.2461081,131.597571 C58.9915135,131.045476 58.470973,130.44481 58.2244865,130.556524 C57.9796216,130.669857 58.1028649,131.451857 58.3558378,132.003952" id="Fill-29" fill="#E44862" mask="url(#mask-2)"></path>
                    <path d="M59.298,132.885362 C59.298,132.985743 59.2169189,133.065076 59.118,133.065076 C59.0174595,133.065076 58.9363784,132.985743 58.9363784,132.885362 C58.9363784,132.784981 59.0174595,132.705648 59.118,132.705648 C59.2169189,132.705648 59.298,132.784981 59.298,132.885362" id="Fill-30" fill="#6D3A45" mask="url(#mask-2)"></path>
                    <path d="M60.4817838,132.790486 C60.4817838,132.890867 60.4007027,132.9702 60.3017838,132.9702 C60.2012432,132.9702 60.1201622,132.890867 60.1201622,132.790486 C60.1201622,132.690105 60.2012432,132.610771 60.3017838,132.610771 C60.4007027,132.610771 60.4817838,132.690105 60.4817838,132.790486" id="Fill-31" fill="#6D3A45" mask="url(#mask-2)"></path>
                    <path d="M53.681027,129.503333 L53.7588649,131.663143 C53.7588649,131.663143 54.6750811,131.068952 55.8053514,131.663143 C55.8053514,131.663143 55.8426486,130.065143 55.9837297,129.503333 L53.681027,129.503333 Z" id="Fill-32" fill="#D38753" mask="url(#mask-2)"></path>
                    <path d="M65.574,129.503333 C65.574,129.503333 65.2918378,130.97019 65.4458919,132.537429 L63.3572432,132.084095 L63.2712973,129.503333 L65.574,129.503333 Z" id="Fill-33" fill="#E2A36A" mask="url(#mask-2)"></path>
                    <path d="M69.9565946,133.526505 C69.9565946,133.940981 63.3371351,133.701362 63.3371351,133.701362 L63.3582162,132.083933 L65.4403784,132.083933 C65.4403784,132.083933 69.9565946,133.112029 69.9565946,133.526505" id="Fill-34" fill="#E2A36A" mask="url(#mask-2)"></path>
                    <path d="M62.6878378,133.691 L62.6927027,133.310524 C63.4483784,133.33481 64.3418919,133.370429 65.9943243,133.419 C65.9943243,133.419 67.2591892,131.515 68.2921622,131.80481 C69.99,132.282429 71.6862162,133.12919 71.4721622,133.472429 C71.1981081,133.91119 62.6878378,133.691 62.6878378,133.691" id="Fill-35" fill="#E44862" mask="url(#mask-2)"></path>
                    <path d="M70.2076216,132.003952 C69.9546486,132.557667 69.666,132.672619 69.4195135,132.559286 C69.1746486,132.447571 69.0643784,132.151286 69.3173514,131.597571 C69.5703243,131.045476 70.0924865,130.44481 70.338973,130.556524 C70.5838378,130.669857 70.4605946,131.451857 70.2076216,132.003952" id="Fill-36" fill="#E44862" mask="url(#mask-2)"></path>
                    <path d="M67.9461081,132.003952 C68.1990811,132.557667 68.4877297,132.672619 68.7325946,132.559286 C68.9790811,132.447571 69.0893514,132.151286 68.8347568,131.597571 C68.5834054,131.045476 68.0612432,130.44481 67.8147568,130.556524 C67.5698919,130.669857 67.6931351,131.451857 67.9461081,132.003952" id="Fill-37" fill="#E44862" mask="url(#mask-2)"></path>
                    <path d="M68.8884324,132.885362 C68.8884324,132.985743 68.8073514,133.065076 68.7084324,133.065076 C68.6078919,133.065076 68.5268108,132.985743 68.5268108,132.885362 C68.5268108,132.784981 68.6078919,132.705648 68.7084324,132.705648 C68.8073514,132.705648 68.8884324,132.784981 68.8884324,132.885362" id="Fill-38" fill="#6D3A45" mask="url(#mask-2)"></path>
                    <path d="M70.0722162,132.790486 C70.0722162,132.890867 69.9911351,132.9702 69.8922162,132.9702 C69.7916757,132.9702 69.7105946,132.890867 69.7105946,132.790486 C69.7105946,132.690105 69.7916757,132.610771 69.8922162,132.610771 C69.9911351,132.610771 70.0722162,132.690105 70.0722162,132.790486" id="Fill-39" fill="#6D3A45" mask="url(#mask-2)"></path>
                    <path d="M63.2712973,129.503333 L63.3491351,131.663143 C63.3491351,131.663143 64.2653514,131.068952 65.3956216,131.663143 C65.3956216,131.663143 65.4329189,130.065143 65.574,129.503333 L63.2712973,129.503333 Z" id="Fill-40" fill="#D38753" mask="url(#mask-2)"></path>
                    <path d="M49.2064865,72.8912286 C49.2064865,72.8912286 36.3275676,76.7332286 38.2248649,88.5765619 L71.52,88.5765619 C71.52,88.5765619 72.4897297,83.4684667 70.3718919,81.1678 C68.2735135,78.8865619 49.2064865,72.8912286 49.2064865,72.8912286" id="Fill-41" fill="#476291" mask="url(#mask-2)"></path>
                    <path d="M71.4372973,88.5773714 C71.4372973,88.5773714 68.5086486,101.660895 65.9659459,130.6548 L62.6172973,130.6548 C62.6172973,130.6548 58.7789189,109.017848 58.8924324,103.179562 C59.0059459,97.3396571 62.1243243,88.119181 62.1243243,88.119181 C62.1243243,88.119181 68.4713514,86.6749905 71.4372973,88.5773714" id="Fill-42" fill="#476291" mask="url(#mask-2)"></path>
                    <path d="M49.4273514,88.5773714 L61.9981622,88.5028952 C61.9981622,88.5028952 58.763027,97.7395619 58.8927568,103.179562 C59.0224865,108.619562 62.6176216,130.6548 62.6176216,130.6548 L64.0122162,130.6548 C64.0122162,130.6548 61.3251892,107.277371 61.4532973,103.509848 C61.5814054,99.7423238 65.1635676,87.3533714 64.9073514,86.521181 C64.6511351,85.6922286 48.9149189,81.285181 48.9149189,81.285181 L49.4273514,88.5773714 Z" id="Fill-43" fill="#3E5C87" mask="url(#mask-2)"></path>
                    <polygon id="Fill-44" fill="#3E5C87" mask="url(#mask-2)" points="49.2064865 72.8912286 22.9037838 72.8912286 41.7016216 82.3610381"></polygon>
                    <path d="M22.9042703,72.8912286 C22.9042703,72.8912286 19.146973,79.1650381 22.0691351,88.5765619 L61.0496757,88.5765619 C61.0496757,88.5765619 61.841027,83.376181 59.6275135,81.1678 C56.5448108,78.0883714 33.9199459,75.4962762 22.9042703,72.8912286" id="Fill-45" fill="#5775AA" mask="url(#mask-2)"></path>
                    <path d="M61.0503243,88.5773714 C61.0503243,88.5773714 58.1443784,97.9856571 56.5616757,130.6548 L53.2016757,130.6548 C53.2016757,130.6548 48.978973,109.017848 48.978973,103.179562 C48.978973,97.3396571 51.5054595,88.5773714 51.5054595,88.5773714 C51.5054595,88.5773714 58.0470811,86.6749905 61.0503243,88.5773714" id="Fill-46" fill="#5775AA" mask="url(#mask-2)"></path>
                    <path d="M22.0688108,88.5773714 L51.5061081,88.5773714 C51.5061081,88.5773714 48.9034054,98.1993714 48.9796216,103.179562 C49.0752973,109.482514 53.2007027,130.6548 53.2007027,130.6548 L54.4477297,130.6548 C54.4477297,130.6548 51.1866486,108.906133 51.378,103.446705 C51.5693514,97.9856571 55.0558378,87.4165143 54.2563784,86.2977524 C53.4569189,85.1806095 32.8834054,84.0667048 21.018,80.0757524 C21.018,80.0757524 20.6336757,85.0316571 22.0688108,88.5773714" id="Fill-47" fill="#476291" mask="url(#mask-2)"></path>
                    <path d="M49.3474054,15.141581 C49.3474054,15.141581 48.714973,16.368819 48.7068649,18.1594857 C48.6987568,19.9517714 49.7171351,23.6302476 46.5176757,25.8612952 C46.5176757,25.8612952 47.4436216,25.004819 48.0695676,22.0452 C48.6971351,19.085581 47.9284865,18.6144381 48.2074054,16.1372952 C48.4328108,14.1296762 49.3474054,15.141581 49.3474054,15.141581" id="Fill-48" fill="#AA4017" mask="url(#mask-2)"></path>
                    <path d="M23.9114595,16.5171238 C22.1763243,18.9327429 23.3909189,22.7715048 26.6276757,25.0883619 C29.8628108,27.4084571 33.8941622,27.3275048 35.6309189,24.9118857 C37.3660541,22.4962667 36.1514595,18.6575048 32.9147027,16.3406476 C29.6795676,14.0221714 25.6482162,14.1015048 23.9114595,16.5171238" id="Fill-49" fill="#B74918" mask="url(#mask-2)"></path>
                    <path d="M23.9114595,16.5171238 C25.6482162,14.1015048 29.6795676,14.0221714 32.9147027,16.3406476 C36.1514595,18.6575048 37.3660541,22.4962667 35.6309189,24.9118857 C33.8941622,27.3275048 29.8628108,27.4084571 26.6276757,25.0883619 C23.3909189,22.7715048 22.1763243,18.9327429 23.9114595,16.5171238" id="Fill-50" fill="#AA4017" mask="url(#mask-2)"></path>
                    <path d="M47.063027,18.8184381 C47.063027,18.8184381 52.3187027,12.5786286 51.5257297,9.54129524 C49.3332973,1.15462857 31.7451892,-3.13260952 32.4132973,3.2772 C27.2922162,-0.0305142857 20.5851892,19.3316762 32.8397838,24.6421524 C44.3824865,29.8004381 47.063027,18.8184381 47.063027,18.8184381" id="Fill-51" fill="#B74918" mask="url(#mask-2)"></path>
                    <path d="M27.887027,5.51261905 C27.1345946,9.83547619 31.5745946,11.697381 34.0816216,10.3082381 C36.7475676,8.83004762 40.2778378,8.83490476 43.2486486,8.84461905 C46.2194595,8.85433333 46.6783784,7.28061905 46.6783784,7.28061905 C46.6783784,7.28061905 47.8881081,10.6288095 50.1,11.5905238 C50.6594595,11.835 51.0567568,11.8511905 51.3372973,11.7427143 C50.3708108,14.8852857 47.0643243,18.8179524 47.0643243,18.8179524 C47.0643243,18.8179524 43.5713514,28.9499524 32.8394595,24.6416667 C24.3064865,20.9437619 24.9697297,10.4377619 27.887027,5.51261905" id="Fill-52" fill="#AA4017" mask="url(#mask-2)"></path>
                    <path d="M43.4239459,57.2146381 C43.4239459,62.9331143 45.2920541,66.4723524 49.6558378,72.9096857 C41.0888108,75.8304476 32.0482703,75.569781 22.6493514,72.9096857 C24.6552973,67.3644476 27.7104324,62.8294952 31.1255676,58.875781 C31.1482703,58.8482571 31.1790811,58.811019 31.1985405,58.7899714 C31.2407027,58.7414 31.2747568,58.7025429 31.3007027,58.671781 C31.3298919,58.6394 31.3720541,58.5908286 31.3720541,58.5908286 C33.1558378,55.3673048 27.6277297,51.6758762 25.4482703,45.4166381 C23.225027,39.0392095 24.198,35.7104476 24.198,35.7104476 C32.250973,32.1064476 36.9715135,31.2758762 46.1369189,35.0191143 L46.4823243,40.5627333 C46.4823243,40.5627333 48.9666486,44.8920667 48.6877297,46.8333048 C48.4104324,48.7761619 43.4239459,54.1659714 43.4239459,57.2146381" id="Fill-53" fill="#F95D77" mask="url(#mask-2)"></path>
                    <path d="M49.6553514,72.9093619 C48.8445405,70.1974571 43.4234595,66.0478381 43.4234595,57.2143143 C43.4234595,53.6750762 48.4131892,49.4963143 48.6872432,46.7844095 C46.7948108,47.5939333 38.9688649,50.0338381 26.5131892,47.7963143 C28.9115676,54.0976476 31.8823784,55.7927905 31.3731892,58.5905048 C31.3731892,58.5905048 31.3294054,58.6390762 31.3002162,58.6730762 C31.2742703,58.702219 31.2402162,58.7426952 31.1996757,58.7880286 C31.1785946,58.8106952 31.1477838,58.8479333 31.1250811,58.8754571 C27.7099459,62.8291714 24.6548108,67.3641238 22.6488649,72.9093619 C27.251027,74.2126952 31.7656216,74.9299333 36.1812973,74.9898381 C40.5483243,74.9801238 45.4991351,74.3260286 49.6553514,72.9093619" id="Fill-54" fill="#E74B65" mask="url(#mask-2)"></path>
                    <path d="M45.0732973,34.6277905 C37.4841081,31.4528381 32.6841081,32.165219 26.0176216,34.9402667 C27.2273514,35.6931238 31.3008649,37.8464571 37.6527568,37.2150286 C42.4495135,36.7357905 44.3338378,35.4891238 45.0732973,34.6277905" id="Fill-55" fill="#F4BE84" mask="url(#mask-2)"></path>
                    <path d="M30.792973,19.9749238 C30.792973,19.9749238 32.9789189,28.1754 31.1043243,33.8582571 L36.8854054,34.8523524 L40.4610811,34.8814952 C40.4610811,34.8814952 39.0421622,30.7820667 39.3340541,26.0139714 C39.5464865,22.5184476 30.792973,19.9749238 30.792973,19.9749238" id="Fill-56" fill="#F4BE84" mask="url(#mask-2)"></path>
                    <path d="M26.0168108,34.9409143 C26.8114054,35.4363429 28.8643784,36.5211048 31.9632973,37.037581 C36.2119459,35.1659619 38.5535676,32.6710095 39.6238378,31.2365333 C39.3870811,29.7534857 39.2151892,27.9579619 39.3335676,26.0151048 C39.3595135,25.6006286 39.2508649,25.2023429 39.0546486,24.8186286 L35.4692432,21.8557714 C33.2070811,20.6819619 30.7924865,19.9744381 30.7924865,19.9744381 C30.7924865,19.9744381 32.8032973,27.5499619 31.2935676,33.1826286 C29.6184324,33.5776762 27.9011351,34.1572952 26.0168108,34.9409143" id="Fill-57" fill="#D17A4A" mask="url(#mask-2)"></path>
                    <path d="M40.2027568,29.9628807 C41.046,29.9725429 42.4876216,28.6222571 43.3973514,27.939019 C45.3270811,26.4915905 47.1741081,24.6669238 46.6649189,20.1093048 C46.6649189,20.1093048 51.5281622,9.15806667 42.2865405,6.98854286 C33.0432973,4.81901905 30.3481622,13.9034952 31.5254595,21.1341619 C32.7043784,28.3680667 39.4032973,29.9531143 40.2027568,29.9628807" id="Fill-58" fill="#F4BE84" mask="url(#mask-2)"></path>
                    <path d="M39.9162162,6.69452381 C33.1913514,7.02804762 29.7016216,26.897 40.307027,29.9456667 C40.272973,29.9489048 40.2340541,29.9634762 40.2032432,29.9634762 C39.4037838,29.9537619 32.7048649,28.3670952 31.5259459,21.1348095 C30.4572973,14.5679524 32.5978378,6.50509524 39.9162162,6.69452381" id="Fill-59" fill="#E2A36A" mask="url(#mask-2)"></path>
                    <path d="M29.0241081,19.3124095 C28.8408649,20.4036476 29.5787027,21.4366 30.6732973,21.6195524 C31.7662703,21.8025048 32.8024865,21.0658381 32.9841081,19.972981 C33.1673514,18.8817429 32.4295135,17.8487905 31.3349189,17.6658381 C30.2419459,17.4828857 29.2057297,18.2195524 29.0241081,19.3124095" id="Fill-60" fill="#E2A36A" mask="url(#mask-2)"></path>
                    <path d="M31.218973,18.3607333 C31.506,18.4093048 31.7378919,18.5631143 31.9243784,18.755781 C31.8222162,18.7023524 31.7184324,18.6505429 31.5968108,18.6311143 C30.9887027,18.5291143 30.4146486,18.9387333 30.3124865,19.5458762 C30.2119459,20.1514 30.6222162,20.7261619 31.2287027,20.8281619 C31.3227568,20.8427333 31.4119459,20.8265429 31.5027568,20.8184476 C31.2822162,20.9123524 31.0438378,20.9674 30.7892432,20.9253048 C30.0805946,20.8071143 29.6005946,20.1368286 29.7205946,19.4293048 C29.838973,18.7201619 30.5103243,18.2425429 31.218973,18.3607333" id="Fill-61" fill="#D17A4A" mask="url(#mask-2)"></path>
                    <path d="M39.4743243,18.2475619 C39.8683784,15.8934667 35.8921622,16.3888952 35.0116216,17.4250857 L35.7348649,17.7213714 C36.4159459,16.9037524 39.5213514,16.3856571 39.4743243,18.2475619" id="Fill-62" fill="#6D3A31" mask="url(#mask-2)"></path>
                    <path d="M39.4743243,18.2508 L39.4743243,18.2508 L39.4743243,18.2508 Z" id="Fill-63" fill="#6D3A31" mask="url(#mask-2)"></path>
                    <path d="M35.6111351,18.1724381 C35.603027,18.1497714 35.6241081,18.1303429 35.6176216,18.1076762 C35.3192432,18.0591048 35.5657297,18.9107238 37.0349189,19.3025333 C38.076,19.5437714 38.5851892,19.2847238 38.5851892,19.2847238 C37.5473514,19.5259619 35.9273514,18.8945333 35.6111351,18.1724381" id="Fill-64" fill="#6D3A31" mask="url(#mask-2)"></path>
                    <path d="M39.4751351,18.249181 C39.5335135,16.0521333 35.1697297,17.161181 35.6108108,18.1730857 C36.0794595,19.2432762 39.4248649,20.1256571 39.4751351,18.249181" id="Fill-65" fill="#F7EEE2" mask="url(#mask-2)"></path>
                    <path d="M36.5526486,17.9140381 C36.3694054,18.5972762 36.8234595,19.2465143 37.5645405,19.3647048 C38.3056216,19.4812762 39.0531892,19.0214667 39.2380541,18.3382286 C39.4212973,17.6533714 38.9672432,17.0041333 38.2261622,16.8875619 C37.4850811,16.7709905 36.7358919,17.2308 36.5526486,17.9140381" id="Fill-66" fill="#6D3A31" mask="url(#mask-2)"></path>
                    <path d="M43.2235135,18.6413143 C43.9451351,16.7988381 47.3489189,18.5134095 46.2072973,19.8135048 C45.3672973,20.771981 42.5748649,20.2976 43.2235135,18.6413143" id="Fill-67" fill="#F7EEE2" mask="url(#mask-2)"></path>
                    <path d="M46.128,19.3449524 C45.9366486,20.012 45.2166486,20.452381 44.5193514,20.3260952 C43.8236757,20.2014286 43.4134054,19.5602857 43.6047568,18.8932381 C43.7977297,18.2261905 44.5161081,17.7858095 45.2134054,17.9104762 C45.9107027,18.0351429 46.3193514,18.6779048 46.128,19.3449524" id="Fill-68" fill="#6D3A31" mask="url(#mask-2)"></path>
                    <path d="M46.3804865,19.4374 L47.2188649,19.2981619 C46.8248108,17.7940667 43.9788649,16.5198762 43.2037297,18.585781 L43.2523784,18.6003524 C43.9448108,17.0088286 46.6950811,18.2328286 46.3804865,19.4374" id="Fill-69" fill="#6D3A31" mask="url(#mask-2)"></path>
                    <path d="M43.1341622,19.2144571 C43.1163243,19.3488381 43.1033514,19.925219 43.8509189,20.2296 C44.8660541,20.6440762 45.6330811,20.1713143 45.6330811,20.1713143 C44.6876757,20.5113143 43.2330811,20.1664571 43.1341622,19.2144571" id="Fill-70" fill="#6D3A31" mask="url(#mask-2)"></path>
                    <path d="M43.9765946,15.6094857 C43.9765946,15.6094857 41.9155135,17.014819 41.909027,19.3154857 C41.9009189,21.6161524 43.7268649,22.4612952 43.7268649,22.4612952 C43.7268649,22.4612952 43.0003784,23.9961524 41.5279459,23.7630095 C40.0538919,23.5282476 42.929027,22.4467238 42.929027,22.4467238 C42.929027,22.4467238 41.1338919,20.9021524 41.2036216,19.2442476 C41.3009189,16.8869143 43.9765946,15.6094857 43.9765946,15.6094857" id="Fill-71" fill="#D38753" mask="url(#mask-2)"></path>
                    <path d="M37.9572973,7.36011429 C37.9572973,7.36011429 35.232973,7.84097143 34.0881081,11.2264 C32.9432432,14.6134476 33.2205405,18.3324 32.3854054,18.3631619 C31.9540541,18.3793524 31.0832432,17.446781 31.0832432,17.446781 C31.0832432,17.446781 29.4908108,5.80097143 36.3405405,5.75401905 L37.9572973,7.36011429 Z" id="Fill-72" fill="#B74918" mask="url(#mask-2)"></path>
                    <path d="M39.7690121,14.3605524 C39.7657297,14.5807429 38.9370811,14.4091238 37.3268108,14.4868381 C35.8543784,14.5580762 34.7257297,14.8770286 34.7143784,14.6568381 C34.703027,14.4366476 35.5851892,13.8408381 37.308973,13.737219 C38.976,13.6368381 39.7754595,13.9331238 39.7690121,14.3605524" id="Fill-73" fill="#AA4017" mask="url(#mask-2)"></path>
                    <path d="M47.8381622,17.2745143 C47.7862703,17.4186095 47.4570811,16.8519429 46.3543784,16.1735619 C45.4170811,15.597181 44.2511351,15.3915619 44.3014054,15.2150857 C44.4538378,14.6775619 45.8792432,15.0823238 46.5668108,15.5388952 C47.8381622,16.3856571 47.8997838,17.1061333 47.8381622,17.2745143" id="Fill-74" fill="#AA4017" mask="url(#mask-2)"></path>
                    <path d="M37.6999459,24.5238 C37.6594054,24.590181 37.4388649,24.5286571 37.3723784,24.488181 C37.3058919,24.4477048 37.2864324,24.3618952 37.326973,24.2955143 C37.3658919,24.2291333 37.4518378,24.2097048 37.5183243,24.250181 C37.5848108,24.2890381 37.7388649,24.457419 37.6999459,24.5238" id="Fill-75" fill="#93271C" mask="url(#mask-2)"></path>
                    <path d="M43.4602703,25.3791429 C43.4959459,25.4471429 43.7197297,25.4018095 43.7878378,25.3661905 C43.8559459,25.3305714 43.8835135,25.246381 43.8478378,25.178381 C43.8121622,25.110381 43.7278378,25.0828571 43.6597297,25.1184762 C43.5916216,25.1540952 43.4245946,25.3111429 43.4602703,25.3791429" id="Fill-76" fill="#93271C" mask="url(#mask-2)"></path>
                    <path d="M37.5415135,24.4250381 L43.6112432,25.3317048 C43.6112432,25.3317048 42.3398919,26.9960857 40.3939459,26.7451333 C38.448,26.494181 37.5415135,24.4250381 37.5415135,24.4250381" id="Fill-77" fill="#9A6335" mask="url(#mask-2)"></path>
                    <path d="M37.5415135,24.4250381 L43.6112432,25.3317048 C43.6112432,25.3317048 42.3398919,26.9960857 40.3939459,26.7451333 C38.448,26.494181 37.5415135,24.4250381 37.5415135,24.4250381" id="Fill-78" fill="#93271C" mask="url(#mask-2)"></path>
                    <path d="M37.9628108,24.6573714 L42.8795676,25.3843238 C42.8795676,25.3843238 41.6876757,26.8139429 40.0806486,26.4448 C38.4752432,26.0740381 37.9628108,24.6573714 37.9628108,24.6573714" id="Fill-79" fill="#F7EEE2" mask="url(#mask-2)"></path>
                    <path d="M37.9628108,24.6573714 L42.8795676,25.3843238 L42.5455135,25.7113714 C42.5455135,25.7113714 42.0622703,25.3325143 40.4438919,25.1252762 C38.8238919,24.916419 38.1460541,25.0216571 38.1460541,25.0216571 C38.1460541,25.0216571 38.0130811,24.7642286 37.9628108,24.6573714" id="Fill-80" fill="#D5B698" mask="url(#mask-2)"></path>
                    <path d="M47.4407027,8.10957143 C47.4407027,8.10957143 46.7385405,9.88404762 43.8666486,10.0265238 C37.230973,10.3551905 35.2234054,10.1787143 32.4942162,15.167 C32.4942162,15.167 32.3823243,9.0097619 36.4217838,6.61680952 C38.8120541,5.20014286 42.8742162,4.45861905 47.4407027,8.10957143" id="Fill-81" fill="#B74918" mask="url(#mask-2)"></path>
                    <path d="M43.2481622,8.84478095 C45.5865405,8.85287619 46.3600541,7.88792381 46.5870811,7.47344762 C46.6681622,7.53011429 46.7508649,7.59649524 46.8319459,7.6564 C46.9227568,7.86687619 47.0476216,8.13725714 47.2227568,8.4724 C46.8497838,8.99859048 45.9173514,9.92468571 43.866,10.0266857 C37.2303243,10.3553524 35.2227568,10.1788762 32.4935676,15.1671619 C32.4935676,15.1671619 32.4595135,12.9150667 33.3205946,10.6046857 C33.5865405,10.5318286 33.8443784,10.4395429 34.0811351,10.3084 C36.7487027,8.83020952 40.2773514,8.83506667 43.2481622,8.84478095" id="Fill-82" fill="#AA4017" mask="url(#mask-2)"></path>
                    <path d="M34.0812973,10.3088857 C34.2483243,10.2166 34.4267027,10.1453619 34.5985946,10.0660286 C34.4088649,10.4092667 34.2353514,10.792981 34.0877838,11.2268857 C32.9429189,14.6139333 33.2202162,18.3328857 32.3867027,18.3636476 C31.9537297,18.378219 31.0829189,17.4472667 31.0829189,17.4472667 C31.0829189,17.4472667 30.5980541,13.8659333 31.331027,10.6650762 C32.291027,10.8561238 33.2834595,10.7492667 34.0812973,10.3088857" id="Fill-83" fill="#AA4017" mask="url(#mask-2)"></path>
                    <path d="M39.7151351,10.3247524 C39.7151351,10.3247524 36.4086486,9.8730381 34.8664865,13.3199905 C33.3243243,16.7669429 34.1335135,20.5895143 33.8691892,23.1508476 C33.6032432,25.712181 31.4886486,26.9232286 31.4886486,26.9232286 C31.4886486,26.9232286 32.6367568,24.9156095 32.9951351,23.026181 C33.5318919,20.2106571 33.4491892,17.9682762 33.1086486,15.4830381 C32.0610811,11.6572286 34.9832432,8.10341905 39.7151351,10.3247524" id="Fill-84" fill="#AA4017" mask="url(#mask-2)"></path>
                    <path d="M53.5819459,57.4414667 C55.2684324,57.8608 57.4024865,58.063181 57.5549189,58.7561333 C57.8841081,60.2650857 55.4824865,61.2203238 54.2646486,60.8835619 C53.0792432,60.477181 52.0576216,58.8694667 52.0576216,58.8694667 C52.0576216,58.8694667 51.9116757,57.0269905 53.5819459,57.4414667" id="Fill-85" fill="#F4BE84" mask="url(#mask-2)"></path>
                    <path d="M60.7589189,60.8163714 C60.9697297,60.6738952 59.9205405,59.2426571 59.5864865,59.0257048 C59.3189189,58.8492286 59.0416216,58.5982762 56.4535135,58.0753238 L57.3664865,59.4013238 C57.3664865,59.4013238 58.9767568,59.508181 59.1989189,59.5972286 C59.4210811,59.6846571 59.9140541,60.8455143 60.7589189,60.8163714" id="Fill-86" fill="#F4BE84" mask="url(#mask-2)"></path>
                    <path d="M58.872,63.6370762 C59.2368649,63.594981 58.7828108,61.996981 58.5947027,61.6488857 C58.3563243,61.2085048 58.4195676,61.0012667 56.8628108,58.8706 L56.6114595,60.4248857 C56.6114595,60.4248857 57.8357838,61.8107905 57.9395676,62.0228857 C58.0433514,62.234981 58.3109189,63.3974571 58.872,63.6370762" id="Fill-87" fill="#F4BE84" mask="url(#mask-2)"></path>
                    <path d="M57.6351892,63.9027619 C57.9838378,63.8622857 57.5492432,62.3290476 57.3676216,61.9955238 C57.138973,61.5729524 57.2005946,61.3738095 55.7070811,59.3273333 L55.4654595,60.8184762 C55.4654595,60.8184762 56.6411351,62.1493333 56.7400541,62.3533333 C56.838973,62.5573333 57.0968108,63.6728571 57.6351892,63.9027619" id="Fill-88" fill="#F4BE84" mask="url(#mask-2)"></path>
                    <path d="M56.0278378,63.3050095 C56.3245946,63.2710095 55.9564865,61.9725333 55.8024324,61.6892 C55.6078378,61.3330095 55.6597297,61.1630095 54.3964865,59.4322476 L54.1921622,60.6951048 C54.1921622,60.6951048 55.1862162,61.8203429 55.2705405,61.993581 C55.3548649,62.166819 55.5721622,63.1107238 56.0278378,63.3050095" id="Fill-89" fill="#F4BE84" mask="url(#mask-2)"></path>
                    <path d="M52.3088108,58.9664476 L49.7077297,59.2481619 L49.6493514,56.8212095 C49.6493514,56.8212095 51.2352973,56.9345429 53.5817838,57.4413048 L52.3088108,58.9664476 Z" id="Fill-90" fill="#F4BE84" mask="url(#mask-2)"></path>
                    <path d="M24.1971892,35.7109333 C19.3825946,37.261981 20.9620541,62.9805524 25.0355676,65.1824571 C30.4582703,68.541981 43.1166486,61.8294095 50.6117838,59.7586476 C50.6117838,59.7586476 51.5734054,58.175219 51.4047568,56.8216952 C45.2928649,55.6365524 31.3712432,59.4186476 30.0139459,59.2486476 C28.6566486,59.0802667 28.9955676,34.1647429 24.1971892,35.7109333" id="Fill-91" fill="#F95D77" mask="url(#mask-2)"></path>
                    <path d="M25.3762703,63.9398381 C22.1784324,62.2106952 20.5341081,46.0331714 22.2968108,38.3880286 C20.0038378,45.340219 21.653027,63.3537429 25.0357297,65.1832667 C30.4584324,68.5427905 43.1168108,61.8286 50.6119459,59.7578381 C50.6119459,59.7578381 50.9281622,59.1960286 51.1681622,58.4739333 C43.6373514,60.6159333 30.7454595,67.2653619 25.3762703,63.9398381" id="Fill-92" fill="#E44862" mask="url(#mask-2)"></path>
                    <polygon id="Fill-93" fill="#C48C58" mask="url(#mask-2)" points="4.14648649 135 6.47027027 135 6.47027027 67.1813333 4.14648649 67.1813333"></polygon>
                    <polygon id="Fill-94" fill="#A8693F" mask="url(#mask-2)" points="112.733514 135 115.057297 135 115.057297 67.1813333 112.733514 67.1813333"></polygon>
                    <polygon id="Fill-95" fill="#C48C58" mask="url(#mask-2)" points="32.9059459 135 34.2891892 135 34.2891892 67.1813333 32.9059459 67.1813333"></polygon>
                    <polygon id="Fill-96" fill="#A8693F" mask="url(#mask-2)" points="34.2891892 135 35.6724324 135 35.6724324 67.1813333 34.2891892 67.1813333"></polygon>
                    <polygon id="Fill-97" fill="#C48C58" mask="url(#mask-2)" points="4.14648649 74.1351429 34.2891892 74.1351429 34.2891892 67.3772381 4.14648649 67.3772381"></polygon>
                    <polygon id="Fill-98" fill="#9E623A" mask="url(#mask-2)" points="84.8286486 135 87.1524324 135 87.1524324 67.1813333 84.8286486 67.1813333"></polygon>
                    <polygon id="Fill-99" fill="#A8693F" mask="url(#mask-2)" points="34.2891892 74.1351429 115.057297 74.1351429 115.057297 67.3772381 34.2891892 67.3772381"></polygon>
                    <polygon id="Fill-100" fill="#D39B67" mask="url(#mask-2)" points="0 69.480381 35.1518919 69.480381 35.1518919 65.0490476 0 65.0490476"></polygon>
                    <polygon id="Fill-101" fill="#B7784E" mask="url(#mask-2)" points="34.247027 69.480381 119.722703 69.480381 119.722703 65.0490476 34.247027 65.0490476"></polygon>
                    <polygon id="Fill-102" fill="#E8AB73" mask="url(#mask-2)" points="0 65.9638095 119.722703 65.9638095 119.722703 65.0490476 0 65.0490476"></polygon>
                    <polygon id="Fill-103" fill="#8394B4" mask="url(#mask-2)" points="100.074486 62.8322476 69.2620541 62.8419619 75.7323243 38.9820571 106.546378 38.9723429"></polygon>
                    <polygon id="Fill-104" fill="#A5C0D7" mask="url(#mask-2)" points="99.9107027 65.012619 54.5571892 65.0676667 54.5555676 63.2170952 99.9090811 63.1620476"></polygon>
                    <polygon id="Fill-105" fill="#A5C0D7" mask="url(#mask-2)" points="100.095892 62.8022952 69.9921081 62.8411524 76.3358919 39.4491524 106.439676 39.4119143"></polygon>
                    <path d="M91.0945946,50.8657048 C90.7167568,52.0055143 89.3886486,52.9283714 88.1286486,52.9299926 C86.8686486,52.9316095 86.1551351,52.0103714 86.532973,50.872181 C86.9108108,49.7339905 88.2389189,48.8095143 89.4989189,48.8078931 C90.7589189,48.8062762 91.4724324,49.7275143 91.0945946,50.8657048" id="Fill-106" fill="#8394B4" mask="url(#mask-2)"></path>
                    <polygon id="Fill-107" fill="#A5C0D7" mask="url(#mask-2)" points="69.9922703 62.8409905 76.3360541 39.4489905 106.439838 39.4117524"></polygon>
                    <polygon id="Fill-108" fill="#8394B4" mask="url(#mask-2)" points="69.1757838 65.0513143 54.5568649 65.0675048 54.5552432 63.2169333 69.1741622 63.2007429"></polygon>
                    <polygon id="Fill-109" fill="#8394B4" mask="url(#mask-2)" points="78.6934054 63.6480857 73.0452973 63.6545619 73.0452973 62.8418 78.6934054 62.8353238"></polygon>
                    <polygon id="Fill-110" fill="#8394B4" mask="url(#mask-2)" points="98.0262162 63.6236381 93.1937838 63.6301143 93.1921622 62.8157333 98.0262162 62.8108762"></polygon>
                    <polygon id="Fill-111" fill="#BAD6F2" mask="url(#mask-2)" points="76.5348649 39.7457619 106.35973 39.7085238 106.439189 39.410619 76.3354054 39.4494762 69.9916216 62.8414762 70.2705405 62.8398571"></polygon>
                </g>
            </g>
        </g>
    </g>
</svg>