<?xml version="1.0" encoding="UTF-8"?>
<svg width="112px" height="151px" viewBox="0 0 112 151" version="1.1" xmlns="http://www.w3.org/2000/svg" xmlns:xlink="http://www.w3.org/1999/xlink">
    <title>t4</title>
    <defs>
        <polygon id="path-1" points="0.298240309 0.308815344 109.88075 0.308815344 109.88075 118.946333 0.298240309 118.946333"></polygon>
        <polygon id="path-3" points="0 0.627782501 11.9105521 0.627782501 11.9105521 7.02916461 0 7.02916461"></polygon>
        <polygon id="path-5" points="0.730016684 0.627782501 12.6408007 0.627782501 12.6408007 7.02916461 0.730016684 7.02916461"></polygon>
        <path d="M0.222,0.666 C0.124,1.564 0.302,2.262 0.708,2.786 L0.708,2.786 C2.12,3.108 3.738,2.848 5.206,1.512 L5.206,1.512 C3.718,0.426 2.59,0.116 1.788,0.116 L1.788,0.116 C0.716,0.116 0.222,0.666 0.222,0.666" id="path-7"></path>
        <path d="M0.884,0.524 C0.766,1.444 0.934,2.162 1.338,2.708 L1.338,2.708 C2.778,3.064 4.186,2.894 5.418,1.596 L5.418,1.596 C3.828,0.38 2.748,0.048 2.04,0.048 L2.04,0.048 C1.192,0.048 0.884,0.524 0.884,0.524" id="path-9"></path>
    </defs>
    <g id="Page-1" stroke="none" stroke-width="1" fill="none" fill-rule="evenodd">
        <g id="hiring" transform="translate(-278.000000, -1539.000000)">
            <g id="Group" transform="translate(165.000000, 1501.000000)">
                <g id="service1">
                    <g id="Path-2">
                        <g id="t4" transform="translate(113.000000, 38.000000)">
                            <g id="Group-112">
                                <g id="Group-3" transform="translate(1.750000, 22.032872)">
                                    <mask id="mask-2" fill="white">
                                        <use xlink:href="#path-1"></use>
                                    </mask>
                                    <g id="Clip-2"></g>
                                    <path d="M8.8683,66.575547 C19.7218,59.9136562 20.3868,61.3177318 27.92055,56.7593186 C42.6608,47.841066 43.42555,-0.726946861 79.0328,0.325670539 C116.1258,1.42046293 127.87355,110.806565 68.0183,117.53699 C57.43955,118.726676 41.1733,121.074417 22.7773,114.595285 C-5.09495,104.780814 -3.67045,74.2707249 8.8683,66.575547" id="Fill-1" fill="#EA3442" mask="url(#mask-2)"></path>
                                </g>
                                <path d="M80.6918,22.3599483 C46.04005,21.4197976 44.4493,67.534632 30.7118,78.0537768 C28.57855,83.5962731 27.3728,87.2039918 27.3728,87.2039918 C27.3728,87.2039918 66.8178,97.4138534 74.1503,99.5173309 C81.4793,101.620808 88.32705,104.330551 92.73705,102.016199 C106.2628,94.9167427 106.2628,34.6258406 80.6918,22.3599483" id="Fill-4" fill="#D3243A"></path>
                                <path d="M101.179225,36.7135025 C114.851975,69.4131762 106.859725,129.827089 62.565475,132.742435 C51.941225,133.443594 35.587475,135.037457 17.506475,127.716582 C12.016725,125.493609 7.758975,122.488641 4.533725,119.054894 C7.690725,126.298448 14.029225,132.932222 24.527475,136.627805 C42.923475,143.106938 59.189725,140.759197 69.768475,139.569511 C116.377975,134.329269 119.564725,66.8440166 101.179225,36.7135025" id="Fill-6" fill="#D3243A"></path>
                                <path d="M33.4572,68.7274812 C33.4572,68.7274812 29.9642,69.251154 26.8282,70.3266162 C26.00045,70.60954 23.5277,71.9029063 23.80595,72.3879187 C24.0877,72.872931 25.69945,71.5584773 26.3767,71.3669325 C27.2342,71.1244263 27.94295,70.8942212 28.07945,71.0049305 C28.21595,71.1156399 26.9507,71.4512825 26.2682,71.8783043 C25.5857,72.305326 23.63445,73.5143423 24.0877,74.0274713 C24.5392,74.5406003 26.67245,72.7569498 27.2237,72.5583759 C28.12495,72.2315198 29.0857,71.7060897 29.40945,71.834372 C29.7682,71.9749553 28.1127,72.5162009 27.51595,72.957281 C26.92095,73.3966038 24.7772,75.0765741 25.32845,75.5158969 C25.88145,75.9552197 27.6612,74.043287 28.41895,73.6197798 C29.23795,73.1593695 31.9907,72.1348688 32.0467,72.456453 C32.1027,72.7674936 32.0117,73.3034674 31.42895,73.6584402 C30.8462,74.013413 29.3412,74.7251159 29.65795,75.1292929 C29.92745,75.4719647 32.03445,74.568717 32.8272,74.0538307 C34.29195,73.1031362 34.8607,71.6920314 34.8607,71.6920314 L38.7037,71.7658376 L39.41945,68.2424689 L33.4572,68.7274812 Z" id="Fill-8" fill="#E2A36A"></path>
                                <path d="M74.619825,28.8382022 C76.173825,28.4410544 85.286075,10.138867 79.889075,6.61549827 C77.134575,4.81427484 73.608325,12.9136298 73.608325,12.9136298 C73.608325,12.9136298 71.088325,28.7397939 74.619825,28.8382022" id="Fill-10" fill="#8F4817"></path>
                                <path d="M79.888725,6.61479535 C84.986475,9.94661938 79.027725,27.9360089 74.902975,28.667042 C75.151475,27.5458903 75.238975,26.1365428 75.298475,24.1068715 C75.242475,22.9927489 75.184725,21.9594617 75.125225,20.9753786 L75.093725,22.6307469 L74.069975,22.8328354 C74.069975,22.8328354 74.176725,15.1253564 72.500225,10.7725462 C73.371725,11.4543752 78.129975,14.7949857 80.439975,11.0642565 C81.964225,8.60756352 79.888725,6.61479535 79.888725,6.61479535" id="Fill-12" fill="#873E16"></path>
                                <path d="M54.3375,41.812107 C51.373,43.2583576 48.23,58.6381698 46.13525,67.1821194 C46.13525,67.1821194 42.7315,67.3139162 35.1365,68.3612617 L35.79275,71.7827076 C35.79275,71.7827076 46.84925,77.7996725 53.3785,75.8156908 C59.9095,73.8317091 58.88575,39.5944056 54.3375,41.812107" id="Fill-14" fill="#DFCED6"></path>
                                <path d="M44.86125,79.9832825 C44.86125,79.9832825 54.138,79.4701535 62.75325,81.7511174 C72.49725,84.3325781 80.136,89.1071382 80.136,89.1071382 C85.75525,78.7935964 88.22975,50.3237224 88.1545,42.994061 C81.179,38.1386656 60.92625,36.7275608 54.3375,41.8114041 C54.52825,41.4142563 51.80875,47.5964066 53.55525,56.0085593 C55.19325,63.907583 57.043,71.8962286 52.332,76.2525534 C49.84525,78.3103413 44.86125,79.9832825 44.86125,79.9832825" id="Fill-16" fill="#FFF2FA"></path>
                                <path d="M86.44265,63.7524142 C85.82315,59.9267914 84.9709,57.4121078 84.9709,57.4121078 C83.22615,61.9687637 79.2099,67.0508497 66.2949,65.6485314 C57.75315,64.7206817 54.94965,60.8124661 54.02215,58.2661513 C55.48515,65.3972388 56.5929,72.3121794 52.33165,76.2520262 C51.7069,76.7686698 50.9264,77.2607113 50.10565,77.7070633 C49.8099,78.508388 49.5194,79.2728097 49.24115,79.9634251 C52.7394,80.0600761 57.85115,80.4537093 62.7529,81.7505902 C72.02265,84.2072832 79.4549,88.7006767 79.4549,88.7006767 C79.46015,88.7041913 79.4619,88.7041913 79.46715,88.7077059 C79.6824,88.8324736 79.84165,88.9273673 79.9519,88.9941443 C79.96065,88.9994162 79.9624,89.0011735 79.9694,89.0064454 C80.0674,89.064436 80.13565,89.1083683 80.13565,89.1083683 C83.48865,82.9578492 85.50465,70.7095299 86.44265,63.7524142" id="Fill-18" fill="#ECDBE3"></path>
                                <g id="Group-22" transform="translate(0.000000, 142.340583)">
                                    <mask id="mask-4" fill="white">
                                        <use xlink:href="#path-3"></use>
                                    </mask>
                                    <g id="Clip-21"></g>
                                    <path d="M9.982525,1.58999703 C9.982525,1.58999703 8.276275,3.61791102 5.044025,4.83747108 C1.811775,6.05351656 -0.043225,5.78113643 0.000525,6.59476223 C0.046025,7.40663075 11.674775,6.9989392 11.779775,6.05175927 C11.884775,5.10633663 11.496275,3.75322244 11.869025,1.58999703 C12.241775,-0.574985665 9.982525,1.58999703 9.982525,1.58999703" id="Fill-20" fill="#2D313D" mask="url(#mask-4)"></path>
                                </g>
                                <g id="Group-25" transform="translate(28.941176, 142.340583)">
                                    <mask id="mask-6" fill="white">
                                        <use xlink:href="#path-5"></use>
                                    </mask>
                                    <g id="Clip-24"></g>
                                    <path d="M10.7127735,1.58999703 C10.7127735,1.58999703 9.00652353,3.61791102 5.77602353,4.83747108 C2.54202353,6.05351656 0.687023529,5.78113643 0.730773529,6.59476223 C0.776273529,7.40663075 12.4050235,6.9989392 12.5100235,6.05175927 C12.6150235,5.10633663 12.2247735,3.75322244 12.5992735,1.58999703 C12.9720235,-0.574985665 10.7127735,1.58999703 10.7127735,1.58999703" id="Fill-23" fill="#2D313D" mask="url(#mask-6)"></path>
                                </g>
                                <path d="M51.895375,80.5891965 C58.965375,82.9562677 80.528875,101.650331 67.865875,100.701394 C45.087875,98.9933067 18.018875,88.7412701 18.018875,88.7412701 C18.018875,88.7412701 19.364625,79.1605188 22.966125,76.6458351 C25.977875,74.5441149 44.827125,78.2221253 51.895375,80.5891965" id="Fill-26" fill="#323749"></path>
                                <path d="M48.675725,80.6663416 L42.995225,86.5040628 C42.995225,86.5040628 27.381725,84.5991592 26.669475,85.7923599 C25.957225,86.9855606 26.840975,98.4677009 25.771725,103.628865 C24.847725,108.085355 13.141975,137.941732 10.935225,144.340029 L13.161225,144.340029 C13.161225,144.340029 28.869225,110.148415 29.992725,101.927807 C30.605225,97.4555012 30.951725,96.4960203 30.820475,92.9445348 C30.820475,92.9445348 57.262975,101.094851 69.960975,100.701218 C72.837975,100.613353 48.675725,80.6663416 48.675725,80.6663416" id="Fill-28" fill="#2A2E3D"></path>
                                <path d="M80.1416,89.1095984 C79.4731,91.5118154 78.5736,93.8490126 77.38535,95.4428757 L34.95485,88.7405672 C34.95485,88.7405672 33.25735,81.2580215 36.5036,78.2969859 C40.36585,74.7701026 68.12785,81.1156809 80.1416,89.1095984" id="Fill-30" fill="#3D4359"></path>
                                <path d="M49.781375,100.444478 C49.662375,95.9721718 49.937125,96.7014476 49.016625,93.7333828 C49.016625,93.7333828 67.211375,103.987177 74.018875,99.6501822 C77.791875,97.2444506 79.468375,91.5104095 80.136875,89.1081925 L69.971125,84.4900314 C69.971125,84.4900314 68.963125,89.2786498 67.034625,90.354112 C65.107875,91.4278169 43.302875,84.6130418 42.448875,85.477629 C41.593125,86.3457308 45.231375,94.8352044 45.875375,100.962879 C46.517625,107.09231 40.602625,144.339853 40.602625,144.339853 L40.606125,144.339853 L42.966875,144.339853 C42.966875,144.339853 50.003625,108.666843 49.781375,100.444478" id="Fill-32" fill="#323749"></path>
                                <path d="M19.3606,92.2964459 C19.3606,92.2964459 53.85835,90.8431661 84.80185,103.202195 C84.80185,103.202195 31.22035,117.764867 19.3606,92.2964459" id="Fill-34" fill="#EA3442"></path>
                                <path d="M20.499675,92.2655175 C19.733175,96.3740643 18.431175,103.343481 16.971675,111.186271 C16.128175,118.95877 15.582175,125.850866 15.293425,131.95921 C16.912175,133.076847 18.686675,134.104863 20.637925,135.018654 C25.375175,124.25876 32.396175,107.675204 33.134675,102.276805 C33.587925,98.9607968 33.670175,95.5217781 33.608925,92.5853445 C27.226675,92.2022551 22.538425,92.2268571 20.499675,92.2655175" id="Fill-36" fill="#D3243A"></path>
                                <path d="M40.291475,140.318117 C42.534975,140.599283 44.724225,140.785556 46.845225,140.88045 C48.640725,131.473671 53.099725,107.367151 52.922975,100.794882 C52.865225,98.6351708 52.590475,96.5281787 52.221225,94.586372 C47.181225,93.7973482 42.442225,93.2666463 38.221225,92.9134308 C38.523975,101.901975 39.342975,124.817052 40.291475,140.318117" id="Fill-38" fill="#D3243A"></path>
                                <path d="M18.083275,88.0404624 C18.083275,88.0404624 11.086775,125.451434 7.627025,144.340556 L13.160525,144.340556 C13.160525,144.340556 28.866775,110.148942 29.993775,101.926577 C31.117275,93.7059691 29.972775,84.6664634 29.972775,84.6664634 L18.083275,88.0404624 Z" id="Fill-40" fill="#323749"></path>
                                <path d="M34.954325,88.7405672 C34.954325,88.7405672 36.107575,125.452137 37.435825,144.341259 L42.967575,144.341259 C42.967575,144.341259 50.004325,108.666492 49.782075,100.444126 C49.561575,92.221761 46.240075,84.6671663 46.240075,84.6671663 C42.013825,84.4826508 38.281075,85.9376878 34.954325,88.7405672" id="Fill-42" fill="#3D4359"></path>
                                <path d="M49.781375,100.444478 L49.781375,100.430419 C50.194375,95.4432271 47.184375,86.2209632 47.184375,86.2209632 C47.184375,86.2209632 42.949375,84.9785583 42.448875,85.477629 C41.946625,85.9802143 45.306625,95.5433927 45.875375,100.962879 C46.517625,107.09231 40.602625,144.339853 40.602625,144.339853 L40.606125,144.339853 L42.966875,144.339853 C42.966875,144.339853 43.271375,142.589591 43.724625,139.835916 C45.082625,131.576648 49.947625,106.610812 49.781375,100.444478" id="Fill-44" fill="#323749"></path>
                                <path d="M30.428825,85.4524998 C30.428825,85.4524998 27.403075,85.1256436 26.853575,85.5860539 C26.305825,86.0447069 26.841325,98.466998 25.770325,103.629919 C24.848075,108.084652 13.142325,137.941029 10.933825,144.341084 L13.159825,144.341084 C16.024575,137.637018 29.016575,109.058192 29.993075,101.927104 C30.705325,96.7202506 31.557575,89.5838913 30.428825,85.4524998" id="Fill-46" fill="#2A2E3D"></path>
                                <path d="M58.8322,80.3264815 C58.8322,80.3264815 69.92895,82.7726307 80.1367,89.1076653 L79.62395,90.8034513 C79.62395,90.8034513 69.5072,83.5686836 58.8322,80.3264815" id="Fill-48" fill="#2A2E3D"></path>
                                <path d="M76.5373,24.8243735 C76.5373,24.8243735 75.5923,34.8497195 77.07805,39.729717 L64.4973,39.0812766 C64.4973,39.0812766 65.35655,37.4856562 65.4038,31.176981 C65.4668,22.358894 76.5373,24.8243735 76.5373,24.8243735" id="Fill-50" fill="#F4BE84"></path>
                                <path d="M62.673975,71.7596871 C62.673975,71.7596871 57.065225,71.903785 53.776975,72.5241087 C53.776975,72.5241087 51.687475,72.7437701 50.198225,73.5345512 C49.382725,73.9686021 47.924975,75.3059006 48.225975,75.8014567 C48.528725,76.2970129 49.433475,75.3305027 50.796725,74.6557029 C51.566725,74.276128 53.437475,74.0037479 53.510975,74.1267583 C53.586225,74.2462541 51.939475,74.7277519 51.253475,75.2268225 C50.677725,75.6450578 48.866475,77.7151468 49.267225,78.0929644 C49.800975,78.6025788 50.399475,77.5974083 51.969225,76.2759254 C52.530975,75.8717484 54.513725,75.2971142 54.609975,75.4517558 C54.704475,75.6046401 53.201225,76.1898181 52.714725,76.7644523 C52.226475,77.3355719 50.975225,78.9733673 51.461725,79.3670005 C51.946475,79.7606337 52.747975,78.4778112 53.607225,77.6659427 C54.070975,77.2266199 55.799975,76.4375961 55.862975,76.4780138 C55.927725,76.514917 55.197975,77.0473762 54.868975,77.6307968 C54.543475,78.2142175 54.081475,79.6587108 54.483975,79.7711775 C54.886475,79.8818868 55.127975,79.2018151 56.022225,78.0595759 C56.298725,77.7063604 57.404725,76.9155793 57.404725,76.9155793 C57.404725,76.9155793 60.862725,76.7978408 62.694975,74.6943633 C62.694975,74.6943633 63.652225,72.0918151 62.673975,71.7596871" id="Fill-52" fill="#E2A36A"></path>
                                <path d="M62.694625,74.6943633 L67.757375,76.4481399 L68.368125,71.8036194 L62.673625,71.7596871 C62.673625,71.7596871 61.560625,73.85965 62.694625,74.6943633" id="Fill-54" fill="#E2A36A"></path>
                                <path d="M60.912075,39.275633 C61.318075,40.3387941 63.073325,43.5001609 69.698825,44.0466784 C76.473075,44.6037397 81.252325,41.4827907 82.550825,40.5197951 C76.219325,38.6289498 67.413325,38.0349854 60.912075,39.275633" id="Fill-56" fill="#F4BE84"></path>
                                <path d="M87.761975,42.8640215 C95.092725,44.967499 96.489225,83.3502523 90.379975,84.5750843 C82.371975,86.1830057 69.568975,78.4860704 63.543725,75.725366 L63.874475,71.5201683 C63.874475,71.5201683 74.540725,71.2565746 83.311725,72.4392316 C83.311725,72.4392316 80.984225,40.9204575 87.761975,42.8640215" id="Fill-58" fill="#FFF2FA"></path>
                                <path d="M82.551175,40.5197951 C80.839675,40.0084234 78.940925,39.6024891 76.965175,39.2896913 C75.652675,34.2761396 76.536425,24.8236705 76.536425,24.8236705 C76.536425,24.8236705 73.524675,24.1646864 70.630175,24.777981 C68.600175,26.7110012 66.638425,29.0446839 65.392425,31.6489894 C65.341675,35.2461644 65.024925,37.2073013 64.783425,38.1878697 C66.193925,39.4724496 69.835675,42.1646196 76.447175,43.4140536 C79.588425,42.5494664 81.744425,41.1172741 82.551175,40.5197951" id="Fill-60" fill="#D17A4A"></path>
                                <polygon id="Fill-62" fill="#8394B4" points="16.33485 73.8396169 48.62235 77.6687543 44.7916 51.7188359 12.5041 47.8896985"></polygon>
                                <polygon id="Fill-64" fill="#A5C0D7" points="16.23755 76.1564296 61.29655 81.5442842 61.52755 79.5954483 16.46855 74.2075937"></polygon>
                                <polygon id="Fill-66" fill="#A5C0D7" points="16.316125 73.8035924 47.856375 77.5747392 44.100875 52.1379498 12.560625 48.3650457"></polygon>
                                <path d="M27.224575,62.3400793 C27.480075,63.5877561 28.757575,64.7247234 30.077075,64.8828796 C31.396575,65.0410358 32.259325,64.1588757 32.002075,62.911199 C31.748325,61.6652795 30.469075,60.5265549 29.151325,60.3683987 C27.831825,60.2102425 26.969075,61.0941599 27.224575,62.3400793" id="Fill-68" fill="#8394B4"></path>
                                <polygon id="Fill-70" fill="#A5C0D7" points="47.857075 77.5756179 44.101575 52.1370712 12.561325 48.3659244"></polygon>
                                <polygon id="Fill-72" fill="#8394B4" points="48.43825 80.0073574 61.29725 81.5449871 61.52825 79.5961513 48.66925 78.0585215"></polygon>
                                <polygon id="Fill-74" fill="#8394B4" points="38.638775 77.3491031 44.555525 78.0555341 44.657025 77.1997333 38.740275 76.491545"></polygon>
                                <polygon id="Fill-76" fill="#8394B4" points="18.38305 74.9259743 23.44755 75.5322397 23.54905 74.6746817 18.48455 74.0701735"></polygon>
                                <polygon id="Fill-78" fill="#BAD6F2" points="43.8564 52.4261456 12.6084 48.6883873 12.56115 48.3650457 44.1014 52.1379498 47.8569 77.5764965 47.56465 77.5413507"></polygon>
                                <path d="M57.5197,19.0272457 C57.5197,19.0272457 53.60145,14.5057355 53.95145,8.57136332 C54.30145,2.63874839 81.9987,-6.32695106 78.46545,7.96158329 C78.46545,7.96158329 65.58195,24.6980242 57.5197,19.0272457" id="Fill-80" fill="#8F4817"></path>
                                <path d="M75.2983,24.1070472 C75.1058,30.6758015 74.6753,30.5527912 69.4148,35.2183992 C68.2878,36.2200551 64.6128,36.5082509 63.5943,36.002151 C62.57405,35.4960512 62.44805,34.5225119 60.9728,32.3961896 C59.30505,29.9922153 58.3443,27.461716 58.1343,26.0400675 C57.85605,24.1404357 57.94705,22.8330111 57.7843,21.4816542 C57.4728,18.8826206 56.78155,16.591113 56.63105,13.6054753 C56.4823,10.6620126 59.8178,8.51284553 64.2383,8.2597956 C74.35505,7.68516139 74.6753,11.9290195 75.2983,24.1070472" id="Fill-82" fill="#F4BE84"></path>
                                <path d="M68.219725,35.1895796 C75.553975,29.6400541 73.144225,12.2059686 69.787725,9.92676199 C76.227725,10.6402222 75.585475,16.7362652 75.354475,25.480546 C75.151475,30.2463196 74.544225,31.6134921 69.140225,35.7009513 C67.983475,36.5760823 64.430975,36.5778396 63.491225,36.0155064 C63.344225,35.9276419 63.225225,35.8204471 63.118475,35.7027086 C64.472975,36.0436231 67.227475,35.9417002 68.219725,35.1895796" id="Fill-84" fill="#E2A36A"></path>
                                <path d="M62.804,18.2173102 C62.804,18.2173102 63.79625,18.9940329 64.1515,19.8744357 C65.9505,24.0620606 62.14075,24.7245593 62.4645,25.7525746 C62.9335,27.2497867 65.88225,26.4976661 65.88225,26.4976661 C65.64775,27.5555554 62.3315,27.5309533 61.894,26.0091391 C61.3795,24.2167022 65.24875,24.058546 63.81375,20.0712523 C63.56875,19.3876661 62.804,18.2173102 62.804,18.2173102" id="Fill-86" fill="#D38753"></path>
                                <path d="M75.146225,20.0157219 L75.093725,22.6305712 L74.069975,22.834417 C74.069975,22.834417 74.237975,11.0219058 70.979475,8.38596911 C70.979475,8.38596911 75.452475,7.54246935 75.146225,20.0157219" id="Fill-88" fill="#8F4817"></path>
                                <path d="M74.155025,9.53207439 C74.155025,9.53207439 73.147025,11.7884362 68.269775,10.1664565 C57.957025,6.73973875 56.600775,12.4526923 56.600775,12.4526923 C56.600775,12.4526923 57.601775,0.0497313396 74.155025,9.53207439" id="Fill-90" fill="#8F4817"></path>
                                <path d="M57.05315,18.4232647 C56.02765,17.0104026 53.67565,13.2322266 53.95215,8.57189051 C53.9714,8.21867499 54.0939,7.85491572 54.2899,7.48588458 C56.1239,4.40183861 66.3789,9.56476001 68.80615,10.3291817 C63.48965,8.65448319 60.6739,8.86887271 58.9904,9.7650912 C57.21415,10.9038159 56.9884,12.2850467 57.05315,18.4232647" id="Fill-92" fill="#873E16"></path>
                                <path d="M71.923075,18.8179523 C71.923075,18.8179523 69.501075,16.4420947 65.754325,17.0325445 L65.532075,15.2822825 C65.532075,15.2822825 69.894825,14.5371911 72.446325,18.0201421 L71.923075,18.8179523 Z" id="Fill-94" fill="#873E16"></path>
                                <path d="M57.27365,19.523329 C57.27365,19.523329 58.3744,17.6272118 61.13415,17.5252889 L60.5584,15.89628 C60.5584,15.89628 57.65515,15.8523478 56.93065,18.5497897 L57.27365,19.523329 Z" id="Fill-96" fill="#873E16"></path>
                                <path d="M73.8388,23.1939587 C74.0943,24.6384521 75.46805,25.6032049 76.90655,25.3483977 C78.3468,25.0918332 79.30755,23.7123596 79.05205,22.266109 C78.7983,20.8198584 77.42455,19.8568628 75.9843,20.11167 C74.54405,20.3682346 73.5833,21.7477081 73.8388,23.1939587" id="Fill-98" fill="#E2A36A"></path>
                                <path d="M76.075825,24.0863112 C76.746075,23.9299123 77.162575,23.258627 77.008575,22.5855845 C76.856325,21.9283576 76.215825,21.5241807 75.563075,21.6471911 C75.722325,21.525938 75.906075,21.4328015 76.112575,21.3853547 C76.905325,21.2008391 77.694575,21.6963952 77.876575,22.4906908 C78.060325,23.2849864 77.568575,24.0775247 76.775825,24.2620403 C76.401325,24.3481476 76.030325,24.272584 75.720575,24.0950976 C75.836075,24.1038841 75.955075,24.1144278 76.075825,24.0863112" id="Fill-100" fill="#D17A4A"></path>
                                <path d="M75.624675,20.1118458 C75.150425,20.7304123 74.989425,21.5809412 75.092675,22.6318013 L74.068925,22.8338898 C74.068925,22.8338898 74.177425,15.1246535 72.500925,10.7736006 C72.752925,10.9704172 74.579925,12.0529086 75.334175,12.4746584 C75.964175,15.5358596 75.621175,17.0734894 75.624675,20.1118458" id="Fill-102" fill="#873E16"></path>
                                <path d="M78.13015,6.75889323 C78.13015,6.75889323 79.5319,4.82060109 78.9194,3.09669847 C78.30865,1.37455314 76.6444,0.650549184 76.6444,0.650549184 C76.6444,0.650549184 80.88115,1.92985714 80.4839,3.81367326 C80.0569,6.25806525 78.13015,6.75889323 78.13015,6.75889323" id="Fill-104" fill="#8F4817"></path>
                                <path d="M71.176175,20.6147825 C71.176175,20.6147825 70.836675,21.2474073 69.662425,21.6832155 C68.710425,22.036431 67.705925,22.036431 67.119675,21.7781092 L71.176175,20.6147825 Z" id="Fill-106" fill="#6D3A31"></path>
                                <path d="M71.0549,20.659242 C68.02215,18.4309968 66.6939,19.9159078 66.6939,19.9159078 C66.60815,20.7049315 66.7639,21.3164689 67.11915,21.7786364 C68.35465,22.059803 70.05215,21.6819854 71.0549,20.659242" id="Fill-108" fill="#F7EEE2"></path>
                                <path d="M66.189375,19.6227916 C66.189375,19.6227916 69.264125,18.1115213 71.176875,20.6314768 L71.054375,20.6595934 C71.054375,20.6595934 68.928125,18.8900012 66.693375,19.9162593 L66.189375,19.6227916 Z" id="Fill-110" fill="#6D3A31"></path>
                            </g>
                            <g id="Group-115" transform="translate(66.000000, 19.000000)">
                                <mask id="mask-8" fill="white">
                                    <use xlink:href="#path-7"></use>
                                </mask>
                                <g id="Clip-114"></g>
                                <path d="M3.8424,1.8134 C3.9464,2.7034 3.3104,3.4114 2.4224,3.3954 C1.5364,3.3794 0.7304,2.6454 0.6284,1.7554 C0.5224,0.8634 1.1564,0.1554 2.0464,0.1734 C2.9344,0.1894 3.7364,0.9234 3.8424,1.8134" id="Fill-113" fill="#6D3A31" mask="url(#mask-8)"></path>
                            </g>
                            <g id="Group-122" transform="translate(57.000000, 19.000000)">
                                <path d="M5.561,2.5458 C5.561,2.5458 5.169,3.3138 3.895,3.7018 C2.761,4.0498 2.019,4.0198 1.339,3.7078 L5.561,2.5458 Z" id="Fill-116" fill="#6D3A31"></path>
                                <path d="M5.4184,2.5966 C1.9224,-0.0774 0.8844,1.5246 0.8844,1.5246 C0.7664,2.4446 0.9344,3.1606 1.3384,3.7086 C2.7784,4.0646 4.2164,3.7626 5.4184,2.5966" id="Fill-118" fill="#F7EEE2"></path>
                                <path d="M0.192,1.3544 C0.192,1.3544 3.704,-0.3996 5.562,2.5644 L5.418,2.5964 C5.418,2.5964 3.528,0.5644 0.866,1.5884 L0.192,1.3544 Z" id="Fill-120" fill="#6D3A31"></path>
                            </g>
                            <g id="Group-125" transform="translate(57.000000, 20.000000)">
                                <mask id="mask-10" fill="white">
                                    <use xlink:href="#path-9"></use>
                                </mask>
                                <g id="Clip-124"></g>
                                <path d="M4.5708,1.7784 C4.6588,2.6924 3.9928,3.4044 3.0828,3.3704 C2.1748,3.3324 1.3648,2.5644 1.2788,1.6504 C1.1908,0.7364 1.8568,0.0224 2.7668,0.0604 C3.6748,0.0944 4.4828,0.8644 4.5708,1.7784" id="Fill-123" fill="#6D3A31" mask="url(#mask-10)"></path>
                            </g>
                            <g id="Group-140" transform="translate(59.000000, 27.000000)">
                                <path d="M34.328875,32.9237336 C35.013125,43.3307625 33.791625,54.3015716 30.531375,54.956966 C22.565375,56.5602157 10.210375,49.9833681 4.150125,47.187371 L4.045125,48.5422051 C10.068625,51.311775 22.871625,59.0267538 30.879625,57.414695 C34.334125,56.7223025 35.385875,44.1253401 34.328875,32.9237336" id="Fill-126" fill="#DFCED6"></path>
                                <path d="M9.2512,1.57914368 C9.29495,1.67075796 9.5767,1.60380906 9.65895,1.5544783 C9.7447,1.50514754 9.7762,1.39239151 9.72895,1.30253905 C9.68345,1.21092478 9.57845,1.17745034 9.4927,1.22854291 C9.4087,1.27611186 9.2057,1.48929122 9.2512,1.57914368" id="Fill-128" fill="#6D3A31"></path>
                                <path d="M2.025625,2.33284725 C1.978375,2.42269971 1.701875,2.34694176 1.619625,2.29584918 C1.537375,2.24299479 1.507625,2.13023877 1.554875,2.04214812 C1.605625,1.95229566 1.710625,1.92410665 1.794625,1.97519923 C1.876875,2.0262918 2.074625,2.24475661 2.025625,2.33284725" id="Fill-130" fill="#6D3A31"></path>
                                <path d="M9.4528,1.45881186 L1.8403,2.26043674 C1.8403,2.26043674 3.3243,4.55607898 5.76205,4.35347049 C8.1998,4.14733838 9.4528,1.45881186 9.4528,1.45881186" id="Fill-132" fill="#9A6335"></path>
                                <path d="M9.4528,1.45881186 L1.8403,2.26043674 C1.8403,2.26043674 3.3243,4.55607898 5.76205,4.35347049 C8.1998,4.14733838 9.4528,1.45881186 9.4528,1.45881186" id="Fill-134" fill="#6D3A31"></path>
                                <path d="M8.9145,1.74087811 L2.751,2.37865439 C2.751,2.37865439 4.14575,4.3571703 6.1705,3.97309508 C8.19175,3.58901986 8.9145,1.74087811 8.9145,1.74087811" id="Fill-136" fill="#F7EEE2"></path>
                                <path d="M8.9145,1.74087811 L2.751,2.37865439 L3.14475,2.83496393 C3.14475,2.83496393 3.7695,2.36455988 5.79775,2.19718766 C7.826,2.0262918 8.66425,2.21304397 8.66425,2.21304397 C8.66425,2.21304397 8.84625,1.88006133 8.9145,1.74087811" id="Fill-138" fill="#D5B698"></path>
                            </g>
                        </g>
                    </g>
                </g>
            </g>
        </g>
    </g>
</svg>