<?xml version="1.0" encoding="UTF-8"?>
<svg width="120px" height="135px" viewBox="0 0 120 135" version="1.1" xmlns="http://www.w3.org/2000/svg" xmlns:xlink="http://www.w3.org/1999/xlink">
    <title>t2</title>
    <defs>
        <polygon id="path-1" points="0.153878151 0.516653409 11.5050803 0.516653409 11.5050803 6.67045455 0.153878151 6.67045455"></polygon>
        <polygon id="path-3" points="0.698350913 0.516653409 8.13031144 0.516653409 8.13031144 6.67045455 0.698350913 6.67045455"></polygon>
        <polygon id="path-5" points="0 134 119.843077 134 119.843077 0.165909091 0 0.165909091"></polygon>
    </defs>
    <g id="Page-1" stroke="none" stroke-width="1" fill="none" fill-rule="evenodd">
        <g id="hiring" transform="translate(-661.000000, -920.000000)">
            <g id="Group" transform="translate(552.000000, 879.000000)">
                <g id="service1">
                    <g id="Path-2">
                        <g id="t2" transform="translate(109.000000, 41.000000)">
                            <polygon id="Fill-1" fill="#D38753" points="68.1975191 66.2852377 70.2585878 66 71 67.4962469 69.5271947 68 68.3921756 67.8432027 68 67.4778982"></polygon>
                            <g id="Group-126">
                                <path d="M73.3958462,67.1381818 C73.3958462,67.1381818 70.8896923,65.8157955 70.322,65.7344886 C69.7543077,65.6547159 68.0589231,66.2177273 67.9127692,66.4723864 C67.7666154,66.7270455 67.5466154,67.8776136 67.7527692,67.9896023 C67.9558462,68.1000568 68.2112308,67.8622727 68.4373846,66.8497727 C68.4373846,66.8497727 69.5804615,66.7071023 69.8727692,66.7761364 C70.1666154,66.8451705 70.5296923,67.1719318 70.5450769,67.4496023 C70.5604615,67.7272727 73.3727692,67.6843182 73.3727692,67.6843182 L73.3958462,67.1381818 Z" id="Fill-2" fill="#E2A36A"></path>
                                <polygon id="Fill-4" fill="#3C3C51" points="68.0824615 67.769 67.8593846 68.5115 68.5855385 68.2322955 73.0901538 63.2894545 72.6778462 62.9105341"></polygon>
                                <path d="M72.8075385,62.9321648 C72.7029231,63.0456875 72.6752308,63.188358 72.7444615,63.2512557 C72.8136923,63.3156875 72.9536923,63.2758011 73.0583077,63.1622784 C73.1613846,63.0502898 73.1906154,62.9060852 73.1213846,62.8431875 C73.0521538,62.7802898 72.9106154,62.8201761 72.8075385,62.9321648" id="Fill-6" fill="#3C3C51"></path>
                                <polygon id="Fill-8" fill="#3C3C51" points="67.7730769 68.5636591 67.8161538 68.6035455 67.9853846 68.4547386 67.9084615 68.3841705"></polygon>
                                <path d="M70.5449231,67.4499091 C70.5033846,67.6922955 70.0710769,67.6723523 69.5172308,67.7536591 C69.1172308,67.8119545 68.5510769,67.9991136 68.5326154,68.1417841 C68.4972308,68.4470682 69.0649231,68.5022955 69.6095385,68.4194545 C70.3049231,68.3136023 70.2756923,68.2353636 70.708,68.2660455 C71.5710769,68.3274091 72.8233846,68.3580909 73.3756923,67.8365 L73.388,67.3210455 C73.388,67.3210455 70.5864615,67.2136591 70.5449231,67.4499091" id="Fill-10" fill="#E2A36A"></path>
                                <path d="M95.2084615,65.4611136 C95.2084615,65.4611136 89.93,65.0208295 72.9361538,66.6224205 L72.9361538,69.2349773 C72.9361538,69.2349773 86.4746154,71.4118523 93.4623077,70.6862273 C100.448462,69.9606023 95.2084615,65.4611136 95.2084615,65.4611136" id="Fill-12" fill="#E5C2B8"></path>
                                <path d="M37.4364615,85.9481307 C25.9795385,85.9481307 22.158,66.6461989 22.158,61.4625057 C22.158,61.3413125 22.2564615,61.2431307 22.3764615,61.2431307 C22.498,61.2431307 22.5964615,61.3413125 22.5964615,61.4625057 C22.5964615,66.5541534 26.3072308,85.5124489 37.4364615,85.5124489 C44.6549231,85.5124489 46.4333846,79.658358 47.8641538,74.9563693 C48.738,72.081483 49.4287692,69.8094943 51.1872308,69.6990398 C51.2887692,69.6913693 51.4103077,69.7818807 51.418,69.9030739 C51.4256923,70.022733 51.3349231,70.1270511 51.2133846,70.1331875 C49.758,70.225233 49.1056923,72.368358 48.2810769,75.0821648 C46.8872308,79.6675625 44.978,85.9481307 37.4364615,85.9481307" id="Fill-14" fill="#33323D"></path>
                                <g id="Group-18" transform="translate(49.230769, 127.329545)">
                                    <mask id="mask-2" fill="white">
                                        <use xlink:href="#path-1"></use>
                                    </mask>
                                    <g id="Clip-17"></g>
                                    <path d="M9.28969231,1.44119886 C9.28969231,1.44119886 7.85430769,3.39102841 4.85584615,4.56307386 C1.85584615,5.73205114 0.0296923077,5.46972159 0.160461538,6.25210795 C0.291230769,7.03296023 11.5035385,6.64176705 11.5050803,5.73205114 C11.5066154,4.82233523 10.9850769,3.52142614 11.1158462,1.44119886 C11.2450769,-0.639028409 9.28969231,1.44119886 9.28969231,1.44119886" id="Fill-16" fill="#2D313D" mask="url(#mask-2)"></path>
                                </g>
                                <g id="Group-21" transform="translate(64.615385, 127.329545)">
                                    <mask id="mask-4" fill="white">
                                        <use xlink:href="#path-3"></use>
                                    </mask>
                                    <g id="Clip-20"></g>
                                    <path d="M6.12569231,1.44119886 C6.12569231,1.44119886 6.22107692,3.39102841 3.50723077,4.56307386 C0.793384615,5.73205114 0.605692308,5.46972159 0.724153846,6.25210795 C0.841076923,7.03296023 8.13031144,6.64176705 8.13031144,5.73205114 C8.13184615,4.82233523 7.65953846,3.52142614 7.778,1.44119886 C7.89492308,-0.639028409 6.12569231,1.44119886 6.12569231,1.44119886" id="Fill-19" fill="#2D313D" mask="url(#mask-4)"></path>
                                </g>
                                <path d="M84.2889231,22.5694659 C84.0412308,25.5824205 83.1135385,26.3724773 83.412,26.9385568 C83.712,27.5046364 85.9366154,27.6994659 85.9366154,27.6994659 C85.9366154,27.6994659 84.7150769,23.4515682 84.2889231,22.5694659" id="Fill-22" fill="#D38753"></path>
                                <path d="M84.5947692,25.0129659 C84.7947692,24.9914886 84.9993846,24.9362614 85.2101538,24.84575 C85.3286154,24.795125 85.384,24.6585909 85.3332308,24.5389318 C85.2824615,24.4208068 85.1470769,24.3625114 85.0255385,24.4177386 C84.5993846,24.6002955 84.224,24.6018295 83.8763077,24.4284773 C82.9455385,23.9590455 82.5624615,22.3758636 82.5593846,22.3605227 C82.5286154,22.2347273 82.4132308,22.1595568 82.2778462,22.1856364 C82.1516923,22.2147841 82.0732308,22.3405795 82.1024615,22.466375 C82.1209231,22.5400114 82.5378462,24.2766023 83.6655385,24.8442159 C83.9563077,24.9914886 84.2686154,25.0467159 84.5947692,25.0129659" id="Fill-24" fill="#363942"></path>
                                <path d="M83.1516923,10.9333864 C83.1516923,10.9333864 81.9086154,11.7004318 82.6901538,17.0605455 C82.8901538,18.4304886 83.6593846,21.0813977 84.2701538,23.0051477 C85.0009231,26.72225 83.7301538,26.7590682 87.6932308,34.4264545 C87.6932308,34.4264545 91.0286154,34.7992386 96.6686154,31.1220227 L83.1516923,10.9333864 Z" id="Fill-26" fill="#F4BE84"></path>
                                <path d="M91.3315385,25.9642557 C92.7823077,31.758517 89.7869231,32.8308466 87.6930769,34.4278352 C87.6930769,34.4278352 89.7807692,34.9755057 93.8315385,32.7679489 L93.4807692,22.3269261 L91.3315385,25.9642557 Z" id="Fill-28" fill="#D38753"></path>
                                <path d="M83.646,13.3597045 C83.646,13.3597045 87.2013846,16.7255 87.8383077,24.8331705 L89.5244615,24.7871477 C89.5244615,24.7871477 88.8383077,22.6133409 89.486,21.5778295 L86.2106154,12.1815227 L83.646,13.3597045 Z" id="Fill-30" fill="#8F4817"></path>
                                <path d="M101.015231,30.5215795 C100.350615,33.1341364 101.381385,37.836125 101.873692,39.2168068 L91.0798462,39.9746477 L91.5798462,30.9066364 C91.5936923,29.6087955 93.0890769,28.0593636 93.0367692,26.6756136 L101.015231,30.5215795 Z" id="Fill-32" fill="#D38753"></path>
                                <path d="M85.068,14.5386534 C85.068,14.5386534 81.588,14.4910966 80.7295385,12.5888239 C80.448,11.967517 79.0772308,10.1511534 83.5803077,7.96353977 C87.8433846,5.89405114 97.8618462,2.76450568 100.471077,5.57649432 C104.718769,8.35780114 106.340308,12.573483 105.995692,17.3092216 C105.581846,23.8889375 102.349538,27.288483 101.141846,30.2814943 C99.2372308,33.2346193 95.9356923,32.688483 91.908,28.0202443 C90.4110769,21.771892 87.1110769,20.8805852 85.068,14.5386534" id="Fill-34" fill="#8F4817"></path>
                                <path d="M84.7629231,20.4361591 C84.866,20.2612727 84.7983077,19.9237727 84.6629231,19.7964432 C84.2490769,19.5693977 83.4244615,19.2610455 83.0090769,19.4497386 C82.8844615,19.5065 82.9783077,19.9820682 83.0475385,20.1047955 C83.286,20.535875 84.306,20.6417273 84.7629231,20.4361591" id="Fill-36" fill="#8F4817"></path>
                                <path d="M81.5606154,6.15208523 C82.1836923,8.87202841 90.8775385,2.92435795 94.5929231,2.88907386 C97.4006154,2.86146023 99.4990769,3.64691477 100.452923,5.41572159 C100.699077,4.76526705 101.003692,3.73742614 100.862154,2.88753977 C100.634462,1.52680114 99.2821538,0.1660625 99.2821538,0.1660625 C99.2821538,0.1660625 103.091385,2.13276705 101.611385,4.71157386 C101.292923,5.26538068 101.056,5.61822159 100.862154,5.8698125 C102.951385,7.34100568 106.551385,11.5781648 102.674462,14.2060625 C97.1944615,17.9216307 85.656,15.9549261 84.5713846,14.5067443 C80.7252308,14.4868011 75.5990769,8.99322159 81.5606154,6.15208523" id="Fill-38" fill="#995221"></path>
                                <path d="M92.3253846,26.0240852 C92.3930769,26.0164148 92.4592308,25.9795966 92.4976923,25.9166989 C92.5315385,25.8645398 93.2869231,24.6464716 92.9361538,23.5158466 C92.7561538,22.931358 92.3192308,22.4849375 91.6376923,22.188858 C89.4946154,21.2591989 82.5915385,22.1443693 82.3007692,22.1811875 C82.1715385,22.1980625 82.0823077,22.3146534 82.0992308,22.443517 C82.1161538,22.5708466 82.2269231,22.6506193 82.3607692,22.644483 C82.4361538,22.6337443 89.4253846,21.7378352 91.45,22.6168693 C92.0007692,22.8561875 92.35,23.2044261 92.4884615,23.6523807 C92.7761538,24.5759034 92.11,25.6574375 92.1023077,25.6681761 C92.0346154,25.7770966 92.0669231,25.9213011 92.1761538,25.9903352 C92.2223077,26.019483 92.2746154,26.0286875 92.3253846,26.0240852" id="Fill-40" fill="#363942"></path>
                                <path d="M92.2952308,23.8375455 C92.306,25.2044205 91.4767692,26.2782841 90.4413846,26.2368636 C89.406,26.1954432 88.5567692,25.0540795 88.546,23.6872045 C88.5336923,22.3187955 89.3644615,21.2449318 90.3998462,21.2863523 C91.4336923,21.3277727 92.2829231,22.4691364 92.2952308,23.8375455" id="Fill-42" fill="#F4BE84"></path>
                                <path d="M90.092,24.9927159 C90.592,25.0126591 90.992,24.4941364 90.9858462,23.8344773 C90.9812308,23.1748182 90.572,22.6240795 90.072,22.6041364 C89.8843077,22.5964659 89.7196923,22.6839091 89.5766154,22.8081705 C89.7750769,22.4952159 90.0673846,22.2911818 90.4089231,22.3049886 C91.0181538,22.3295341 91.5166154,23.0014659 91.5243077,23.8068636 C91.532,24.6107273 91.0427692,25.2443068 90.4335385,25.2197614 C90.1950769,25.2105568 89.9858462,25.0816932 89.8027692,24.9037386 C89.8950769,24.9497614 89.9904615,24.9881136 90.092,24.9927159" id="Fill-44" fill="#D38753"></path>
                                <mask id="mask-6" fill="white">
                                    <use xlink:href="#path-5"></use>
                                </mask>
                                <g id="Clip-47"></g>
                                <polygon id="Fill-46" fill="#33323D" mask="url(#mask-6)" points="48.2476923 70.1986932 79.2215385 70.1986932 79.2215385 69.4561932 48.2476923 69.4561932"></polygon>
                                <polygon id="Fill-48" fill="#33323D" mask="url(#mask-6)" points="51.0907692 69.5789205 54.0384615 69.5789205 54.0384615 69.2291477 51.0907692 69.2291477"></polygon>
                                <polygon id="Fill-49" fill="#33323D" mask="url(#mask-6)" points="55.84 69.5789205 58.7876923 69.5789205 58.7876923 69.2291477 55.84 69.2291477"></polygon>
                                <polygon id="Fill-50" fill="#C48C58" mask="url(#mask-6)" points="3.85538462 134 6.01538462 134 6.01538462 72.1669318 3.85538462 72.1669318"></polygon>
                                <polygon id="Fill-51" fill="#A8693F" mask="url(#mask-6)" points="104.812308 134 106.972308 134 106.972308 72.1669318 104.812308 72.1669318"></polygon>
                                <polygon id="Fill-52" fill="#C48C58" mask="url(#mask-6)" points="30.5953846 134 31.88 134 31.88 72.1669318 30.5953846 72.1669318"></polygon>
                                <polygon id="Fill-53" fill="#A8693F" mask="url(#mask-6)" points="31.88 134 33.1646154 134 33.1646154 72.1669318 31.88 72.1669318"></polygon>
                                <polygon id="Fill-54" fill="#C48C58" mask="url(#mask-6)" points="3.85538462 78.6254545 31.88 78.6254545 31.88 72.3510227 3.85538462 72.3510227"></polygon>
                                <polygon id="Fill-55" fill="#9E623A" mask="url(#mask-6)" points="78.8676923 134 81.0276923 134 81.0276923 72.1669318 78.8676923 72.1669318"></polygon>
                                <polygon id="Fill-56" fill="#A8693F" mask="url(#mask-6)" points="31.8784615 78.6254545 106.972308 78.6254545 106.972308 72.3510227 31.8784615 72.3510227"></polygon>
                                <polygon id="Fill-57" fill="#D39B67" mask="url(#mask-6)" points="0 74.3023864 32.6815385 74.3023864 32.6815385 70.1864205 0 70.1864205"></polygon>
                                <polygon id="Fill-58" fill="#B7784E" mask="url(#mask-6)" points="31.84 74.3023864 111.310769 74.3023864 111.310769 70.1864205 31.84 70.1864205"></polygon>
                                <polygon id="Fill-59" fill="#E8AB73" mask="url(#mask-6)" points="0 71.0378409 111.310769 71.0378409 111.310769 70.1864205 0 70.1864205"></polygon>
                                <polygon id="Fill-60" fill="#767284" mask="url(#mask-6)" points="10.6636923 27.2772841 10.6636923 62.9402955 17.9144615 62.9402955 32.9267692 62.9402955 32.9267692 68.8020568 26.3944615 68.8020568 26.3944615 70.1996136 42.8206154 70.1996136 42.8206154 68.8020568 36.3406154 68.8020568 36.3406154 62.9402955 50.8021538 62.9402955 58.7006154 62.9402955 58.7006154 27.2772841"></polygon>
                                <polygon id="Fill-61" fill="#33323D" mask="url(#mask-6)" points="12.4123077 62.9608523 58.7015385 62.9608523 58.7015385 27.2763636 12.4123077 27.2763636"></polygon>
                                <polygon id="Fill-62" fill="#2E2D38" mask="url(#mask-6)" points="34.1953846 69.4546591 38.1615385 69.4546591 38.1615385 57.7633523 34.1953846 57.7633523"></polygon>
                                <polygon id="Fill-63" fill="#2E2D38" mask="url(#mask-6)" points="27.7169231 70.1986932 44.6415385 70.1986932 44.6415385 68.8241477 27.7169231 68.8241477"></polygon>
                                <polygon id="Fill-64" fill="#24C6E0" mask="url(#mask-6)" points="14.2230769 61.5648295 56.8892308 61.5648295 56.8892308 28.6739205 14.2230769 28.6739205"></polygon>
                                <polygon id="Fill-65" fill="#A4EEFF" mask="url(#mask-6)" points="14.2230769 61.5924432 56.8892308 61.5924432 56.8892308 60.0107955 14.2230769 60.0107955"></polygon>
                                <polygon id="Fill-66" fill="#A4EEFF" mask="url(#mask-6)" points="14.2230769 30.2555682 56.8892308 30.2555682 56.8892308 28.6739205 14.2230769 28.6739205"></polygon>
                                <polygon id="Fill-67" fill="#323749" mask="url(#mask-6)" points="15.7892308 56.2645455 46.7523077 56.2645455 46.7523077 32.7929545 15.7892308 32.7929545"></polygon>
                                <polygon id="Fill-68" fill="#3D4359" mask="url(#mask-6)" points="15.7892308 56.2645455 46.7523077 56.2645455 46.7523077 34.8409659 15.7892308 34.8409659"></polygon>
                                <path d="M46.1210769,33.7560568 C46.1210769,34.0168523 45.9087692,34.2285568 45.6472308,34.2285568 C45.3841538,34.2285568 45.1733846,34.0168523 45.1733846,33.7560568 C45.1733846,33.4952614 45.3841538,33.2835568 45.6472308,33.2835568 C45.9087692,33.2835568 46.1210769,33.4952614 46.1210769,33.7560568" id="Fill-69" fill="#F72F5A" mask="url(#mask-6)"></path>
                                <path d="M44.778,33.7560568 C44.778,34.0168523 44.5656923,34.2285568 44.3041538,34.2285568 C44.0426154,34.2285568 43.8303077,34.0168523 43.8303077,33.7560568 C43.8303077,33.4952614 44.0426154,33.2835568 44.3041538,33.2835568 C44.5656923,33.2835568 44.778,33.4952614 44.778,33.7560568" id="Fill-70" fill="#AEDD2C" mask="url(#mask-6)"></path>
                                <path d="M43.3958462,33.7560568 C43.3958462,34.0168523 43.1835385,34.2285568 42.922,34.2285568 C42.6604615,34.2285568 42.4481538,34.0168523 42.4481538,33.7560568 C42.4481538,33.4952614 42.6604615,33.2835568 42.922,33.2835568 C43.1835385,33.2835568 43.3958462,33.4952614 43.3958462,33.7560568" id="Fill-71" fill="#FFDA24" mask="url(#mask-6)"></path>
                                <polygon id="Fill-72" fill="#323749" mask="url(#mask-6)" points="45.5661538 56.2645455 46.7523077 56.2645455 46.7523077 34.8409659 45.5661538 34.8409659"></polygon>
                                <polygon id="Fill-73" fill="#7C788E" mask="url(#mask-6)" points="45.7261538 45.0794886 46.5938462 45.0794886 46.5938462 43.1894886 45.7261538 43.1894886"></polygon>
                                <polygon id="Fill-74" fill="#A6A4BC" mask="url(#mask-6)" points="17.3692308 37.5179545 31.0338462 37.5179545 31.0338462 35.7859659 17.3692308 35.7859659"></polygon>
                                <polygon id="Fill-75" fill="#7C788E" mask="url(#mask-6)" points="17.3692308 39.786875 43.6723077 39.786875 43.6723077 39.0934659 17.3692308 39.0934659"></polygon>
                                <polygon id="Fill-76" fill="#7C788E" mask="url(#mask-6)" points="17.3692308 41.4881818 43.6723077 41.4881818 43.6723077 40.7947727 17.3692308 40.7947727"></polygon>
                                <polygon id="Fill-77" fill="#7C788E" mask="url(#mask-6)" points="17.3692308 43.1894886 27.9538462 43.1894886 27.9538462 42.4960795 17.3692308 42.4960795"></polygon>
                                <polygon id="Fill-78" fill="#7C788E" mask="url(#mask-6)" points="17.3692308 46.0091477 43.6723077 46.0091477 43.6723077 45.3157386 17.3692308 45.3157386"></polygon>
                                <polygon id="Fill-79" fill="#7C788E" mask="url(#mask-6)" points="17.3692308 47.7104545 43.6723077 47.7104545 43.6723077 47.0170455 17.3692308 47.0170455"></polygon>
                                <polygon id="Fill-80" fill="#7C788E" mask="url(#mask-6)" points="17.3692308 52.2467614 43.6723077 52.2467614 43.6723077 51.5533523 17.3692308 51.5533523"></polygon>
                                <polygon id="Fill-81" fill="#7C788E" mask="url(#mask-6)" points="17.3692308 53.9480682 43.6723077 53.9480682 43.6723077 53.2546591 17.3692308 53.2546591"></polygon>
                                <polygon id="Fill-82" fill="#7C788E" mask="url(#mask-6)" points="17.3676923 49.4117614 36.0092308 49.4117614 36.0092308 48.7183523 17.3676923 48.7183523"></polygon>
                                <polygon id="Fill-83" fill="#323749" mask="url(#mask-6)" points="47.6461538 58.4046023 55.6523077 58.4046023 55.6523077 47.6628977 47.6461538 47.6628977"></polygon>
                                <polygon id="Fill-84" fill="#3D4359" mask="url(#mask-6)" points="47.6461538 58.4046023 55.6523077 58.4046023 55.6523077 49.4777273 47.6461538 49.4777273"></polygon>
                                <polygon id="Fill-85" fill="#323749" mask="url(#mask-6)" points="54.5615385 58.4046023 55.6523077 58.4046023 55.6523077 49.4777273 54.5615385 49.4777273"></polygon>
                                <path d="M55.2129231,48.6069773 C55.2129231,48.8677727 55.0006154,49.0794773 54.7390769,49.0794773 C54.476,49.0794773 54.2652308,48.8677727 54.2652308,48.6069773 C54.2652308,48.3461818 54.476,48.1344773 54.7390769,48.1344773 C55.0006154,48.1344773 55.2129231,48.3461818 55.2129231,48.6069773" id="Fill-86" fill="#F72F5A" mask="url(#mask-6)"></path>
                                <path d="M53.8698462,48.6069773 C53.8698462,48.8677727 53.6575385,49.0794773 53.396,49.0794773 C53.1344615,49.0794773 52.9221538,48.8677727 52.9221538,48.6069773 C52.9221538,48.3461818 53.1344615,48.1344773 53.396,48.1344773 C53.6575385,48.1344773 53.8698462,48.3461818 53.8698462,48.6069773" id="Fill-87" fill="#AEDD2C" mask="url(#mask-6)"></path>
                                <path d="M52.4875385,48.6069773 C52.4875385,48.8677727 52.2752308,49.0794773 52.0136923,49.0794773 C51.7521538,49.0794773 51.5398462,48.8677727 51.5398462,48.6069773 C51.5398462,48.3461818 51.7521538,48.1344773 52.0136923,48.1344773 C52.2752308,48.1344773 52.4875385,48.3461818 52.4875385,48.6069773" id="Fill-88" fill="#FFDA24" mask="url(#mask-6)"></path>
                                <polygon id="Fill-89" fill="#7C788E" mask="url(#mask-6)" points="48.3923077 50.6574432 51.0123077 50.6574432 51.0123077 50.0039205 48.3923077 50.0039205"></polygon>
                                <polygon id="Fill-90" fill="#7C788E" mask="url(#mask-6)" points="48.3923077 51.7481818 53.7969231 51.7481818 53.7969231 51.4735795 48.3923077 51.4735795"></polygon>
                                <polygon id="Fill-91" fill="#7C788E" mask="url(#mask-6)" points="48.3923077 52.4553977 53.7969231 52.4553977 53.7969231 52.1807955 48.3923077 52.1807955"></polygon>
                                <polygon id="Fill-92" fill="#7C788E" mask="url(#mask-6)" points="48.3923077 53.1610795 53.7969231 53.1610795 53.7969231 52.8864773 48.3923077 52.8864773"></polygon>
                                <polygon id="Fill-93" fill="#7C788E" mask="url(#mask-6)" points="48.3923077 54.738125 51.0123077 54.738125 51.0123077 54.0846023 48.3923077 54.0846023"></polygon>
                                <polygon id="Fill-94" fill="#7C788E" mask="url(#mask-6)" points="48.3923077 55.8273295 53.7969231 55.8273295 53.7969231 55.5527273 48.3923077 55.5527273"></polygon>
                                <polygon id="Fill-95" fill="#7C788E" mask="url(#mask-6)" points="48.3923077 56.5345455 53.7969231 56.5345455 53.7969231 56.2599432 48.3923077 56.2599432"></polygon>
                                <polygon id="Fill-96" fill="#7C788E" mask="url(#mask-6)" points="48.3923077 57.2402273 53.7969231 57.2402273 53.7969231 56.965625 48.3923077 56.965625"></polygon>
                                <polygon id="Fill-97" fill="#7C788E" mask="url(#mask-6)" points="54.8338462 55.3379545 55.3246154 55.3379545 55.3246154 53.759375 54.8338462 53.759375"></polygon>
                                <polygon id="Fill-98" fill="#FFFFFF" mask="url(#mask-6)" points="14.2229231 61.5651364 14.2229231 28.6742273 56.8890769 28.6742273"></polygon>
                                <path d="M69.3918462,129.131869 C67.6072308,106.485619 64.5318462,85.1893693 67.8041538,82.1227216 C72.6026154,77.6263011 92.8964615,78.0006193 92.8964615,78.0006193 L76.5687692,91.3303352 C76.5687692,91.3303352 77.678,94.6991989 78.0903077,102.966415 C78.5026154,111.233631 73.9241538,129.131869 73.9241538,129.131869 L69.3918462,129.131869 Z" id="Fill-99" fill="#46526B" mask="url(#mask-6)"></path>
                                <path d="M57.0187692,129.131869 C55.2341538,106.485619 48.688,82.602892 52.6372308,80.4720398 C55.6495385,78.8474375 78.0156923,78.6940284 78.0156923,78.6940284 L82.368,76.5861875 L99.3541538,79.2861875 C99.3541538,79.2861875 101.846462,90.5218693 92.2664615,91.9915284 C82.6864615,93.4611875 62.8372308,91.3303352 62.8372308,91.3303352 C62.8372308,91.3303352 64.5787692,94.3509602 64.9910769,102.616642 C65.4033846,110.883858 61.5510769,129.131869 61.5510769,129.131869 L57.0187692,129.131869 Z" id="Fill-100" fill="#667591" mask="url(#mask-6)"></path>
                                <path d="M61.5515385,129.131869 C61.5515385,129.131869 65.4023077,110.883858 64.99,102.616642 C64.5776923,94.3509602 62.8376923,91.3303352 62.8376923,91.3303352 C62.8376923,91.3303352 82.6869231,93.4611875 92.2653846,91.9915284 C95.2007692,91.5420398 96.9946154,90.1705625 98.0823077,88.490733 L91.5023077,79.6344261 C81.5669231,89.1059034 58.6392308,86.0561307 57.9853846,86.9274943 C57.33,87.798858 60.6053846,94.0042557 61.8069231,104.020335 C62.8730769,112.921131 60.2376923,126.264653 59.6376923,129.131869 L61.5515385,129.131869 Z" id="Fill-101" fill="#505E77" mask="url(#mask-6)"></path>
                                <path d="M76.182,78.4364545 C76.182,78.4364545 80.0543077,76.6078182 81.8973846,71.7033295 C83.742,66.7988409 79.7450769,50.8212841 81.9250769,43.7813409 C83.6773846,38.1190114 93.5296923,38.7587273 97.4235385,38.5546932 C101.317385,38.3506591 109.463538,40.4278182 110.449692,44.0237273 C112.815846,52.6499205 113.340462,82.40975 103.183538,90.4345795 C98.4604615,94.1670227 81.3481538,93.3508864 76.182,78.4364545" id="Fill-102" fill="#F4E2D4" mask="url(#mask-6)"></path>
                                <path d="M103.184,90.4350398 C113.340923,82.4102102 112.814769,52.6503807 110.450154,44.0241875 C109.464,40.4267443 101.317846,38.3511193 97.424,38.5551534 C93.6578462,38.7530511 84.3378462,38.177767 82.1455385,43.2617443 L85.4978462,47.627767 C85.4978462,47.627767 89.5870769,64.9706648 87.6070769,77.8923125 C86.7501538,83.4978807 82.2993846,84.398392 80.1286154,85.3234489 C87.2624615,93.492483 99.3347692,93.475608 103.184,90.4350398" id="Fill-103" fill="#EDCCC1" mask="url(#mask-6)"></path>
                                <path d="M61.3149231,68.5839091 C61.3149231,68.5839091 59.2995385,67.9856136 57.7933846,67.9856136 C57.1656923,67.9856136 56.178,68.3783409 54.6810769,68.8355 C53.1010769,69.3187386 51.3241538,69.8357273 51.4872308,70.1870341 L60.878,70.1870341 L61.3149231,68.5839091 Z" id="Fill-104" fill="#F4BE84" mask="url(#mask-6)"></path>
                                <path d="M102.036923,35.6489716 L103.655385,38.506983 C103.655385,38.506983 101.307692,40.5013011 89.16,39.0730625 L90.2338462,36.1352784 C90.2338462,36.1352784 97.9307692,36.0739148 102.036923,35.6489716" id="Fill-105" fill="#F7EEE2" mask="url(#mask-6)"></path>
                                <path d="M85.3676923,43.4392386 C83.0784615,44.1418523 81.9338462,47.7208864 81.3123077,52.0362841 C81.6276923,59.4505455 83.1861538,68.2761705 81.8984615,71.7033295 C80.0538462,76.6078182 76.1815385,78.4364545 76.1815385,78.4364545 C76.2415385,78.6082727 76.3230769,78.7540114 76.3861538,78.9227614 C79.2784615,79.9367955 82.1430769,80.5765114 84.5153846,79.6345795 C93.2846154,76.1506591 93.7215385,40.8773068 85.3676923,43.4392386" id="Fill-106" fill="#EDCCC1" mask="url(#mask-6)"></path>
                                <polygon id="Fill-107" fill="#A5C0D7" mask="url(#mask-6)" points="87.0369231 132.00108 89.3107692 132.00108 89.3107692 96.7016477 87.0369231 96.7016477"></polygon>
                                <polygon id="Fill-108" fill="#8394B4" mask="url(#mask-6)" points="87.0369231 132.00108 87.8676923 132.00108 87.8676923 96.7016477 87.0369231 96.7016477"></polygon>
                                <polygon id="Fill-109" fill="#8394B4" mask="url(#mask-6)" points="89.4189231 105.719648 91.2250769 97.2299886 85.1235385 97.2299886 86.9296923 105.719648"></polygon>
                                <polygon id="Fill-110" fill="#A5C0D7" mask="url(#mask-6)" points="75.3984615 134 100.950769 134 100.950769 133.300455 90.6876923 131.593011 85.6615385 131.593011 75.3984615 133.300455"></polygon>
                                <polygon id="Fill-111" fill="#A5C0D7" mask="url(#mask-6)" points="85.0641538 131.787227 91.2856923 131.787227 90.1303077 124.547852 86.2195385 124.547852"></polygon>
                                <polygon id="Fill-112" fill="#8394B4" mask="url(#mask-6)" points="90.1303077 124.548313 86.2195385 124.548313 85.0641538 131.787688 75.398 133.301835 92.4333846 133.301835 89.4195385 132.000926 88.6056923 125.188028"></polygon>
                                <path d="M71.7484615,95.1953239 L104.600769,95.1953239 C104.600769,93.426517 103.162308,91.992142 101.388462,91.992142 L74.9607692,91.992142 C73.1869231,91.992142 71.7484615,93.426517 71.7484615,95.1953239" id="Fill-113" fill="#3D4359" mask="url(#mask-6)"></path>
                                <path d="M74.9612308,91.9915284 L88.7766154,91.9915284 C87.0027692,91.9915284 85.5643077,93.4259034 85.5643077,95.1947102 L71.7489231,95.1947102 C71.7489231,93.4259034 73.1873846,91.9915284 74.9612308,91.9915284" id="Fill-114" fill="#323749" mask="url(#mask-6)"></path>
                                <path d="M104.548923,94.6350739 C104.581231,94.8176307 104.601231,95.0032557 104.601231,95.195017 L71.7489231,95.195017 C71.7489231,95.0032557 71.7689231,94.8176307 71.8012308,94.6350739 L104.548923,94.6350739 Z" id="Fill-115" fill="#323749" mask="url(#mask-6)"></path>
                                <polygon id="Fill-116" fill="#3D4359" mask="url(#mask-6)" points="70.4630769 99.3924432 105.886154 99.3924432 105.886154 95.0678409 70.4630769 95.0678409"></polygon>
                                <polygon id="Fill-117" fill="#323749" mask="url(#mask-6)" points="70.4630769 99.3924432 93.3553846 99.3924432 93.3553846 95.0678409 70.4630769 95.0678409"></polygon>
                                <polygon id="Fill-118" fill="#323749" mask="url(#mask-6)" points="70.4630769 95.5878977 105.886154 95.5878977 105.886154 95.0678409 70.4630769 95.0678409"></polygon>
                                <path d="M93.1321538,104.08308 C92.8890769,104.08308 92.6829231,104.058534 92.5275385,104.001773 C91.2721538,103.546148 91.5290769,99.6388182 91.5629231,99.1939318 C91.5706154,99.0926818 91.6521538,99.0006364 91.766,99.0205795 C91.8706154,99.02825 91.9475385,99.1187614 91.9398462,99.2230795 C91.8213846,100.79092 91.9121538,103.377398 92.6567692,103.647398 C93.5536923,103.968023 96.9721538,102.924841 98.2121538,102.492227 C98.3075385,102.455409 98.4198462,102.510636 98.4536923,102.610352 C98.4875385,102.708534 98.4367692,102.81592 98.3367692,102.84967 C97.9290769,102.992341 94.7398462,104.08308 93.1321538,104.08308" id="Fill-119" fill="#323749" mask="url(#mask-6)"></path>
                                <path d="M99.2881538,101.190858 C98.4604615,101.408699 97.2358462,102.287733 97.4066154,102.928983 C97.5758462,103.570233 99.0758462,103.731313 99.9035385,103.513472 C100.731231,103.295631 101.263538,102.597619 101.094308,101.957903 C100.923538,101.316653 100.115846,100.973017 99.2881538,101.190858" id="Fill-120" fill="#323749" mask="url(#mask-6)"></path>
                                <path d="M97.9007692,97.9233977 L102.320769,97.9233977 C104.848462,97.9233977 105.228462,95.5869773 105.228462,95.5869773 L105.228462,85.6736818 L100.808462,85.6736818 L100.808462,95.5869773 L97.9007692,95.5869773 L97.9007692,97.9233977 Z" id="Fill-121" fill="#A5C0D7" mask="url(#mask-6)"></path>
                                <path d="M100.808615,85.6732216 L100.808615,95.586517 L97.9009231,95.586517 L97.9009231,97.9229375 L102.319385,97.9229375 C102.714769,97.9229375 103.040923,97.8539034 103.337846,97.7572557 C101.857846,97.189642 101.645538,95.7460625 101.645538,95.7460625 L101.645538,85.6732216 L100.808615,85.6732216 Z" id="Fill-122" fill="#8394B4" mask="url(#mask-6)"></path>
                                <path d="M88.8104615,67.8700966 C88.0596923,81.8241875 94.1458462,87.3300398 102.019692,87.3300398 C109.893538,87.3300398 116.572,81.8241875 117.324308,67.8700966 C118.073538,53.9160057 112.613538,36.7970852 104.739692,36.7970852 C96.8658462,36.7970852 89.5612308,53.9160057 88.8104615,67.8700966" id="Fill-123" fill="#323749" mask="url(#mask-6)"></path>
                                <path d="M90.2783077,68.069375 C89.5013846,82.5036364 95.7967692,88.1981818 103.941385,88.1981818 C112.086,88.1981818 118.995231,82.5036364 119.772154,68.069375 C120.549077,53.6351136 114.899846,35.9286364 106.755231,35.9286364 C98.6106154,35.9286364 91.0552308,53.6351136 90.2783077,68.069375" id="Fill-124" fill="#3D4359" mask="url(#mask-6)"></path>
                                <path d="M83.6210769,41.26175 C92.0487692,38.949875 87.6441538,75.9168636 82.7672308,77.4570909 C76.218,79.5250455 66.9918462,72.666125 60.5318462,70.1870341 L60.5318462,67.7401591 C69.1210769,67.8490795 75.2349231,68.7480568 76.9810769,67.2952727 C78.7287692,65.8440227 78.1456923,42.763625 83.6210769,41.26175" id="Fill-125" fill="#F7EEE2" mask="url(#mask-6)"></path>
                            </g>
                        </g>
                    </g>
                </g>
            </g>
        </g>
    </g>
</svg>