<?xml version="1.0" encoding="UTF-8"?>
<svg width="119px" height="139px" viewBox="0 0 119 139" version="1.1" xmlns="http://www.w3.org/2000/svg" xmlns:xlink="http://www.w3.org/1999/xlink">
    <title>t5</title>
    <defs>
        <path d="M0.278333333,1.375 C1.45166667,2.485 2.765,2.72 3.92,2.48166667 L3.92,2.48166667 C4.25833333,2.06 4.41333333,1.49833333 4.34833333,0.765 L4.34833333,0.765 C4.34833333,0.765 3.94,0.29 3.03333333,0.29 L3.03333333,0.29 C2.38166667,0.29 1.475,0.535 0.278333333,1.375" id="path-1"></path>
        <path d="M0.638,1.569 C1.6705,2.5365 2.871,2.6835 4.10825,2.4405 L4.10825,2.4405 C4.46175,2.046 4.6175,1.524 4.53175,0.8475 L4.53175,0.8475 C4.53175,0.8475 4.2675,0.483 3.515,0.483 L3.515,0.483 C2.9095,0.483 1.989,0.7185 0.638,1.569" id="path-3"></path>
        <polygon id="path-5" points="0.457477108 0.738650013 11.6092571 0.738650013 11.6092571 6.66666667 0.457477108 6.66666667"></polygon>
        <polygon id="path-7" points="0.770033198 0.748437647 11.8823234 0.748437647 11.8823234 6.66666667 0.770033198 6.66666667"></polygon>
    </defs>
    <g id="Page-1" stroke="none" stroke-width="1" fill="none" fill-rule="evenodd">
        <g id="hiring" transform="translate(-661.000000, -1348.000000)">
            <g id="Group" transform="translate(552.000000, 1310.000000)">
                <g id="service1">
                    <g id="Path-2">
                        <g id="t5" transform="translate(109.000000, 38.000000)">
                            <g id="Group-101">
                                <path d="M71.2503333,71.3188988 C64.2653333,92.3547542 55.9386667,114.604345 46.4953333,137.864827 L49.9053333,137.864827 C57.5586667,114.77061 65.7686667,92.5226819 74.6603333,71.3188988 L71.2503333,71.3188988 Z" id="Fill-1" fill="#BFAAB5"></path>
                                <path d="M102.065,80.2978771 C84.3383333,99.4349855 65.855,118.72007 48.505,134.915949 L49.89,137.885443 C69.385,117.080696 87.6316667,98.3093711 103.45,83.2673711 L102.065,80.2978771 Z" id="Fill-3" fill="#BFAAB5"></path>
                                <polygon id="Fill-5" fill="#BFAAB5" points="95.1256667 137.865658 91.7156667 137.865658 50.7906667 4.69233253 54.2006667 4.69233253"></polygon>
                                <path d="M8.096,7.44734458 C8.096,7.44734458 29.476,14.8993446 54.161,7.44734458 C54.161,7.44734458 45.7776667,67.1880434 68.8393333,86.3052 C68.6076667,87.8647663 40.1443333,100.825128 23.7476667,86.3052 C23.7476667,86.3052 10.3693333,67.3908867 8.096,7.44734458" id="Fill-7" fill="#3AAAB9"></path>
                                <path d="M52.677,32.2328096 C52.6686667,28.714641 52.757,25.3959904 52.897,22.394906 C31.7986667,25.1133398 17.312,24.0708578 8.97033333,22.7457253 C9.242,26.2456048 9.552,29.575894 9.89366667,32.7382554 C14.5903333,33.373388 20.5703333,33.8572193 27.9036667,33.8572193 C34.912,33.8572193 43.162,33.4083036 52.677,32.2328096" id="Fill-9" fill="#A8F2F4"></path>
                                <path d="M54.4086667,55.2039904 C53.8836667,51.9984 53.4986667,48.7545687 53.2286667,45.5390024 C34.282,48.4602795 20.5803333,48.2158699 11.862,47.3180386 C12.452,50.9259904 13.082,54.2429783 13.7303333,57.2823036 C16.8386667,57.5250506 20.387,57.6796771 24.387,57.6796771 C32.5086667,57.6796771 42.4986667,57.0345687 54.4086667,55.2039904" id="Fill-11" fill="#A8F2F4"></path>
                                <path d="M57.152,67.0064819 C39.2253333,71.1398313 26.0353333,71.9329157 17.507,71.7367229 C18.867,76.0014217 20.1553333,79.2103373 21.2053333,81.5164337 C30.6503333,81.4183373 43.8403333,80.1879759 60.8753333,76.1277831 C59.3953333,73.3145783 58.1686667,70.2386747 57.152,67.0064819" id="Fill-13" fill="#A8F2F4"></path>
                                <path d="M67.6208333,85.2258072 C56.3725,74.6862651 53.2008333,53.9496867 52.7375,36.5350843 C49.1825,35.2997349 39.5858333,34.3420482 39.5858333,34.3420482 C39.5858333,34.3420482 38.7325,33.7335181 39.4625,31.3027229 C40.1941667,28.8735904 42.8741667,36.4070602 45.8991667,9.43554217 C36.4425,11.1713494 27.8458333,10.9468916 21.2458333,10.1671084 C23.3858333,24.6205301 28.6241667,26.8069157 29.1108333,28.1436867 C29.5975,29.4804578 28.5008333,35.0702892 28.5008333,35.0702892 C28.5008333,35.0702892 19.1225,36.4070602 17.9358333,39.2767952 C15.4875,45.1941687 21.9958333,78.4604819 24.1425,81.4482651 C26.2875,84.4343855 31.6341667,83.8524578 31.6341667,83.8524578 C32.9408333,88.1038554 38.2458333,92.179012 38.2458333,92.179012 C53.4991667,94.4651566 63.5508333,88.3998072 67.6208333,85.2258072" id="Fill-15" fill="#3B9AB7"></path>
                                <path d="M24.4526667,71.3188988 C17.571,93.3656458 9.371,115.552055 0.001,137.864827 L3.411,137.864827 C10.4343333,115.374152 18.5393333,93.1777663 27.8626667,71.3188988 L24.4526667,71.3188988 Z" id="Fill-17" fill="#E2D3DA"></path>
                                <path d="M50.1485,26.4898482 C48.7101667,26.0958 40.5618333,9.01705301 45.6451667,5.85635422 C48.2401667,4.24192048 51.3751667,11.7920169 51.3751667,11.7920169 C51.3751667,11.7920169 53.4351667,26.4615831 50.1485,26.4898482" id="Fill-19" fill="#8F4817"></path>
                                <path d="M45.6448333,5.85618795 C40.8431667,8.84230843 46.0631667,25.5768867 49.8881667,26.3267422 C49.6781667,25.2875855 49.6215,23.9824048 49.6015,22.1052723 C49.6748333,21.0760916 49.7448333,20.1233928 49.8181667,19.2139229 L49.8198333,20.7452241 L50.7681667,20.9497301 C50.7681667,20.9497301 50.8048333,13.8236096 52.4448333,9.83158554 C51.6198333,10.4451036 47.1348333,13.4478506 45.0515,9.95960964 C43.6781667,7.66016386 45.6448333,5.85618795 45.6448333,5.85618795" id="Fill-21" fill="#873E16"></path>
                                <path d="M88.9635,65.205 C88.9635,65.205 92.2518333,65.2183012 95.2835,65.7852651 C96.0818333,65.933241 98.5301667,66.7861807 98.3385,67.2683494 C98.1451667,67.7505181 96.4851667,66.7629036 95.8351667,66.6764458 C95.0135,66.5700361 94.3318333,66.451988 94.2201667,66.5733614 C94.1085,66.6914096 95.3185,66.8294096 96.0035,67.1303494 C96.6885,67.4296265 98.6468333,68.2759157 98.2985,68.8063012 C97.9501667,69.3333614 95.7468333,67.9866145 95.2135,67.8785422 C94.3418333,67.6989759 93.3868333,67.3481566 93.1035,67.5077711 C92.7935,67.6856747 94.3885,67.960012 94.9968333,68.2842289 C95.6051667,68.6067831 97.8018333,69.8570964 97.3518333,70.3326145 C96.9018333,70.8081325 95.0085,69.2951205 94.2551667,69.0091446 C93.4401667,68.6982289 90.7685,68.1262771 90.7585,68.4288795 C90.7485,68.721506 90.9051667,69.1986867 91.4885,69.444759 C92.0718333,69.692494 93.5518333,70.1447349 93.3135,70.553747 C93.1101667,70.9045663 91.0518333,70.3592169 90.2535,69.9934337 C88.7785,69.3183976 88.0651667,68.103 88.0651667,68.103 L84.5368333,68.6832651 L83.4101667,65.5541566 L88.9635,65.205 Z" id="Fill-23" fill="#E2A36A"></path>
                                <path d="M67.9551667,38.5758217 C70.7151667,39.9125928 73.7451667,57.0079663 75.6935,64.9055566 C75.6935,64.9055566 81.5401667,65.2746651 88.6735,65.2231229 L88.0651667,68.1028337 C88.0651667,68.1028337 74.3918333,73.2570506 68.3151667,71.4248096 C62.2385,69.590906 63.7251667,36.5257735 67.9551667,38.5758217" id="Fill-25" fill="#E2A36A"></path>
                                <path d="M76.7736667,73.860094 C76.7736667,73.860094 68.142,73.3862386 60.127,75.4928169 C51.0586667,77.8803831 43.9503333,82.2947205 43.9503333,82.2947205 C38.722,72.7610819 36.4186667,46.4446482 36.4903333,39.669347 C42.9803333,35.1785277 61.8253333,33.8750096 67.9553333,38.5753229 C67.7786667,38.2078771 70.3103333,43.9224072 68.6853333,51.6986241 C67.1586667,58.9993229 65.4386667,66.3848169 69.822,70.4117566 C72.137,72.3121663 76.7736667,73.860094 76.7736667,73.860094" id="Fill-27" fill="#FFF2FA"></path>
                                <path d="M38.0838333,58.8563349 C38.6588333,55.3198771 39.4521667,52.9954916 39.4521667,52.9954916 C41.0755,57.2086482 44.8121667,61.9056361 56.8305,60.6087687 C64.7771667,59.750841 67.3871667,56.1395639 68.2505,53.7852506 C66.8888333,60.3776602 65.8571667,66.7688892 69.8221667,70.4117566 C70.4038333,70.8889373 71.1305,71.342841 71.8938333,71.756841 C72.1688333,72.4983831 72.4388333,73.2016843 72.6988333,73.8418048 C69.4421667,73.931588 64.6871667,74.2940458 60.1271667,75.4928169 C51.5005,77.7639976 44.5855,81.9189614 44.5855,81.9189614 C44.5805,81.9222867 44.5788333,81.9239494 44.5738333,81.925612 C44.3738333,82.0419976 44.2255,82.1301181 44.1238333,82.1916361 C44.1155,82.1966241 44.1138333,82.1966241 44.1055,82.201612 C44.0138333,82.2564795 43.9505,82.2947205 43.9505,82.2947205 C40.8321667,76.6084554 38.9555,65.2874675 38.0838333,58.8563349" id="Fill-29" fill="#ECDBE3"></path>
                                <path d="M109.227167,132.971812 C109.227167,132.971812 110.813833,134.847282 113.822167,135.972896 C116.8305,137.096848 118.557167,136.845788 118.5155,137.597306 C118.473833,138.348824 107.653833,137.971402 107.5555,137.096848 C107.457167,136.222294 107.818833,134.971981 107.472167,132.971812 C107.1255,130.971643 109.227167,132.971812 109.227167,132.971812" id="Fill-31" fill="#E2A36A"></path>
                                <path d="M81.6181667,132.971812 C81.6181667,132.971812 83.2048333,134.847282 86.2131667,135.972896 C89.2215,137.096848 90.9481667,136.845788 90.9065,137.597306 C90.8648333,138.348824 80.0448333,137.971402 79.9465,137.096848 C79.8481667,136.222294 80.1715,134.971981 79.8248333,132.971812 C79.4765,130.971643 81.6181667,132.971812 81.6181667,132.971812" id="Fill-33" fill="#F4BE84"></path>
                                <path d="M70.2273333,74.420241 C63.6506667,76.6066265 43.5856667,93.8898795 55.3673333,93.012 C76.5606667,91.4324819 101.750667,81.9553735 101.750667,81.9553735 C101.750667,81.9553735 100.607333,73.4259759 97.5106667,71.522241 C94.604,69.7365542 76.804,72.2338554 70.2273333,74.420241" id="Fill-35" fill="#E2A36A"></path>
                                <path d="M86.9696667,86.7569422 C88.8096667,86.224894 90.528,85.7044843 92.1013333,85.2123398 C92.038,84.0617855 91.958,82.769906 91.838,81.2435928 C91.1063333,71.8878578 96.098,71.9992554 96.098,71.9992554 C93.4646667,70.8553518 87.5746667,72.1289422 87.5746667,72.1289422 L86.9696667,86.7569422 Z" id="Fill-37" fill="#D38753"></path>
                                <path d="M70.2273333,74.420241 C63.6506667,76.6066265 43.5856667,93.8898795 55.3673333,93.012 C76.5606667,91.4324819 87.7573333,81.6494458 87.7573333,81.6494458 C87.7573333,81.6494458 89.0273333,74.9140482 93.5223333,72.6495181 C98.0173333,70.3816627 99.8106667,74.658 99.8106667,74.658 C99.8773333,72.859012 98.0256667,71.5588193 96.5023333,71.0733253 C93.2523333,70.0358313 76.804,72.2338554 70.2273333,74.420241" id="Fill-39" fill="#EA5400"></path>
                                <path d="M43.9456667,82.2967157 C44.5673333,84.5163542 45.404,86.6794627 46.5123333,88.1509084 L85.9923333,81.9558723 C85.9923333,81.9558723 87.5706667,75.0392458 84.5506667,72.3008602 C80.9556667,69.0404024 55.124,74.9078964 43.9456667,82.2967157" id="Fill-41" fill="#F4BE84"></path>
                                <path d="M68.3206667,84.7290072 L76.264,83.4820193 C76.2823333,80.7635855 75.9223333,73.8718988 82.734,72.3405976 C77.2023333,70.3238024 68.4523333,76.788188 68.4523333,76.788188 L68.3206667,84.7290072 Z" id="Fill-43" fill="#E2A36A"></path>
                                <path d="M43.9456667,82.2967157 C44.5673333,84.5163542 45.404,86.6794627 46.5123333,88.1509084 L72.5123333,82.6192699 C72.5123333,82.6192699 73.0473333,76.6603301 78.839,73.3666193 C84.499,70.1477277 86.114,75.2321133 86.114,75.2321133 C87.6156667,65.1231976 53.754,76.1399205 43.9456667,82.2967157" id="Fill-45" fill="#F77B00"></path>
                                <path d="M23.7478333,86.3055325 C23.7478333,86.3055325 28.3761667,96.5125446 55.6595,96.5125446 C99.9961667,96.5125446 102.212833,81.6484482 102.212833,81.6484482 L54.6611667,81.6484482 C43.9061667,93.4083759 31.8578333,93.393412 23.7478333,86.3055325" id="Fill-47" fill="#208E9D"></path>
                                <path d="M101.671,83.1052627 C102.127667,82.2074313 102.212667,81.6471181 102.212667,81.6471181 L54.661,81.6471181 C54.1943333,82.1592145 53.7226667,82.6397205 53.2526667,83.1052627 L101.671,83.1052627 Z" id="Fill-49" fill="#3AAAB9"></path>
                                <path d="M100.098,85.3849229 C99.8596667,83.5327301 99.6946667,82.2275494 99.6213333,81.6472843 L88.208,81.6472843 C88.018,84.3640554 87.8496667,88.3560795 88.0663333,92.451188 C94.6763333,90.2465133 98.213,87.5380554 100.098,85.3849229" id="Fill-51" fill="#3B9AB7"></path>
                                <path d="M72.3815,81.6472843 C71.4615,85.0922964 70.1831667,90.6156217 69.7931667,95.9261277 C74.8381667,95.4738867 79.1048333,94.7855494 82.7065,93.9492361 C83.3231667,87.8556217 83.8215,83.0971157 83.9748333,81.6472843 L72.3815,81.6472843 Z" id="Fill-53" fill="#3B9AB7"></path>
                                <path d="M95.5651667,81.6472843 C94.1618333,84.9509711 86.7468333,95.5387301 49.3268333,95.5387301 C45.8468333,95.5387301 42.7418333,95.3724651 39.9618333,95.0831639 C44.1051667,95.9460795 49.2501667,96.5113807 55.6601667,96.5113807 C99.9951667,96.5113807 102.211833,81.6472843 102.211833,81.6472843 L95.5651667,81.6472843 Z" id="Fill-55" fill="#3B9AB7"></path>
                                <path d="M86.1356667,81.1844024 C86.1356667,81.1844024 80.794,131.547752 81.619,133.350065 L79.864,133.350065 C78.1956667,123.284378 71.8823333,106.918908 71.7873333,99.3987398 C71.669,90.023053 75.489,78.188306 75.489,78.188306 C79.4223333,78.0203783 83.0406667,78.5923301 86.1356667,81.1844024" id="Fill-57" fill="#F4BE84"></path>
                                <path d="M55.57,80.2978771 C38.2383333,98.7483108 19.79,117.885419 2.01,134.915949 L3.395,137.885443 C20.6766667,119.433347 39.135,100.324504 56.955,83.2673711 L55.57,80.2978771 Z" id="Fill-59" fill="#E2D3DA"></path>
                                <path d="M63.7731667,74.1766627 C63.7731667,74.1766627 53.4498333,76.4378675 43.9498333,82.2953855 L44.4281667,83.8616024 C44.4281667,83.8616024 53.8415,77.1744217 63.7731667,74.1766627" id="Fill-61" fill="#F26200"></path>
                                <path d="M48.4353333,22.7465566 C48.4353333,22.7465566 49.1353333,32.0291349 47.667,36.511641 L59.382,36.1392072 C59.382,36.1392072 58.6103333,34.6494723 58.6803333,28.816894 C58.7803333,20.6665807 48.4353333,22.7465566 48.4353333,22.7465566" id="Fill-63" fill="#F4BE84"></path>
                                <path d="M62.7143333,36.3829518 C63.2693333,38.8785904 64.291,44.8940602 56.1593333,45.3845422 C46.966,45.9398675 43.751,38.0555783 42.561,37.1427831 C48.4843333,35.5100602 56.6876667,35.1176747 62.7143333,36.3829518" id="Fill-65" fill="#F4BE84"></path>
                                <path d="M42.5605,37.1429494 C44.1605,36.7006843 45.9338333,36.359841 47.7805,36.1071181 C49.0905,31.496588 48.4355,22.7460578 48.4355,22.7460578 C48.4355,22.7460578 51.2505,22.1907325 53.9321667,22.8075759 C55.7871667,24.6315036 57.5705,26.8228771 58.6821667,29.2536723 C58.6655,32.5789735 58.9238333,34.3979133 59.1321667,35.3073831 C57.7955,36.4712386 52.1588333,40.4017446 45.9871667,41.4392386 C44.0621667,39.1281542 42.5605,37.1429494 42.5605,37.1429494" id="Fill-67" fill="#D17A4A"></path>
                                <path d="M66.2325,17.7301735 C66.2325,17.7301735 69.9591667,13.6201012 69.7391667,8.13002892 C69.5208333,2.63995663 43.9125,-6.14216386 46.9458333,7.12578795 C46.9458333,7.12578795 58.6291667,22.8245349 66.2325,17.7301735" id="Fill-69" fill="#8F4817"></path>
                                <path d="M49.6015,22.105106 C49.6648333,28.1804313 50.0665,28.072359 54.8781667,32.4817084 C55.9081667,33.4244313 59.3215,33.7569614 60.2781667,33.3080458 C61.2331667,32.8591301 61.3698333,31.9612988 62.7798333,30.0226482 C64.3748333,27.829612 65.3148333,25.5102145 65.5348333,24.1983831 C65.8281667,22.4492747 65.7665,21.2388651 65.9415,19.9918771 C66.2781667,17.5959976 66.9631667,15.4910819 67.1565,12.7344072 C67.3465,10.0159735 64.2831667,7.9692506 60.1765,7.65833494 C50.7731667,6.94505783 50.3998333,10.8622627 49.6015,22.105106" id="Fill-71" fill="#F4BE84"></path>
                                <path d="M55.9883333,32.4740602 C49.265,27.2134337 51.82,11.1439157 54.9816667,9.09885542 C48.9783333,9.64254217 49.4666667,15.287241 49.525,23.3727108 C49.6283333,27.7803976 50.1683333,29.0556506 55.1216667,32.9312892 C56.1833333,33.7609518 59.4883333,33.8241325 60.3733333,33.322012 C60.51,33.2438675 60.6233333,33.1474337 60.725,33.0410241 C59.46,33.331988 56.9,33.1873373 55.9883333,32.4740602" id="Fill-73" fill="#E2A36A"></path>
                                <path d="M61.3316667,16.8858795 C61.3316667,16.8858795 60.3933333,17.5858554 60.0483333,18.3939036 C58.3,22.2313012 61.83,22.912988 61.5116667,23.8557108 C61.0483333,25.2323855 58.3183333,24.4825301 58.3183333,24.4825301 C58.5183333,25.4651566 61.6033333,25.5033976 62.0366667,24.1034458 C62.55,22.455759 58.9516667,22.2412771 60.3583333,18.5817831 C60.5983333,17.9549639 61.3316667,16.8858795 61.3316667,16.8858795" id="Fill-75" fill="#D38753"></path>
                                <path d="M49.8171667,18.3260675 L49.8188333,20.7452241 L50.7688333,20.9497301 C50.7688333,20.9497301 50.8221667,10.0311036 53.9021667,7.65351325 C53.9021667,7.65351325 49.7555,6.79392289 49.8171667,18.3260675" id="Fill-77" fill="#8F4817"></path>
                                <path d="M50.9273333,8.65625783 C50.9273333,8.65625783 51.824,10.7595108 56.3906667,9.34792048 C66.0456667,6.3651253 67.2056667,11.6706434 67.2056667,11.6706434 C67.2056667,11.6706434 66.4956667,0.188378313 50.9273333,8.65625783" id="Fill-79" fill="#8F4817"></path>
                                <path d="M66.6775,17.1788386 C67.6558333,15.8936096 69.9108333,12.441947 69.7391667,8.13069398 C69.7275,7.80481446 69.6208333,7.46563373 69.4441667,7.12146506 C67.7925,4.23676627 58.1608333,8.82401928 55.8875,9.48741687 C60.8658333,8.03592289 63.4791667,8.28365783 65.0291667,9.14324819 C66.6625,10.2256337 66.8475,11.5075373 66.6775,17.1788386" id="Fill-81" fill="#873E16"></path>
                                <path d="M50.976,21.2867494 C50.7126667,22.6185325 49.4176667,23.4847735 48.0826667,23.2237373 C46.7476667,22.9610386 45.8793333,21.6674964 46.1426667,20.3357133 C46.4043333,19.0039301 47.701,18.1376892 49.0343333,18.400388 C50.371,18.6630867 51.2393333,19.9549663 50.976,21.2867494" id="Fill-83" fill="#E2A36A"></path>
                                <path d="M48.8796667,22.071853 C48.258,21.9155639 47.883,21.2870819 48.038,20.6685759 C48.1913333,20.0650337 48.7946667,19.7009133 49.3996667,19.8272747 C49.253,19.7125518 49.0846667,19.6227687 48.8913333,19.5745518 C48.158,19.3899976 47.4163333,19.8339253 47.2313333,20.5654916 C47.0463333,21.2953952 47.4913333,22.0369373 48.223,22.2214916 C48.5713333,22.309612 48.918,22.2464313 49.2096667,22.0868169 C49.1013333,22.0918048 48.9913333,22.1001181 48.8796667,22.071853" id="Fill-85" fill="#D17A4A"></path>
                                <path d="M52.8356667,17.2771012 C52.8356667,17.2771012 55.1306667,15.127294 58.609,15.7391494 L58.8473333,14.1247157 C58.8473333,14.1247157 54.8006667,13.3582337 52.364,16.5305711 L52.8356667,17.2771012 Z" id="Fill-87" fill="#873E16"></path>
                                <path d="M66.453,18.1928892 C66.453,18.1928892 65.463,16.4205036 62.8963333,16.275853 L63.463,14.7811301 C63.463,14.7811301 66.1646667,14.7927687 66.7896667,17.2983831 L66.453,18.1928892 Z" id="Fill-89" fill="#873E16"></path>
                                <path d="M49.3705,18.4072048 C49.8005,18.9858072 49.9355,19.7755663 49.8205,20.7448916 L50.7688333,20.9493976 C50.7688333,20.9493976 50.8055,13.8232771 52.4438333,9.83125301 C52.2055,10.0091566 50.4855,10.9768193 49.7771667,11.354241 C49.1355,14.1724337 49.4271667,15.598988 49.3705,18.4072048" id="Fill-91" fill="#873E16"></path>
                                <path d="M47.279,6.02178795 C47.279,6.02178795 46.0106667,4.20451084 46.6106667,2.62333012 C47.209,1.04048675 48.7706667,0.403691566 48.7706667,0.403691566 C48.7706667,0.403691566 44.8056667,1.50769157 45.1423333,3.2568 C45.4956667,5.52299277 47.279,6.02178795 47.279,6.02178795" id="Fill-93" fill="#8F4817"></path>
                                <path d="M53.4988333,18.9512241 C53.4988333,18.9512241 53.8055,19.5431277 54.8888333,19.965441 C55.7671667,20.307947 56.7021667,20.3262361 57.2521667,20.098453 L53.4988333,18.9512241 Z" id="Fill-95" fill="#6D3A31"></path>
                                <path d="M53.6111667,18.9949518 C56.4728333,16.9897952 57.6828333,18.3864217 57.6828333,18.3864217 C57.7478333,19.117988 57.5911667,19.6799639 57.2528333,20.0989518 C56.0995,20.3367108 54.5261667,19.9576265 53.6111667,18.9949518" id="Fill-97" fill="#F7EEE2"></path>
                                <path d="M58.1563333,18.1247205 C58.1563333,18.1247205 55.323,16.6715639 53.4996667,18.9676843 L53.6113333,18.9942867 C53.6113333,18.9942867 55.6213333,17.3981422 57.683,18.3857566 L58.1563333,18.1247205 Z" id="Fill-99" fill="#6D3A31"></path>
                            </g>
                            <g id="Group-104" transform="translate(53.000000, 17.000000)">
                                <mask id="mask-2" fill="white">
                                    <use xlink:href="#path-1"></use>
                                </mask>
                                <g id="Clip-103"></g>
                                <path d="M1.383,1.64033333 C1.28466667,2.36366667 1.78966667,2.95033689 2.513,2.95033689 C3.23633333,2.952 3.903,2.367 4.00133333,1.64366667 C4.09966667,0.920333333 3.59466667,0.333666667 2.87133333,0.332 C2.148,0.332 1.483,0.917 1.383,1.64033333" id="Fill-102" fill="#6D3A31" mask="url(#mask-2)"></path>
                            </g>
                            <g id="Group-111" transform="translate(61.000000, 18.000000)">
                                <path d="M0.51795,1.52955 C0.51795,1.52955 0.8417,2.09805 1.9232,2.40105 C2.88745,2.67105 3.52095,2.66055 4.1072,2.44005 L0.51795,1.52955 Z" id="Fill-105" fill="#6D3A31"></path>
                                <path d="M0.63835,1.5684 C3.6711,-0.3396 4.5321,0.8484 4.5321,0.8484 C4.61785,1.5234 4.4621,2.0454 4.10685,2.4414 C2.87135,2.6829 1.64635,2.4399 0.63835,1.5684" id="Fill-107" fill="#F7EEE2"></path>
                                <path d="M5.1271,0.73425 C5.1271,0.73425 2.1556,-0.60225 0.5176,1.54575 L0.63835,1.56825 C0.63835,1.56825 2.2886,0.10875 4.54785,0.89625 L5.1271,0.73425 Z" id="Fill-109" fill="#6D3A31"></path>
                            </g>
                            <g id="Group-114" transform="translate(61.000000, 18.000000)">
                                <mask id="mask-4" fill="white">
                                    <use xlink:href="#path-3"></use>
                                </mask>
                                <g id="Clip-113"></g>
                                <path d="M1.361275,1.71495 C1.270275,2.38395 1.828525,2.91495 2.605525,2.90145 C3.384275,2.88795 4.087775,2.33595 4.177025,1.66695 C4.268025,0.99795 3.709775,0.46695 2.931025,0.48045 C2.154025,0.49395 1.450525,1.04745 1.361275,1.71495" id="Fill-112" fill="#6D3A31" mask="url(#mask-4)"></path>
                            </g>
                            <g id="Group-177" transform="translate(3.000000, 4.000000)">
                                <path d="M52.42419,22.3678333 C52.3790614,22.4511667 52.11999,22.3845 52.0414329,22.3361667 C51.9645471,22.2911667 51.9361329,22.1861667 51.9812614,22.1028333 C52.02639,22.0211667 52.1266757,21.9911667 52.2052329,22.0378333 C52.2821186,22.0845 52.4693186,22.2861667 52.42419,22.3678333" id="Fill-115" fill="#6D3A31"></path>
                                <path d="M59.1500186,23.1946667 C59.1934757,23.2763333 59.4525471,23.213 59.5311043,23.1663333 C59.6096614,23.1196667 59.6380757,23.0163333 59.5946186,22.933 C59.5511614,22.8496667 59.4525471,22.8213333 59.3723186,22.8663333 C59.2937614,22.913 59.1065614,23.1113333 59.1500186,23.1946667" id="Fill-117" fill="#6D3A31"></path>
                                <path d="M52.2373243,22.2531667 L59.3241814,23.1298333 C59.3241814,23.1298333 57.9001243,25.2248333 55.6286529,24.9931667 C53.3588529,24.7598333 52.2373243,22.2531667 52.2373243,22.2531667" id="Fill-119" fill="#9A6335"></path>
                                <path d="M52.2373243,22.2531667 L59.3241814,23.1298333 C59.3241814,23.1298333 57.9001243,25.2248333 55.6286529,24.9931667 C53.3588529,24.7598333 52.2373243,22.2531667 52.2373243,22.2531667" id="Fill-121" fill="#6D3A31"></path>
                                <path d="M52.7344071,22.5225 L58.4757643,23.2225 C58.4757643,23.2225 57.1352786,25.0258333 55.2549214,24.6341667 C53.3762357,24.2425 52.7344071,22.5225 52.7344071,22.5225" id="Fill-123" fill="#F7EEE2"></path>
                                <path d="M52.7344071,22.5225 L58.4757643,23.2225 L58.09635,23.6375 C58.09635,23.6375 57.52305,23.1925 55.6343357,22.9991667 C53.74395,22.8058333 52.96005,22.9625 52.96005,22.9625 C52.96005,22.9625 52.79625,22.6525 52.7344071,22.5225" id="Fill-125" fill="#D5B698"></path>
                                <polygon id="Fill-127" fill="#E2D3DA" points="45.0277843 133.865333 41.6080414 133.865333 0.566112857 0.370333333 3.98585571 0.370333333"></polygon>
                                <path d="M98.6383543,77.171 C98.6383543,77.171 102.967354,111.837667 106.196554,129.339333 L104.43654,129.339333 C100.80954,118.599333 89.1596829,102.131 87.7807543,94.5643333 C86.1511114,85.631 87.5434114,74.0443333 87.5434114,74.0443333 L98.6383543,77.171 Z" id="Fill-129" fill="#E2A36A"></path>
                                <path d="M33.6174429,35.3105 C26.7762857,37.2588333 25.6764857,74.4671667 31.3760571,75.6038333 C38.8490143,77.0938333 52.3190571,66.4671667 60.9887571,60.7638333 L60.4438714,57.9171667 C60.4438714,57.9171667 54.9632571,58.0238333 37.9715143,64.3588333 C37.9715143,64.3588333 39.9421286,33.5071667 33.6174429,35.3105" id="Fill-131" fill="#F4BE84"></path>
                                <path d="M30.9812657,73.3298333 C29.6240657,73.0598333 28.69308,70.8331667 28.1481943,67.5898333 C28.6964229,72.0715 29.7627943,75.2831667 31.3757229,75.6031667 C38.84868,77.0948333 52.3203943,66.4681667 60.9884229,60.7631667 L60.9282514,60.4415 C52.38558,64.9231667 38.3673086,74.8031667 30.9812657,73.3298333" id="Fill-133" fill="#E2A36A"></path>
                                <path d="M60.4435371,57.9171667 C60.4435371,57.9171667 65.67678,57.9771667 68.75388,58.5055 C68.75388,58.5055 70.70778,58.6805 72.1067657,59.3955 C72.87228,59.7855 74.2512086,61.0055 73.9754229,61.4671667 C73.7013086,61.9305 72.8455371,61.0488333 71.5635514,60.4421667 C70.8398229,60.0988333 69.0915086,59.8738333 69.02298,59.9871667 C68.9561229,60.1005 70.49718,60.5238333 71.1456943,60.9755 C71.6872371,61.3555 73.4037943,63.2505 73.03608,63.6071667 C72.54468,64.0855 71.9730514,63.1621667 70.4904943,61.9588333 C69.9623229,61.5905 68.1036943,61.0855 68.0151086,61.2288333 C67.9281943,61.3738333 69.3405514,61.8971667 69.8018657,62.4205 C70.2648514,62.9421667 71.4532371,64.4455 71.0069657,64.8155 C70.5590229,65.1871667 69.7935086,64.0105 68.9811943,63.2671667 C68.54328,62.8671667 66.9203229,62.1588333 66.85848,62.1955 C66.79998,62.2321667 67.49028,62.7155 67.8028371,63.2521667 C68.1153943,63.7888333 68.5650086,65.1205 68.19228,65.2288333 C67.81788,65.3388333 67.5822086,64.7121667 66.7314514,63.6655 C66.4690371,63.3405 65.4277371,62.6238333 65.4277371,62.6238333 C65.4277371,62.6238333 62.2002086,62.5621667 60.4619229,60.6355 C60.4619229,60.6355 59.53428,58.2371667 60.4435371,57.9171667" id="Fill-135" fill="#F4BE84"></path>
                                <path d="M71.3307214,97 C71.3307214,96.9983333 70.7524071,85.2533333 73.6523357,73.8183333 C73.6523357,73.8183333 72.5725929,73.82 72.3536357,73.83 C72.3536357,73.83 68.5310786,85.9083333 68.64975,95.305 C68.7450214,102.843333 75.0763929,119.25 76.7494929,129.338333 L77.68215,129.338333 C76.7060357,120.266667 71.65665,103.821667 71.3307214,97" id="Fill-137" fill="#E2A36A"></path>
                                <g id="Group-141" transform="translate(76.214286, 127.333333)">
                                    <mask id="mask-6" fill="white">
                                        <use xlink:href="#path-5"></use>
                                    </mask>
                                    <g id="Clip-140"></g>
                                    <path d="M1.48875714,5.557 C1.20461429,4.897 1.4687,2.00533333 1.4687,2.00533333 C1.43025714,1.65866667 1.37677143,1.282 1.3283,0.913666667 C0.810157143,0.630333333 0.313742857,0.580333333 0.495928571,1.627 C0.843585714,3.632 0.519328571,4.88533333 0.617942857,5.762 C0.716557143,6.637 11.5674714,7.017 11.6092571,6.26366667 C9.39294286,6.78533333 1.7729,6.217 1.48875714,5.557" id="Fill-139" fill="#E2A36A" mask="url(#mask-6)"></path>
                                </g>
                                <path d="M105.369699,129.338833 C101.827941,116.653833 91.81107,100.857167 90.3452271,94.2805 C88.8793843,87.7038333 89.4894557,86.4838333 88.75737,77.1055 C88.6771414,76.0805 88.67547,75.1871667 88.7189271,74.3755 L87.5355557,73.6955 C87.5355557,73.6955 86.1516129,85.6305 87.7812557,94.5638333 C89.1601843,102.1305 100.80837,118.6005 104.437041,129.338833 L105.369699,129.338833 Z" id="Fill-142" fill="#D38753"></path>
                                <g id="Group-146" transform="translate(103.628571, 127.333333)">
                                    <mask id="mask-8" fill="white">
                                        <use xlink:href="#path-7"></use>
                                    </mask>
                                    <g id="Clip-145"></g>
                                    <path d="M0.890704286,5.762 C0.989318571,6.637 11.8402329,7.017 11.8820186,6.26366667 C11.8853614,6.21866667 11.86029,6.18866667 11.8519329,6.15033333 C8.34694714,6.367 2.34484714,6.16366667 1.98549,5.31366667 C1.57933286,4.35033333 1.74146143,2.00533333 1.74146143,2.00533333 C1.63114714,1.612 1.49743286,1.207 1.37541857,0.805333333 C0.974275714,0.657 0.656704286,0.755333333 0.808804286,1.627 C1.15646143,3.632 0.79209,4.88533333 0.890704286,5.762" id="Fill-144" fill="#D38753" mask="url(#mask-8)"></path>
                                </g>
                                <path d="M77.0361429,66.9771667 C72.8024143,66.9771667 68.0288143,67.9805 63.8953714,69.0705 C63.7533,69.1071667 63.6095571,69.1471667 63.4674857,69.1855 C62.5599,69.4288333 61.6473,69.6838333 60.7330286,69.9555 L60.7296857,69.9555 C60.6912429,69.9788333 60.6494571,69.9988333 60.6126857,70.0221667 C60.3736714,72.9205 60.6294,77.0221667 61.6757143,80.1238333 L69.3759857,78.4855 C69.3759857,78.4855 69.9125143,72.5121667 75.7207286,69.2105 C81.3969,65.9838333 83.0165143,71.0805 83.0165143,71.0805 C83.4978857,67.8471667 80.3004429,67.0205 77.0361429,66.9771667" id="Fill-147" fill="#EF6100"></path>
                                <path d="M33.7757271,98.6293333 C34.0414843,99.6943333 33.6787843,100.699333 32.9667557,100.876 C32.2547271,101.052667 31.4641414,100.331 31.1983843,99.2676667 C30.9342986,98.2026667 31.2969986,97.1993333 32.0073557,97.021 C32.7193843,96.846 33.50997,97.566 33.7757271,98.6293333" id="Fill-149" fill="#BFAAB5"></path>
                                <path d="M24.24825,67.2865 C24.5140071,68.3515 24.1513071,69.3565 23.4392786,69.5331667 C22.72725,69.7081667 21.9366643,68.9881667 21.6709071,67.9248333 C21.4068214,66.8598333 21.7695214,65.8548333 22.4798786,65.6781667 C23.1919071,65.5031667 23.9824929,66.2215 24.24825,67.2865" id="Fill-151" fill="#BFAAB5"></path>
                                <polygon id="Fill-153" fill="#8394B4" points="99.8061814 64.9801667 69.4730957 65.5068333 75.4400957 41.9401667 105.773181 41.4118333"></polygon>
                                <polygon id="Fill-155" fill="#A5C0D7" points="99.6821614 67.1253333 57.3448757 67.9036667 57.3114471 66.0836667 99.6470614 65.307"></polygon>
                                <polygon id="Fill-157" fill="#A5C0D7" points="99.8265729 64.9491667 70.1921443 65.4941667 76.0421443 42.3891667 105.676573 41.8458333"></polygon>
                                <path d="M90.7642543,53.3656667 C90.4115829,54.4906667 89.1195686,55.4223333 87.8776971,55.4456667 C86.6391686,55.4673333 85.9204543,54.574 86.2731257,53.449 C86.6257971,52.324 87.9178114,51.3923333 89.1580114,51.369 C90.3982114,51.3473333 91.1169257,52.2406667 90.7642543,53.3656667" id="Fill-159" fill="#8394B4"></path>
                                <polygon id="Fill-161" fill="#A5C0D7" points="70.1921443 65.4945 76.0421443 42.3895 105.676573 41.8461667"></polygon>
                                <polygon id="Fill-163" fill="#8394B4" points="69.42663 67.682 57.3455443 67.9036667 57.3121157 66.0836667 69.3932014 65.862"></polygon>
                                <polygon id="Fill-165" fill="#8394B4" points="78.7720886 66.1423333 73.2129171 66.244 73.1978743 65.444 78.7570457 65.3423333"></polygon>
                                <polygon id="Fill-167" fill="#8394B4" points="97.8033086 65.7923333 93.0447514 65.8806667 93.03138 65.079 97.7882657 64.994"></polygon>
                                <polygon id="Fill-169" fill="#BAD6F2" points="76.2428829 42.678 105.601526 42.1396667 105.67674 41.8446667 76.0423114 42.3896667 70.1923114 65.4946667 70.4664257 65.4896667"></polygon>
                                <path d="M49.4535427,13.3501667 C49.4535427,13.3501667 49.44186,16.1285 50.02686,16.6535 C50.61186,17.1785 54.0917743,17.5351667 54.7202314,17.2685 C55.3486886,17.0018333 55.8785314,14.2418333 55.8785314,14.2418333 L49.4535427,13.3501667 Z" id="Fill-171" fill="#3F302C"></path>
                                <path d="M57.9935571,14.522 C57.9935571,14.522 57.9434143,17.0653333 58.5217286,17.5853333 C59.1000429,18.1053333 62.3125286,18.437 62.9343,18.1736667 C63.5560714,17.9103333 64.1193429,15.3836667 64.1193429,15.3836667 L57.9935571,14.522 Z" id="Fill-173" fill="#3F302C"></path>
                                <path d="M64.3845986,15.1958333 L49.4737843,13.1508333 C49.44537,13.1475 49.4136129,13.1508333 49.3835271,13.1608333 L46.3699414,14.1891667 C46.3197986,14.2058333 46.2813557,14.2425 46.2596271,14.2858333 C46.3114414,14.3691667 46.3532271,14.4608333 46.3950129,14.5508333 C46.42677,14.5591667 46.4601986,14.5708333 46.4952986,14.5575 L49.4654271,13.5441667 L64.3311129,15.5808333 C64.3411414,15.5825 64.3494986,15.5841667 64.3578557,15.5841667 C64.4547986,15.5841667 64.5366986,15.5125 64.5517414,15.4158333 C64.5667843,15.3091667 64.49157,15.2108333 64.3845986,15.1958333" id="Fill-175" fill="#3F302C"></path>
                            </g>
                        </g>
                    </g>
                </g>
            </g>
        </g>
    </g>
</svg>