<?xml version="1.0" encoding="UTF-8"?>
<svg width="120px" height="127px" viewBox="0 0 120 127" version="1.1" xmlns="http://www.w3.org/2000/svg" xmlns:xlink="http://www.w3.org/1999/xlink">
    <title>t3</title>
    <defs>
        <polygon id="path-1" points="0.125807849 0.138949646 8.32536129 0.138949646 8.32536129 4.60267506 0.125807849 4.60267506"></polygon>
        <polygon id="path-3" points="0.0162479268 0.138949646 8.21443682 0.138949646 8.21443682 4.60267506 0.0162479268 4.60267506"></polygon>
        <polygon id="path-5" points="0.835023106 0.573800157 28.6800879 0.573800157 28.6800879 33.468381 0.835023106 33.468381"></polygon>
    </defs>
    <g id="Page-1" stroke="none" stroke-width="1" fill="none" fill-rule="evenodd">
        <g id="hiring" transform="translate(-1048.000000, -1123.000000)">
            <g id="Group" transform="translate(939.000000, 1070.000000)">
                <g id="service1">
                    <g id="Path-2">
                        <g id="t3" transform="translate(109.000000, 53.000000)">
                            <polygon id="Fill-1" fill="#A8693F" points="28.0645161 90 31.9354839 90 31.9354839 51.2903226 28.0645161 51.2903226"></polygon>
                            <polygon id="Fill-2" fill="#E8AB73" points="27.0967742 90 29.0322581 90 29.0322581 51.2903226 27.0967742 51.2903226"></polygon>
                            <polygon id="Fill-3" fill="#A8693F" points="34.8387097 90 39.6774194 90 39.6774194 57.0967742 34.8387097 57.0967742"></polygon>
                            <polygon id="Fill-4" fill="#C48C58" points="34.8387097 90 38.7096774 90 38.7096774 57.0967742 34.8387097 57.0967742"></polygon>
                            <polygon id="Fill-5" fill="#A8693F" points="43.5483871 90 48.3870968 90 48.3870968 57.0967742 43.5483871 57.0967742"></polygon>
                            <polygon id="Fill-6" fill="#C48C58" points="43.5483871 90 47.4193548 90 47.4193548 57.0967742 43.5483871 57.0967742"></polygon>
                            <polygon id="Fill-7" fill="#A8693F" points="53.2258065 90 58.0645161 90 58.0645161 57.0967742 53.2258065 57.0967742"></polygon>
                            <polygon id="Fill-8" fill="#C48C58" points="53.2258065 90 57.0967742 90 57.0967742 57.0967742 53.2258065 57.0967742"></polygon>
                            <polygon id="Fill-9" fill="#A8693F" points="61.9354839 90 66.7741935 90 66.7741935 57.0967742 61.9354839 57.0967742"></polygon>
                            <polygon id="Fill-10" fill="#C48C58" points="61.9354839 90 65.8064516 90 65.8064516 57.0967742 61.9354839 57.0967742"></polygon>
                            <polygon id="Fill-11" fill="#A8693F" points="71.6129032 90 76.4516129 90 76.4516129 57.0967742 71.6129032 57.0967742"></polygon>
                            <polygon id="Fill-12" fill="#C48C58" points="70.6451613 90 74.516129 90 74.516129 57.0967742 70.6451613 57.0967742"></polygon>
                            <polygon id="Fill-13" fill="#A8693F" points="80.3225806 90 85.1612903 90 85.1612903 57.0967742 80.3225806 57.0967742"></polygon>
                            <polygon id="Fill-14" fill="#C48C58" points="80.3225806 90 84.1935484 90 84.1935484 57.0967742 80.3225806 57.0967742"></polygon>
                            <polygon id="Fill-15" fill="#A8693F" points="89.0322581 90 93.8709677 90 93.8709677 57.0967742 89.0322581 57.0967742"></polygon>
                            <polygon id="Fill-16" fill="#C48C58" points="89.0322581 90 92.9032258 90 92.9032258 57.0967742 89.0322581 57.0967742"></polygon>
                            <polygon id="Fill-17" fill="#A8693F" points="98.7096774 90 103.548387 90 103.548387 57.0967742 98.7096774 57.0967742"></polygon>
                            <polygon id="Fill-18" fill="#C48C58" points="98.7096774 90 102.580645 90 102.580645 57.0967742 98.7096774 57.0967742"></polygon>
                            <polygon id="Fill-19" fill="#A8693F" points="107.419355 90 112.258065 90 112.258065 57.0967742 107.419355 57.0967742"></polygon>
                            <polygon id="Fill-20" fill="#C48C58" points="107.419355 90 111.290323 90 111.290323 57.0967742 107.419355 57.0967742"></polygon>
                            <polygon id="Fill-21" fill="#C48C58" points="30.9677419 61.9354839 118.064516 61.9354839 118.064516 54.1935484 30.9677419 54.1935484"></polygon>
                            <polygon id="Fill-22" fill="#A8693F" points="116.129032 90 120 90 120 51.2903226 116.129032 51.2903226"></polygon>
                            <polygon id="Fill-23" fill="#A8693F" points="30.9677419 61.653871 118.064516 61.653871 118.064516 60.2816129 30.9677419 60.2816129"></polygon>
                            <polygon id="Fill-24" fill="#E8AB73" points="116.129032 90 118.064516 90 118.064516 51.2903226 116.129032 51.2903226"></polygon>
                            <polygon id="Fill-25" fill="#A8693F" points="118.064516 125.806452 120 125.806452 120 85.1612903 118.064516 85.1612903"></polygon>
                            <polygon id="Fill-26" fill="#C48C58" points="4.83870968 125.806452 6.77419355 125.806452 6.77419355 85.1612903 4.83870968 85.1612903"></polygon>
                            <polygon id="Fill-27" fill="#A8693F" points="90.1190323 125.806452 91.8164516 125.806452 91.8164516 85.1612903 90.1190323 85.1612903"></polygon>
                            <polygon id="Fill-28" fill="#C48C58" points="89.1512903 125.806452 90.8487097 125.806452 90.8487097 85.1612903 89.1512903 85.1612903"></polygon>
                            <polygon id="Fill-29" fill="#A8693F" points="90.9677419 91.9354839 120 91.9354839 120 85.1612903 90.9677419 85.1612903"></polygon>
                            <polygon id="Fill-30" fill="#C48C58" points="31.9354839 125.806452 33.8709677 125.806452 33.8709677 85.1612903 31.9354839 85.1612903"></polygon>
                            <polygon id="Fill-31" fill="#C48C58" points="4.83870968 91.9354839 90.9677419 91.9354839 90.9677419 85.1612903 4.83870968 85.1612903"></polygon>
                            <polygon id="Fill-32" fill="#A8693F" points="4.83870968 88.0577419 90.9677419 88.0577419 90.9677419 86.1358065 4.83870968 86.1358065"></polygon>
                            <polygon id="Fill-33" fill="#B7784E" points="90 87.0967742 120 87.0967742 120 83.2258065 90 83.2258065"></polygon>
                            <polygon id="Fill-34" fill="#D39B67" points="0 87.0967742 90 87.0967742 90 83.2258065 0 83.2258065"></polygon>
                            <polygon id="Fill-35" fill="#E8AB73" points="0 83.7890323 120 83.7890323 120 82.6625806 0 82.6625806"></polygon>
                            <g id="Group-163" transform="translate(30.967742, 0.000000)">
                                <path d="M34.7926947,34.0481353 C33.2063061,34.4378285 29.3937569,56.8697325 29.3937569,56.8697325 L17.0279032,61.5383792 L17.6170456,62.811786 C17.6170456,62.811786 31.3146066,64.0453029 34.0286507,59.5193391 C37.8458025,53.1538395 39.6070928,32.8683163 34.7926947,34.0481353" id="Fill-36" fill="#E2A36A"></path>
                                <g id="Group-40" transform="translate(9.205350, 121.203777)">
                                    <mask id="mask-2" fill="white">
                                        <use xlink:href="#path-1"></use>
                                    </mask>
                                    <g id="Clip-39"></g>
                                    <path d="M6.62079465,0.809917388 C6.62079465,0.809917388 5.62968529,2.22447286 3.48790716,3.07443352 C1.34612903,3.92285995 0.0190243902,3.73261605 0.132557042,4.29874508 C0.246089693,4.86640834 8.3467978,4.58104249 8.32536129,3.92132573 C8.30537372,3.26314319 7.89726987,2.31806058 7.94176239,0.809917388 C7.98778914,-0.699760031 6.62079465,0.809917388 6.62079465,0.809917388" id="Fill-38" fill="#2D313D" mask="url(#mask-2)"></path>
                                </g>
                                <g id="Group-43" transform="translate(18.410700, 121.203777)">
                                    <mask id="mask-4" fill="white">
                                        <use xlink:href="#path-3"></use>
                                    </mask>
                                    <g id="Clip-42"></g>
                                    <path d="M6.51140441,0.809917388 C6.51140441,0.809917388 5.52029504,2.22447286 3.37698269,3.07443352 C1.23673879,3.92285995 -0.0919000787,3.73261605 0.0231667978,4.29874508 C0.135165224,4.86640834 8.23587333,4.58104249 8.21443682,3.92132573 C8.19444925,3.26314319 7.7863454,2.31806058 7.83083792,0.809917388 C7.87686467,-0.699760031 6.51140441,0.809917388 6.51140441,0.809917388" id="Fill-41" fill="#2D313D" mask="url(#mask-4)"></path>
                                </g>
                                <g id="Group-46" transform="translate(29.150275, 0.000000)">
                                    <mask id="mask-6" fill="white">
                                        <use xlink:href="#path-5"></use>
                                    </mask>
                                    <g id="Clip-45"></g>
                                    <path d="M28.078926,26.0758419 C30.2912785,21.0374469 26.3222384,-0.751616837 17.4114595,1.98237215 C14.4672817,-2.29504721 0.880184894,3.72525177 0.835692368,12.5501141 C0.808076318,18.2328836 1.61814713,27.7143942 6.43101101,31.3305625 C11.8452911,35.4008615 24.7450551,33.6641188 28.078926,26.0758419" id="Fill-44" fill="#8F4517" mask="url(#mask-6)"></path>
                                </g>
                                <path d="M48.7446302,12.2371322 C45.1468725,8.22359953 40.5488002,9.20857199 37.8178796,9.21010622 C35.0869591,9.21164044 34.3489969,7.810893 34.3489969,7.810893 C33.0004131,10.7182494 31.1347954,11.3856373 30.0899882,11.5191149 C30.0454957,11.8597128 29.9887293,12.1987766 29.9856609,12.5501141 C29.9580448,18.2328836 30.7681157,27.7143942 35.5809795,31.3305625 C40.9952596,35.4008615 53.8950236,33.6641188 57.2288946,26.0758419 C58.5744099,23.0135287 57.6323958,13.7728914 54.6897522,7.60223839 C54.804819,11.3058576 51.4970299,15.3055822 48.7446302,12.2371322" id="Fill-47" fill="#7F3200"></path>
                                <path d="M18.4571873,60.8199017 C18.4571873,60.8199017 13.9925924,62.37714 13.3957789,62.6180134 C11.071428,63.563096 11.2724115,64.2811133 11.2954249,64.5143155 C11.2954249,64.5143155 10.5114359,65.7263533 10.6525846,65.9150629 C10.8949921,66.2372502 11.1174548,65.8567624 12.2558497,64.620177 C12.5089969,64.3455507 13.2239457,63.6842998 13.3589575,63.7732848 C13.4924351,63.8622699 12.78976,64.3808379 12.3663139,64.7874076 C12.0103737,65.131074 11.2463297,66.9460622 11.6314201,67.0488552 C11.9965657,67.1439772 12.6808301,65.6772581 13.0659205,65.2492093 C13.3528206,64.9316247 14.2027813,64.3286743 14.3730803,64.4330016 C14.5433792,64.5373289 13.7010897,65.390358 13.5676121,65.6005468 C13.4356688,65.8107356 12.7682809,66.9061723 13.0536467,67.10869 C13.3052596,67.2881943 13.8222935,66.4305625 14.4743391,65.6910661 C14.9622227,65.1402793 16.6360622,64.1675806 16.8631275,64.1522384 C17.1300826,64.1353619 16.8876751,64.8073525 16.5470771,65.3274548 C16.2064792,65.847557 15.9886192,66.6591621 16.3767781,66.7297364 C16.7634028,66.7987766 17.3770928,65.26762 18.1748899,64.2458261 C18.9757553,63.2240323 19.0524666,61.9076672 19.0524666,61.9076672 C19.0524666,61.9076672 18.7103344,60.8214359 18.4571873,60.8199017" id="Fill-49" fill="#E2A36A"></path>
                                <path d="M31.8890205,67.4250472 C31.8890205,67.4250472 44.0738356,71.0657632 42.2787923,82.2886192 L8.1606963,82.2886192 C8.1606963,82.2886192 7.20794256,76.1962116 9.21317467,74.0160779 C11.1984618,71.8558891 31.8890205,67.4250472 31.8890205,67.4250472" id="Fill-51" fill="#323749"></path>
                                <path d="M8.240476,82.2893863 C8.240476,82.2893863 11.6786743,94.6874587 14.9803265,122.16236 L18.146967,122.16236 C18.146967,122.16236 21.1110897,101.658977 20.8226554,96.1265618 C20.5342211,90.5926121 17.0515303,81.8552006 17.0515303,81.8552006 C17.0515303,81.8552006 11.0465736,80.4866719 8.240476,82.2893863" id="Fill-53" fill="#323749"></path>
                                <path d="M29.0632848,82.2893863 L17.1699725,82.218812 C17.1699725,82.218812 20.7769355,90.9715657 20.8229622,96.1265618 C20.8674548,101.281558 18.1472738,122.16236 18.1472738,122.16236 L16.8278403,122.16236 C16.8278403,122.16236 18.6474312,100.01122 18.4111605,96.4395437 C18.1718214,92.869402 14.1766994,81.1295122 14.4175728,80.3424548 C14.6599803,79.5553973 29.5480999,75.3792368 29.5480999,75.3792368 L29.0632848,82.2893863 Z" id="Fill-55" fill="#2A2E3D"></path>
                                <polygon id="Fill-57" fill="#2A2E3D" points="31.8890205 67.4250472 56.7741503 67.4250472 38.9894138 76.3987293"></polygon>
                                <path d="M56.7738434,67.4250472 C56.7738434,67.4250472 60.3286428,73.3701692 57.5655035,82.2886192 L18.0668804,82.2886192 C18.0668804,82.2886192 17.2844256,76.110295 19.3771086,74.0160779 C22.2952046,71.0995161 46.3518529,69.8936153 56.7738434,67.4250472" id="Fill-59" fill="#3D4359"></path>
                                <path d="M18.0676475,82.2893863 C18.0676475,82.2893863 21.370834,91.2047679 23.8762234,122.16236 L27.0551377,122.16236 C27.0551377,122.16236 30.3813375,101.658977 30.2018332,96.1265618 C30.0207946,90.5926121 27.098096,82.2893863 27.098096,82.2893863 C27.098096,82.2893863 20.9090323,80.4866719 18.0676475,82.2893863" id="Fill-61" fill="#3D4359"></path>
                                <path d="M57.5648899,82.2893863 L27.0982494,82.2893863 C27.0982494,82.2893863 30.1191385,91.4072856 30.2019866,96.1265618 C30.3047797,102.0993 27.0552911,122.16236 27.0552911,122.16236 L25.8770063,122.16236 C25.8770063,122.16236 28.2903423,101.55465 27.9390047,96.3797089 C27.5907356,91.2047679 23.7382966,81.189347 24.4946696,80.1307317 C25.2510425,79.0705822 47.3331432,78.0150354 58.5575334,74.2331707 C58.5575334,74.2331707 58.9211448,78.9294335 57.5648899,82.2893863" id="Fill-63" fill="#323749"></path>
                                <path d="M37.3606806,55.0815932 C37.3606806,60.500476 35.5917191,61.3427655 31.4646538,67.4428442 C39.5684304,70.2090519 48.1232691,69.9635759 57.0156373,67.4428442 C55.1162667,62.1865893 52.2257868,60.4022856 48.9962431,56.6557081 C48.974764,56.6296263 48.9456137,56.5943391 48.9256688,56.57286 C48.8873131,56.5283674 48.8550944,56.491546 48.8305468,56.4623958 C48.8029308,56.4317113 48.7630409,56.3856845 48.7630409,56.3856845 C47.0753934,53.3310425 52.3040323,49.8330094 54.3675649,43.9016955 C56.4709874,37.8583832 55.5504524,34.7040165 55.5504524,34.7040165 C47.931491,31.2888316 43.4653619,30.50024 34.7923879,34.0489024 L34.465598,39.3020889 C34.465598,39.3020889 32.1166994,43.4046066 32.3790519,45.2441424 C32.6429386,47.0836782 37.3606806,52.1911133 37.3606806,55.0815932" id="Fill-65" fill="#FF7B00"></path>
                                <path d="M31.4651141,67.4422305 C32.2322266,64.8724036 37.2430055,61.684284 37.3611408,55.0809795 C37.4194414,51.7271637 32.6387962,47.7673289 32.3795122,45.197502 C34.171487,45.9630803 41.575657,48.2766916 53.3600393,46.1563926 C52.4241621,48.620358 49.2882061,53.5360149 49.1547286,54.9674469 C48.9967034,56.6550944 53.9491817,59.7772423 57.0145633,67.4422305 C52.6604327,68.6772817 48.3891503,69.3569434 44.2129898,69.4137097 C40.0797876,69.4045043 35.3973328,68.7846774 31.4651141,67.4422305" id="Fill-67" fill="#F75F00"></path>
                                <path d="M35.7996066,33.6773131 C42.9813139,30.6702321 47.52262,31.3437569 53.829819,33.9749528 C52.6852872,34.6883674 48.8282455,36.7288867 42.8202203,36.1290047 C38.2819827,35.6764083 36.4992132,34.4950551 35.7996066,33.6773131" id="Fill-69" fill="#F4BE84"></path>
                                <path d="M49.3109127,19.7928836 C49.3109127,19.7928836 47.2412431,27.5637333 49.0163415,32.9488631 L43.5468293,33.8908773 L40.1638631,33.9184933 C40.1638631,33.9184933 41.50631,30.0338356 41.2301495,25.5155429 C41.029166,22.2031511 49.3109127,19.7928836 49.3109127,19.7928836" id="Fill-71" fill="#F4BE84"></path>
                                <path d="M53.8296656,33.9747994 C53.0778954,34.442738 51.1355665,35.472203 48.2021282,35.9616208 C44.1839929,34.1865224 41.968572,31.8238159 40.9544493,30.4644925 C41.1799803,29.0591424 41.3426082,27.3576869 41.2306098,25.5166168 C41.2060622,25.1238552 41.3088552,24.7464359 41.4944965,24.3828245 L44.8851338,21.5751928 C47.0253777,20.4628796 49.3113729,19.7924233 49.3113729,19.7924233 C49.3113729,19.7924233 47.3843863,26.8222423 48.8112156,32.1613454 C49.9066522,32.4727931 52.7280921,33.5176003 53.8296656,33.9747994" id="Fill-73" fill="#D17A4A"></path>
                                <path d="M40.6029583,29.2664175 C39.7744768,29.2679504 38.3721951,27.9239693 37.4869473,27.2443076 C35.6044532,25.7990677 33.8109441,23.9856137 34.3571282,19.5072109 C34.3571282,19.5072109 29.6946184,8.68325334 38.7925728,6.64580252 C47.8920614,4.60681747 50.446546,13.56976 49.2145633,20.6716876 C47.9825806,27.7751495 41.3884815,29.2664175 40.6029583,29.2664175" id="Fill-75" fill="#F4BE84"></path>
                                <path d="M41.1244414,6.3811487 C47.7262116,6.77697876 50.94655,26.3582927 40.5000118,29.2487726 C40.5337648,29.2518411 40.5705862,29.2671833 40.6028049,29.2671833 C41.3883281,29.2656491 47.9824272,27.7743824 49.2144099,20.6724548 C50.33286,14.224107 48.3138198,6.2706845 41.1244414,6.3811487" id="Fill-77" fill="#E2A36A"></path>
                                <path d="M51.6917231,18.905181 C51.8589536,19.9806727 51.1240598,20.9901928 50.0485681,21.1589575 C48.9715421,21.3277223 47.962022,20.5912943 47.7947915,19.5142683 C47.6260268,18.4387766 48.3609205,17.4292565 49.4379465,17.262026 C50.5134382,17.0932612 51.5229583,17.828155 51.6917231,18.905181" id="Fill-79" fill="#E2A36A"></path>
                                <path d="M49.5447286,17.9462903 C49.2624312,17.9907828 49.0338316,18.1380685 48.8481904,18.3283124 C48.947915,18.2761487 49.0537766,18.2270535 49.1703777,18.2086428 C49.7687254,18.1150551 50.3302518,18.5231589 50.4223053,19.1215067 C50.515893,19.7183202 50.1062549,20.2798466 49.5094414,20.3734343 C49.4173879,20.3872423 49.3299371,20.3703659 49.2424862,20.3611605 C49.4572777,20.4547482 49.6920142,20.5115146 49.9405586,20.4731589 C50.638631,20.364229 51.1142408,19.7091149 51.006845,19.0125767 C50.897915,18.3145043 50.2428009,17.8373603 49.5447286,17.9462903" id="Fill-81" fill="#D38753"></path>
                                <path d="M37.0446302,15.1085877 C37.0446302,15.1085877 39.054465,16.5124036 39.0375885,18.7753855 C39.0191778,21.0383674 37.2179976,21.8515067 37.2179976,21.8515067 C37.2179976,21.8515067 37.9145358,23.3688552 39.3659127,23.1540637 C40.8157553,22.937738 38.0019866,21.8453698 38.0019866,21.8453698 C38.0019866,21.8453698 39.7816876,20.3433635 39.7310582,18.7124823 C39.6589496,16.3927341 37.0446302,15.1085877 37.0446302,15.1085877" id="Fill-83" fill="#D38753"></path>
                                <path d="M43.0406884,7.05620771 C43.0406884,7.05620771 45.71024,7.55636507 46.7995397,10.8994414 C47.8903737,14.2425177 47.5804603,17.8985759 48.3997364,17.9369315 C48.8231825,17.9568765 49.6884854,17.0501495 49.6884854,17.0501495 C49.6884854,17.0501495 51.3730645,5.60943352 44.6454878,5.49283242 L43.0406884,7.05620771 Z" id="Fill-85" fill="#8F4517"></path>
                                <path d="M43.1170928,23.9423485 C43.1554485,24.006786 43.3733084,23.9500197 43.4377459,23.9101298 C43.5037175,23.8717742 43.5251967,23.7873918 43.4853068,23.7214201 C43.4469512,23.6554485 43.3625688,23.6355035 43.2965972,23.6738592 C43.2321597,23.713749 43.0787372,23.8779111 43.1170928,23.9423485" id="Fill-87" fill="#93271C"></path>
                                <path d="M37.4505862,24.7244965 C37.415299,24.7904681 37.1959048,24.7444414 37.1283989,24.7091542 C37.060893,24.6723328 37.0348112,24.5894847 37.0716326,24.523513 C37.1069197,24.4560071 37.1897679,24.4314595 37.2572738,24.4667467 C37.3247797,24.5020338 37.4843391,24.6569906 37.4505862,24.7244965" id="Fill-89" fill="#93271C"></path>
                                <path d="M43.2729701,23.8464595 L37.3017663,24.6764752 C37.3017663,24.6764752 38.533749,26.3257671 40.4469276,26.100236 C42.3616404,25.8731707 43.2729701,23.8464595 43.2729701,23.8464595" id="Fill-91" fill="#9A6335"></path>
                                <path d="M43.2729701,23.8464595 L37.3017663,24.6764752 C37.3017663,24.6764752 38.533749,26.3257671 40.4469276,26.100236 C42.3616404,25.8731707 43.2729701,23.8464595 43.2729701,23.8464595" id="Fill-93" fill="#93271C"></path>
                                <path d="M42.8579622,24.0712234 L38.022085,24.7355429 C38.022085,24.7355429 39.1773564,26.1531668 40.7576082,25.8064319 C42.3393942,25.4596971 42.8579622,24.0712234 42.8579622,24.0712234" id="Fill-95" fill="#F7EEE2"></path>
                                <path d="M42.8579622,24.0712234 L38.022085,24.7355429 L38.3458065,25.0607986 C38.3458065,25.0607986 38.8229504,24.6941188 40.415476,24.5054091 C42.0080016,24.3166994 42.6738552,24.4271637 42.6738552,24.4271637 C42.6738552,24.4271637 42.8073328,24.177085 42.8579622,24.0712234" id="Fill-97" fill="#D5B698"></path>
                                <path d="M34.3493037,7.81135327 C34.3493037,7.81135327 34.2618529,9.64935484 37.0664162,9.99762392 C39.8679111,10.345893 45.5936389,9.83499607 48.2217663,14.770598 C48.2217663,14.770598 49.1284933,8.85309205 45.185535,6.45663257 C42.853513,5.03747443 38.8721991,4.26729347 34.3493037,7.81135327" id="Fill-99" fill="#8F4517"></path>
                                <path d="M37.0656491,9.99793076 C39.867144,10.3461998 45.594406,9.83530291 48.2209992,14.7709048 C48.2209992,14.7709048 48.4296538,13.3854996 48.2041227,11.6886467 C44.6968843,8.32869394 40.4148623,9.20780488 37.8174194,9.2093391 C35.0864988,9.21240755 34.3485366,7.81166011 34.3485366,7.81166011 C34.3485366,7.81166011 34.26262,9.64812746 37.0656491,9.99793076" id="Fill-101" fill="#7F3200"></path>
                                <path d="M48.4000433,17.9366247 C48.8219552,17.9565696 49.6887923,17.0498426 49.6887923,17.0498426 C49.6887923,17.0498426 49.9450079,15.2578678 49.8468175,13.0900079 C49.4770692,12.9151062 49.1057868,12.6404799 48.7452439,12.2369788 C48.064048,11.4775374 47.3460307,10.8991345 46.6142054,10.4557435 C46.6740401,10.6076318 46.7461487,10.7349725 46.7998466,10.9006688 C47.8906806,14.2422109 47.5807671,17.8982691 48.4000433,17.9366247" id="Fill-103" fill="#7F3200"></path>
                                <path d="M41.3926239,17.7597286 C40.9998623,15.4108301 44.9596971,15.9048505 45.8357396,16.9389182 L45.1177223,17.2350236 C44.4380606,16.4188159 41.3450629,15.9033163 41.3926239,17.7597286" id="Fill-105" fill="#6D3A31"></path>
                                <path d="M41.3926239,17.762797 L41.3926239,17.762797 L41.3926239,17.762797 Z" id="Fill-107" fill="#6D3A31"></path>
                                <path d="M45.2401534,17.6840913 C45.2493588,17.6626121 45.2278796,17.641133 45.2324823,17.6196538 C45.530122,17.5720928 45.2861802,18.4205193 43.8209953,18.8117467 C42.7853934,19.05262 42.2775649,18.7948702 42.2775649,18.7948702 C43.3116326,19.0357435 44.9256373,18.405177 45.2401534,17.6840913" id="Fill-109" fill="#6D3A31"></path>
                                <path d="M41.3926239,17.7612628 C41.3343234,15.5703895 45.6792486,16.6750315 45.2404603,17.6845515 C44.7740559,18.7523721 41.4401849,19.6330173 41.3926239,17.7612628" id="Fill-111" fill="#F7EEE2"></path>
                                <path d="M44.3022817,17.4271086 C44.4848544,18.1083045 44.0337923,18.7572817 43.2958301,18.8738828 C42.5563336,18.9904839 41.8107002,18.5317506 41.6281275,17.8490205 C41.4470889,17.1678245 41.8981511,16.5203816 42.6361133,16.4037805 C43.3740755,16.2856452 44.1212431,16.7443784 44.3022817,17.4271086" id="Fill-113" fill="#6D3A31"></path>
                                <path d="M37.5090401,18.1897718 C36.82631,16.4438238 33.6044375,18.0685681 34.6845319,19.3005507 C35.4807946,20.208812 38.1227301,19.7608183 37.5090401,18.1897718" id="Fill-115" fill="#F7EEE2"></path>
                                <path d="M34.7597089,18.856546 C34.9422817,19.4886467 35.6219434,19.9059559 36.2816601,19.7878206 C36.9413769,19.6681511 37.3295358,19.060598 37.1484972,18.4284972 C36.9659245,17.7963965 36.2847286,17.3790873 35.6250118,17.4972227 C34.9668293,17.615358 34.5802046,18.2244453 34.7597089,18.856546" id="Fill-117" fill="#6D3A31"></path>
                                <path d="M34.5215972,18.9441503 L33.7284028,18.8122069 C34.1012195,17.3869119 36.7937844,16.1794768 37.527144,18.1386821 L37.4811172,18.1509559 C36.8260031,16.6428127 34.2254917,17.8042211 34.5215972,18.9441503" id="Fill-119" fill="#6D3A31"></path>
                                <path d="M37.5929622,18.7328875 C37.6113729,18.8602282 37.6236467,19.4064123 36.916369,19.6963808 C35.9544099,20.0876082 35.2302557,19.6396145 35.2302557,19.6396145 C36.1247089,19.9618017 37.4993745,19.6350118 37.5929622,18.7328875" id="Fill-121" fill="#6D3A31"></path>
                                <path d="M9.21286782,74.0166916 C9.21286782,74.0166916 14.6946538,71.2734972 17.9932376,78.076251 C17.9932376,78.076251 17.6096814,72.2446617 23.1405625,73.1421833 C28.672978,74.039705 31.3149135,82.2892329 31.3149135,82.2892329 L39.0627498,82.2892329 C39.0627498,82.2892329 41.9808458,75.0584304 41.4177852,70.2869906 L12.793749,72.3413179 C12.793749,72.3413179 9.739107,73.2158261 9.21286782,74.0166916" id="Fill-123" fill="#323749"></path>
                                <path d="M40.776786,14.1332809 C40.7798544,14.3434697 41.5638434,14.1793076 43.0873289,14.2529504 C44.4804052,14.3204563 45.5482258,14.6226987 45.5589654,14.4140441 C45.569705,14.2053895 44.7350865,13.6407946 43.1042054,13.5426042 C41.527022,13.4474823 40.7691149,13.7297797 40.776786,14.1332809" id="Fill-125" fill="#7F3500"></path>
                                <path d="M33.143096,16.8945791 C33.1921912,17.0311251 33.5021046,16.4941463 34.5453777,15.8513061 C35.4321597,15.305122 36.5368017,15.1102754 36.4892408,14.9430448 C36.3450236,14.4336821 34.9949056,14.8172384 34.3459284,15.2498899 C33.1415618,16.0522895 33.0847954,16.7350197 33.143096,16.8945791" id="Fill-127" fill="#7F3500"></path>
                                <polygon id="Fill-129" fill="#BAD6F2" points="44.2453619 68.1120732 18.0285248 68.1120732 6.17817073 70.7739536 31.9746302 70.7739536"></polygon>
                                <polygon id="Fill-131" fill="#8394B4" points="6.03794256 70.4965657 31.9003737 70.5042368 26.4692172 50.4457789 0.606785995 50.4381078"></polygon>
                                <polygon id="Fill-133" fill="#A5C0D7" points="6.17586939 72.3296577 31.9876711 72.3756845 31.9892054 70.8199803 6.17740362 70.7739536"></polygon>
                                <polygon id="Fill-135" fill="#A5C0D7" points="6.01999213 70.4710976 31.2886782 70.5033163 25.9633832 50.8391542 0.694697089 50.8069355"></polygon>
                                <path d="M13.5757435,60.4371125 C13.8933281,61.3944689 15.0087097,62.1707868 16.0642565,62.1723233 C17.1228718,62.1738552 17.7212195,61.3990716 17.4036349,60.4417152 C17.0860504,59.4843588 15.972203,58.7080409 14.9135877,58.7065044 C13.8580409,58.7049725 13.2581589,59.4797561 13.5757435,60.4371125" id="Fill-137" fill="#8394B4"></path>
                                <polygon id="Fill-139" fill="#A5C0D7" points="31.2882179 70.50393 25.9629229 50.8397679 0.695771046 50.8075492"></polygon>
                                <polygon id="Fill-141" fill="#8394B4" points="31.9729426 72.3626436 44.24214 69.6685445 44.2452085 68.1113061 31.9744768 70.8069394"></polygon>
                                <polygon id="Fill-143" fill="#8394B4" points="23.9842329 71.1826711 28.7249882 71.188808 28.7249882 70.5045437 23.9857671 70.4984068"></polygon>
                                <polygon id="Fill-145" fill="#8394B4" points="7.75642801 71.1618057 11.8144532 71.1664083 11.8159874 70.4836782 7.75796223 70.4790755"></polygon>
                                <polygon id="Fill-147" fill="#BAD6F2" points="25.7956924 51.0880055 0.763276947 51.0557868 0.695771046 50.8072423 25.9629229 50.8394611 31.2882179 70.5036231 31.0534815 70.5036231"></polygon>
                                <path d="M38.124878,62.547439 C40.2068214,61.674465 55.7899449,58.6597128 56.3867585,57.6885484 C56.9851062,56.7173839 48.7693312,34.667502 55.1455704,34.6091674 C59.0378993,34.5754485 63.4457278,59.6753698 61.8347915,62.4001534 C59.8924626,65.6895319 38.9242093,64.4866994 38.9242093,64.4866994 C38.9242093,64.4866994 36.0429347,63.4219473 38.124878,62.547439" id="Fill-149" fill="#F4BE84"></path>
                                <path d="M60.1957789,45.8455586 C61.4154878,52.7357632 61.7023879,60.4038198 61.0656845,61.496188 C59.5774862,64.0491385 40.6021912,64.3483124 38.650657,64.37286 C38.8117506,64.4449685 38.9252832,64.4863926 38.9252832,64.4863926 C38.9252832,64.4863926 59.8920024,65.6907592 61.8343312,62.4013808 C62.7073053,60.9269906 61.8143863,52.8968568 60.1957789,45.8455586" id="Fill-151" fill="#E2A36A"></path>
                                <path d="M37.9765185,62.5586389 C36.4070063,63.0465224 34.40024,63.3533674 34.2959127,64.0176869 C34.0657789,65.4629268 36.3839929,66.2361762 37.516251,65.85262 C38.6147561,65.4030921 39.493867,63.827443 39.493867,63.827443 C39.493867,63.827443 39.5322227,62.0768922 37.9765185,62.5586389" id="Fill-153" fill="#F4BE84"></path>
                                <path d="M31.3796577,66.138753 C31.1725374,66.0144807 32.0854013,64.6045279 32.3891778,64.3805311 C32.6331196,64.1994925 32.881664,63.9478796 35.2980685,63.3127105 L34.5064083,64.6168017 C34.5064083,64.6168017 32.9921282,64.8055114 32.7865421,64.9006334 C32.5824902,64.9957553 32.178989,66.1203423 31.3796577,66.138753" id="Fill-155" fill="#F4BE84"></path>
                                <path d="M33.3140087,68.705358 C32.9672738,68.6854131 33.309406,67.1496538 33.4704996,66.8105901 C33.6699489,66.3810071 33.6009087,66.1876947 34.9540952,64.0873407 L35.2747482,65.5448544 C35.2747482,65.5448544 34.1931196,66.9210543 34.1087372,67.1281747 C34.0212864,67.335295 33.8310425,68.4491424 33.3140087,68.705358" id="Fill-157" fill="#F4BE84"></path>
                                <path d="M34.496129,68.8903855 C34.1647364,68.8704406 34.4930606,67.3960504 34.6464831,67.0707946 C34.8397954,66.6596223 34.7707553,66.4739811 36.0702439,64.4580094 L36.3801574,65.8556884 C36.3801574,65.8556884 35.341487,67.1766562 35.2586389,67.3761054 C35.1757907,67.5755547 34.9916837,68.6433753 34.496129,68.8903855" id="Fill-159" fill="#F4BE84"></path>
                                <path d="M35.9823328,68.2378796 C35.7000354,68.2210031 35.9792644,66.9736782 36.1081393,66.6990519 C36.2723013,66.3492486 36.2140008,66.1927577 37.3140401,64.4866994 L37.5763926,65.6695869 C37.5763926,65.6695869 36.6972817,66.788037 36.6267073,66.9568017 C36.556133,67.1240323 36.4011762,68.029225 35.9823328,68.2378796" id="Fill-161" fill="#F4BE84"></path>
                            </g>
                        </g>
                    </g>
                </g>
            </g>
        </g>
    </g>
</svg>