<?xml version="1.0" encoding="UTF-8"?>
<svg width="120px" height="142px" viewBox="0 0 120 142" version="1.1" xmlns="http://www.w3.org/2000/svg" xmlns:xlink="http://www.w3.org/1999/xlink">
    <title>t6</title>
    <defs>
        <polygon id="path-1" points="0 0.99454862 63.983089 0.99454862 63.983089 61.8453872 0 61.8453872"></polygon>
        <polygon id="path-3" points="0 141 119.391781 141 119.391781 0.372174419 0 0.372174419"></polygon>
    </defs>
    <g id="Page-1" stroke="none" stroke-width="1" fill="none" fill-rule="evenodd">
        <g id="hiring" transform="translate(-1048.000000, -1541.000000)">
            <g id="Group" transform="translate(939.000000, 1501.000000)">
                <g id="service1">
                    <g id="Path-2">
                        <g id="t6" transform="translate(109.000000, 40.000000)">
                            <polygon id="Fill-1" fill="#A56342" points="34 100 34.5873445 142 36.4126555 142 37 100"></polygon>
                            <polygon id="Fill-2" fill="#A56342" points="13.9172323 100 3 142 4.87733714 142 17 100"></polygon>
                            <polygon id="Fill-3" fill="#A56342" points="49 100 61.1222156 142 63 142 52.0835021 100"></polygon>
                            <g id="Group-102">
                                <g id="Group-6" transform="translate(0.000000, 40.988372)">
                                    <mask id="mask-2" fill="white">
                                        <use xlink:href="#path-1"></use>
                                    </mask>
                                    <g id="Clip-5"></g>
                                    <path d="M63.9350137,51.0457709 C62.2303562,55.3446314 53.5246027,61.8453872 33.7952877,61.8453872 C14.0643288,61.8453872 7.992,57.2218988 4.09610959,50.7965616 C-2.14553425,40.5002826 -3.45073973,1.73020116 16.2670685,1.00880581 C40.7289863,0.118538372 43.2802192,41.2069221 47.9043288,44.28105 C52.5284384,47.3568174 64.8473425,48.7455035 63.9350137,51.0457709" id="Fill-4" fill="#F4E2D4" mask="url(#mask-2)"></path>
                                </g>
                                <path d="M36.5411507,101.333421 C16.8118356,101.333421 10.7395068,96.8132233 6.84361644,90.5321651 C0.657863014,80.5588744 -0.657205479,43.5086651 18.5000548,42.0527581 C17.7751233,41.9904558 17.0321096,41.9707814 16.267726,41.9986535 C-3.45172603,42.7184093 -2.14487671,81.4884907 4.09676712,91.7847698 C7.9910137,98.210107 14.0649863,102.833595 33.7943014,102.833595 C45.6743014,102.833595 53.5334795,100.474305 58.2989589,97.6592233 C53.4447123,99.7578279 46.3597808,101.333421 36.5411507,101.333421" id="Fill-7" fill="#E5C2B8"></path>
                                <mask id="mask-4" fill="white">
                                    <use xlink:href="#path-3"></use>
                                </mask>
                                <g id="Clip-10"></g>
                                <polygon id="Fill-9" fill="#A56342" mask="url(#mask-4)" points="11.8849315 110.799767 53.7123288 110.799767 53.7123288 108.830686 11.8849315 108.830686"></polygon>
                                <path d="M70.8465205,58.8688116 C70.8465205,58.8688116 75.8667945,60.4526023 76.5374795,60.7001721 C79.1577534,61.6740558 78.9572055,62.4774279 78.9374795,62.7364744 C78.9374795,62.7364744 79.8514521,64.0579395 79.7002192,64.2727186 C79.4404932,64.6383349 79.1807671,64.221893 77.8739178,62.8856721 C77.5829589,62.5905558 76.7659726,61.8789977 76.6196712,61.9822884 C76.471726,62.0855791 77.272274,62.6381023 77.7555616,63.0742186 C78.1632329,63.4447535 79.072274,65.4367884 78.6481644,65.561393 C78.2437808,65.6794395 77.4333699,64.0726953 76.9911781,63.611986 C76.662411,63.2676837 75.6974795,62.624986 75.5100822,62.7463116 C75.3243288,62.8676372 76.2892603,63.7890558 76.4437808,64.0185907 C76.5999452,64.246486 77.3791233,65.441707 77.0667945,65.6745209 C76.792274,65.8811023 76.1889863,64.9465674 75.4377534,64.148114 C74.8772055,63.5513233 72.981863,62.5249744 72.7287123,62.5167767 C72.4328219,62.5069395 72.7237808,63.2447302 73.1199452,63.8120093 C73.5161096,64.3760093 73.7856986,65.2695558 73.3550137,65.3613698 C72.9259726,65.4531837 72.1944658,63.7726605 71.2706301,62.6626953 C70.3484384,61.5560093 70.2202192,60.0951837 70.2202192,60.0951837 C70.2202192,60.0951837 70.5637808,58.8786488 70.8465205,58.8688116" id="Fill-11" fill="#E2A36A" mask="url(#mask-4)"></path>
                                <path d="M70.8465205,58.8688116 C70.3533699,58.6999395 67.7133699,58.6540326 65.7456986,58.8786488 L65.8804932,61.7330791 L70.6196712,60.6198349 L70.8465205,58.8688116 Z" id="Fill-12" fill="#E2A36A" mask="url(#mask-4)"></path>
                                <path d="M44.3710685,36.9367535 C39.2998356,38.5697302 42.3310685,64.7990093 46.6231233,67.1173116 C50.6751781,69.5848116 62.3907945,63.5185326 68.9349041,61.4084512 C68.9349041,61.4084512 69.9507945,59.7426837 69.7716164,58.3162884 C65.7902466,58.1654512 53.2987397,61.049393 51.8686027,60.8723233 C50.4384658,60.693614 49.425863,35.3103349 44.3710685,36.9367535" id="Fill-13" fill="#E55DAA" mask="url(#mask-4)"></path>
                                <path d="M52.3349589,136.482426 C52.3349589,136.482426 51.933863,138.025228 51.9848219,139.6746 L49.8149589,139.199135 L49.9086575,136.482426 L52.3349589,136.482426 Z" id="Fill-14" fill="#E2A36A" mask="url(#mask-4)"></path>
                                <path d="M56.6653151,140.717508 C56.635726,141.155264 49.6790137,140.901136 49.6790137,140.901136 L49.8154521,139.199299 L52.0099726,139.199299 C52.0099726,139.199299 56.6965479,140.279752 56.6653151,140.717508" id="Fill-15" fill="#E2A36A" mask="url(#mask-4)"></path>
                                <path d="M49.6597808,140.890315 L49.7567671,139.941024 C49.7567671,139.941024 50.1660822,140.470594 52.2915616,140.470594 C54.1655342,140.470594 54.3759452,139.801664 54.3759452,139.801664 C56.1315616,140.305001 57.1112877,140.390257 56.8614247,140.750955 C56.5408767,141.213303 49.6597808,140.890315 49.6597808,140.890315" id="Fill-16" fill="#2D313D" mask="url(#mask-4)"></path>
                                <path d="M49.9084932,136.482426 L49.8378082,138.75646 C49.8378082,138.75646 50.8454795,138.130158 51.9928767,138.75646 C51.9928767,138.75646 52.1457534,137.074298 52.3347945,136.482426 L49.9084932,136.482426 Z" id="Fill-17" fill="#D38753" mask="url(#mask-4)"></path>
                                <path d="M62.4805479,136.482426 C62.4805479,136.482426 62.0794521,138.025228 62.130411,139.6746 L59.9605479,139.199135 L60.0542466,136.482426 L62.4805479,136.482426 Z" id="Fill-18" fill="#E2A36A" mask="url(#mask-4)"></path>
                                <path d="M66.8109041,140.717508 C66.7813151,141.155264 59.8246027,140.901136 59.8246027,140.901136 L59.9610411,139.199299 L62.1555616,139.199299 C62.1555616,139.199299 66.8404932,140.279752 66.8109041,140.717508" id="Fill-19" fill="#E2A36A" mask="url(#mask-4)"></path>
                                <path d="M59.8052055,140.890315 L59.9021918,139.941024 C59.9021918,139.941024 60.3115068,140.470594 62.4369863,140.470594 C64.3093151,140.470594 64.5213699,139.801664 64.5213699,139.801664 C66.2769863,140.305001 67.2567123,140.390257 67.0068493,140.750955 C66.6863014,141.213303 59.8052055,140.890315 59.8052055,140.890315" id="Fill-20" fill="#2D313D" mask="url(#mask-4)"></path>
                                <path d="M60.0540822,136.482426 L59.9833973,138.75646 C59.9833973,138.75646 60.9910685,138.130158 62.1384658,138.75646 C62.1384658,138.75646 62.2913425,137.074298 62.4803836,136.482426 L60.0540822,136.482426 Z" id="Fill-21" fill="#D38753" mask="url(#mask-4)"></path>
                                <path d="M48.7181918,76.8956616 C48.7181918,76.8956616 35.1483288,80.9387547 37.145589,93.4041384 L72.2283288,93.4041384 C72.2283288,93.4041384 73.2491507,88.0281035 71.0184658,85.6048709 C68.8075068,83.2062314 48.7181918,76.8956616 48.7181918,76.8956616" id="Fill-22" fill="#476291" mask="url(#mask-4)"></path>
                                <path d="M72.1405479,93.4046302 C72.1405479,93.4046302 67.5164384,107.175084 62.7706849,137.695026 L59.2413699,137.695026 C59.2413699,137.695026 56.7394521,114.921886 57.2769863,108.77527 C57.8128767,102.628653 62.3284932,92.922607 62.3284932,92.922607 C62.3284932,92.922607 69.0156164,91.4027581 72.1405479,93.4046302" id="Fill-23" fill="#476291" mask="url(#mask-4)"></path>
                                <path d="M48.950137,93.4046302 L62.1961644,93.3259326 C62.1961644,93.3259326 57.5276712,103.050014 57.2761644,108.77527 C57.0246575,114.500526 59.2421918,137.695026 59.2421918,137.695026 L60.7117808,137.695026 C60.7117808,137.695026 59.5463014,113.090526 59.9506849,109.122851 C60.3534247,105.156816 65.529863,92.1159558 65.260274,91.2437233 C64.9906849,90.3682116 48.4109589,85.7299674 48.4109589,85.7299674 L48.950137,93.4046302 Z" id="Fill-24" fill="#3E5C87" mask="url(#mask-4)"></path>
                                <polygon id="Fill-25" fill="#3E5C87" mask="url(#mask-4)" points="48.7181918 76.8956616 21.0047671 76.8956616 40.8096986 86.8623942"></polygon>
                                <path d="M21.0041096,76.8956616 C21.0041096,76.8956616 17.0441096,83.4980686 20.1246575,93.4041384 L61.1958904,93.4041384 C61.1958904,93.4041384 62.0293151,87.9313709 59.6983562,85.6048709 C56.4484932,82.36515 32.6112329,79.6386035 21.0041096,76.8956616" id="Fill-26" fill="#5775AA" mask="url(#mask-4)"></path>
                                <path d="M61.1962192,93.4046302 C61.1962192,93.4046302 56.8564932,103.30906 52.8636164,137.695026 L49.3211507,137.695026 C49.3211507,137.695026 46.4148493,114.921886 46.8307397,108.77527 C47.248274,102.628653 51.1408767,93.4046302 51.1408767,93.4046302 C51.1408767,93.4046302 58.0318356,91.4027581 61.1962192,93.4046302" id="Fill-27" fill="#5775AA" mask="url(#mask-4)"></path>
                                <path d="M20.1244932,93.4046302 L51.1403836,93.4046302 C51.1403836,93.4046302 47.106411,103.533677 46.8318904,108.77527 C46.4833973,115.408828 49.3206575,137.695026 49.3206575,137.695026 L50.635726,137.695026 C50.635726,137.695026 48.7486027,114.80384 49.3387397,109.05563 C49.9305205,103.30906 54.8817534,92.1831767 54.0384658,91.0076302 C53.1968219,89.8304442 31.5195616,88.6565372 19.0165479,84.4560488 C19.0165479,84.4560488 18.6138082,89.6746884 20.1244932,93.4046302" id="Fill-28" fill="#476291" mask="url(#mask-4)"></path>
                                <path d="M44.4721644,38.1919814 C45.3466849,32.5880512 51.7412055,13.4136907 50.906137,10.2165977 C48.5965479,1.38934186 30.0639452,-3.12429767 30.7675068,3.62238837 C23.9932603,-1.66183256 14.8798356,30.7189814 26.4918904,41.6792721 C38.6529863,47.1094116 41.6003836,40.6840744 44.4721644,38.1919814" id="Fill-29" fill="#8F4517" mask="url(#mask-4)"></path>
                                <path d="M50.9199452,10.3631721 C49.8925479,11.8600674 45.3391233,7.79893953 45.3391233,7.79893953 C44.8755616,9.82704419 41.7259726,8.84168372 38.561589,8.84168372 C35.3988493,8.84168372 31.2925479,12.7372186 27.7402192,11.417393 C24.232274,10.1106837 24.5429589,7.73499767 24.5495342,7.67761395 C20.3577534,16.1720442 18.4361096,34.0757651 26.4925479,41.6799279 C38.6536438,47.1100674 41.6010411,40.6830907 44.4728219,38.1926372 C45.3358356,32.6542884 51.5791233,13.8898116 50.9199452,10.3631721" id="Fill-30" fill="#7F3200" mask="url(#mask-4)"></path>
                                <path d="M42.6253151,60.3945628 C42.6253151,66.4149349 44.5946301,70.1383186 49.1907945,76.9145163 C40.1644932,79.9870047 30.6384658,79.7148419 20.736,76.9145163 C22.8499726,71.0777721 26.0686027,66.305086 29.6653151,62.142307 C29.6899726,62.1144349 29.7228493,62.075086 29.7442192,62.0521326 C29.7869589,62.001307 29.8231233,61.9603186 29.8510685,61.930807 C29.8823014,61.8947372 29.9266849,61.8439116 29.9266849,61.8439116 C31.805589,58.4500744 25.9814795,54.5643767 23.6833973,47.9783651 C21.3425753,41.2644698 22.3666849,37.7607837 22.3666849,37.7607837 C30.8521644,33.9669 35.8280548,33.0913884 45.4839452,37.0328302 L45.8472329,42.8695744 C45.8472329,42.8695744 48.4642192,47.4242023 48.1716164,49.4687023 C47.8773699,51.5115628 42.6253151,57.1843535 42.6253151,60.3945628" id="Fill-31" fill="#FF77C4" mask="url(#mask-4)"></path>
                                <path d="M49.190137,76.9148442 C48.3353425,74.0587744 42.6246575,69.692693 42.6246575,60.3948907 C42.6246575,56.6682279 47.8832877,52.2709953 48.1709589,49.4165651 C46.1769863,50.2674837 37.9315068,52.8349953 24.8071233,50.4806233 C27.3336986,57.1158209 30.4635616,58.8996349 29.9260274,61.8442395 C29.9260274,61.8442395 29.8816438,61.8950651 29.850411,61.9294953 C29.8241096,61.9606465 29.7879452,62.0016349 29.7435616,62.0524605 C29.7238356,62.075414 29.6909589,62.1147628 29.6663014,62.1426349 C26.0679452,66.305414 22.8509589,71.0764605 20.7353425,76.9148442 C25.5846575,78.2854953 30.340274,79.0413209 34.9939726,79.1036233 C39.5950685,79.093786 44.8093151,78.4051814 49.190137,76.9148442" id="Fill-32" fill="#ED65B2" mask="url(#mask-4)"></path>
                                <path d="M29.3164932,21.1978744 C29.3164932,21.1978744 31.6195068,29.8300256 29.6452603,35.8094093 L37.1049863,35.8258047 L39.5033425,36.8865837 C39.5033425,36.8865837 38.0074521,32.5729674 38.3148493,27.5559907 C38.5400548,23.8768744 29.3164932,21.1978744 29.3164932,21.1978744" id="Fill-33" fill="#F4BE84" mask="url(#mask-4)"></path>
                                <path d="M38.5180274,32.391307 C38.3256986,30.9632721 38.2073425,29.3089814 38.3141918,27.5563186 C38.5393973,23.8772023 29.3158356,21.1982023 29.3158356,21.1982023 C29.3158356,21.1982023 31.5251507,29.5073651 29.7399452,35.4703535 C33.931726,34.8965163 36.9004932,33.4209349 38.5180274,32.391307" id="Fill-34" fill="#D17A4A" mask="url(#mask-4)"></path>
                                <path d="M38.9756712,31.7107869 C39.8649863,31.7205733 41.3822466,30.300736 42.3406027,29.5809802 C44.3756712,28.0562128 46.3203288,26.1363174 45.7860822,21.3390384 C45.7860822,21.3390384 50.908274,9.81310814 41.1701918,7.52923605 C31.4321096,5.24536395 28.5932055,14.8054919 29.8343014,22.4194919 C31.0770411,30.0318523 38.1340274,31.7008988 38.9756712,31.7107869" id="Fill-35" fill="#F4BE84" mask="url(#mask-4)"></path>
                                <path d="M38.673863,7.22018372 C31.5872877,7.56940465 27.9116712,28.4849512 39.0848219,31.6935209 C39.0503014,31.6968 39.0092055,31.7115558 38.9763288,31.7115558 C38.1330411,31.7017186 31.0760548,30.0310326 29.8349589,22.4203116 C28.7072877,15.5080326 30.964274,7.0218 38.673863,7.22018372" id="Fill-36" fill="#E2A36A" mask="url(#mask-4)"></path>
                                <path d="M27.1966027,20.4997605 C27.004274,21.6490744 27.7818082,22.7377256 28.9357808,22.9295512 C30.0881096,23.1230163 31.1779726,22.3458767 31.3703014,21.1965628 C31.5626301,20.0472488 30.7850959,18.9602372 29.6327671,18.7667721 C28.4804384,18.5749465 27.3905753,19.352086 27.1966027,20.4997605" id="Fill-37" fill="#E2A36A" mask="url(#mask-4)"></path>
                                <path d="M29.5099726,19.4991523 C29.8124384,19.5483384 30.0573699,19.7106523 30.2546301,19.9155942 C30.146137,19.8582105 30.0343562,19.8057453 29.9094247,19.7844314 C29.2683288,19.6762221 28.6633973,20.1074198 28.5549041,20.7468384 C28.4480548,21.3846174 28.8803836,21.9896058 29.5214795,22.0961756 C29.6201096,22.1125709 29.7138082,22.094536 29.8091507,22.0863384 C29.5773699,22.1847105 29.3242192,22.2437337 29.0579178,22.1978267 C28.3099726,22.0732221 27.8053151,21.3682221 27.9318904,20.6238733 C28.0551781,19.8762453 28.7620274,19.3745477 29.5099726,19.4991523" id="Fill-38" fill="#D17A4A" mask="url(#mask-4)"></path>
                                <path d="M38.2083288,19.380614 C38.6225753,16.9016372 34.4340822,17.4230093 33.5069589,18.5149395 L34.2680548,18.8264512 C34.986411,17.9673349 38.2592877,17.4213698 38.2083288,19.380614" id="Fill-39" fill="#6D3A31" mask="url(#mask-4)"></path>
                                <polygon id="Fill-40" fill="#6D3A31" mask="url(#mask-4)" points="38.2083288 19.383893 38.2083288 19.383893 38.2083288 19.3822535"></polygon>
                                <path d="M34.1380274,19.3006047 C34.1281644,19.2776512 34.1511781,19.2563372 34.1446027,19.2333837 C33.8306301,19.1825581 34.0887123,20.0777442 35.6388493,20.490907 C36.7336438,20.7433953 37.2711781,20.4712326 37.2711781,20.4712326 C36.1780274,20.7253605 34.4700822,20.0613488 34.1380274,19.3006047" id="Fill-41" fill="#6D3A31" mask="url(#mask-4)"></path>
                                <path d="M38.2091507,19.3822535 C38.2699726,17.0705093 33.6721644,18.2362186 34.1373699,19.3002767 C34.6305205,20.4282767 38.1565479,21.3562535 38.2091507,19.3822535" id="Fill-42" fill="#F7EEE2" mask="url(#mask-4)"></path>
                                <path d="M35.1300822,19.0284419 C34.9361096,19.7481977 35.4128219,20.4318837 36.1952877,20.5564884 C36.9761096,20.677814 37.7667945,20.1941512 37.9591233,19.4743953 C38.1514521,18.7546395 37.6747397,18.072593 36.8939178,17.9496279 C36.1114521,17.8266628 35.322411,18.3103256 35.1300822,19.0284419" id="Fill-43" fill="#6D3A31" mask="url(#mask-4)"></path>
                                <path d="M42.158137,19.7937767 C42.917589,17.854207 46.5060822,19.6593349 45.3027945,21.0283465 C44.4167671,22.0366605 41.4743014,21.5382419 42.158137,19.7937767" id="Fill-44" fill="#F7EEE2" mask="url(#mask-4)"></path>
                                <path d="M45.2186301,20.5350105 C45.0164384,21.2383709 44.2586301,21.7007198 43.5238356,21.569557 C42.7890411,21.4367547 42.3583562,20.7612663 42.5605479,20.0595453 C42.7610959,19.3561849 43.5205479,18.893836 44.2553425,19.0249988 C44.9884932,19.1561616 45.4208219,19.83165 45.2186301,20.5350105" id="Fill-45" fill="#6D3A31" mask="url(#mask-4)"></path>
                                <path d="M45.4850959,20.6327267 L46.3678356,20.4851686 C45.953589,18.9013779 42.953589,17.5602384 42.1366027,19.7359012 L42.1892055,19.7522965 C42.9174247,18.0750523 45.8155068,19.3653663 45.4850959,20.6327267" id="Fill-46" fill="#6D3A31" mask="url(#mask-4)"></path>
                                <path d="M42.0634521,20.3972895 C42.0453699,20.5399291 42.0322192,21.146557 42.8196164,21.4662663 C43.8897534,21.9023826 44.6968767,21.403964 44.6968767,21.403964 C43.7007123,21.7630221 42.1670137,21.3990453 42.0634521,20.3972895" id="Fill-47" fill="#6D3A31" mask="url(#mask-4)"></path>
                                <path d="M42.9519452,16.60275 C42.9519452,16.60275 40.7804384,18.0816105 40.7722192,20.504843 C40.7656438,22.9247965 42.6889315,23.815064 42.6889315,23.815064 C42.6889315,23.815064 41.9245479,25.4316453 40.3711233,25.1840756 C38.8176986,24.9381453 41.8472877,23.8003081 41.8472877,23.8003081 C41.8472877,23.8003081 39.9568767,22.17225 40.0292055,20.4277849 C40.1327671,17.9471686 42.9519452,16.60275 42.9519452,16.60275" id="Fill-48" fill="#D38753" mask="url(#mask-4)"></path>
                                <path d="M36.6101918,7.91993721 C36.6101918,7.91993721 33.7400548,8.42655349 32.5334795,11.9892628 C31.3269041,15.5552512 31.617863,19.4688209 30.7400548,19.4999721 C30.2847123,19.518007 29.3674521,18.5392047 29.3674521,18.5392047 C29.3674521,18.5392047 27.6890959,6.27876279 34.9055342,6.22957674 L36.6101918,7.91993721 Z" id="Fill-49" fill="#8F4517" mask="url(#mask-4)"></path>
                                <path d="M38.5188875,15.2881709 C38.5155616,15.5209849 37.6426849,15.3389965 35.9446027,15.4209733 C34.3944658,15.4963919 33.2059726,15.8324965 33.1928219,15.5996826 C33.1813151,15.3685081 34.1100822,14.7405663 35.9265205,14.632357 C37.6837808,14.5257872 38.5254247,14.8405779 38.5188875,15.2881709" id="Fill-50" fill="#8F4517" mask="url(#mask-4)"></path>
                                <path d="M47.0206027,18.3559047 C46.9647123,18.5067419 46.6195068,17.9115907 45.4573151,17.1967535 C44.4693699,16.5901256 43.2414247,16.373707 43.2940274,16.1884395 C43.4534795,15.6228 44.957589,16.0490791 45.6808767,16.5294628 C47.0222466,17.4213698 47.0863562,18.1788349 47.0206027,18.3559047" id="Fill-51" fill="#8F4517" mask="url(#mask-4)"></path>
                                <path d="M36.338137,25.9851523 C36.2953973,26.0556523 36.0636164,25.9917105 35.9945753,25.9490826 C35.9238904,25.9064547 35.9025205,25.8146407 35.9452603,25.7457802 C35.988,25.6769198 36.078411,25.6556058 36.1474521,25.6965942 C36.2164932,25.7392221 36.3808767,25.9162919 36.338137,25.9851523" id="Fill-52" fill="#93271C" mask="url(#mask-4)"></path>
                                <path d="M42.4076712,26.8865686 C42.4454795,26.9587081 42.6805479,26.9111616 42.7528767,26.8718128 C42.8252055,26.835743 42.8531507,26.7472081 42.8169863,26.6750686 C42.7791781,26.6029291 42.690411,26.575057 42.6164384,26.6127663 C42.5457534,26.648836 42.3715068,26.8144291 42.4076712,26.8865686" id="Fill-53" fill="#93271C" mask="url(#mask-4)"></path>
                                <path d="M36.1719452,25.8826814 L42.5681096,26.8352512 C42.5681096,26.8352512 41.2267397,28.587914 39.1768767,28.3239488 C37.1270137,28.0599837 36.1719452,25.8826814 36.1719452,25.8826814" id="Fill-54" fill="#9A6335" mask="url(#mask-4)"></path>
                                <path d="M36.1719452,25.8826814 L42.5681096,26.8352512 C42.5681096,26.8352512 41.2267397,28.587914 39.1768767,28.3239488 C37.1270137,28.0599837 36.1719452,25.8826814 36.1719452,25.8826814" id="Fill-55" fill="#93271C" mask="url(#mask-4)"></path>
                                <path d="M36.6149589,26.1277919 L41.7946849,26.8918151 C41.7946849,26.8918151 40.5404384,28.3969081 38.8472877,28.0066988 C37.1557808,27.6181291 36.6149589,26.1277919 36.6149589,26.1277919" id="Fill-56" fill="#F7EEE2" mask="url(#mask-4)"></path>
                                <path d="M36.6149589,26.1277919 L41.7946849,26.8918151 L41.4445479,27.2361174 C41.4445479,27.2361174 40.9349589,26.83935 39.2286575,26.6196523 C37.5223562,26.3983151 36.8089315,26.5098035 36.8089315,26.5098035 C36.8089315,26.5098035 36.6675616,26.2392802 36.6149589,26.1277919" id="Fill-57" fill="#D5B698" mask="url(#mask-4)"></path>
                                <path d="M46.601589,8.7092093 C46.601589,8.7092093 45.861863,10.5766395 42.8355616,10.7258372 C35.8443288,11.0734186 33.7287123,10.8865116 30.8536438,16.1379419 C30.8536438,16.1379419 30.7369315,9.65686047 34.9928219,7.13853488 C37.5111781,5.64655814 41.7900822,4.86613953 46.601589,8.7092093" id="Fill-58" fill="#8F4517" mask="url(#mask-4)"></path>
                                <path d="M38.6786301,64.1348337 C38.6654795,63.3117872 39.0846575,61.3246709 39.5268493,59.2195081 C40.1564384,56.2207988 40.8715068,52.8204035 40.7284932,51.1497174 C40.4852055,48.3116826 37.6232877,40.2533686 37.5016438,39.9107058 L37.1252055,40.0451477 C37.1547945,40.1271244 40.0906849,48.3952988 40.3306849,51.1825081 C40.4687671,52.7958105 39.760274,56.1650547 39.1356164,59.1375314 C38.6687671,61.3574616 38.2660274,63.2740779 38.2791781,64.1413919 C38.3564384,69.1944384 39.4676712,73.8539965 41.7361644,78.6725895 C41.8758904,78.6512756 42.0172603,78.646357 42.1569863,78.625043 C39.8753425,73.8146477 38.7558904,69.1714849 38.6786301,64.1348337" id="Fill-59" fill="#DB52A3" mask="url(#mask-4)"></path>
                                <path d="M53.3270137,60.6331151 C55.104,61.0757895 57.3527671,61.2872895 57.5122192,62.0185221 C57.8607123,63.6039523 55.3308493,64.6122663 54.0470137,64.2581267 C52.7976986,63.8285686 51.7193425,62.1365686 51.7193425,62.1365686 C51.7193425,62.1365686 51.5681096,60.1969988 53.3270137,60.6331151" id="Fill-60" fill="#F4BE84" mask="url(#mask-4)"></path>
                                <path d="M60.8888219,64.1859872 C61.1107397,64.03515 60.0060822,62.530057 59.6559452,62.3005221 C59.3732055,62.1152547 59.0806027,61.8512895 56.3534795,61.3004058 L57.3151233,62.6972895 C57.3151233,62.6972895 59.0115616,62.8104174 59.2449863,62.9022314 C59.4800548,62.9940453 59.9995068,64.2154988 60.8888219,64.1859872" id="Fill-61" fill="#F4BE84" mask="url(#mask-4)"></path>
                                <path d="M58.9014247,67.1545291 C59.2844384,67.1102616 58.807726,65.4280988 58.6088219,65.0624826 C58.3573151,64.5984942 58.4247123,64.380436 56.7841644,62.1375523 L56.5195068,63.7721686 C56.5195068,63.7721686 57.8099178,65.2313547 57.918411,65.4559709 C58.0285479,65.6805872 58.3112877,66.9036802 58.9014247,67.1545291" id="Fill-62" fill="#F4BE84" mask="url(#mask-4)"></path>
                                <path d="M57.5980274,67.4347256 C57.9662466,67.3920977 57.5076164,65.7771558 57.3169315,65.4262953 C57.0752877,64.9819814 57.1410411,64.7721209 55.5662466,62.6177721 L55.3114521,64.190086 C55.3114521,64.190086 56.5509041,65.5886093 56.6544658,65.8033884 C56.7596712,66.019807 57.0309041,67.193714 57.5980274,67.4347256" id="Fill-63" fill="#F4BE84" mask="url(#mask-4)"></path>
                                <path d="M55.9052055,66.8054721 C56.2158904,66.7694023 55.8279452,65.4036698 55.6668493,65.1052744 C55.4630137,64.7281814 55.5172603,64.5511116 54.1857534,62.7295884 L53.970411,64.0576116 C53.970411,64.0576116 55.0175342,65.2429953 55.1079452,65.4249837 C55.1950685,65.6069721 55.4252055,66.6005302 55.9052055,66.8054721" id="Fill-64" fill="#F4BE84" mask="url(#mask-4)"></path>
                                <path d="M51.9866301,62.2390395 L49.2447123,62.5357953 L49.1838904,59.9814 C49.1838904,59.9814 50.8556712,60.097807 53.3263562,60.6339349 L51.9866301,62.2390395 Z" id="Fill-65" fill="#F4BE84" mask="url(#mask-4)"></path>
                                <path d="M22.3670137,37.7614395 C17.294137,39.3944163 18.9576986,66.4631372 23.2497534,68.7814395 C28.963726,72.3179163 42.3001644,65.2515209 50.1971507,63.0725791 C50.1971507,63.0725791 51.2113973,61.4068116 51.0322192,59.9820558 C44.5933151,58.7343698 29.9253699,62.7151605 28.4952329,62.5348116 C27.0650959,62.3577419 27.4218082,36.1333814 22.3670137,37.7614395" id="Fill-66" fill="#FF77C4" mask="url(#mask-4)"></path>
                                <path d="M23.6087671,67.4730907 C20.2405479,65.6548465 18.5063014,48.6266372 20.3638356,40.5781605 C17.9490411,47.8970442 19.6849315,66.8566256 23.250411,68.7814395 C28.9643836,72.3179163 42.3008219,65.2515209 50.1978082,63.0725791 C50.1978082,63.0725791 50.5315068,62.4790674 50.7846575,61.7199628 C42.849863,63.9743233 29.2652055,70.9751372 23.6087671,67.4730907" id="Fill-67" fill="#E55DAA" mask="url(#mask-4)"></path>
                                <path d="M30.7395616,19.5007919 C31.6190137,19.4680012 31.326411,15.5560709 32.5329863,11.9900826 C32.6990137,11.5015012 32.8995616,11.0801407 33.1165479,10.7014081 C31.936274,11.2031058 30.7395616,11.6179081 29.5740822,11.6752919 C28.8886027,14.9691174 29.3669589,18.5383849 29.3669589,18.5383849 C29.3669589,18.5383849 30.285863,19.5188267 30.7395616,19.5007919" id="Fill-68" fill="#7F3200" mask="url(#mask-4)"></path>
                                <polygon id="Fill-69" fill="#DB52A3" mask="url(#mask-4)" points="27.5730411 35.6959535 33.9001644 41.968814 35.7313973 39.3127674 37.4787945 40.8063837 38.644274 39.0651977 40.7253699 41.2228256 40.8289315 35.4057558 37.1056438 35.8254767"></polygon>
                                <path d="M46.5598356,8.79577674 C46.1209315,8.45967209 45.756,8.15635814 45.545589,7.9760093 C45.4732603,7.92846279 45.3992877,7.8727186 45.3269589,7.82517209 C44.8370959,9.81064884 41.7088767,8.84168372 38.5625753,8.84168372 C36.5505205,8.84168372 34.1554521,10.4139977 31.7653151,11.2206488 C30.8135342,13.6914279 30.8529863,16.1392535 30.8529863,16.1392535 C33.7280548,10.8861837 35.8436712,11.0747302 42.8349041,10.7271488 C45.4716164,10.595986 46.3707945,9.16303256 46.5598356,8.79577674" id="Fill-70" fill="#7F3200" mask="url(#mask-4)"></path>
                                <polygon id="Fill-71" fill="#ED65B2" mask="url(#mask-4)" points="27.5730411 35.6959535 30.4086575 31.3380698 37.1056438 35.8254767 34.1089315 40.4342093"></polygon>
                                <polygon id="Fill-72" fill="#ED65B2" mask="url(#mask-4)" points="38.5107945 32.3672058 37.1053151 35.8249849 40.4110685 39.804136 40.8286027 35.4069035"></polygon>
                                <polygon id="Fill-73" fill="#8394B4" mask="url(#mask-4)" points="102.313808 66.34755 69.8480548 66.3573872 76.6650411 41.2429919 109.132438 41.2347942"></polygon>
                                <polygon id="Fill-74" fill="#A5C0D7" mask="url(#mask-4)" points="102.141205 68.6419151 54.3549041 68.6992988 54.3532603 66.7531709 102.139562 66.6957872"></polygon>
                                <polygon id="Fill-75" fill="#A5C0D7" mask="url(#mask-4)" points="102.336329 66.3155791 70.6185205 66.3565674 77.3023562 41.7356721 109.020164 41.6946837"></polygon>
                                <path d="M92.8522192,53.7532988 C92.4527671,54.9501593 91.053863,55.9224035 89.7272877,55.9256846 C88.4007123,55.9273221 87.6461918,54.9567174 88.0456438,53.7582174 C88.4450959,52.5597174 89.844,51.5891128 91.1722192,51.5858316 C92.4987945,51.5841942 93.2516712,52.5547988 92.8522192,53.7532988" id="Fill-76" fill="#8394B4" mask="url(#mask-4)"></path>
                                <polygon id="Fill-77" fill="#A5C0D7" mask="url(#mask-4)" points="70.617863 66.3572233 77.3016986 41.7346884 109.021151 41.6953395"></polygon>
                                <polygon id="Fill-78" fill="#8394B4" mask="url(#mask-4)" points="69.758137 68.6835593 54.3553973 68.6999547 54.3521096 66.7521872 69.7564932 66.7357919"></polygon>
                                <polygon id="Fill-79" fill="#8394B4" mask="url(#mask-4)" points="79.7856986 67.2056826 73.8350137 67.2138802 73.8333699 66.3564035 79.7856986 66.3514849"></polygon>
                                <polygon id="Fill-80" fill="#8394B4" mask="url(#mask-4)" points="100.156274 67.1801058 95.0636712 67.186664 95.0620274 66.3308267 100.15463 66.3259081"></polygon>
                                <polygon id="Fill-81" fill="#BAD6F2" mask="url(#mask-4)" points="77.5109589 42.0475116 108.936164 42.0081628 109.02 41.6950116 77.3021918 41.736 70.6183562 66.3568953 70.9109589 66.3552558"></polygon>
                                <polygon id="Fill-82" fill="#B7784E" mask="url(#mask-4)" points="79.2230137 141 82.219726 141 82.219726 73.369186 79.2230137 73.369186"></polygon>
                                <polygon id="Fill-83" fill="#B7784E" mask="url(#mask-4)" points="78.0115068 141 83.4312329 141 83.4312329 126.637674 78.0115068 126.637674"></polygon>
                                <polygon id="Fill-84" fill="#A56342" mask="url(#mask-4)" points="80.7205479 141 82.219726 141 82.219726 73.369186 80.7205479 73.369186"></polygon>
                                <polygon id="Fill-85" fill="#A56342" mask="url(#mask-4)" points="80.7221918 141 83.4312329 141 83.4312329 126.637674 80.7221918 126.637674"></polygon>
                                <polygon id="Fill-86" fill="#B7784E" mask="url(#mask-4)" points="55.4515068 74.5316163 105.989589 74.5316163 105.989589 73.1888372 55.4515068 73.1888372"></polygon>
                                <polygon id="Fill-87" fill="#D39B67" mask="url(#mask-4)" points="42.0493151 73.369186 119.391781 73.369186 119.391781 68.7030698 42.0493151 68.7030698"></polygon>
                                <polygon id="Fill-88" fill="#B7784E" mask="url(#mask-4)" points="85.4153425 73.369186 119.391781 73.369186 119.391781 68.7030698 85.4153425 68.7030698"></polygon>
                                <polygon id="Fill-89" fill="#E8AB73" mask="url(#mask-4)" points="42.0493151 69.6687558 119.391781 69.6687558 119.391781 68.7030698 42.0493151 68.7030698"></polygon>
                                <polygon id="Fill-90" fill="#B7784E" mask="url(#mask-4)" points="96.0193973 140.99918 65.4226849 140.99918 65.4226849 140.326971 77.8007671 137.910297 83.6413151 137.910297 96.0193973 140.326971"></polygon>
                                <polygon id="Fill-91" fill="#A56342" mask="url(#mask-4)" points="83.6408219 137.910624 80.6835616 137.910624 80.6835616 140.999508 96.0189041 140.999508 96.0189041 140.327299"></polygon>
                                <polygon id="Fill-92" fill="#A56342" mask="url(#mask-4)" points="78.0115068 127.6755 83.4312329 127.6755 83.4312329 126.637674 78.0115068 126.637674"></polygon>
                                <polygon id="Fill-93" fill="#8E71A6" mask="url(#mask-4)" points="84.4924932 68.6996267 78.3724932 68.6996267 77.2859178 56.6982314 85.5807123 56.6982314"></polygon>
                                <path d="M77.2854247,56.6977395 L77.3972055,57.9339488 C77.3972055,57.9339488 83.8854247,57.8962395 83.3363836,63.6837977 C82.8613151,68.6991349 78.3736438,68.6991349 78.3736438,68.6991349 L84.492,68.6991349 L85.5802192,56.6977395 L77.2854247,56.6977395 Z" id="Fill-94" fill="#77558F" mask="url(#mask-4)"></path>
                                <polygon id="Fill-95" fill="#FFD8C2" mask="url(#mask-4)" points="76.6060274 56.9705581 86.260274 56.9705581 86.260274 55.6146628 76.6060274 55.6146628"></polygon>
                                <path d="M85.1130411,61.8516174 L84.2566027,61.8516174 C83.8522192,60.8596988 82.8790685,60.1563384 81.7382466,60.1563384 C80.5974247,60.1563384 79.624274,60.8596988 79.2215342,61.8516174 L77.7519452,61.8516174 L77.9064658,63.5468965 L79.1163288,63.5468965 C79.4187945,64.7142453 80.4724932,65.5799198 81.7382466,65.5799198 C83.004,65.5799198 84.0593425,64.7142453 84.3618082,63.5468965 L84.9585205,63.5468965 L85.1130411,61.8516174 Z" id="Fill-96" fill="#FFD8C2" mask="url(#mask-4)"></path>
                                <path d="M85.0359452,62.6986012 L85.1132055,61.8509616 L84.2567671,61.8509616 C83.9608767,61.1262872 83.357589,60.5639267 82.6129315,60.3097988 C83.1586849,61.1230081 83.4759452,62.2132988 83.3362192,63.6839616 C83.2819726,64.2610779 83.1685479,64.7660547 83.0206027,65.2169267 C83.6666301,64.8611477 84.1729315,64.2791128 84.3619726,63.5478802 L84.9586849,63.5478802 L85.0359452,62.6986012 Z" id="Fill-97" fill="#F4C0A4" mask="url(#mask-4)"></path>
                                <polygon id="Fill-98" fill="#F4C0A4" mask="url(#mask-4)" points="82.449863 56.9705581 86.260274 56.9705581 86.260274 55.6146628 82.449863 55.6146628"></polygon>
                                <polygon id="Fill-99" fill="#F4C0A4" mask="url(#mask-4)" points="77.6852055 55.6136791 77.7871233 54.8611326 84.9246575 54.503714 85.1810959 55.6136791"></polygon>
                                <polygon id="Fill-100" fill="#E2AA8F" mask="url(#mask-4)" points="84.9251507 54.5042058 85.1799452 55.6141709 77.6856986 55.6141709 77.7136438 55.3977523 82.4100822 55.3977523 82.4084384 54.63045"></polygon>
                                <path d="M80.4310685,53.1848721 C80.4310685,53.1848721 80.575726,52.1650814 80.1927123,51.2354651 C79.495726,49.5418256 78.3335342,48.7138605 80.0496986,47.8104767 C81.765863,46.907093 82.1472329,46.3840814 82.0042192,46.0496163 C81.8612055,45.7167907 80.335726,45.3839651 80.1450411,45.0527791 C79.9543562,44.7199535 81.0984658,43.8149302 81.1938082,43.1968256 C81.2891507,42.5787209 81.4798356,41.2949651 81.3844932,40.2964884 C81.3844932,40.2964884 82.0042192,42.627907 81.9088767,43.2460116 C81.8135342,43.8624767 81.6705205,44.672407 81.6705205,44.672407 C81.6705205,44.672407 83.2436712,45.5282442 83.3866849,46.0496163 C83.5296986,46.5742674 83.8633973,48.0957558 83.6250411,48.4285814 C83.3866849,48.761407 80.8601096,49.9025233 80.7647671,50.3779884 C80.6694247,50.8534535 81.0031233,51.6617442 81.0031233,51.9945698 C81.0031233,52.3290349 80.4310685,53.1848721 80.4310685,53.1848721" id="Fill-101" fill="#FFF4E3" mask="url(#mask-4)"></path>
                            </g>
                        </g>
                    </g>
                </g>
            </g>
        </g>
    </g>
</svg>