<?xml version="1.0" encoding="UTF-8"?>
<svg width="45px" height="45px" viewBox="0 0 45 45" version="1.1" xmlns="http://www.w3.org/2000/svg" xmlns:xlink="http://www.w3.org/1999/xlink">
    <title>video</title>
    <defs>
        <linearGradient x1="77.1568561%" y1="0%" x2="27.0238416%" y2="100%" id="linearGradient-1">
            <stop stop-color="#78D0BA" offset="0%"></stop>
            <stop stop-color="#4DC8F2" offset="100%"></stop>
        </linearGradient>
    </defs>
    <g id="Page-1" stroke="none" stroke-width="1" fill="none" fill-rule="evenodd">
        <g id="profile-vie-frame" transform="translate(-198.000000, -917.000000)">
            <g id="video" transform="translate(198.000000, 917.000000)">
                <circle id="Oval" fill="url(#linearGradient-1)" cx="22.272" cy="22.272" r="22.272"></circle>
                <g id="audio-file" transform="translate(11.776000, 15.360000)" fill="#FFFFFF" fill-rule="nonzero">
                    <g id="video-camera">
                        <path d="M20.774144,1.18731012 C20.6389831,1.10671077 20.471856,1.10356375 20.3339153,1.17926765 L15.5174576,3.82593245 L15.5174576,2.23789861 C15.5160678,1.00250866 14.5212966,0.00139868663 13.2937288,0 L2.22372881,0 C0.996161039,0.00139868663 0.00138983051,1.00250866 0,2.23789861 L0,11.0741014 C0.00138983051,12.3094914 0.996161039,13.3106013 2.22372881,13.312 L13.2937288,13.312 C14.5212966,13.3106013 15.5160678,12.3094914 15.5174576,11.0741014 L15.5174576,9.51491549 L20.334089,12.1615802 C20.471856,12.2372841 20.6391568,12.234312 20.774144,12.1537126 C20.9093051,12.0729385 20.992,11.9266009 20.992,11.7687241 L20.992,1.57212377 C20.992,1.41407218 20.9091314,1.26790943 20.774144,1.18731012 Z M14.6276187,11.0742762 C14.6269237,11.8155801 14.0299915,12.4161412 13.2933814,12.4170154 L2.22372881,12.4170154 C1.48711864,12.4161412 0.890360158,11.8155801 0.889491525,11.0742762 L0.889491525,2.23789861 C0.890360158,1.49676952 1.48711864,0.896033611 2.22372881,0.895159443 L13.2937288,0.895159443 C14.0301653,0.896033611 14.6270975,1.49676952 14.6279661,2.23789861 L14.6276187,11.0742762 Z M20.1025085,11.0144824 L15.5174576,8.49509807 L15.5174576,4.84574983 L20.1025085,2.32654038 L20.1025085,11.0144824 Z" id="Shape"></path>
                    </g>
                </g>
            </g>
        </g>
    </g>
</svg>