<?xml version="1.0" encoding="UTF-8"?>
<svg width="80px" height="80px" viewBox="0 0 80 80" version="1.1" xmlns="http://www.w3.org/2000/svg" xmlns:xlink="http://www.w3.org/1999/xlink">
    <!-- Generator: Sketch 55.2 (78181) - https://sketchapp.com -->
    <title>Artboard</title>
    <desc>Created with Sketch.</desc>
    <g id="Artboard" stroke="none" stroke-width="1" fill="none" fill-rule="evenodd">
        <path d="M10.5,58.9742999 C0.517031755,49.0429003 -5.13367964,37.3679427 13.4331602,23.5300222 C32,9.69210178 53.954836,-6.60656757 69,7.74033155 C84.045164,22.0872307 82,66.7813808 68,75.5643468 C54,84.3473128 20.4829682,68.9056995 10.5,58.9742999 Z" id="Path-8" fill="#8992A9"></path>
        <g id="noun_Idea_1677101" transform="translate(19.000000, 15.000000)" fill-rule="nonzero">
            <g id="Group" transform="translate(1.000000, 1.000000)" fill="#FAE6B6">
                <polygon id="Path" points="37.5966851 1.7582521 35.8531768 1.7582521 35.8531768 0.0610420168 34.1957182 0.0610420168 34.1957182 1.7582521 32.4520718 1.7582521 32.4520718 3.37169748 34.1957182 3.37169748 34.1957182 5.06904202 35.8531768 5.06904202 35.8531768 3.37169748 37.5966851 3.37169748"></polygon>
                <polygon id="Path" points="49.8961326 28.6317983 48.1526243 28.6317983 48.1526243 26.9344538 46.4951657 26.9344538 46.4951657 28.6317983 44.7515193 28.6317983 44.7515193 30.2452437 46.4951657 30.2452437 46.4951657 31.9424538 48.1526243 31.9424538 48.1526243 30.2452437 49.8961326 30.2452437"></polygon>
                <polygon id="Path" points="5.24848066 28.6317983 3.50483425 28.6317983 3.50483425 26.9344538 1.84737569 26.9344538 1.84737569 28.6317983 0.103867403 28.6317983 0.103867403 30.2452437 1.84737569 30.2452437 1.84737569 31.9424538 3.50483425 31.9424538 3.50483425 30.2452437 5.24848066 30.2452437"></polygon>
                <polygon id="Path" points="17.4484807 1.7582521 15.7049724 1.7582521 15.7049724 0.0610420168 14.0475138 0.0610420168 14.0475138 1.7582521 12.3038674 1.7582521 12.3038674 3.37169748 14.0475138 3.37169748 14.0475138 5.06904202 15.7049724 5.06904202 15.7049724 3.37169748 17.4484807 3.37169748"></polygon>
            </g>
            <g id="Group" fill="#FFFFFF">
                <path d="M25.8652979,9.72041117 C17.1299894,9.72041117 10.0232766,16.7632995 10.0232766,25.4200203 C10.0232766,31.9304467 14.0709787,37.7438071 20.1570532,40.0686853 L20.1570532,45.9519442 L31.5709149,45.9519442 L31.5709149,40.0707411 C37.6568511,37.7428477 41.7046915,31.928665 41.7046915,25.4200203 C41.7051064,16.7632995 34.5995,9.72041117 25.8652979,9.72041117 Z M29.9114787,44.3072741 L21.816766,44.3072741 L21.816766,41.8512335 L29.9114787,41.8512335 L29.9114787,44.3072741 Z M30.4717234,38.7177259 L29.9114787,38.9083706 L29.9114787,40.2067005 L21.816766,40.2067005 L21.816766,38.9060406 L21.2562447,38.7153959 C15.5301596,36.769066 11.6829894,31.4258071 11.6829894,25.4202944 C11.6829894,17.670335 18.0451064,11.3653553 25.8654362,11.3653553 C33.6845213,11.3653553 40.0455319,17.670335 40.0455319,25.4202944 C40.0455319,31.4240254 36.1980851,36.7681066 30.4717234,38.7177259 Z" id="Shape"></path>
                <path d="M22.1132766,48.045335 L19.6304149,48.045335 L19.6304149,49.6900051 L22.1132766,49.6900051 L22.1132766,53.9377766 L29.6503723,53.9377766 L29.6503723,49.6900051 L32.133234,49.6900051 L32.133234,48.045335 L29.6503723,48.045335 L22.1132766,48.045335 Z M27.9907979,52.2931066 L23.7728511,52.2931066 L23.7728511,49.6900051 L27.9907979,49.6900051 L27.9907979,52.2931066 Z" id="Shape"></path>
                <path d="M26.0550426,14.5540964 L26.0550426,16.1987665 C31.1016702,16.1987665 35.2074574,20.2676802 35.2074574,25.2689848 L36.8670319,25.2689848 C36.8670319,19.3609188 32.0167872,14.5540964 26.0550426,14.5540964 Z" id="Path"></path>
                <path d="M31.2986064,32.7039898 L32.2509255,34.0511117 C34.1382766,32.7409949 35.5793404,30.8322183 36.3087234,28.676467 L34.7353085,28.153736 C34.1179468,29.9782234 32.8976064,31.5942487 31.2986064,32.7039898 Z" id="Path"></path>
                <rect id="Rectangle" x="25.2252553" y="0.0622233503" width="1.65957447" height="7.18158883"></rect>
                <polygon id="Rectangle" transform="translate(8.102300, 10.542554) rotate(-135.000000) translate(-8.102300, -10.542554) " points="4.49906512 9.73277103 11.7129878 9.70023127 11.7055356 11.3523377 4.49161298 11.3848774"></polygon>
                <rect id="Rectangle" x="44.7289894" y="22.505802" width="7.24667021" height="1.64467005"></rect>
                <polygon id="Rectangle" transform="translate(42.716774, 10.713891) rotate(-135.000000) translate(-42.716774, -10.713891) " points="41.9070594 7.11065496 43.5590282 7.10320345 43.5264884 14.3171261 41.8745197 14.3245776"></polygon>
                <rect id="Rectangle" x="0.0243404255" y="22.505802" width="7.24667021" height="1.64467005"></rect>
            </g>
        </g>
    </g>
</svg>