<?xml version="1.0" encoding="UTF-8"?>
<svg width="80px" height="80px" viewBox="0 0 80 80" version="1.1" xmlns="http://www.w3.org/2000/svg" xmlns:xlink="http://www.w3.org/1999/xlink">
    <!-- Generator: Sketch 55.2 (78181) - https://sketchapp.com -->
    <title>Artboard Copy 7</title>
    <desc>Created with Sketch.</desc>
    <g id="Artboard-Copy-7" stroke="none" stroke-width="1" fill="none" fill-rule="evenodd">
        <path d="M10.5,58.9742999 C0.517031755,49.0429003 -5.13367964,37.3679427 13.4331602,23.5300222 C32,9.69210178 53.954836,-6.60656757 69,7.74033155 C84.045164,22.0872307 82,66.7813808 68,75.5643468 C54,84.3473128 20.4829682,68.9056995 10.5,58.9742999 Z" id="Path-8" fill="#8992A9"></path>
        <g id="noun_coder_2588724" transform="translate(27.000000, 13.000000)" fill-rule="nonzero">
            <path d="M26.5654976,22.0895952 C26.4912773,22.1488888 26.4036234,22.1925071 26.3055586,22.2030709 L26.1389827,22.2211316 C25.618433,22.2776991 25.1768054,22.6399353 25.0125803,23.1442718 L24.1383927,25.8339525 C23.8838271,26.6177186 23.359919,27.2825567 22.6627183,27.7064719 L20.643993,28.9345993 C20.0720601,29.2825233 19.4175108,29.4668787 18.7505355,29.4668787 L18.2481211,29.4668787 C17.5814817,29.4668787 16.9265966,29.2828641 16.3546636,28.9345993 L14.3359384,27.7064719 C13.6390734,27.2825567 13.1148295,26.6177186 12.860264,25.8342933 L11.9864122,23.1446125 C11.822523,22.6406169 11.3802237,22.2780398 10.8590023,22.2211316 L10.6944414,22.2034117 C10.4647279,22.1785356 10.2780017,21.9996325 10.2397161,21.7682511 L9.88574229,19.6139167 C9.83704571,19.3188117 9.93846894,19.0230252 10.156764,18.8219722 L10.7108975,18.3111611 C10.724331,18.2988935 10.7337345,18.2838997 10.7461605,18.2712913 C10.778401,18.2389184 10.8082907,18.2051823 10.8368369,18.1694017 C10.8563156,18.1445257 10.8751225,18.1196496 10.8925861,18.0934105 C10.9160948,18.0579706 10.9369168,18.0211677 10.9563955,17.9833425 C10.9711723,17.9550587 10.9862851,17.9271158 10.9983753,17.8978097 C11.0148314,17.8586214 11.0275932,17.8180701 11.0400192,17.7771779 C11.0490869,17.7471903 11.059162,17.7175435 11.0658788,17.6872152 C11.0749464,17.646323 11.0789765,17.6044086 11.0836782,17.5621534 C11.0873725,17.5294397 11.0927459,17.4974075 11.0934176,17.4646938 C11.0937534,17.4568561 11.0957684,17.4497 11.0957684,17.4418623 L11.1323748,14.0832543 C11.1384199,13.543478 11.3778728,13.0367562 11.7899466,12.6936029 C12.1929528,12.3576058 12.6926805,12.2243656 13.1981175,12.3214844 C16.6599408,12.9781441 21.1165178,12.5794457 24.1800367,11.742179 L24.1800367,9.25900362 C21.6404259,10.0751427 17.1825055,10.650018 13.6303416,9.97563844 C12.4485259,9.75141318 11.2334622,10.0696904 10.298152,10.8490265 C10.0177268,11.0827932 9.77222888,11.3489329 9.56434484,11.6406302 L9.12338888,10.0138044 C9.00349454,9.57319159 9.0615946,9.11247344 9.28794975,8.71718272 C9.51430491,8.321892 9.87936136,8.04178081 10.3159514,7.92898665 L11.4698925,7.63081477 C11.9907781,7.49621146 12.3551628,7.02015876 12.3551628,6.47493018 L12.3551628,6.41938501 C12.3551628,4.19519317 14.1388011,2.38571581 16.3308191,2.38571581 C17.3863595,2.38571581 18.4133537,2.60687416 19.3842628,3.04305702 C21.4795592,3.9849394 25.2150909,5.15718085 28.6329194,3.63258543 C28.6389645,3.89429515 28.6282177,4.14680413 28.6037015,4.39215699 L30.9612878,4.39215699 C31.0257688,3.4727653 30.9438242,2.48965001 30.7141107,1.44451497 C30.6274643,1.04922425 30.3487184,0.725494782 29.9745943,0.585098422 C29.600806,0.444361294 29.1813437,0.506040277 28.8619613,0.7496893 C26.0261409,2.90709064 22.3033711,1.74609453 20.3356933,0.861801927 C19.0632012,0.289993452 17.7154812,0 16.3301474,0 C13.1383382,0 10.4909233,2.41093263 10.0640725,5.5320255 L9.73528664,5.61721746 C8.68176125,5.88949099 7.80085684,6.56523366 7.25478343,7.51938368 C6.70871002,8.4735337 6.56765784,9.58511847 6.85715064,10.648655 L8.59612243,17.0383932 L8.57697963,17.0561131 C7.76492212,17.8047801 7.38743964,18.9078457 7.56812076,20.0057997 L7.9217587,22.1597934 C8.10378318,23.2703559 8.90509385,24.1631677 9.94384236,24.473948 L10.6282812,26.5812564 C10.8959445,27.4038701 11.3392514,28.1487886 11.9185728,28.767623 C8.60216752,28.7679638 5.8573594,31.2995283 5.46174164,34.5576098 L4.53012562,34.8448771 C1.82058055,35.6797584 0,38.171453 0,41.0444669 L0,49.8073125 C0,50.4660168 0.526258941,51 1.17543477,51 L35.8245652,51 C36.4737411,51 37,50.4660168 37,49.8073125 L37,41.0444669 C37,38.1711122 35.1794195,35.6797584 32.4702102,34.8448771 L31.5382584,34.5576098 C31.1426406,31.2991875 28.3978325,28.7679638 25.0814272,28.767623 C25.6607486,28.1487886 26.1040555,27.4038701 26.3717188,26.5809157 L27.0564935,24.473948 C28.0415078,24.1795245 28.8062121,23.358274 29.0386124,22.3267697 L27.8406764,22.3267697 C27.3916603,22.3267697 26.9631304,22.2402146 26.5654976,22.0895952 Z M14.9075355,33.255195 L14.9075355,30.8350617 L15.1463167,30.9802288 C16.0833061,31.5503334 17.1559743,31.851913 18.248457,31.851913 L18.7508714,31.851913 C19.843354,31.851913 20.9160222,31.5503334 21.8530117,30.9802288 L22.0917928,30.8350617 L22.0917928,33.255195 C22.0917928,33.4766942 22.1552663,33.6814956 22.2590404,33.8593765 C21.7707312,35.4974476 20.2708764,36.6938836 18.4996642,36.6938836 C16.7284519,36.6938836 15.2282613,35.4974476 14.7402879,33.8593765 C14.844062,33.6818364 14.9075355,33.4766942 14.9075355,33.255195 Z M13.1396816,34.3773436 C13.8442708,36.7024027 15.9802037,38.3980636 18.4996642,38.3980636 C21.0191246,38.3980636 23.1550575,36.7027435 23.8596467,34.3773436 L24.2468685,34.5187623 C24.491359,34.6080435 24.6878245,34.7992142 24.786561,35.0435448 C24.8819391,35.2800377 24.8758941,35.5342505 24.7690974,35.7594981 C23.6144846,38.1973514 21.2414497,39.7120645 18.5765712,39.7120645 C18.5500399,39.7120645 18.5251879,39.7175168 18.4996642,39.7199022 C18.4738046,39.7175168 18.4489525,39.7120645 18.4227571,39.7120645 C15.7575428,39.7120645 13.3848437,38.1976921 12.2302309,35.7594981 C12.1237701,35.5345913 12.1173892,35.2803785 12.2127673,35.0438856 C12.3115038,34.7992142 12.5083052,34.6080435 12.7527956,34.5187623 L13.1396816,34.3773436 Z M24.8147714,45.1854779 C24.8147714,45.5269273 24.5410631,45.8046532 24.204217,45.8046532 C23.8677069,45.8046532 23.5939985,45.5269273 23.5939985,45.1854779 C23.5939985,44.8436878 23.8677069,44.565962 24.204217,44.565962 C24.5410631,44.565962 24.8147714,44.8436878 24.8147714,45.1854779 Z M13.4060015,45.1854779 C13.4060015,45.5269273 13.1322931,45.8046532 12.795783,45.8046532 C12.4589369,45.8046532 12.1852286,45.5269273 12.1852286,45.1854779 C12.1852286,44.8436878 12.4589369,44.565962 12.795783,44.565962 C13.1319573,44.565962 13.4060015,44.8436878 13.4060015,45.1854779 Z M29.2357496,35.3689781 L29.2357496,35.4565554 C29.2357496,35.9816787 29.5742748,36.445123 30.0693007,36.597787 L31.7861072,37.1269995 C33.4985477,37.6548489 34.6484588,39.2288557 34.6484588,41.0444669 L34.6484588,48.614625 L2.35086955,48.614625 L2.35086955,41.0444669 C2.35086955,39.2288557 3.50111644,37.6548489 5.21322115,37.1269995 L6.93002759,36.597787 C7.42538939,36.4454638 7.76391461,35.9816787 7.76391461,35.4565554 L7.76391461,35.3689781 C7.76391461,33.0442597 9.62815416,31.1526573 11.9195803,31.1526573 L12.5566659,31.1526573 L12.5566659,32.7791423 L12.184221,32.9151087 C11.4930654,33.1672769 10.9372527,33.7077348 10.6588425,34.3977897 C10.3851342,35.0759177 10.406292,35.8412824 10.7169426,36.4972605 C11.0514378,37.2036723 11.4715717,37.8449974 11.9558509,38.4174874 L11.9558509,43.0256912 C11.1078586,43.3664591 10.5057002,44.2050888 10.5057002,45.1851372 C10.5057002,46.4660836 11.5330302,47.5081517 12.7954471,47.5081517 C14.0578641,47.5081517 15.0848582,46.4657428 15.0848582,45.1851372 C15.0848582,44.2050888 14.4826998,43.3664591 13.6350434,43.0256912 L13.6350434,39.9352675 C15.0160113,40.8826021 16.6669934,41.4152223 18.4227571,41.4152223 C18.4492884,41.4152223 18.4741404,41.40977 18.4996642,41.4073846 C18.5255237,41.40977 18.5503758,41.4152223 18.5765712,41.4152223 C20.3323349,41.4152223 21.983317,40.8826021 23.3642849,39.9352675 L23.3642849,43.0256912 C22.5166285,43.3664591 21.9144701,44.2050888 21.9144701,45.1851372 C21.9144701,46.4660836 22.9418001,47.5081517 24.2038812,47.5081517 C25.466634,47.5081517 26.4936281,46.4657428 26.4936281,45.1851372 C26.4936281,44.204748 25.8914697,43.3664591 25.0434775,43.0256912 L25.0434775,38.4174874 C25.5280924,37.8449974 25.9478906,37.2036723 26.2823857,36.4972605 C26.5930363,35.8412824 26.6141942,35.0762585 26.3404858,34.3977897 C26.0620757,33.7080755 25.5062629,33.1676177 24.8154431,32.9151087 L24.4426624,32.7788016 L24.4426624,31.1526573 L25.0800839,31.1526573 C27.3718458,31.1526573 29.2357496,33.0442597 29.2357496,35.3689781 Z" id="Shape" fill="#FFFFFF"></path>
            <path d="M39.1799286,5 L28.8200714,5 C27.265085,5 26,6.29324808 26,7.88285121 L26,18.472994 C26,20.0625971 27.265085,21.3558452 28.8200714,21.3558452 L31.0371615,21.3558452 L31.0371615,25.1414976 C31.0371615,25.4917666 31.2450976,25.8070087 31.5628805,25.937501 C31.6646651,25.9793959 31.7711526,26 31.8766324,26 C32.1006928,26 32.3203863,25.9083119 32.4823011,25.7366114 L36.6060886,21.3558452 L39.1799286,21.3558452 C40.734915,21.3558452 42,20.0625971 42,18.472994 L42,7.88285121 C41.9996641,6.29324808 40.734915,5 39.1799286,5 Z M40.3200504,18.472994 C40.3200504,19.1158406 39.808776,19.6388403 39.1795927,19.6388403 L36.2483309,19.6388403 C36.0199034,19.6388403 35.8015536,19.7339624 35.6429981,19.9022288 L32.7161033,23.0113813 L32.7161033,20.4973427 C32.7161033,20.023106 32.3402058,19.6388403 31.8762965,19.6388403 L28.8193995,19.6388403 C28.1905522,19.6388403 27.6789418,19.1158406 27.6789418,18.472994 L27.6789418,7.88285121 C27.6789418,7.24000458 28.1902163,6.71700489 28.8193995,6.71700489 L39.1792568,6.71700489 C39.8081041,6.71700489 40.3197145,7.24000458 40.3197145,7.88285121 L40.3197145,18.472994 L40.3200504,18.472994 Z" id="Shape" fill="#FAE6B6"></path>
            <path d="M31.6852658,12.4043994 C32.0556058,12.1244206 32.1065188,11.624141 31.7985996,11.2867062 C31.4906805,10.9489541 30.9404014,10.9032432 30.5707589,11.1835395 L28.3145448,12.8897594 C28.1154261,13.0405416 28,13.2643342 28,13.5001894 C28,13.7360445 28.1154261,13.9598371 28.3145448,14.1106193 L30.5707589,15.8168393 C30.7336108,15.9400045 30.9309859,16 31.1276636,16 C31.3776954,16 31.6263323,15.9025471 31.7985996,15.7136725 C32.1065188,15.3765552 32.0552571,14.8762756 31.6852658,14.5959794 L30.236337,13.5001894 L31.6852658,12.4043994 Z" id="Path" fill="#FFFFFF"></path>
            <path d="M36.4292411,11.1831868 C36.0592499,10.903505 35.5093195,10.9489017 35.2014004,11.2863612 C34.8934812,11.6235032 34.9447429,12.1238194 35.3147342,12.4041361 L36.763663,13.5 L35.3147342,14.5958766 C34.9443942,14.8758759 34.8934812,15.3761921 35.2014004,15.7136515 C35.3736677,15.9025399 35.6223046,16 35.8723364,16 C36.0686653,16 36.2663892,15.9400002 36.4292411,15.8168259 L38.6854552,14.110481 C38.8845739,13.9596877 39,13.7358788 39,13.5 C39,13.2641339 38.8845739,13.040325 38.6854552,12.8895317 L36.4292411,11.1831868 Z" id="Path" fill="#FFFFFF"></path>
            <path d="M34.4717788,10.0410035 C34.0672256,9.90268594 33.6286503,10.1257584 33.4931806,10.5378753 L32.0401294,14.9621459 C31.9046597,15.374893 32.1233288,15.8210379 32.5281913,15.9590404 C32.6095349,15.9867669 32.6921158,16 32.7734594,16 C33.0969783,16 33.3985374,15.791736 33.5067894,15.4621685 L34.9598407,11.0378979 C35.0953104,10.6251509 34.8769506,10.1790059 34.4717788,10.0410035 Z" id="Path" fill="#FFFFFF"></path>
        </g>
    </g>
</svg>