<?xml version="1.0" encoding="UTF-8"?>
<svg width="80px" height="80px" viewBox="0 0 80 80" version="1.1" xmlns="http://www.w3.org/2000/svg" xmlns:xlink="http://www.w3.org/1999/xlink">
    <!-- Generator: Sketch 55.2 (78181) - https://sketchapp.com -->
    <title>Artboard Copy 8</title>
    <desc>Created with Sketch.</desc>
    <g id="Artboard-Copy-8" stroke="none" stroke-width="1" fill="none" fill-rule="evenodd">
        <path d="M10.5,58.9742999 C0.517031755,49.0429003 -5.13367964,37.3679427 13.4331602,23.5300222 C32,9.69210178 53.954836,-6.60656757 69,7.74033155 C84.045164,22.0872307 82,66.7813808 68,75.5643468 C54,84.3473128 20.4829682,68.9056995 10.5,58.9742999 Z" id="Path-8" fill="#8992A9"></path>
        <g id="noun_launch_1508982" transform="translate(18.000000, 10.000000)" fill-rule="nonzero">
            <path d="M6.07291667,52.4652632 L8.36458333,52.4652632 C8.36458333,50.6444675 9.8523038,49.1684211 11.6875,49.1684211 C12.100085,49.1607213 12.5097829,49.2381466 12.890625,49.3957895 L13.8645833,49.7936842 L14.3229167,48.8273684 C14.8671806,47.8206706 15.9215428,47.1886586 17.0729167,47.1789474 C18.6850153,47.1763831 20.0181261,48.4241662 20.109375,50.0210526 L20.2239583,51.5557895 L21.65625,51.0442105 L22.4583333,50.9305263 C23.7872685,50.9305263 24.8645833,51.9993876 24.8645833,53.3178947 L24.8645833,53.4315789 L27.15625,53.4315789 L27.15625,53.2610526 C27.15625,50.6868243 25.0529211,48.6 22.4583333,48.6 L22.171875,48.6 C21.4699788,46.3942716 19.4042459,44.8974287 17.0729167,44.9052632 C15.4016385,44.8915682 13.8250577,45.673673 12.8333333,47.0084211 L11.6875,46.8947368 C11.1813487,46.8828657 10.6770657,46.9598389 10.1979167,47.1221053 C9.4480057,44.9920148 7.43031765,43.5588682 5.15625,43.5410526 C3.12270512,43.5052171 1.2498259,44.6333996 0.34375,46.44 L2.40625,47.4631579 C2.93083073,46.4381136 3.9976634,45.7986265 5.15625,45.8147368 C6.56253864,45.8099953 7.78064727,46.7815749 8.078125,48.1452632 C6.81169173,49.2299416 6.08042843,50.8053676 6.07291667,52.4652632 Z" id="Path" fill="#FFFFFF"></path>
            <path d="M49.328125,48.9410526 C50.9402236,48.9384884 52.2733344,50.1862714 52.3645833,51.7831579 L54.65625,51.6694737 C54.5038706,48.8614694 52.1624338,46.6633015 49.328125,46.6673684 C47.9973615,46.6690226 46.7133203,47.1543428 45.71875,48.0315789 C44.5948803,46.2159826 42.5953684,45.1162553 40.4479167,45.1326316 C37.8616192,45.1435932 35.5446234,46.721211 34.6041667,49.1115789 C32.3390161,49.3816882 30.3932661,50.8349723 29.5052083,52.92 L31.625,53.7726316 C32.2521343,52.2842339 33.7230087,51.3188292 35.3489583,51.3284211 L36.3802083,51.3284211 L36.5520833,50.4189474 C36.8880307,48.3577101 38.792745,46.9189744 40.8847692,47.1462308 C42.9767934,47.3734871 44.5226,49.1870526 44.4010417,51.2715789 C44.4048399,51.6571691 44.3468241,52.0409063 44.2291667,52.4084211 L46.40625,53.1473684 C46.6169875,52.5645251 46.7141972,51.947265 46.6927083,51.3284211 C46.7020593,51.0430304 46.6828682,50.757423 46.6354167,50.4757895 C47.1720267,49.5038328 48.2115427,48.91135 49.328125,48.9410526 Z" id="Path" fill="#FFFFFF"></path>
            <path d="M27.5572917,22.7368421 C30.0569555,22.7368421 32.0833333,20.726365 32.0833333,18.2463158 C32.0833333,15.7662666 30.0569555,13.7557895 27.5572917,13.7557895 C25.0576279,13.7557895 23.03125,15.7662666 23.03125,18.2463158 C23.03125,19.4372774 23.5080994,20.5794604 24.3568969,21.4215974 C25.2056944,22.2637344 26.3569108,22.7368421 27.5572917,22.7368421 L27.5572917,22.7368421 Z M27.5572917,16.0294737 C28.7913029,16.0294737 29.7916667,17.0219877 29.7916667,18.2463158 C29.7916667,19.4706439 28.7913029,20.4631579 27.5572917,20.4631579 C26.3232804,20.4631579 25.3229167,19.4706439 25.3229167,18.2463158 C25.3229167,17.0219877 26.3232804,16.0294737 27.5572917,16.0294737 L27.5572917,16.0294737 Z" id="Shape" fill="#FAE6B6"></path>
            <path d="M39.9895833,33.9347368 L40.734375,33.0821053 C42.2672058,31.4452315 43.0754384,29.2674632 42.9785524,27.0352095 C42.8816664,24.8029558 41.8877332,22.7021837 40.21875,21.2021053 C39.2179385,20.2622993 38.0264622,19.5452715 36.7239583,19.0989474 C36.4947917,12.3915789 33.6875,6.13894737 28.359375,0.909473684 L27.5572917,0.113684211 L26.7552083,0.909473684 C21.4270833,6.13894737 18.6197917,12.3915789 18.390625,19.0989474 C17.0997782,19.5342197 15.9247034,20.2531631 14.953125,21.2021053 C13.2761331,22.6943197 12.2715622,24.79089 12.1639037,27.0232955 C12.0562453,29.255701 12.8544735,31.4378527 14.3802083,33.0821053 L15.125,33.9347368 L20.109375,29.5010526 C20.8661982,31.6085895 21.8863029,33.6136842 23.1458333,35.4694737 C24.0052083,36.72 26.0677083,37.2315789 27.7864583,37.2315789 L27.84375,37.2315789 C28.7604167,37.2315789 30.8802083,37.0610526 31.796875,35.8105263 C33.1139585,33.8406007 34.1909239,31.7226522 35.0052083,29.5010526 L39.9895833,33.9347368 Z M40.6770833,27.1705263 C40.7295538,28.3914365 40.4101214,29.5997164 39.7604167,30.6378947 L35.9791667,27.2842105 L36.09375,27.2842105 L35.8072917,26.9431579 C35.9791667,26.3747368 36.09375,25.8631579 36.2083333,25.2947368 C36.4456769,24.0558143 36.5988,22.8024619 36.6666667,21.5431579 C37.3821128,21.9478378 38.0540055,22.4239953 38.671875,22.9642105 C39.8608032,24.0581609 40.5789866,25.5646906 40.6770833,27.1705263 Z M27.5572917,3.35368421 C28.7031371,4.56794538 29.7384254,5.88043339 30.6510417,7.27578947 C28.6783857,8.12997142 26.4361976,8.12997142 24.4635417,7.27578947 C25.3761579,5.88043339 26.4114462,4.56794538 27.5572917,3.35368421 Z M23.3177083,9.26526316 C24.6476706,9.8699743 26.0943321,10.1803115 27.5572917,10.1747368 C29.0208329,10.185862 30.4686942,9.87526734 31.796875,9.26526316 C34.2743601,14.0639901 35.0416943,19.5534581 33.9739583,24.84 C33.859375,25.2378947 33.8020833,25.6357895 33.6875,26.0905263 C29.9364002,28.4147614 25.1781832,28.4147614 21.4270833,26.0905263 C21.3697917,25.6926316 21.2552083,25.2947368 21.1979167,24.8968421 C20.0272826,19.6012191 20.7779669,14.0655893 23.3177083,9.26526316 L23.3177083,9.26526316 Z M16.4427083,22.9073684 C17.0605778,22.3671532 17.7324705,21.8909957 18.4479167,21.4863158 C18.5067872,22.7871083 18.6793092,24.0803797 18.9635417,25.3515789 C19.0232183,25.8737595 19.1384437,26.3882051 19.3072917,26.8863158 L19.078125,27.2273684 L19.1354167,27.2273684 L15.3541667,30.5810526 C13.8830732,28.0815129 14.3333966,24.9069534 16.4427083,22.9073684 L16.4427083,22.9073684 Z M29.90625,34.5031579 C29.1500087,34.8975503 28.291312,35.0560542 27.4427083,34.9578947 C26.0677083,34.8442105 25.2083333,34.4463158 25.0364583,34.2189474 C23.9671374,32.6172882 23.0830902,30.901203 22.4010417,29.1031579 C25.7010417,30.4673684 29.4135417,30.4673684 32.7135417,29.1031579 C31.9737528,30.9969778 31.0326764,32.8071967 29.90625,34.5031579 L29.90625,34.5031579 Z" id="Shape" fill="#FFFFFF"></path>
            <rect id="Rectangle" fill="#FFFFFF" x="26.4114583" y="40.3010526" width="2.29166667" height="5.99115789"></rect>
            <rect id="Rectangle" fill="#FFFFFF" x="31.7395833" y="38.7094737" width="2.29166667" height="4.92821053"></rect>
            <rect id="Rectangle" fill="#FFFFFF" x="21.0833333" y="38.7094737" width="2.29166667" height="4.92821053"></rect>
        </g>
    </g>
</svg>