<?xml version="1.0" encoding="UTF-8"?>
<svg width="80px" height="80px" viewBox="0 0 80 80" version="1.1" xmlns="http://www.w3.org/2000/svg" xmlns:xlink="http://www.w3.org/1999/xlink">
    <!-- Generator: Sketch 55.2 (78181) - https://sketchapp.com -->
    <title>Artboard Copy 9</title>
    <desc>Created with Sketch.</desc>
    <g id="Artboard-Copy-9" stroke="none" stroke-width="1" fill="none" fill-rule="evenodd">
        <path d="M10.5,58.9742999 C0.517031755,49.0429003 -5.13367964,37.3679427 13.4331602,23.5300222 C32,9.69210178 53.954836,-6.60656757 69,7.74033155 C84.045164,22.0872307 82,66.7813808 68,75.5643468 C54,84.3473128 20.4829682,68.9056995 10.5,58.9742999 Z" id="Path-8" fill="#8992A9"></path>
        <g id="noun_Muscular-arm_1458424" transform="translate(22.000000, 9.000000)" fill-rule="nonzero">
            <path d="M33.8,0 L32.2,0 C32.2,1.316 30.316,3.2 29,3.2 L29,4.8 C30.316,4.8 32.2,6.684 32.2,8 L33.8,8 C33.8,6.684 35.684,4.8 37,4.8 L37,3.2 C35.684,3.2 33.8,1.316 33.8,0 Z M33,5.7208 C32.5496,5.0528 31.9472,4.4504 31.2792,4 C31.9472,3.5496 32.5496,2.9472 33,2.2792 C33.4504,2.9472 34.0528,3.5496 34.7208,4 C34.0528,4.4504 33.4504,5.0528 33,5.7208 Z" id="Shape" fill="#FAE6B6"></path>
            <path d="M44.8,31 C44.8,29.684 46.684,27.8 48,27.8 L48,26.2 C46.684,26.2 44.8,24.316 44.8,23 L43.2,23 C43.2,24.316 41.316,26.2 40,26.2 L40,27.8 C41.316,27.8 43.2,29.684 43.2,31 L44.8,31 Z M42.2792,27 C42.9472,26.5496 43.5504,25.9472 44,25.2792 C44.4504,25.9472 45.0528,26.5504 45.7208,27 C45.0528,27.4504 44.4496,28.0528 44,28.7208 C43.5496,28.0528 42.9472,27.4504 42.2792,27 Z" id="Shape" fill="#FAE6B6"></path>
            <path d="M3.2,20 L4.8,20 C4.8,18.684 6.684,16.8 8,16.8 L8,15.2 C6.684,15.2 4.8,13.316 4.8,12 L3.2,12 C3.2,13.316 1.316,15.2 0,15.2 L0,16.8 C1.316,16.8 3.2,18.684 3.2,20 Z M4,14.2792 C4.4504,14.9472 5.0528,15.5496 5.7208,16 C5.0528,16.4504 4.4504,17.0528 4,17.7208 C3.5496,17.0528 2.9472,16.4504 2.2792,16 C2.9472,15.5496 3.5496,14.9472 4,14.2792 Z" id="Shape" fill="#FAE6B6"></path>
            <path d="M33.9897155,22.5041663 C33.9897155,16.7123306 29.3086137,12 23.5551608,12 C19.491303,12 15.9716475,14.3561653 14.2491433,17.7780995 L14.2371034,17.7611312 L11.0625908,20.2215302 L10.7656073,20.4259574 C10.3361852,20.6271526 9.84816913,20.8841007 9.42837897,21.2557865 C8.59682522,21.9918862 8.2412477,23.0754314 7.92901372,24.0321185 C7.84152399,24.3011868 7.75483692,24.565407 7.66012327,24.8110428 L2.8522015,37.2156552 C2.44204323,38.274152 2.07041255,40.4258901 1.7116244,42.505715 C1.50855191,43.6813736 1.31751929,44.7923912 1.16340895,45.4008248 C1.10240693,45.6408046 1.04541821,45.8832085 0.988429489,46.1256123 C0.763685232,47.0839155 0.550980847,47.9880818 0.107913599,48.75731 C-0.112014709,49.1403081 0.0148052644,49.6307718 0.392054552,49.8562074 L3.21981889,51.5473782 C10.7993189,56.0795219 20.2763026,59.2065314 28.5717736,59.9127346 C29.2147028,59.9676795 30.0245847,60 30.9492468,60 C35.563728,60 43.0075788,59.1871391 46.5392743,56.2564767 L45.5190959,55.009713 C41.8718177,58.0365289 32.76807,58.6465786 28.7074229,58.3023651 C20.6423147,57.6155542 11.4213789,54.5717701 4.04093808,50.1575962 L1.85208956,48.8494234 C2.17796873,48.0818113 2.36659337,47.2794546 2.55040207,46.4981062 C2.60498282,46.2637825 2.66036622,46.0302668 2.7181576,45.7991752 C2.88751845,45.1309486 3.07534044,44.0417473 3.29286077,42.7820554 C3.60589742,40.9680667 3.99518657,38.7104789 4.3467508,37.8030805 L9.15467257,25.3984681 C9.25982078,25.1277839 9.35533708,24.8360912 9.45326137,24.5379345 C9.71332258,23.7412339 9.98301569,22.9162528 10.4870849,22.4702298 C10.7712259,22.2181298 11.1412513,22.0306708 11.4984341,21.8650282 C11.5401723,21.8464439 11.5795026,21.8238195 11.6156222,21.7979631 L13.3164546,20.4962545 C13.1912399,21.1458968 13.120606,21.8165474 13.120606,22.5041663 C13.120606,25.4986617 14.3783712,28.1974245 16.3818057,30.1124148 C16.3810031,30.2909856 16.3777924,30.4695564 16.3810031,30.6481273 C16.4050828,31.6912718 16.5158496,32.7303762 16.6234058,33.7355441 C16.7486205,34.9168589 16.8674138,36.0327245 16.8601899,37.1631344 C16.8385182,40.5479 15.5358041,43.708038 13.3758513,45.6141402 L14.4337546,46.8293915 C16.1137179,45.346688 17.3120864,43.2959515 17.9469889,40.9527144 C18.2969478,40.9373622 18.7905826,40.9607945 19.3941814,41.0739163 C20.2353671,41.2322868 20.7490682,41.5102432 21.7604174,42.1954381 C21.3237714,42.8733608 20.9665885,43.5997643 20.7089353,44.3714165 L22.230775,44.8861207 C23.2991129,41.681542 26.3652666,39.3294167 30.2316705,38.7468395 C34.1133249,38.1586062 37.7212729,39.5007154 39.6637054,42.2350307 L40.96963,41.2945038 C40.1637613,40.1608619 39.1187005,39.2340712 37.9131081,38.5311001 C40.2384085,36.5821732 43.6039538,35.8816261 46.4734563,36.885178 L47,35.3588418 C43.3816175,34.0910698 39.0986341,35.116438 36.3479249,37.7780322 C34.4375987,37.0451645 32.2487502,36.8076088 29.9940837,37.1485902 C27.0459207,37.5921892 24.498284,38.9528828 22.7412655,40.9123138 C21.5750034,40.1204612 20.8453872,39.7043347 19.6879543,39.4861712 C19.1870956,39.3916337 18.7151327,39.350425 18.280092,39.3423449 C18.3868456,38.6353337 18.4598874,37.9153943 18.4639007,37.1752546 C18.4719273,35.9519232 18.3426994,34.738288 18.2174847,33.5642454 C18.1420348,32.8515781 18.0754142,32.1235586 18.0304654,31.4003872 C19.6365841,32.4128272 21.5260412,33.0083326 23.5551608,33.0083326 C29.3086137,33.0083326 33.9897155,28.296002 33.9897155,22.5041663 Z M14.7259221,22.5041663 C14.7259221,17.6035687 18.6870397,13.6160256 23.5551608,13.6160256 C28.4232819,13.6160256 32.3843994,17.6035687 32.3843994,22.5041663 C32.3843994,27.4047639 28.4232819,31.392307 23.5551608,31.392307 C18.6870397,31.392307 14.7259221,27.4047639 14.7259221,22.5041663 Z" id="Shape" fill="#FFFFFF"></path>
            <path d="M24,27 C26.7575,27 29,24.7575 29,22 C29,19.2425 26.7575,17 24,17 C21.2425,17 19,19.2425 19,22 C19,24.7575 21.2425,27 24,27 Z M24,18.6666667 C25.8383333,18.6666667 27.3333333,20.1616667 27.3333333,22 C27.3333333,23.8383333 25.8383333,25.3333333 24,25.3333333 C22.1616667,25.3333333 20.6666667,23.8383333 20.6666667,22 C20.6666667,20.1616667 22.1616667,18.6666667 24,18.6666667 Z" id="Shape" fill="#FFFFFF"></path>
        </g>
    </g>
</svg>