<?xml version="1.0" encoding="UTF-8"?>
<svg width="42px" height="42px" viewBox="0 0 42 42" version="1.1" xmlns="http://www.w3.org/2000/svg" xmlns:xlink="http://www.w3.org/1999/xlink">
    <title>Artboard</title>
    <g id="Artboard" stroke="none" stroke-width="1" fill="none" fill-rule="evenodd">
        <g id="symbol" transform="translate(1.000000, 1.000000)" fill-rule="nonzero">
            <path d="M9.48746146,19.5 C9.48746146,17.627416 10.040027,15.8732388 11,14.3712296 L11,8 L4.17630147,8 C1.46802654,11.2840903 0,15.2865199 0,19.5 C0,23.7134801 1.46802654,27.7159097 4.17630147,31 L11,31 L11,24.6287704 C10.040027,23.1267612 9.48746146,21.372584 9.48746146,19.5 L9.48746146,19.5 Z" id="Path" fill="#FBBD00"></path>
            <path d="M19.4488727,29.5062608 L15,34.2531304 L19.4488727,39 C23.6811595,39 27.7013092,37.5310021 31,34.8209351 L31,28 L24.6072665,28 C23.0853813,28.9640892 21.3159905,29.5062608 19.4488727,29.5062608 L19.4488727,29.5062608 Z" id="Path" fill="#0F9D58"></path>
            <path d="M10.7966748,25 L4,31.4780858 C4.5340762,32.1391946 5.11563809,32.7723069 5.74492192,33.3721686 C9.552597,37.0012867 14.6151385,39 20,39 L20,29.9930679 C16.0921561,29.9930679 12.6671228,27.9875243 10.7966748,25 Z" id="Path" fill="#31AA52"></path>
            <path d="M39,19.4815813 C39,18.2919871 38.8898437,17.100178 38.6725,15.9393784 L38.4966406,15 L19,15 L19,24.1654128 L28.4884375,24.1654128 C27.5670312,25.9573274 26.1503125,27.4192871 24.435,28.4149564 L31.170625,35 C31.85875,34.4820014 32.5177344,33.9179466 33.1421094,33.3076065 C36.9196094,29.6144798 39,24.7043391 39,19.4815813 L39,19.4815813 Z" id="Path" fill="#3C79E6"></path>
            <path d="M27.4126283,12.191042 L28.2556254,13 L35,6.52803056 L34.1570029,5.71907251 C30.3138388,2.0310903 25.2041125,0 19.7689825,0 L15,4.57641737 L19.7689825,9.15283474 C22.6562835,9.15283474 25.3708679,10.2318014 27.4126283,12.191042 Z" id="Path" fill="#CF2D48"></path>
            <path d="M20,9.00693212 L20,0 C14.615165,0 9.55264842,1.9987133 5.74491333,5.62783142 C5.1156326,6.22761804 4.53407357,6.86073031 4,7.52191419 L10.7966414,14 C12.6671588,11.0124757 16.0921753,9.00693212 20,9.00693212 Z" id="Path" fill="#EB4132"></path>
        </g>
    </g>
</svg>