<?xml version="1.0" encoding="UTF-8"?>
<svg width="42px" height="42px" viewBox="0 0 42 42" version="1.1" xmlns="http://www.w3.org/2000/svg" xmlns:xlink="http://www.w3.org/1999/xlink">
    <title>Artboard</title>
    <g id="Artboard" stroke="none" stroke-width="1" fill="none" fill-rule="evenodd">
        <path d="M40,5.01830157 C38.3459377,6.22290537 36.51455,7.14423401 34.5763636,7.74680707 C32.4455301,5.21721104 29.0117299,4.33013737 25.9781407,5.52557788 C22.9445515,6.72101839 20.9564732,9.74468098 21,13.0968178 L21,14.8801548 C14.8347847,15.0452069 8.99895281,12.0124964 5.45454545,6.8016385 C5.45454545,6.8016385 -1.45454545,22.8516708 14.0909091,29.9850185 C10.5336385,32.4780635 6.2959983,33.7281167 2,33.5516924 C17.5454545,42.468377 36.5454545,33.5516924 36.5454545,13.0433177 C36.5438639,12.5465757 36.4976048,12.0510591 36.4072727,11.5631481 C38.1701327,9.76820713 39.4141564,7.50197771 40,5.01830157 Z" id="Path" fill="#FFFFFF"></path>
    </g>
</svg>