<?xml version="1.0" encoding="UTF-8"?>
<svg width="632px" height="583px" viewBox="0 0 632 583" version="1.1" xmlns="http://www.w3.org/2000/svg" xmlns:xlink="http://www.w3.org/1999/xlink">
    <!-- Generator: Sketch 62 (91390) - https://sketch.com -->
    <title>Group 2</title>
    <desc>Created with Sketch.</desc>
    <g id="Page-1" stroke="none" stroke-width="1" fill="none" fill-rule="evenodd">
        <g id="01-Productly-Copy" transform="translate(-103.000000, -1512.000000)">
            <g id="Group-2" transform="translate(103.000000, 1512.000000)">
                <path d="M546.045439,331.658153 C544.242457,334.552132 542.444939,337.396967 540.527222,340.230883 C523.754028,365.408498 502.937784,389.592332 479.886935,411.821365 C478.843391,412.853369 477.750675,413.896293 476.663423,414.928297 C473.37981,418.040689 469.99239,421.158542 466.60497,424.156267 C460.764401,429.512858 454.748999,434.694718 448.629788,439.663625 C445.406275,442.393794 442.078954,445.074819 438.795342,447.690321 C400.665009,477.836843 359.906694,504.210273 319.743909,524.08044 C307.292408,530.310685 294.835443,535.874769 282.542385,540.679866 C218.39448,566.075895 158.683001,572.027662 117.4876,546.850047 C104.369542,538.877954 93.1692003,527.738866 84.2635631,513.056019 C82.843032,510.702614 81.4225009,508.354669 80.0019698,506.012184 C66.8402029,484.001564 54.2685027,461.892658 43.2320689,439.663625 C40.6095499,434.476305 38.156402,429.349048 35.7524263,424.156267 C-4.29562329,338.155954 -19.5444782,251.118177 37.2221296,165.500088 C59.2949973,132.197491 95.5240037,106.260889 139.008646,87.9086948 C151.416439,82.6176279 164.359662,78.0254842 177.805535,74.039438 C184.416469,71.9645098 191.076574,70.1625985 197.90605,68.5299576 C206.489336,66.3458227 215.225602,64.4347046 224.076604,62.7911431 C230.856908,61.4861225 237.626285,60.3394516 244.455761,59.3511306 C247.296824,58.9743673 250.137886,58.5921437 252.978948,58.2044597 C273.139562,55.6435615 293.573356,54.2184135 313.903341,54.0600637 C316.575032,54 319.252187,54 321.880169,54 C334.173227,54.0600637 346.351549,54.5460337 358.371428,55.5343548 C361.594941,55.7527683 364.818453,56.0257851 368.041966,56.4025484 C429.397982,62.3597764 485.672868,79.9366023 523.917936,109.100264 C532.277215,115.488859 539.767784,122.363423 546.263982,129.849546 C547.471434,131.21463 548.618786,132.579714 549.706039,133.993942 C550.088489,134.430769 550.421768,134.867596 550.798755,135.309883 C558.720947,145.242237 565.058701,155.513131 569.817481,165.996979 C594.130417,218.907648 579.919642,277.273193 546.045439,331.658153" id="Fill-1" fill="#74D1BA"></path>
                <path d="M496.678038,478.010233 C470.52842,505.431725 451.909659,544.644072 480.036491,567.876708 C511.448986,593.814647 576.241497,587.793167 609.737821,538.855305 C631.147942,507.594028 642.478151,458.171345 618.76128,430.449264 C598.456073,406.712413 528.759296,444.363635 496.678038,478.010233" id="Fill-4" fill="#E8E5EA"></path>
                <path d="M184.076595,531.047435 C180.222311,531.221323 176.310501,531.347242 172.513744,531.347242 C172.111058,531.347242 171.823425,531.701014 171.823425,532.126739 C171.823425,532.480511 172.111058,532.846275 172.513744,532.846275 C176.368028,532.846275 180.222311,532.720356 184.134121,532.546468 C184.536808,532.546468 184.824441,532.180704 184.824441,531.766971 C184.766914,531.407203 184.421754,531.047435 184.076595,531.047435 M160.132246,531.500967 C156.220436,531.381044 152.308626,531.141199 148.626922,530.901354 C148.109183,530.841392 147.879076,531.141199 147.82155,531.554932 C147.82155,531.980658 148.109183,532.340425 148.511869,532.400387 C152.251099,532.640232 156.162909,532.880077 160.074719,533 C160.477406,533 160.822565,532.700193 160.822565,532.274468 C160.822565,531.860735 160.534932,531.500967 160.132246,531.500967 M207.020865,529.662816 C203.166582,530.076549 199.312298,530.442313 195.515541,530.74212 C195.112855,530.74212 194.825222,531.095892 194.825222,531.521617 C194.882749,531.941346 195.170382,532.241153 195.573068,532.241153 L195.630595,532.241153 C199.427352,531.941346 203.281635,531.575582 207.135918,531.161849 C207.538605,531.095892 207.826238,530.74212 207.826238,530.316395 C207.768711,529.902662 207.423552,529.596859 207.020865,529.662816 M137.175664,529.045491 C133.349361,528.619766 129.465083,528.026149 125.696754,527.360578 C125.290934,527.306613 124.943088,527.546458 124.827139,527.966188 C124.769165,528.379921 125.059036,528.745685 125.464857,528.805646 C129.233186,529.525182 133.117463,530.064834 137.001741,530.544524 L137.11769,530.544524 C137.465536,530.544524 137.755407,530.304679 137.813381,529.878954 C137.871356,529.465221 137.581484,529.099456 137.175664,529.045491 M231.009051,526.33504 C227.066811,526.928657 223.240518,527.534266 219.4722,528.073918 C219.066381,528.127884 218.77651,528.493648 218.834484,528.907381 C218.892458,529.273145 219.240303,529.572951 219.588148,529.572951 L219.646122,529.572951 C223.41444,529.033299 227.298707,528.42769 231.240948,527.774112 C231.588793,527.71415 231.878663,527.354383 231.820689,526.928657 C231.762715,526.514924 231.41487,526.275079 231.009051,526.33504 M113.277165,525.71912 C109.370966,524.8197 105.523951,523.800358 101.795305,522.721054 C101.381011,522.601131 100.966717,522.781015 100.848348,523.200744 C100.729978,523.614477 100.966717,524.040203 101.381011,524.154129 C104.991287,525.173472 108.660747,526.19881 112.389393,527.09823 C112.566947,527.152195 112.744502,527.152195 112.922056,527.218153 L113.099611,527.218153 C113.217981,527.218153 113.33635,527.152195 113.45472,527.09823 L113.513905,527.038269 C113.691459,526.978308 113.750644,526.798424 113.809829,526.612543 C113.869014,526.258772 113.632275,525.839042 113.277165,525.71912 M253.943772,522.049676 C250.142376,522.883139 246.224014,523.728593 242.539584,524.448129 L242.422618,524.448129 C242.013237,524.508091 241.779305,524.861862 241.837788,525.287588 C241.896271,525.641359 242.247169,525.881205 242.598067,525.881205 L242.715033,525.881205 C245.346769,525.401514 248.036987,524.861862 250.727206,524.268245 C251.896866,524.0284 253.066527,523.788555 254.236187,523.488748 C254.645568,523.428787 254.8795,523.009058 254.821017,522.589328 C254.704051,522.22956 254.353153,521.929754 253.943772,522.049676 M276.875686,516.710476 C273.147041,517.729818 269.300026,518.749161 265.393826,519.708542 C264.979532,519.834461 264.742793,520.194228 264.861162,520.613958 C264.920347,520.96773 265.216271,521.207575 265.57138,521.207575 C265.630565,521.207575 265.68975,521.207575 265.748935,521.15361 C269.655135,520.194228 273.561335,519.174886 277.28998,518.209509 C277.645089,518.095582 277.881829,517.675853 277.822644,517.250128 C277.704274,516.896356 277.28998,516.656511 276.875686,516.710476 M91.3270679,518.540337 C90.0745099,518.070876 88.8788865,517.601414 87.6263285,517.07327 C85.292016,516.134346 83.0715724,515.083926 80.8511288,514.027637 C80.5095221,513.851589 80.0540465,514.027637 79.8832432,514.373865 C79.7124398,514.731829 79.8832432,515.201291 80.2248499,515.371471 C82.6160968,516.550993 85.1212127,517.601414 87.6263285,518.663571 C88.6511487,519.133033 89.7329032,519.537944 90.8146578,519.954591 L91.09933,519.954591 C91.3840023,519.954591 91.6686746,519.772674 91.7825435,519.485129 C91.8964124,519.133033 91.725609,518.722254 91.3270679,518.540337 M299.843894,509.485658 C299.065158,509.725503 298.286421,510.02531 297.447781,510.265155 C294.512543,511.170571 291.457499,512.129952 288.402455,513.023376 C287.983135,513.149295 287.743523,513.503067 287.863329,513.928792 C287.983135,514.28856 288.282649,514.462448 288.582163,514.462448 L288.821774,514.462448 C291.816916,513.569024 294.87196,512.669604 297.747296,511.764188 C298.645838,511.464382 299.484477,511.224536 300.323117,510.930726 C300.682534,510.810803 300.922145,510.391074 300.80234,509.965349 C300.682534,509.611577 300.263214,509.371732 299.843894,509.485658 M69.430532,508.573854 L69.0355265,508.270976 C65.8754823,506.332553 62.8282967,504.27298 59.8939699,502.092255 C59.6118231,501.849952 59.1603882,501.971104 58.9346708,502.334558 C58.7089534,502.631379 58.8218121,503.122042 59.1039589,503.364344 C62.0382857,505.478436 65.1419006,507.604643 68.3019448,509.603641 L68.7533797,509.906519 C68.8662384,509.961037 68.9790971,509.961037 69.0919559,509.961037 C69.3741027,509.961037 69.5998201,509.845944 69.7126788,509.603641 C69.9383963,509.234129 69.7691082,508.749524 69.430532,508.573854 M322.82733,502.269416 C319.003797,503.654522 315.119572,504.973671 311.356729,506.286824 C310.931892,506.412743 310.749819,506.832472 310.871201,507.19224 C310.992583,507.546012 311.235347,507.725896 311.599493,507.725896 C311.660185,507.725896 311.720876,507.725896 311.842258,507.671931 C315.665791,506.412743 319.489325,505.027637 323.312858,503.654522 C323.737696,503.528604 323.919769,503.11487 323.798387,502.695141 C323.616314,502.269416 323.130785,502.095528 322.82733,502.269416 M344.771299,493.457914 C344.601295,493.043167 344.204617,492.859493 343.864608,493.043167 C340.407846,494.524407 336.837748,496.058973 333.26765,497.486888 C332.92764,497.664637 332.757635,498.073459 332.870972,498.494132 C332.984308,498.784455 333.26765,498.968129 333.550991,498.968129 C333.607659,498.968129 333.720995,498.908879 333.834332,498.908879 C337.40443,497.427639 340.974528,495.887149 344.374622,494.405908 C344.771299,494.228159 344.941304,493.807487 344.771299,493.457914 M50.5603909,495.65236 C49.2550887,494.631782 47.9497865,493.548487 46.7579889,492.516506 C45.1121731,491.091118 43.5798619,489.614416 42.0475506,488.189028 C41.7637893,487.903951 41.3097712,487.903951 41.0260098,488.189028 C40.7422485,488.468404 40.7422485,488.93023 41.0260098,489.209606 C42.8420824,490.925773 44.7149073,492.636239 46.7012366,494.289689 C47.6660252,495.13922 48.6308138,496.000154 49.6523546,496.79267 C49.7658591,496.912402 49.9361159,496.969418 50.1063727,496.969418 C50.3333818,496.969418 50.5036386,496.855387 50.6738954,496.68434 C50.9009045,496.399263 50.8441522,495.943139 50.5603909,495.65236 M366.770873,484.377744 C366.598076,483.99955 366.137286,483.884447 365.791693,484.05436 C362.45096,485.528772 359.052629,487.068956 355.251106,488.658471 C354.905513,488.768092 354.732717,489.206579 354.905513,489.535444 C355.020711,489.809498 355.308705,489.973931 355.5391,489.973931 C355.654298,489.973931 355.769496,489.91912 355.827094,489.858828 C359.628617,488.269314 363.084547,486.794902 366.42528,485.254718 C366.770873,485.095766 366.943669,484.71209 366.770873,484.377744 M33.6319873,479.713608 C30.9823869,476.699027 28.4532229,473.5096 26.1649317,470.314144 C25.9240589,469.946365 25.4423134,469.892103 25.0810043,470.133269 C24.7799133,470.374436 24.7196951,470.856769 24.9605679,471.158227 C27.0682045,474.172808 29.416714,477.127098 31.8254416,479.954775 C32.0663143,480.201971 32.2469689,480.4974 32.4878417,480.738566 C32.608278,480.865178 32.8491508,480.979733 33.0298054,480.979733 C33.2104599,480.979733 33.3911145,480.92547 33.5717691,480.804887 C33.8126418,480.56372 33.87286,480.256233 33.7524237,479.954775 C33.7524237,479.840221 33.6922055,479.7739 33.6319873,479.713608 M387.758872,473.365022 C387.581631,473.007435 387.108986,472.88824 386.754502,473.067033 C383.386909,474.908605 379.782994,476.762096 376.238159,478.55003 C375.883675,478.728823 375.765514,479.08641 375.883675,479.378439 C375.824595,479.438037 375.883675,479.503595 375.883675,479.563193 C376.001837,479.801584 376.29724,479.980377 376.533562,479.980377 C376.651723,479.980377 376.769884,479.91482 376.888045,479.861182 C377.183448,479.676428 377.537932,479.563193 377.833335,479.378439 C381.141847,477.775259 384.332199,476.046923 387.463469,474.378185 C387.817953,474.193431 387.936114,473.716649 387.758872,473.365022 M408.713125,462.350939 C408.532405,462.010461 408.050487,461.904411 407.689048,462.066277 C407.026411,462.406755 406.424013,462.797468 405.761375,463.132364 C402.990345,464.695214 400.159076,466.196665 397.207326,467.709281 C396.845888,467.871147 396.725408,468.317676 396.966367,468.658154 C397.086847,468.881418 397.327806,468.987468 397.629005,468.987468 C397.749484,468.987468 397.869964,468.987468 397.990443,468.937234 C401.544591,467.039488 405.098738,465.141742 408.472165,463.299812 C408.532405,463.243996 408.592645,463.182598 408.652885,463.132364 C408.893844,462.9091 408.893844,462.630019 408.713125,462.350939 M19.729469,459.865272 C17.7047301,456.50682 15.8586447,452.959493 14.2507638,449.42397 C14.0721104,449.069827 13.5957013,448.892756 13.2383944,449.069827 C12.8810876,449.240996 12.7024341,449.660065 12.8810876,450.073231 C14.5485195,453.614656 16.394605,457.215105 18.4193438,460.638483 C18.5384461,460.874578 18.7766507,460.992626 19.0744064,460.992626 C19.1935087,460.992626 19.312611,460.933602 19.4317133,460.874578 C19.7890201,460.697507 19.9081224,460.225317 19.729469,459.865272 M428.798753,449.515756 C428.798753,449.456395 428.741714,449.391098 428.741714,449.337674 C428.513558,448.98151 428.057246,448.916213 427.772051,449.100231 C427.543895,449.218952 427.372779,449.391098 427.144623,449.515756 C425.547531,450.637673 423.836362,451.830823 422.182231,452.89338 C420.870335,453.843151 419.501399,454.739498 418.189503,455.629908 C417.847269,455.802054 417.733191,456.282876 417.961347,456.63904 C418.075425,456.876483 418.303581,456.995204 418.531737,456.995204 C418.645815,456.995204 418.816932,456.935844 418.93101,456.876483 C420.927374,455.564611 422.866699,454.264612 424.806024,452.89338 C426.060882,452.068266 427.31574,451.237216 428.570597,450.346806 C428.798753,450.162788 428.912831,449.812559 428.798753,449.515756 M447.657263,436.313509 C447.422705,435.978916 446.953588,435.917573 446.660391,436.140636 C443.552495,438.376836 440.32732,440.60746 437.160785,442.782318 C436.808948,443.005381 436.750308,443.39574 436.984866,443.730333 C437.160785,443.89763 437.336704,444.003585 437.571262,444.003585 C437.74718,444.003585 437.864459,444.003585 438.040378,443.89763 C441.206913,441.717195 444.432088,439.492148 447.539984,437.255948 C447.891821,437.032885 447.950461,436.586761 447.657263,436.313509 M6.79451951,427.582842 C6.67451013,427.164749 6.25447731,426.925839 5.83444449,427.045294 C5.47441636,427.164749 5.23439761,427.582842 5.2944023,427.935234 C6.37448669,431.883222 7.57458045,435.76551 8.8946836,439.468616 C9.01469297,439.826981 9.25471172,440.006163 9.61473985,440.006163 C9.67474454,440.006163 9.73474923,440.006163 9.85475861,439.940463 C10.2147867,439.826981 10.4548055,439.402916 10.2747914,438.990796 C8.95468828,435.28769 7.81459921,431.459157 6.79451951,427.582842 M466.675392,420.241055 C466.368544,419.954496 465.877588,419.954496 465.57074,420.188421 C462.563631,422.644637 459.433783,425.153487 456.119826,427.732514 C455.812978,427.966439 455.751609,428.43429 455.997087,428.726696 C456.181196,428.90214 456.365305,429.013255 456.610783,429.013255 C456.794892,429.013255 456.917631,428.960622 457.101739,428.837811 C460.415696,426.328961 463.606914,423.755783 466.552653,421.299567 C466.920871,421.001312 466.920871,420.597791 466.675392,420.241055 M2.68947077,404.668982 C2.68947077,404.326837 2.32944264,403.973094 1.90940982,404.036884 C1.489377,404.094875 1.18935356,404.437019 1.24935825,404.848753 C1.66939107,408.786318 2.20943326,412.671692 2.86948483,416.446883 C2.92948952,416.789028 3.28951765,417.020991 3.64954578,417.020991 L3.76955516,417.020991 C4.18958797,416.968799 4.42960673,416.620855 4.36960204,416.214921 C3.70955047,412.439729 3.10950359,408.618145 2.68947077,404.668982 M483.627247,404.262702 C483.333171,403.951594 482.862649,403.951594 482.568573,404.262702 C479.863072,407.068766 476.981125,409.935831 474.099178,412.741895 C473.805102,412.985901 473.746287,413.473912 474.040363,413.778919 C474.157994,413.961923 474.393255,414.022925 474.5697,414.022925 C474.746146,414.022925 474.922592,413.961923 475.099037,413.83382 C477.980984,411.027756 480.862931,408.166791 483.627247,405.299725 C483.921323,404.994718 483.921323,404.506707 483.627247,404.262702 M499.594123,387.226071 C499.308849,386.942772 498.852411,386.999432 498.567137,387.288397 C496.22789,390.121387 493.660425,393.011037 491.035904,395.844028 C490.750631,396.127327 490.807685,396.580605 491.092959,396.858238 C491.207069,396.977224 491.378233,397.033884 491.549398,397.033884 C491.777617,397.033884 491.948781,396.914898 492.062891,396.807245 C494.744466,393.917594 497.311931,391.022278 499.708233,388.189288 C499.936452,387.905989 499.879397,387.45271 499.594123,387.226071 M1.50011721,385.91147 C1.50011721,384.245141 1.50011721,382.521352 1.5601219,380.791818 C1.5601219,380.395347 1.26009845,380.044843 0.840065636,380.044843 C0.420032818,380.044843 0.0600046883,380.337887 0.0600046883,380.734358 C-5.24025268e-14,382.458147 -5.24025268e-14,384.187681 -5.24025268e-14,385.91147 C-5.24025268e-14,388.094935 0.0600046883,390.220941 0.120009377,392.346947 C0.120009377,392.691705 0.480037506,393.036462 0.840065636,393.036462 L0.900070324,393.036462 C1.32010314,392.973257 1.62012658,392.691705 1.62012658,392.283741 C1.5601219,390.163482 1.50011721,388.037476 1.50011721,385.91147 M513.546532,368.193736 C513.209181,367.959104 512.815605,368.017762 512.590705,368.363845 C510.510375,371.531383 508.261369,374.757579 506.012363,377.866459 C505.731238,378.224274 505.843688,378.693539 506.124814,378.928171 C506.237264,378.98683 506.405939,379.045488 506.574615,379.045488 C506.74329,379.045488 506.968191,378.98683 507.136866,378.752197 C509.385872,375.643317 511.634878,372.41712 513.715208,369.190924 C513.940108,368.83311 513.883883,368.363845 513.546532,368.193736 M2.55637722,357.083177 C2.07633972,356.973229 1.77631628,357.262566 1.71631159,357.667639 C1.17626939,361.602631 0.756236576,365.479755 0.396208447,369.299012 C0.396208447,369.704084 0.696231888,370.05129 1.11626471,370.05129 L1.17626939,370.05129 C1.53629752,370.05129 1.89632565,369.761952 1.89632565,369.40896 C2.25635378,365.59549 2.6763866,361.718366 3.2164288,357.899109 C3.27643348,357.494037 2.97641004,357.083177 2.55637722,357.083177 M526.443545,348.110522 C526.102769,347.990389 525.705198,348.110522 525.478014,348.47092 C523.830933,351.894707 521.956668,355.438627 519.968811,358.92248 C519.741628,359.276872 519.855219,359.763411 520.195995,360.003676 C520.309587,360.057736 520.423179,360.057736 520.53677,360.057736 C520.82075,360.057736 521.047933,359.94361 521.161525,359.703344 C523.206178,356.159424 525.080443,352.615505 526.78432,349.131651 C526.954708,348.765246 526.78432,348.284715 526.443545,348.110522 M7.1598392,333.082478 C6.73980639,333.029863 6.37977826,333.263709 6.25976888,333.672939 C5.41970324,337.531393 4.57963761,341.384001 3.85958135,345.18984 C3.79957666,345.59907 4.0996001,345.949838 4.45962823,346.066761 L4.6396423,346.066761 C4.99967043,346.066761 5.29969387,345.832916 5.35969856,345.482147 C6.07975482,341.682154 6.85981576,337.8237 7.75988609,333.965246 C7.81989078,333.55017 7.57987202,333.205247 7.1598392,333.082478 M535.315971,326.117436 C534.895938,325.99523 534.475905,326.172429 534.355896,326.60626 C533.095798,330.333544 531.59568,334.183033 529.975554,337.97142 C529.79554,338.393031 529.975554,338.826862 530.395587,339.010171 C530.455591,339.010171 530.575601,339.071274 530.69561,339.071274 C530.935629,339.071274 531.235652,338.887965 531.355662,338.58245 C532.975788,334.73296 534.475905,330.883471 535.736004,327.095084 C535.916018,326.722356 535.675999,326.300745 535.315971,326.117436 M12.6601384,310.120624 C12.3001102,310.001661 11.8800774,310.239586 11.760068,310.650007 C10.5599743,314.462755 9.41988519,318.323088 8.39980549,322.135837 C8.3398008,322.546257 8.57981955,322.968574 8.93984768,323.022107 C8.99985237,323.081588 9.05985706,323.081588 9.17986644,323.081588 C9.47988988,323.081588 9.77991332,322.849612 9.8999227,322.546257 C10.8599977,318.745405 12.0000868,314.873176 13.2001806,311.072324 C13.3201899,310.650007 13.0801712,310.239586 12.6601384,310.120624 M541.473369,303.120899 C541.053337,303.003033 540.693309,303.297697 540.573299,303.6454 C539.733233,307.422989 538.713154,311.247723 537.633069,315.143177 C537.573065,315.496774 537.753079,315.90341 538.173112,316.027168 C538.233116,316.027168 538.293121,316.086101 538.353126,316.086101 C538.713154,316.086101 539.013177,315.85037 539.073182,315.496774 C540.153266,311.666146 541.173346,307.776585 542.073416,304.00489 C542.133421,303.592361 541.893402,303.173938 541.473369,303.120899 M21.1337455,288.144715 C20.7137127,288.017029 20.2936799,288.199438 20.1736705,288.570337 C18.733558,292.400931 17.3534502,296.292328 16.0933517,300.116841 C15.9133377,300.48774 16.1533564,300.907281 16.5133846,301.095771 L16.7534033,301.095771 C17.1134314,301.095771 17.3534502,300.907281 17.4734596,300.609346 C18.7935627,296.778752 20.1736705,292.887355 21.5537784,289.117565 C21.6737877,288.746666 21.4937737,288.260241 21.1337455,288.144715 M545.907215,280.116695 C545.547186,280.058729 545.127154,280.348556 545.067149,280.754313 C544.527107,284.580025 543.867055,288.39994 543.146999,292.225652 C543.086994,292.637206 543.327013,292.979201 543.747046,293.100928 L543.867055,293.100928 C544.227083,293.100928 544.527107,292.869067 544.647116,292.515478 C545.367172,288.631801 546.027224,284.748124 546.567266,280.986174 C546.567266,280.580417 546.327247,280.168863 545.907215,280.116695 M29.3405979,266.184537 C28.9936679,266.013349 28.5889162,266.184537 28.4154511,266.578268 C26.854266,270.064786 25.2930808,273.602661 23.847539,277.140536 C23.7318957,277.477204 23.9053607,277.939411 24.2522907,278.053536 C24.3679341,278.110598 24.4257558,278.110598 24.5413991,278.110598 C24.8305075,278.110598 25.0617941,277.939411 25.1774375,277.654098 C26.6229793,274.16758 28.1841645,270.629705 29.7453496,267.154599 C29.9188146,266.755161 29.7453496,266.350018 29.3405979,266.184537 M548.273377,257.124136 C547.913349,257.175895 547.553321,257.405937 547.493316,257.814262 C547.313302,261.667465 547.073283,265.520667 546.713255,269.31636 C546.65325,269.718933 546.953274,270.063996 547.373307,270.115755 L547.433311,270.115755 C547.79334,270.115755 548.153368,269.833954 548.153368,269.42563 C548.5734,265.635688 548.813419,261.782486 548.993433,257.866021 C549.053438,257.526709 548.69341,257.175895 548.273377,257.124136 M40.3699543,245.213513 C39.9994041,245.038357 39.5053372,245.149289 39.3200621,245.50544 C37.4673112,249.008565 35.6145603,252.570074 33.8853262,256.06736 C33.7000511,256.481896 33.8853262,256.890594 34.2558763,257.059912 C34.3793931,257.124136 34.4411514,257.124136 34.5646682,257.124136 C34.87346,257.124136 35.1204934,257.007365 35.2440102,256.715438 C37.0350027,253.206475 38.8877536,249.650804 40.7405045,246.206065 C40.9257796,245.797367 40.7405045,245.382831 40.3699543,245.213513 M548.452852,233.82368 C548.452852,233.427033 548.092824,233.139608 547.672791,233.139608 C547.252758,233.139608 546.952734,233.484518 546.952734,233.886913 C547.132749,237.680926 547.252758,241.532424 547.252758,245.383922 C547.252758,245.786317 547.612786,246.131227 547.972814,246.131227 C548.392847,246.131227 548.752875,245.786317 548.752875,245.383922 C548.752875,241.532424 548.632866,237.623441 548.452852,233.82368 M51.4473204,224.227488 C51.1023429,224.048836 50.6423729,224.167937 50.4698842,224.525243 C48.5150117,228.032793 46.6751318,231.611803 44.8927481,235.065757 C44.7202593,235.423063 44.8352518,235.839919 45.1802293,236.018572 C45.2952218,236.078123 45.4102143,236.137674 45.5252068,236.137674 C45.7551918,236.137674 46.042673,236.018572 46.1576655,235.720817 C47.9400492,232.326414 49.7799292,228.753359 51.7348016,225.239854 C51.9072904,224.882548 51.7922979,224.465692 51.4473204,224.227488 M546.853466,209.759637 C546.793461,209.354453 546.433433,209.065036 546.0134,209.180803 C545.593368,209.238686 545.353349,209.585987 545.413354,209.985383 C545.953396,213.81148 546.433433,217.689672 546.793461,221.509981 C546.853466,221.915165 547.153489,222.146699 547.573522,222.146699 L547.633527,222.146699 C548.05356,222.146699 548.353583,221.799398 548.293579,221.394214 C547.93355,217.516022 547.453513,213.637829 546.853466,209.759637 M63.4383112,203.285577 C63.1285986,203.04218 62.6330584,203.163878 62.3852883,203.528975 C60.2172999,206.991306 58.0493114,210.465807 55.9432656,213.995073 C55.6954954,214.360169 55.8193805,214.786115 56.1910357,215.029513 C56.3149207,215.090362 56.4388058,215.151212 56.5626908,215.151212 C56.8724034,215.151212 57.1201735,215.029513 57.2440586,214.786115 C59.3501045,211.25685 61.5180929,207.788433 63.6860813,204.320017 C63.9338514,203.948836 63.8099664,203.528975 63.4383112,203.285577 M544.811442,197.871252 L544.751438,197.871252 C544.091386,194.176375 543.191316,190.481498 542.291245,186.722107 C542.231241,186.31743 541.811208,186.082835 541.391175,186.200132 C541.031147,186.258781 540.731123,186.669323 540.851133,187.079865 C541.751203,190.657444 542.531264,194.235023 543.25132,197.812603 C543.311325,198.047198 543.37133,198.334577 543.431334,198.575038 C543.491339,198.926931 543.791363,199.161526 544.151391,199.161526 L544.2714,199.161526 C544.691433,199.044228 544.931452,198.692335 544.871447,198.281793 C544.871447,198.164496 544.811442,197.988549 544.811442,197.871252 M76.4961677,183.316181 C76.2125344,183.075614 75.758721,183.135756 75.5318144,183.496606 L75.248181,183.917598 C73.1492942,187.225394 70.9936808,190.593332 68.9515207,193.955256 C68.724614,194.32212 68.7813407,194.803254 69.1217007,195.043821 C69.235154,195.103963 69.405334,195.164105 69.5187874,195.164105 C69.7456941,195.164105 69.9726007,195.043821 70.0860541,194.803254 C72.1849409,191.435316 74.2838276,188.061365 76.4394411,184.759583 L76.7230744,184.33859 C76.8932544,184.037882 76.8365278,183.550734 76.4961677,183.316181 M537.564641,172.517726 C536.66457,169.518852 535.704495,166.579955 534.74442,163.701035 C534.624411,163.281193 534.144373,163.10126 533.784345,163.221215 C533.364312,163.401148 533.184298,163.82099 533.304308,164.180855 C534.444397,167.479617 535.524481,170.838356 536.544561,174.257074 C536.66457,174.736893 536.844584,175.156736 536.964594,175.636556 C537.084603,175.996421 537.384627,176.176353 537.68465,176.176353 L537.924669,176.176353 C538.284697,176.056398 538.524716,175.636556 538.404706,175.216713 C538.164688,174.317051 537.864664,173.411391 537.564641,172.517726 M89.5265776,164.324126 C89.1867419,164.090731 88.7336277,164.14908 88.5070706,164.499172 C86.3547781,167.650006 84.1458464,170.80084 81.9369146,174.068371 C81.7103575,174.360115 81.8236361,174.826905 82.1068325,175.0603 C82.2767503,175.176998 82.3900289,175.176998 82.5599467,175.176998 C82.7298645,175.176998 82.9564216,175.118649 83.1263394,174.879419 C85.2786319,171.676072 87.4875636,168.466889 89.6964954,165.316055 C89.9230525,164.965963 89.8097739,164.557521 89.5265776,164.324126 M104.540058,145.341845 C104.166575,145.106032 103.730844,145.164985 103.419608,145.459751 C100.929719,148.578379 98.4398304,151.767751 95.9499417,155.010181 C95.7009528,155.304947 95.8254472,155.776574 96.1366833,156.012387 C96.2611778,156.130293 96.4479194,156.189246 96.5724139,156.189246 C96.8214027,156.189246 97.0703916,156.065445 97.2571333,155.835527 C99.6847748,152.65205 102.174664,149.468574 104.664552,146.34405 C104.913541,146.049284 104.851294,145.577658 104.540058,145.341845 M530.785721,152.216558 C530.443915,151.356597 530.045142,150.439306 529.646368,149.522014 C529.475465,149.063368 529.247595,148.547392 529.019724,148.031415 C528.165209,145.910178 527.196759,143.731611 526.228309,141.610374 C526.057406,141.26639 525.658633,141.094397 525.259859,141.26639 C524.918054,141.438382 524.747151,141.839697 524.918054,142.183681 C525.601665,143.668547 526.285277,145.164879 526.911921,146.655478 C527.367662,147.6301 527.766436,148.604722 528.108242,149.522014 C528.563983,150.496636 528.962756,151.413928 529.304562,152.38855 C529.36153,152.503212 529.418497,152.617873 529.475465,152.732535 C529.5894,153.019188 529.817271,153.19118 530.102109,153.19118 C530.216044,153.19118 530.273012,153.19118 530.386947,153.13385 C530.671786,153.019188 530.899656,152.732535 530.842689,152.38855 C530.842689,152.331219 530.842689,152.268156 530.785721,152.216558 M118.55058,126.351661 C118.189757,126.11801 117.768797,126.17792 117.468111,126.477474 C115.002487,129.473011 112.657138,132.588369 110.251652,135.643816 C110.191514,135.763637 110.07124,135.823548 110.011103,135.94337 C109.710417,136.302834 109.770554,136.78212 110.131377,137.021763 C110.251652,137.141584 110.432063,137.201495 110.552337,137.201495 C110.732749,137.201495 110.91316,137.141584 111.033435,137.021763 C111.093572,136.961852 111.093572,136.961852 111.153709,136.901941 C113.67947,133.666762 116.145093,130.551404 118.670854,127.436046 C118.911403,127.136492 118.851266,126.657206 118.55058,126.351661 M520.783304,131.127452 C520.038918,129.691097 519.351793,128.31459 518.607407,126.938084 C517.519458,124.783551 516.374249,122.688867 515.171779,120.594183 C514.999998,120.235094 514.541914,120.115398 514.198351,120.294942 C513.854788,120.534335 513.740267,120.953272 513.969309,121.31236 C515.171779,123.466893 516.316988,125.681273 517.519458,127.955502 C518.149323,129.212312 518.836449,130.522986 519.466314,131.845629 C519.638095,132.085022 519.867137,132.204718 520.096179,132.204718 C520.2107,132.204718 520.325221,132.204718 520.439742,132.138885 C520.783304,131.965326 520.955086,131.486541 520.783304,131.127452 M133.594355,108.37222 C133.245205,108.125836 132.837862,108.187432 132.546904,108.495412 C130.044659,111.575207 127.484222,114.716598 124.981977,117.919585 C124.74921,118.28916 124.74921,118.781927 125.09836,119.028311 C125.214744,119.151503 125.389319,119.213099 125.563894,119.213099 C125.738469,119.213099 125.971236,119.089907 126.08762,118.905119 C128.589865,115.702132 131.150302,112.560741 133.652547,109.480946 C133.885314,109.172966 133.885314,108.680199 133.594355,108.37222 M508.711146,111.12063 C506.63198,107.887421 504.437305,104.711949 502.184875,101.536476 C501.953856,101.190061 501.491819,101.132325 501.145292,101.363269 C500.856519,101.594212 500.741009,102.056099 500.972028,102.402514 C503.224458,105.520251 505.476888,108.695724 507.556054,111.928932 C507.671563,112.10214 507.902582,112.217611 508.1336,112.217611 C508.249109,112.217611 508.422373,112.217611 508.537882,112.10214 C508.88441,111.928932 508.942165,111.467045 508.711146,111.12063 M149.581392,90.3985851 C149.301126,90.1673672 148.852701,90.1673672 148.628489,90.4563896 C146.050045,93.2310048 143.527654,96.1212289 141.005263,99.0114531 C140.724998,99.35828 140.781051,99.7629114 141.061317,100.051934 C141.173423,100.167543 141.341582,100.225347 141.509742,100.225347 C141.677901,100.225347 141.902113,100.167543 142.01422,99.9941293 C144.53661,97.1039051 147.115054,94.213681 149.637445,91.4390658 C149.917711,91.1500434 149.861658,90.6876075 149.581392,90.3985851 M495.704581,92.0008153 C493.251464,88.7438472 490.681532,85.5483313 488.1116,82.4757199 C487.87797,82.1684588 487.410709,82.1684588 487.118672,82.4142677 C486.768226,82.7215288 486.768226,83.2131467 487.060264,83.5204078 C489.571789,86.531567 492.141721,89.7270828 494.53643,92.9225987 C494.711653,93.1069554 494.886876,93.2298598 495.120506,93.2298598 C495.295728,93.2298598 495.412544,93.1684076 495.587766,93.0455032 C495.879804,92.7996943 495.938211,92.3080764 495.704581,92.0008153 M166.599136,73.4674956 C166.300605,73.1678388 165.882662,73.1678388 165.584131,73.4674956 C162.777942,76.1644066 159.912046,79.0411116 157.046151,81.9717548 C156.74762,82.2774048 156.74762,82.7568556 157.046151,82.996581 C157.165563,83.1763751 157.344682,83.2363064 157.583506,83.2363064 C157.762625,83.2363064 157.941743,83.1763751 158.120862,82.996581 C160.927051,80.119876 163.792947,77.2431709 166.599136,74.54626 C166.897667,74.2466032 166.897667,73.7671524 166.599136,73.4674956 M479.675491,73.9753121 C476.873832,71.0812514 474.012564,68.1871907 471.091686,65.4740088 C470.793637,65.1725441 470.316759,65.1725441 470.01871,65.4740088 C469.780271,65.7754734 469.780271,66.2578169 470.07832,66.5592815 C472.999198,69.2724635 475.860467,72.1665242 478.602515,75.000292 C478.721735,75.1208778 478.900564,75.2414637 479.139003,75.2414637 C479.317833,75.2414637 479.496662,75.1811708 479.615881,75.000292 C479.91393,74.6988273 479.91393,74.2164839 479.675491,73.9753121 M183.683597,58.4960332 C183.398437,58.2119232 182.94218,58.1551012 182.65702,58.4392112 C180.603865,60.2006932 178.55071,61.9621751 176.554587,63.7804791 C176.041299,64.178233 175.585042,64.632809 175.128785,65.087385 C174.786593,65.371495 174.387368,65.655605 174.045176,65.996537 C173.760015,66.2749648 173.760015,66.735223 173.988144,67.019333 C174.15924,67.132977 174.330336,67.246621 174.558464,67.246621 C174.729561,67.246621 174.900657,67.189799 175.014721,67.076155 C175.642074,66.507935 176.269427,65.939715 176.89678,65.371495 L178.949935,63.4963691 C180.489801,62.1269589 182.029667,60.8257351 183.569533,59.5188292 C183.854693,59.2347192 183.911725,58.7801432 183.683597,58.4960332 M462.585239,57.9454157 C459.481355,55.3326906 456.255751,52.8387257 453.091006,50.4041409 C452.725844,50.1666204 452.23896,50.2260006 451.995518,50.5229011 C451.752076,50.8791818 451.812937,51.3542228 452.117239,51.5858052 C455.342844,53.9669479 458.507588,56.5202929 461.611471,59.0736379 C461.733192,59.1923981 461.915774,59.2517782 462.098355,59.2517782 C462.280936,59.2517782 462.524378,59.133018 462.646099,58.9548776 C462.950402,58.6579771 462.889541,58.1829361 462.585239,57.9454157 M202.67823,42.5604975 C202.438999,42.2564263 201.960535,42.1347978 201.661495,42.438869 C198.491673,44.7498106 195.321851,47.3040091 192.09222,49.8582077 C191.793181,50.162279 191.733373,50.5879787 191.972604,50.9528642 C192.152028,51.135307 192.331452,51.2569355 192.570684,51.2569355 C192.750108,51.2569355 192.869724,51.1961212 193.049148,51.0744927 C196.21897,48.4594799 199.388792,45.9660956 202.558614,43.655154 C202.857654,43.4058156 202.917462,42.925383 202.67823,42.5604975 M443.536052,42.9647146 C440.39264,40.6659599 437.192075,38.48509 433.934356,36.3631625 C433.648592,36.1863352 433.191368,36.2452776 432.962756,36.5989322 C432.734144,36.9525868 432.84845,37.4241262 433.191368,37.6009535 C436.391933,39.722881 439.592499,41.9037509 442.735911,44.1435632 C442.850217,44.2614481 443.021676,44.2614481 443.135982,44.2614481 C443.364594,44.2614481 443.593205,44.2025057 443.707511,43.9667359 C443.936123,43.6130814 443.87897,43.2004844 443.536052,42.9647146 M221.734457,29.5952958 C221.50768,29.2956605 221.054126,29.1758064 220.770654,29.3555876 C217.539079,31.453035 214.307503,33.6104095 211.132622,35.8876381 C210.792456,36.1273464 210.735761,36.6067629 210.962539,36.9663254 C211.075927,37.1461066 211.302704,37.2659607 211.529482,37.2659607 C211.699565,37.2659607 211.812953,37.2060336 211.926342,37.1461066 C215.101223,34.8628852 218.276105,32.7115034 221.50768,30.6739831 C221.847846,30.4342748 221.90454,29.9548583 221.734457,29.5952958 M423.482298,30.9309692 C419.981545,29.010922 416.421456,27.0908747 412.920702,25.3395589 C412.564693,25.1708275 412.090014,25.3395589 411.91201,25.6944767 C411.734006,26.0435762 411.91201,26.450859 412.268019,26.6777737 C415.768773,28.4290895 419.269527,30.2327702 422.710946,32.1528175 C422.829616,32.269184 422.948285,32.269184 423.066955,32.269184 C423.363629,32.269184 423.600968,32.1528175 423.719638,31.9200845 C423.956977,31.570985 423.838307,31.105519 423.482298,30.9309692 M242.759586,18.7201244 C242.582716,18.2992528 242.170019,18.1790038 241.757322,18.3593773 C238.278879,20.0428637 234.682522,21.9007113 231.204078,23.8307082 C230.850338,24.0712063 230.732425,24.4920779 230.909295,24.852825 C231.027208,25.1534476 231.321991,25.2736966 231.557818,25.2736966 C231.675731,25.2736966 231.793645,25.2135721 231.911558,25.1534476 C235.390002,23.2294631 238.927402,21.4257276 242.405846,19.6821166 C242.759586,19.5017431 242.936456,19.0808715 242.759586,18.7201244 M402.375947,19.8874384 C398.895211,18.3249969 395.357413,16.7625555 391.819616,15.3158505 C391.477248,15.200114 391.020758,15.3737187 390.906636,15.7209279 C390.735452,16.1202185 390.906636,16.5310827 391.306065,16.7046873 C394.843862,18.0935241 398.38166,19.6559656 401.805335,21.218407 C401.919457,21.2762752 401.976518,21.2762752 402.090641,21.2762752 C402.375947,21.2762752 402.661253,21.1026706 402.775376,20.8711978 C402.94656,20.4603336 402.775376,20.061043 402.375947,19.8874384 M263.853676,9.48213083 C260.011527,10.7413186 256.10839,12.1803902 252.327227,13.6794233 C251.900322,13.8593072 251.717362,14.2790365 251.900322,14.6328083 C252.022295,14.938611 252.327227,15.118495 252.571173,15.118495 C252.693146,15.118495 252.815119,15.118495 252.876106,15.0585336 C256.657269,13.5595006 260.499419,12.1204289 264.341568,10.8612412 C264.707487,10.7413186 264.951433,10.3215893 264.768474,9.96182139 C264.646501,9.54209215 264.219595,9.36220819 263.853676,9.48213083 M380.324306,11.3781054 C376.492079,10.0589563 372.659852,8.85972993 368.827624,7.78042616 C368.408475,7.66050352 367.989325,7.90034881 367.869568,8.32007805 C367.749811,8.67984597 367.989325,9.09957522 368.408475,9.21949786 C372.180823,10.2988016 376.072929,11.498028 379.845278,12.8171771 L380.084792,12.8171771 C380.384185,12.8171771 380.683577,12.6372931 380.803335,12.3374865 C380.923092,11.9117611 380.743456,11.498028 380.324306,11.3781054 M286.941093,3.19178273 C283.052153,3.96528377 279.163213,4.87069971 275.392119,5.95000348 C274.979656,6.0099648 274.743962,6.42969404 274.861809,6.84942328 C274.920732,7.14922989 275.215349,7.38907517 275.568889,7.38907517 L275.745659,7.38907517 C279.516753,6.36973272 283.405693,5.46431678 287.23571,4.69081575 C287.58925,4.63085443 287.883867,4.21112518 287.824943,3.79139594 C287.707097,3.43162801 287.353557,3.13182141 286.941093,3.19178273 M357.246829,4.65084153 C353.403811,3.81138304 349.502565,3.03188588 345.717775,2.43227267 C345.310182,2.37231135 344.902589,2.67211795 344.844362,3.03188588 C344.786134,3.45161512 345.077272,3.87134437 345.484865,3.93130569 C349.269655,4.53091889 353.112673,5.25045474 356.955691,6.08991322 C357.013919,6.14987454 357.072146,6.14987454 357.072146,6.14987454 C357.421512,6.14987454 357.712649,5.91002926 357.829104,5.55026134 C357.887332,5.1305321 357.654422,4.77076417 357.246829,4.65084153 M310.135289,-1.39888101e-14 L310.077567,-1.39888101e-14 C306.210232,0.239845282 302.285175,0.599613205 298.475561,1.07930377 C298.071511,1.13926509 297.782904,1.49903301 297.840625,1.91876226 C297.898346,2.27853018 298.186954,2.57833678 298.591004,2.57833678 L298.648725,2.57833678 C302.458339,2.09864622 306.325675,1.73887829 310.19301,1.49903301 C310.539339,1.49903301 310.885667,1.13926509 310.827946,0.713539714 C310.827946,0.359767923 310.481617,-1.39888101e-14 310.135289,-1.39888101e-14 M334.145842,0.869439147 C330.349085,0.509671224 326.437275,0.269825942 322.582992,0.209864622 C322.180305,0.209864622 321.835146,0.509671224 321.835146,0.929400468 C321.835146,1.34912971 322.122779,1.70889763 322.525465,1.70889763 C326.379748,1.76885896 330.234032,2.00870424 334.030789,2.36847216 L334.088315,2.36847216 C334.491002,2.36847216 334.778635,2.06866556 334.836161,1.64893631 C334.836161,1.22321094 334.548528,0.869439147 334.145842,0.869439147" id="Fill-6" fill="#D8D5DB"></path>
            </g>
        </g>
    </g>
</svg>