<?xml version="1.0" encoding="UTF-8"?>
<svg width="75px" height="75px" viewBox="0 0 75 75" version="1.1" xmlns="http://www.w3.org/2000/svg" xmlns:xlink="http://www.w3.org/1999/xlink">
    <title>dashboard</title>
    <g id="Page-1" stroke="none" stroke-width="1" fill="none" fill-rule="evenodd">
        <g id="squad-before٢" transform="translate(-720.000000, -478.000000)" fill-rule="nonzero">
            <g id="Group" transform="translate(663.000000, 394.000000)">
                <g id="dashboard" transform="translate(57.000000, 84.000000)">
                    <path d="M68,11.3433691 L61.1081068,8 L7,8.98575415 L7,68 L24.3639152,68 L62.9779553,68 C65.5963235,68 67.7229317,65.8616537 67.7388885,63.2107505 L68,22.9287707 L68,11.3433691 Z" id="Path" fill="#F9F7F8"></path>
                    <path d="M7.54198135,64.4752533 L7.54198135,11.3925687 L7.58573993,11.3925687 L7.55506531,11.3778822 L10.7533673,9.02805111 L61,8.11470113 L60.7631803,8 L4.21138596,9.02805111 L1.01308396,11.3778822 L1.04375859,11.3925687 L1,11.3925687 L1,64.4752533 C1,66.4212072 2.56280666,68 4.48905672,68 L11.0310381,68 C9.104788,68 7.54198135,66.4212072 7.54198135,64.4752533 Z" id="Path" fill="#EFEDEF"></path>
                    <path d="M1,12 L1,4.60852925 C1,2.61632039 2.55797101,1 4.47826087,1 L4.47826087,1 L65.4947822,1 C67.4299545,1 69,2.61632039 69,4.60852925 L69,4.60852925 L69,12 L1,12 Z" id="Combined-Shape" fill="#4DC8F2"></path>
                    <path d="M56.4238521,21 L11.3366977,21 C10.5984054,21 10,21.5842415 10,22.305059 L10,35.694941 C10,36.4157585 10.598552,37 11.3366977,37 L58,37 L57.970527,22.5070596 C57.9687674,21.6741468 57.2768108,21 56.4238521,21 Z" id="Path" fill="#E5E1E5"></path>
                    <path d="M73.9841695,38.4546394 L71.1058918,35 L34,35 L34,74 L70.0092681,74 C72.2140287,74 74,72.2122241 74,70.0070126 L74,38.4546394 L73.9841695,38.4546394 Z" id="Path" fill="#F9F7F8"></path>
                    <path d="M33.7803468,70.0070126 L33.7803468,38.4546394 L33.8259811,38.4546394 L36.8682689,35 L31.0879221,35 L28.0456343,38.4546394 L28,38.4546394 L28,70.0070126 C28,72.2122241 29.8892607,74 32.2196532,74 L38,74 C35.6696075,74 33.7803468,72.2122241 33.7803468,70.0070126 L33.7803468,70.0070126 Z" id="Path" fill="#EFEDEF"></path>
                    <path d="M28,37 L28,31.1187825 C28,28.844098 29.8892607,27 32.2196532,27 L32.2196532,27 L69.9642976,27 C72.1939031,27 74,28.844098 74,31.1187825 L74,31.1187825 L74,37 L28,37 Z" id="Combined-Shape" fill="#78D0BA"></path>
                    <path d="M63.7781314,55 L38.2218686,55 C36.994778,55 36,54.0106776 36,52.7903167 L36,48.2096833 C36,46.9893224 36.994778,46 38.2218686,46 L63.7781314,46 C65.005222,46 66,46.9893224 66,48.2096833 L66,52.7903167 C66,54.0106776 65.005222,55 63.7781314,55 Z" id="Path" fill="#E5E1E5"></path>
                    <g id="Group" fill="#000000">
                        <path d="M1.10034135,16.0431236 C1.7080232,16.0431236 2.2006827,15.5504641 2.2006827,14.9427822 L2.2006827,12.9485236 L67.2820591,12.9485236 L67.2820591,23.3730108 C67.2820591,23.9806927 67.7745718,24.4733522 68.3824004,24.4733522 C68.990229,24.4733522 69.4827418,23.9806927 69.4827418,23.3730108 L69.4827418,4.63683845 C69.4827418,2.08830117 67.4094052,0.0149646424 64.8608679,0.0149646424 L4.6217271,0.0149646424 C2.07333653,0.0149646424 1.56367911e-15,2.08830117 1.56367911e-15,4.63683845 L1.56367911e-15,14.9427822 C1.56367911e-15,15.5504641 0.492659501,16.0431236 1.10034135,16.0431236 Z M4.6217271,2.21564734 L64.8608679,2.21564734 C66.1959488,2.21564734 67.2820591,3.30175761 67.2820591,4.63683845 L67.2820591,10.7478409 L2.2006827,10.7478409 L2.2006827,4.63683845 C2.2006827,3.30175761 3.28679297,2.21564734 4.6217271,2.21564734 Z" id="Shape"></path>
                        <path d="M24.2504964,67.2970237 L4.6217271,67.2970237 C3.28664626,67.2970237 2.2006827,66.2109134 2.2006827,64.8759793 L2.2006827,19.6321437 C2.2006827,19.0244618 1.7080232,18.5318023 1.10034135,18.5318023 C0.492659501,18.5318023 1.56367911e-15,19.0244618 1.56367911e-15,19.6321437 L1.56367911e-15,64.8759793 C1.56367911e-15,67.4245166 2.07333653,69.4977064 4.6217271,69.4977064 L24.2504964,69.4977064 C24.8581782,69.4977064 25.3508377,69.0050469 25.3508377,68.397365 C25.3508377,67.7896832 24.8581782,67.2970237 24.2504964,67.2970237 Z" id="Path"></path>
                        <path d="M69.8300095,26.6738882 L32.7213642,26.6738882 C29.8705999,26.6738882 27.5515204,28.9931143 27.5515204,31.8438787 L27.5515204,46.1401004 C27.5515204,46.7477822 28.0441799,47.2404417 28.6518618,47.2404417 C29.2595436,47.2404417 29.7522031,46.7477822 29.7522031,46.1401004 L29.7522031,38.7556362 L72.7993173,38.7556362 L72.7993173,69.8150448 C72.7993173,71.4522061 71.4673174,72.7842059 69.8301562,72.7842059 L32.7213642,72.7842059 C31.084203,72.7842059 29.7522031,71.4522061 29.7522031,69.8150448 L29.7522031,50.8294618 C29.7522031,50.2217799 29.2595436,49.7291204 28.6518618,49.7291204 C28.0441799,49.7291204 27.5515204,50.2217799 27.5515204,50.8294618 L27.5515204,69.8150448 C27.5515204,72.6658092 29.8707466,74.9848886 32.7213642,74.9848886 L69.8300095,74.9848886 C72.6807739,74.9848886 74.9998533,72.6656625 74.9998533,69.8150448 L74.9998533,31.8438787 C74.9998533,28.9931143 72.6807739,26.6738882 69.8300095,26.6738882 Z M29.7522031,36.5549535 L29.7522031,31.8438787 C29.7522031,30.2065707 31.084203,28.8745709 32.7213642,28.8745709 L69.8300095,28.8745709 C71.4671707,28.8745709 72.7991706,30.2065707 72.7991706,31.8438787 L72.7991706,36.5549535 L29.7522031,36.5549535 Z" id="Shape"></path>
                        <path d="M6.74289179,7.52662826 L7.56917479,7.52662826 C8.17685664,7.52662826 8.66951614,7.03396876 8.66951614,6.42628691 C8.66951614,5.81860506 8.17685664,5.32594556 7.56917479,5.32594556 L6.74289179,5.32594556 C6.13520995,5.32594556 5.64255044,5.81860506 5.64255044,6.42628691 C5.64255044,7.03396876 6.13520995,7.52662826 6.74289179,7.52662826 Z" id="Path"></path>
                        <path d="M14.3962794,7.52662826 L15.2225624,7.52662826 C15.8302442,7.52662826 16.3229037,7.03396876 16.3229037,6.42628691 C16.3229037,5.81860506 15.8302442,5.32594556 15.2225624,5.32594556 L14.3962794,5.32594556 C13.7885975,5.32594556 13.295938,5.81860506 13.295938,6.42628691 C13.295938,7.03396876 13.7885975,7.52662826 14.3962794,7.52662826 Z" id="Path"></path>
                        <path d="M22.049667,7.52662826 L22.87595,7.52662826 C23.4836318,7.52662826 23.9762913,7.03396876 23.9762913,6.42628691 C23.9762913,5.81860506 23.4836318,5.32594556 22.87595,5.32594556 L22.049667,5.32594556 C21.4419851,5.32594556 20.9493256,5.81860506 20.9493256,6.42628691 C20.9493256,7.03396876 21.4419851,7.52662826 22.049667,7.52662826 Z" id="Path"></path>
                        <path d="M64.2357274,53.5747401 L59.60241,53.5747401 C58.9945814,53.5747401 58.5020686,54.0673996 58.5020686,54.6750814 C58.5020686,55.2827633 58.9945814,55.7754228 59.60241,55.7754228 L64.2357274,55.7754228 C66.0850344,55.7754228 67.5895678,54.2708894 67.5895678,52.4215823 L67.5895678,47.7501198 C67.5895678,45.9008128 66.0850344,44.3962794 64.2357274,44.3962794 L38.3157931,44.3962794 C36.466486,44.3962794 34.9618059,45.9008128 34.9618059,47.7501198 L34.9618059,52.4215823 C34.9618059,54.2708894 36.4663393,55.7754228 38.3157931,55.7754228 L54.9131953,55.7754228 C55.5210239,55.7754228 56.0135366,55.2827633 56.0135366,54.6750814 C56.0135366,54.0673996 55.5210239,53.5747401 54.9131953,53.5747401 L38.3157931,53.5747401 C37.6799425,53.5747401 37.1624886,53.0574329 37.1624886,52.4215823 L37.1624886,47.7501198 C37.1624886,47.1142692 37.6799425,46.5969621 38.3157931,46.5969621 L64.2358741,46.5969621 C64.8717247,46.5969621 65.3890318,47.1142692 65.3890318,47.7501198 L65.3890318,52.4215823 C65.3890318,53.0574329 64.8715779,53.5747401 64.2357274,53.5747401 L64.2357274,53.5747401 Z" id="Path"></path>
                        <path d="M11.568989,22.0143093 L58.2252228,22.0143093 C58.8330513,22.0143093 59.3255641,21.5216498 59.3255641,20.913968 C59.3255641,20.3062861 58.8330513,19.8136266 58.2252228,19.8136266 L11.568989,19.8136266 C10.224812,19.8136266 9.13121937,20.9072192 9.13121937,22.2513962 L9.13121937,35.9733864 C9.13121937,37.3175634 10.224812,38.411156 11.568989,38.411156 L21.4818908,38.411156 C22.0895727,38.411156 22.5822322,37.9184965 22.5822322,37.3108146 C22.5822322,36.7031328 22.0895727,36.2104733 21.4818908,36.2104733 L11.568989,36.2104733 C11.4382684,36.2104733 11.3319021,36.104107 11.3319021,35.9733864 L11.3319021,22.2513962 C11.3319021,22.1206757 11.4382684,22.0143093 11.568989,22.0143093 L11.568989,22.0143093 Z" id="Path"></path>
                        <path d="M21.4447726,43.0758698 L10.2315607,43.0758698 C9.62387887,43.0758698 9.13121937,43.5685293 9.13121937,44.1762111 C9.13121937,44.783893 9.62387887,45.2765525 10.2315607,45.2765525 L21.4447726,45.2765525 C22.0524545,45.2765525 22.545114,44.783893 22.545114,44.1762111 C22.545114,43.5685293 22.0524545,43.0758698 21.4447726,43.0758698 Z" id="Path"></path>
                        <path d="M21.4447726,51.3244687 L10.2315607,51.3244687 C9.62387887,51.3244687 9.13121937,51.8171282 9.13121937,52.42481 C9.13121937,53.0324919 9.62387887,53.5251514 10.2315607,53.5251514 L21.4447726,53.5251514 C22.0524545,53.5251514 22.545114,53.0324919 22.545114,52.42481 C22.545114,51.8171282 22.0524545,51.3244687 21.4447726,51.3244687 Z" id="Path"></path>
                        <path d="M36.0621473,65.2770904 L66.4893731,65.2770904 C67.0972017,65.2770904 67.5897145,64.7844309 67.5897145,64.1767491 C67.5897145,63.5690672 67.0972017,63.0764077 66.4893731,63.0764077 L36.0621473,63.0764077 C35.4544654,63.0764077 34.9618059,63.5690672 34.9618059,64.1767491 C34.9618059,64.7844309 35.4544654,65.2770904 36.0621473,65.2770904 Z" id="Path"></path>
                    </g>
                </g>
            </g>
        </g>
    </g>
</svg>