<?xml version="1.0" encoding="UTF-8"?>
<svg width="72px" height="72px" viewBox="0 0 72 72" version="1.1" xmlns="http://www.w3.org/2000/svg" xmlns:xlink="http://www.w3.org/1999/xlink">
    <title>interview</title>
    <g id="Page-1" stroke="none" stroke-width="1" fill="none" fill-rule="evenodd">
        <g id="squad-before٢" transform="translate(-937.000000, -480.000000)" fill-rule="nonzero">
            <g id="Group" transform="translate(876.000000, 394.000000)">
                <g id="interview" transform="translate(61.000000, 86.000000)">
                    <g id="Group" transform="translate(1.000000, 13.000000)" fill="#78D0BA">
                        <path d="M4.86956522,43.5 L6.08695652,43.5 L17.0434783,43.5 L17.0434783,58 L25.5652174,58 L25.5652174,39.875 C25.5652174,37.2057917 23.3848696,35.0416667 20.6956522,35.0416667 L14.6086957,35.0416667 L9.73913043,35.0416667 L9.73913043,24.1666667 L9.73913043,35.0416667 L14.6086957,35.0416667 L20.6956522,35.0416667 L26.7826087,35.0416667 L28,35.0416667 L28,27.7916667 L17.0434783,27.7916667 L17.0434783,21.75 C17.0434783,19.0807917 14.8631304,16.9166667 12.173913,16.9166667 L8.52173913,16.9166667 L4.86956522,16.9166667 C2.18034783,16.9166667 0,19.0807917 0,21.75 L0,38.6666667 C0,41.335875 2.18034783,43.5 4.86956522,43.5 Z" id="Path"></path>
                        <ellipse id="Oval" cx="8.52173913" cy="8.45833333" rx="8.52173913" ry="8.45833333"></ellipse>
                    </g>
                    <g id="Group" transform="translate(36.000000, 13.000000)" fill="#6ACCEF">
                        <ellipse id="Oval" cx="26.5517241" cy="8.45833333" rx="8.44827586" ry="8.45833333"></ellipse>
                        <path d="M9.65517241,39.875 L9.65517241,58 L18.1034483,58 L18.1034483,43.5 L28.9655172,43.5 L30.1724138,43.5 C32.8384483,43.5 35,41.335875 35,38.6666667 L35,21.75 C35,19.0807917 32.8384483,16.9166667 30.1724138,16.9166667 L26.5517241,16.9166667 L18.1034483,16.9166667 L13.2758621,16.9166667 L4.82758621,8.45833333 L0,13.2916667 L10.862069,24.1666667 L21.7241379,24.1666667 L21.7241379,35.0416667 L14.4827586,35.0416667 C11.8167241,35.0416667 9.65517241,37.2057917 9.65517241,39.875 Z" id="Path"></path>
                    </g>
                    <path d="M48.5833333,2 L24.4166667,2 C23.0814583,2 22,3.08342105 22,4.42105263 L22,14.1052632 C22,15.4428947 23.0814583,16.5263158 24.4166667,16.5263158 L26.8333333,16.5263158 L26.8333333,25 L35.2916667,16.5263158 L48.5833333,16.5263158 C49.9185417,16.5263158 51,15.4428947 51,14.1052632 L51,4.42105263 C51,3.08342105 49.9185417,2 48.5833333,2 Z" id="Path" fill="#FCAC37"></path>
                    <g id="Group" fill="#31324D">
                        <path d="M72,21.6 C72,16.3068 67.6932,12 62.4,12 C57.1068,12 52.8,16.3068 52.8,21.6 C52.8,24.468 54.0708,27.0396 56.0712,28.8 L49.6968,28.8 L41.6484,20.7516 C41.1792,20.2824 40.4208,20.2824 39.9516,20.7516 L35.1516,25.5516 C34.6824,26.0208 34.6824,26.7792 35.1516,27.2484 L45.9516,38.0484 C46.176,38.274 46.4808,38.4 46.8,38.4 L56.4,38.4 L56.4,46.8 L50.4,46.8 L35.8416,46.8 L41.7984,37.866 L39.8016,36.5352 L32.958,46.8 L30,46.8 L30,40.8 C30,40.1364 29.4636,39.6 28.8,39.6 L19.2,39.6 L19.2,34.8 C19.2,32.2704 17.6208,30.1116 15.4008,29.2308 C17.7036,27.4764 19.2,24.7128 19.2,21.6 C19.2,16.3068 14.8932,12 9.6,12 C4.3068,12 0,16.3068 0,21.6 C0,24.7128 1.4964,27.4764 3.7992,29.2308 C1.5792,30.1116 0,32.2704 0,34.8 L0,51.6 C0,54.9084 2.6916,57.6 6,57.6 L6,72 L8.4,72 L8.4,57.6 L16.8,57.6 L16.8,70.8 C16.8,71.4636 17.3364,72 18,72 L26.4,72 C27.0636,72 27.6,71.4636 27.6,70.8 L27.6,52.8 C27.6,51.45 27.1524,50.2032 26.3976,49.2 L27.6,49.2 L28.8,49.2 L34.8,49.2 L34.8,69.6 L30,69.6 L30,72 L42,72 L42,69.6 L37.2,69.6 L37.2,49.2 L45.6312,49.2 C44.8692,50.2056 44.4,51.444 44.4,52.8 L44.4,70.8 C44.4,71.4636 44.9364,72 45.6,72 L54,72 C54.6636,72 55.2,71.4636 55.2,70.8 L55.2,57.6 L63.6,57.6 L63.6,72 L66,72 L66,57.6 C69.3084,57.6 72,54.9084 72,51.6 L72,34.8 C72,32.2704 70.4208,30.1116 68.2008,29.2308 C70.5036,27.4764 72,24.7128 72,21.6 Z M55.2,21.6 C55.2,17.6292 58.4292,14.4 62.4,14.4 C66.3708,14.4 69.6,17.6292 69.6,21.6 C69.6,25.5708 66.3708,28.8 62.4,28.8 C58.4292,28.8 55.2,25.5708 55.2,21.6 Z M2.4,21.6 C2.4,17.6292 5.6292,14.4 9.6,14.4 C13.5708,14.4 16.8,17.6292 16.8,21.6 C16.8,25.5708 13.5708,28.8 9.6,28.8 C5.6292,28.8 2.4,25.5708 2.4,21.6 Z M12,46.8 L12,37.2 L9.6,37.2 L9.6,48 C9.6,48.6636 10.1364,49.2 10.8,49.2 L21.6,49.2 C23.5848,49.2 25.2,50.8152 25.2,52.8 L25.2,69.6 L19.2,69.6 L19.2,56.4 C19.2,55.7364 18.6636,55.2 18,55.2 L6,55.2 C4.0152,55.2 2.4,53.5848 2.4,51.6 L2.4,34.8 C2.4,32.8152 4.0152,31.2 6,31.2 L13.2,31.2 C15.1848,31.2 16.8,32.8152 16.8,34.8 L16.8,40.8 C16.8,41.4636 17.3364,42 18,42 L27.6,42 L27.6,46.8 L12,46.8 Z M66,31.2 C67.9848,31.2 69.6,32.8152 69.6,34.8 L69.6,51.6 C69.6,53.5848 67.9848,55.2 66,55.2 L54,55.2 C53.3364,55.2 52.8,55.7364 52.8,56.4 L52.8,69.6 L46.8,69.6 L46.8,52.8 C46.8,50.8152 48.4152,49.2 50.4,49.2 L57.6,49.2 C58.2636,49.2 58.8,48.6636 58.8,48 L58.8,37.2 C58.8,36.5364 58.2636,36 57.6,36 L47.2968,36 L37.6968,26.4 L40.8,23.2968 L48.3516,30.8484 C48.576,31.074 48.8808,31.2 49.2,31.2 L66,31.2 Z" id="Shape"></path>
                        <path d="M25.9404,25.1088 C26.0892,25.1712 26.2452,25.2 26.4,25.2 C26.712,25.2 27.0192,25.0776 27.2484,24.8484 L35.2968,16.8 L48,16.8 C49.9848,16.8 51.6,15.1848 51.6,13.2 L51.6,3.6 C51.6,1.6152 49.9848,0 48,0 L24,0 C22.0152,0 20.4,1.6152 20.4,3.6 L20.4,13.2 C20.4,15.1848 22.0152,16.8 24,16.8 L25.2,16.8 L25.2,24 C25.2,24.4848 25.4916,24.924 25.9404,25.1088 Z M24,14.4 C23.3376,14.4 22.8,13.8624 22.8,13.2 L22.8,3.6 C22.8,2.9376 23.3376,2.4 24,2.4 L48,2.4 C48.6624,2.4 49.2,2.9376 49.2,3.6 L49.2,13.2 C49.2,13.8624 48.6624,14.4 48,14.4 L34.8,14.4 C34.4808,14.4 34.176,14.526 33.9516,14.7516 L27.6,21.1032 L27.6,15.6 C27.6,14.9364 27.0636,14.4 26.4,14.4 L24,14.4 Z" id="Shape"></path>
                        <rect id="Rectangle" x="25.2" y="4.8" width="7.2" height="2.4"></rect>
                        <rect id="Rectangle" x="25.2" y="9.6" width="21.6" height="2.4"></rect>
                        <rect id="Rectangle" x="34.8" y="4.8" width="12" height="2.4"></rect>
                    </g>
                </g>
            </g>
        </g>
    </g>
</svg>