<?xml version="1.0" encoding="UTF-8"?>
<svg width="171px" height="52px" viewBox="0 0 171 52" version="1.1" xmlns="http://www.w3.org/2000/svg" xmlns:xlink="http://www.w3.org/1999/xlink">
    <!-- Generator: Sketch 55.2 (78181) - https://sketchapp.com -->
    <title>Apple Store</title>
    <desc>Created with Sketch.</desc>
    <g id="Page-1" stroke="none" stroke-width="1" fill="none" fill-rule="evenodd">
        <g id="portfolio-details" transform="translate(-1001.000000, -1379.000000)">
            <g id="Apple-Store" transform="translate(1001.000000, 1379.000000)">
                <rect id="button" fill="#505A74" x="0" y="0" width="170.4" height="51.2" rx="8"></rect>
                <text id="Download-on-the" font-family="Helvetica" font-size="12" font-weight="normal" letter-spacing="0.960000038" fill="#FFFFFF">
                    <tspan x="54.4" y="17.4">Download on th</tspan>
                    <tspan x="151.230626" y="17.4">e</tspan>
                </text>
                <text id="App-Store" font-family="Helvetica" font-size="23.2" font-weight="normal" fill="#FFFFFF">
                    <tspan x="54.4" y="41.4">App Store</tspan>
                </text>
                <path d="M38.5273778,38.1636724 C37.1235733,40.2074514 35.6714667,42.238659 33.3788,42.2812343 C31.1224444,42.3238095 30.3990933,40.9506743 27.8243822,40.9506743 C25.2469689,40.9506743 24.4406933,42.238659 22.310312,42.3238095 C20.0969724,42.4062781 18.4139778,40.1164343 16.9986044,38.0818743 C14.1070409,33.9219048 11.9000853,26.3195429 14.8682062,21.1890255 C16.3380124,18.6410987 18.9717333,17.0290057 21.8257698,16.9864472 C23.9993867,16.946621 26.0527378,18.4453867 27.3803733,18.4453867 C28.7100356,18.4453867 31.2023289,16.6459459 33.8224711,16.9098789 C34.9192356,16.9549851 37.9974044,17.3498621 39.9742489,20.229725 C39.8180267,20.3319558 36.3000711,22.3696 36.3429689,26.61472 C36.3860356,31.685699 40.8063644,33.3712762 40.8577067,33.39424 C40.81768,33.5134171 40.1510756,35.800579 38.5273778,38.1636724 Z M28.9012178,11.3393112 C30.1146844,9.92365105 32.1649956,8.87068495 33.8570933,8.79993295 C34.0732711,10.7663558 33.2786489,12.7354941 32.10504,14.1544229 C30.9290667,15.5708038 29.0040711,16.6741394 27.11488,16.526819 C26.8581689,14.6029547 27.8103644,12.5965211 28.9012178,11.3393112 Z" id="logo" fill="#FFFFFF" fill-rule="nonzero"></path>
            </g>
        </g>
    </g>
</svg>