<?xml version="1.0" encoding="UTF-8"?>
<svg width="175px" height="59px" viewBox="0 0 175 59" version="1.1" xmlns="http://www.w3.org/2000/svg" xmlns:xlink="http://www.w3.org/1999/xlink">
    <!-- Generator: Sketch 55.2 (78181) - https://sketchapp.com -->
    <title>ibtikar</title>
    <desc>Created with Sketch.</desc>
    <g id="Page-1" stroke="none" stroke-width="1" fill="none" fill-rule="evenodd">
        <g id="site1" transform="translate(-1221.000000, -43.000000)" fill-rule="nonzero">
            <g id="ibtikar" transform="translate(1224.000000, 43.000000)">
                <path d="M27.0887842,56.7956944 C28.4942884,51.69875 28.5769651,45.7561389 28.5769651,45.7561389 C28.8606598,38.9072222 25.7627144,34.0675833 23.6974175,31.0848056 C23.1024694,30.1916111 22.6258624,29.4278889 22.6258624,29.4278889 C19.6640905,24.4686111 17.7592837,16.6003056 20.4276343,7.37336111 C21.319246,4.52988889 22.3778322,2.03713889 23.3748162,0 C20.1325919,0.627694444 17.0362677,2.21905556 14.5267861,4.77080556 L2.47057493,17.0313333 C-4.1873327,23.8032222 -4.1873327,34.7821389 2.47057493,41.5523889 L14.5267861,53.8129167 C17.8062959,57.1480556 22.0892743,58.8410278 26.3868426,58.8901944 C26.6494628,58.2198889 26.8893874,57.5168056 27.0887842,56.7956944" id="Path" fill="#4DC8F2"></path>
                <path d="M50.6937983,17.0313333 L38.6375872,4.77080556 C36.8754383,2.97786111 34.8231103,1.66019444 32.6346089,0.817805556 C31.7964939,1.71427778 31.0588878,2.45341667 31.0588878,2.45341667 C31.0588878,2.45341667 20.1439397,13.3454722 28.199246,27.1039444 C36.1913289,38.6138611 31.248558,51.6036944 27.1503864,58.8836389 C31.3231291,58.7426944 35.4537229,57.0546389 38.6392083,53.8145556 L50.6954194,41.5540278 C57.3517059,34.7821389 57.3517059,23.8032222 50.6937983,17.0313333" id="Path" fill="#30BB91"></path>
                <path d="M38.6375872,4.77080556 C37.334213,3.44494444 35.8703487,2.37802778 34.3124599,1.57169444 C33.4856927,2.66155556 32.6637889,3.84483333 31.8807917,5.11825 C26.9137041,13.7273333 28.3013761,21.8676944 31.5468426,27.3350278 C31.5468426,27.3350278 32.0737041,28.1806944 32.7416023,29.1771389 C35.0743827,32.5188333 38.5224882,37.8943889 37.116984,44.6105556 C37.116984,44.6105556 36.12,50.4679444 33.4662394,55.2371111 C32.8777757,56.2941944 32.1580019,57.2906389 31.4203959,58.1821944 C34.0628087,57.3889722 36.5528369,55.9336389 38.6375872,53.8129167 L50.6937983,41.5523889 C57.3517059,34.7805 57.3517059,23.8032222 50.6937983,17.0313333 L38.6375872,4.77080556 Z" id="Path" fill="#78D0BA"></path>
                <path d="M70.6804901,7.39958333 L73.5595853,7.39958333 L73.5595853,36.5701667 L70.6804901,36.5701667 L70.6804901,7.39958333 Z M95.9747031,33.61525 C93.9175118,35.813 91.3756079,36.94875 88.4203205,37.0634722 C85.3547974,37.1765556 82.6994156,36.0785 80.4185108,33.8053611 C78.137606,31.5322222 77.053082,28.8428056 77.1276532,25.7371111 L77.1276532,25.5846944 L77.1276532,7.36188889 L79.9321772,7.36188889 L79.9321772,18.2719722 C82.0266541,15.8087222 84.6447502,14.5598889 87.7848445,14.4451667 C90.8519887,14.3320833 93.5057493,15.3924444 95.7120829,17.6655833 C97.9557022,19.9387222 99.0775118,22.6281389 99.0775118,25.7731667 C99.0775118,28.8034722 98.0302733,31.4175 95.9747031,33.61525 L95.9747031,33.61525 Z M93.7294628,19.7125556 C92.1586051,18.0835 90.2521772,17.2509444 87.9712724,17.2509444 C85.8022243,17.2509444 83.933082,18.0458056 82.3995099,19.6748611 C80.8659378,21.3039167 80.0440339,23.2361667 80.0067484,25.5093056 C79.9321772,27.8955278 80.7167955,29.9785556 82.3995099,31.7600278 C84.0822243,33.5021667 86.0648445,34.3363611 88.3830349,34.2232778 C90.5893685,34.1101944 92.4212253,33.2383056 93.9547974,31.5338611 C95.4883695,29.8294167 96.2357022,27.8594722 96.1984166,25.5486389 C96.161131,23.2722222 95.337606,21.3399722 93.7294628,19.7125556 L93.7294628,19.7125556 Z M111.107785,34.6379167 L111.107785,37.0241389 C105.9105,37.0241389 103.329689,34.7886944 103.329689,30.3194444 L103.329689,7.39958333 L106.208784,7.39958333 L106.208784,14.9384722 L111.107785,14.9384722 L111.107785,17.6278889 L106.208784,17.6278889 L106.208784,29.8261389 C106.208784,33.0465556 107.854213,34.6379167 111.107785,34.6379167 L111.107785,34.6379167 Z M114.204109,14.9761667 L117.008633,14.9761667 L117.008633,36.5701667 L114.204109,36.5701667 L114.204109,14.9761667 Z M114.204109,7.36188889 L117.008633,7.36188889 L117.008633,12.3998333 L114.204109,12.3998333 L114.204109,7.36188889 Z M137.813987,36.5701667 L134.111367,36.5701667 L127.194081,28.084 L123.791367,32.4401667 L123.791367,36.5685278 L120.725844,36.5685278 L120.725844,7.36188889 L123.67951,7.36188889 L123.67951,27.9332222 L133.552083,14.9778056 L137.10394,14.9778056 L128.988652,25.8501944 L137.813987,36.5701667 Z M160.013497,25.7354722 L160.013497,25.88625 L160.013497,36.5685278 L157.246258,36.5685278 L157.246258,33.1973333 C154.928068,35.88675 152.086258,37.1749167 148.720829,37.0618333 C145.767163,36.94875 143.260924,35.8113611 141.203732,33.6136111 C139.146541,31.4158611 138.099303,28.8018333 138.099303,25.7715278 C138.099303,22.6281389 139.221112,19.8993889 141.427446,17.6639444 C143.633779,15.3908056 146.289161,14.3304444 149.39197,14.4435278 C152.382922,14.5566111 154.926447,15.694 157.020924,17.9294444 C159.115401,20.1288333 160.125353,22.7428611 160.013497,25.7354722 L160.013497,25.7354722 Z M157.171687,25.5076667 C157.134402,23.2345278 156.310877,21.3022778 154.778926,19.6732222 C153.245353,18.0441667 151.376211,17.2493056 149.207163,17.2493056 C146.926258,17.2493056 145.01983,18.0441667 143.411687,19.6732222 C141.803544,21.3022778 141.018926,23.2345278 140.98164,25.5453611 C140.944354,27.8185 141.654402,29.8261389 143.187974,31.5305833 C144.721546,33.2350278 146.590688,34.1069167 148.759736,34.22 C151.115212,34.3330833 153.097832,33.5005278 154.743261,31.75675 C156.422733,29.9785556 157.208973,27.8938889 157.171687,25.5076667 L157.171687,25.5076667 Z M168.69131,18.5374722 C167.867785,19.21925 167.308501,19.8256389 167.008596,20.3173056 C166.522262,21.1498611 166.298549,22.2495556 166.298549,23.6508056 L166.298549,36.5685278 L163.307597,36.5685278 L163.307597,14.9761667 L165.961357,14.9761667 L165.961357,18.0441667 C166.559548,16.8690833 167.457644,15.9988333 168.616739,15.35475 C169.701263,14.7860556 170.785787,14.5205556 171.907597,14.5598889 L171.907597,17.4394167 C170.597738,17.4771111 169.513214,17.8556944 168.69131,18.5374722 L168.69131,18.5374722 Z" id="Shape" fill="#505A74"></path>
                <path d="M73.9729689,42.31775 L73.9729689,50.9874722 L73.0229972,50.9874722 L73.0229972,42.31775 L70.8750236,42.31775 L70.8750236,41.4229167 L76.1322903,41.4229167 L76.1322903,42.31775 L73.9729689,42.31775 Z M79.4020735,47.7654167 C79.4766447,48.4750556 79.7716871,49.0716111 80.3034119,49.5321389 C80.8335156,49.9926667 81.4511593,50.2286667 82.1676909,50.2155556 C83.2781527,50.2024444 84.0676343,49.6812778 84.5491046,48.66025 L85.5493308,48.66025 C85.2899529,49.4190556 84.8457681,50.0287222 84.2167766,50.4761389 C83.5877851,50.9235556 82.8955702,51.1480833 82.1304053,51.1595556 C81.1674647,51.1726667 80.3163808,50.8235833 79.5755325,50.1024722 C78.8346843,49.36825 78.4521018,48.5111111 78.440754,47.5031944 C78.4164373,46.4461111 78.7860509,45.5250556 79.5512158,44.76625 C80.3293497,43.9943333 81.230688,43.6337778 82.2795476,43.6960556 C83.2181715,43.7583333 84.0319698,44.1434722 84.7225636,44.8645833 C85.3888407,45.5742222 85.7227898,46.3690833 85.7227898,47.2524444 L85.7227898,47.7621389 L79.4020735,47.7621389 L79.4020735,47.7654167 Z M83.8698586,45.2906944 C83.3883883,44.8793333 82.8080302,44.6695556 82.1304053,44.6564444 C81.4511593,44.6433333 80.8594533,44.85475 80.3536664,45.2661111 C79.8478794,45.6758333 79.539868,46.2232222 79.4036946,46.8951667 L84.7971348,46.8951667 C84.6609614,46.2363333 84.3513289,45.7004167 83.8698586,45.2906944 L83.8698586,45.2906944 Z M92.0159472,44.6318611 C91.2880679,44.61875 90.6461074,44.8809722 90.0657493,45.4283611 C89.4610745,45.9872222 89.1644109,46.6591667 89.1644109,47.4310833 C89.1644109,48.203 89.4481056,48.8618333 90.004147,49.4206944 C90.5601885,49.9680833 91.2264656,50.2417778 91.9916305,50.2286667 C93.0907446,50.2155556 93.9045429,49.7681389 94.4476155,48.8978889 L95.5094439,48.8978889 L95.4105561,49.1093056 C94.6697078,50.48925 93.5219604,51.1611944 91.9786616,51.1497222 C90.9541188,51.1366111 90.0787182,50.7760556 89.3378699,50.0680556 C88.5970217,49.3584167 88.2274081,48.4881667 88.2144392,47.4687778 C88.2014703,46.4362778 88.5597361,45.5660278 89.3005844,44.8318056 C90.0544015,44.0975833 90.942771,43.7124444 91.9786616,43.6993333 C92.7195099,43.6862222 93.4101037,43.8861667 94.0520641,44.2844167 C94.6567389,44.6695556 95.1009237,45.1431944 95.3603016,45.7266389 L95.496475,46.0380278 L94.4346466,46.0380278 C93.9029218,45.1284444 93.1020924,44.6564444 92.0159472,44.6318611 L92.0159472,44.6318611 Z M102.913063,50.9874722 L102.913063,46.8574722 C102.913063,46.2609167 102.690971,45.7512222 102.258134,45.3152778 C101.826918,44.8793333 101.308162,44.6679167 100.727804,44.6810278 C100.134477,44.6941389 99.6286899,44.8924444 99.2217908,45.2906944 C98.8148916,45.6758333 98.6171159,46.1740556 98.6171159,46.7837222 L98.6171159,50.9874722 L97.6412064,50.9874722 L97.6412064,41.3983333 L98.5911781,41.3983333 L98.5911781,44.9055556 C99.1212818,44.1959167 99.8134967,43.8238889 100.651612,43.7861944 C101.528633,43.7485 102.267861,44.0353056 102.898473,44.6564444 C103.527465,45.2775833 103.848445,46.0495 103.848445,46.9574444 L103.848445,50.9874722 L102.913063,50.9874722 Z M111.662205,50.9874722 L111.662205,46.846 C111.662205,46.2494444 111.440113,45.73975 111.007276,45.3038056 C110.57606,44.8678611 110.081621,44.6564444 109.501263,44.6564444 C108.920905,44.6564444 108.402149,44.8678611 107.970933,45.3038056 C107.538096,45.73975 107.328973,46.2494444 107.328973,46.846 L107.328973,50.9874722 L106.379001,50.9874722 L106.379001,46.9443333 C106.379001,46.0232778 106.675664,45.2661111 107.26737,44.6564444 C107.859076,44.0467778 108.599925,43.7353889 109.501263,43.7353889 C110.389632,43.7353889 111.130481,44.0467778 111.723808,44.6564444 C112.317135,45.2661111 112.612177,46.0249167 112.612177,46.9443333 L112.612177,50.9858333 L111.662205,50.9858333 L111.662205,50.9874722 Z M121.37591,50.091 C120.64803,50.8252222 119.771008,51.1857778 118.759434,51.1480833 C117.785146,51.1235 116.94541,50.7498333 116.266164,50.0287222 C115.586918,49.3076111 115.25459,48.4488333 115.25459,47.4540278 C115.25459,46.4215278 115.625825,45.5266944 116.353704,44.7924722 C117.081583,44.0467778 117.958605,43.6862222 118.970179,43.7222778 C119.946089,43.7599722 120.784204,44.132 121.46345,44.8662222 C122.142696,45.5873333 122.487992,46.4461111 122.487992,47.4409167 C122.486371,48.4619444 122.115137,49.3453056 121.37591,50.091 L121.37591,50.091 Z M120.745297,45.4529444 C120.23951,44.9186667 119.634835,44.6564444 118.918303,44.6564444 C118.164486,44.6433333 117.535495,44.9170278 117.005391,45.4529444 C116.475287,45.9872222 116.21591,46.6214722 116.202941,47.3802778 C116.189972,48.1259722 116.425033,48.7864444 116.93082,49.3453056 C117.436607,49.9058056 118.041282,50.1909722 118.769161,50.2155556 C119.547295,50.25325 120.200603,49.9910278 120.743676,49.4075833 C121.299717,48.8225 121.559095,48.1505556 121.546126,47.3671667 C121.523431,46.6214722 121.251084,45.9872222 120.745297,45.4529444 L120.745297,45.4529444 Z M125.088256,41.3983333 L126.02688,41.3983333 L126.02688,50.9874722 L125.088256,50.9874722 L125.088256,41.3983333 Z M134.863563,50.091 C134.135683,50.8252222 133.258662,51.1857778 132.247088,51.1480833 C131.272799,51.1235 130.433063,50.7498333 129.753817,50.0287222 C129.074571,49.3076111 128.742243,48.4488333 128.742243,47.4540278 C128.742243,46.4215278 129.111857,45.5266944 129.841357,44.7924722 C130.569237,44.0467778 131.446258,43.6862222 132.457832,43.7222778 C133.432121,43.7599722 134.271857,44.132 134.951103,44.8662222 C135.630349,45.5873333 135.975646,46.4461111 135.975646,47.4409167 C135.974025,48.4619444 135.604411,49.3453056 134.863563,50.091 L134.863563,50.091 Z M134.234571,45.4529444 C133.728784,44.9186667 133.124109,44.6564444 132.407578,44.6564444 C131.655382,44.6433333 131.024769,44.9170278 130.494665,45.4529444 C129.964562,45.9872222 129.705184,46.6214722 129.692215,47.3802778 C129.679246,48.1259722 129.914307,48.7864444 130.420094,49.3453056 C130.925881,49.9058056 131.530556,50.1909722 132.258435,50.2155556 C133.036569,50.25325 133.689877,49.9910278 134.23295,49.4075833 C134.788992,48.8225 135.046748,48.1505556 135.035401,47.3671667 C135.011084,46.6214722 134.740358,45.9872222 134.234571,45.4529444 L134.234571,45.4529444 Z M144.711819,52.8771111 C143.98394,53.4621944 143.157172,53.7473611 142.218549,53.7096667 C141.378812,53.6719722 140.650933,53.4228611 140.046258,52.93775 C139.4659,52.4772222 139.083318,51.8806667 138.885542,51.1595556 L139.798228,51.1595556 C139.934402,51.6446667 140.255382,52.0675 140.736852,52.4165833 C141.218322,52.7771389 141.748426,52.9508611 142.328784,52.9508611 C143.019378,52.93775 143.612705,52.70175 144.118492,52.2166389 C144.624279,51.7446389 144.883657,51.1726667 144.883657,50.5121944 L144.883657,49.84025 C144.193063,50.63675 143.32901,51.0595833 142.291499,51.0972778 C141.279925,51.1349722 140.402903,50.7744167 139.675024,50.0401944 C138.947144,49.2945 138.57591,48.3980278 138.57591,47.3655278 C138.57591,46.3707222 138.909859,45.5119444 139.587484,44.7908333 C140.26673,44.0697222 141.104844,43.6960556 142.080754,43.6583611 C143.092328,43.6337778 143.96935,43.9943333 144.710198,44.7400278 C145.462394,45.47425 145.82066,46.3576111 145.809312,47.377 L145.809312,50.6482222 C145.810933,51.5463333 145.439698,52.2936667 144.711819,52.8771111 L144.711819,52.8771111 Z M144.069859,45.41525 C143.526786,44.8301667 142.873478,44.5564722 142.095344,44.5941667 C141.367465,44.6318611 140.76279,44.9301389 140.257003,45.489 C139.751216,46.0495 139.504807,46.6952222 139.516155,47.4425556 C139.529123,48.2013611 139.799849,48.8356111 140.331574,49.3698889 C140.861678,49.9041667 141.49229,50.1663889 142.231517,50.1663889 C142.959397,50.1663889 143.564072,49.9058056 144.069859,49.3698889 C144.575646,48.8356111 144.847992,48.2013611 144.85934,47.4540278 C144.885278,46.6706389 144.6259,46.0003333 144.069859,45.41525 L144.069859,45.41525 Z M148.450104,43.8976389 L149.375759,43.8976389 L149.375759,50.9874722 L148.450104,50.9874722 L148.450104,43.8976389 Z M148.450104,41.3983333 L149.375759,41.3983333 L149.375759,43.0519722 L148.450104,43.0519722 L148.450104,41.3983333 Z M153.029746,47.7654167 C153.104317,48.4750556 153.399359,49.0716111 153.931084,49.5321389 C154.461188,49.9926667 155.078831,50.2286667 155.795363,50.2155556 C156.905825,50.2024444 157.695306,49.6812778 158.176777,48.66025 L159.177003,48.66025 C158.917625,49.4190556 158.47344,50.0287222 157.844449,50.4761389 C157.215457,50.9235556 156.523242,51.1480833 155.758077,51.1595556 C154.795137,51.1726667 153.944053,50.8235833 153.203205,50.1024722 C152.462356,49.36825 152.079774,48.5111111 152.068426,47.5031944 C152.044109,46.4461111 152.413723,45.5250556 153.178888,44.76625 C153.957022,43.9943333 154.856739,43.6337778 155.90722,43.6960556 C156.845844,43.7583333 157.659642,44.1434722 158.350236,44.8645833 C159.016513,45.5742222 159.350462,46.3690833 159.350462,47.2524444 L159.350462,47.7621389 L153.029746,47.7621389 L153.029746,47.7654167 Z M157.497531,45.2906944 C157.01606,44.8793333 156.435702,44.6695556 155.758077,44.6564444 C155.078831,44.6433333 154.487125,44.85475 153.981338,45.2661111 C153.475551,45.6758333 153.16754,46.2232222 153.031367,46.8951667 L158.424807,46.8951667 C158.287012,46.2363333 157.979001,45.7004167 157.497531,45.2906944 L157.497531,45.2906944 Z M163.975495,46.7083333 L164.790914,46.9820278 C165.729538,47.3048889 166.235325,47.9391389 166.296927,48.8733056 C166.345561,49.5075556 166.123468,50.0680556 165.63065,50.5400556 C165.136211,51.0005833 164.568822,51.212 163.926861,51.1743056 C163.335156,51.1366111 162.840716,50.8875 162.433817,50.4531944 C162.039887,50.01725 161.842111,49.4960833 161.842111,48.8864167 L162.8164,48.8864167 L162.8164,49.1224167 C162.8164,49.3584167 162.952573,49.6075278 163.211951,49.8681111 C163.471329,50.1286944 163.755024,50.25325 164.051687,50.2417778 C164.447238,50.2286667 164.75525,50.1172222 164.990311,49.8812222 C165.199434,49.6698056 165.298322,49.383 165.311291,49.0355556 C165.32426,48.4258889 164.977342,48.0161667 164.286748,47.7916389 L163.459981,47.5310556 C162.595928,47.2573611 162.138775,46.6608056 162.10311,45.7528611 C162.078794,45.2054722 162.2636,44.7334722 162.646183,44.3466944 C163.041734,43.9615556 163.510236,43.7501389 164.066277,43.7255556 C164.547747,43.7009722 164.991932,43.8615833 165.398831,44.1975556 C165.818699,44.5335278 166.040792,44.94325 166.078077,45.4414722 L166.091046,45.6528889 L165.103789,45.6528889 L165.103789,45.4906389 C165.103789,44.9924167 164.610971,44.6580833 164.066277,44.6580833 C163.536173,44.6711944 163.091989,45.0809167 163.07902,45.6283056 C163.038492,46.1363611 163.346503,46.4969167 163.975495,46.7083333 L163.975495,46.7083333 Z" id="Shape" fill="#505A74"></path>
            </g>
        </g>
    </g>
</svg>