
<svg width="59px" height="59px" viewBox="0 0 59 59" version="1.1" xmlns="http://www.w3.org/2000/svg" xmlns:xlink="http://www.w3.org/1999/xlink">
    <g id="Page-1" stroke="none" stroke-width="1" fill="none" fill-rule="evenodd">
        <g id="logoIcon" fill-rule="nonzero">
            <path d="M30.0887842,56.7956944 C31.4942884,51.69875 31.5769651,45.7561389 31.5769651,45.7561389 C31.8606598,38.9072222 28.7627144,34.0675833 26.6974175,31.0848056 C26.1024694,30.1916111 25.6258624,29.4278889 25.6258624,29.4278889 C22.6640905,24.4686111 20.7592837,16.6003056 23.4276343,7.37336111 C24.319246,4.52988889 25.3778322,2.03713889 26.3748162,0 C23.1325919,0.627694444 20.0362677,2.21905556 17.5267861,4.77080556 L5.47057493,17.0313333 C-1.1873327,23.8032222 -1.1873327,34.7821389 5.47057493,41.5523889 L17.5267861,53.8129167 C20.8062959,57.1480556 25.0892743,58.8410278 29.3868426,58.8901944 C29.6494628,58.2198889 29.8893874,57.5168056 30.0887842,56.7956944" id="Path" fill="#4DC8F2"></path>
            <path d="M53.6937983,17.0313333 L41.6375872,4.77080556 C39.8754383,2.97786111 37.8231103,1.66019444 35.6346089,0.817805556 C34.7964939,1.71427778 34.0588878,2.45341667 34.0588878,2.45341667 C34.0588878,2.45341667 23.1439397,13.3454722 31.199246,27.1039444 C39.1913289,38.6138611 34.248558,51.6036944 30.1503864,58.8836389 C34.3231291,58.7426944 38.4537229,57.0546389 41.6392083,53.8145556 L53.6954194,41.5540278 C60.3517059,34.7821389 60.3517059,23.8032222 53.6937983,17.0313333" id="Path" fill="#30BB91"></path>
            <path d="M41.6375872,4.77080556 C40.334213,3.44494444 38.8703487,2.37802778 37.3124599,1.57169444 C36.4856927,2.66155556 35.6637889,3.84483333 34.8807917,5.11825 C29.9137041,13.7273333 31.3013761,21.8676944 34.5468426,27.3350278 C34.5468426,27.3350278 35.0737041,28.1806944 35.7416023,29.1771389 C38.0743827,32.5188333 41.5224882,37.8943889 40.116984,44.6105556 C40.116984,44.6105556 39.12,50.4679444 36.4662394,55.2371111 C35.8777757,56.2941944 35.1580019,57.2906389 34.4203959,58.1821944 C37.0628087,57.3889722 39.5528369,55.9336389 41.6375872,53.8129167 L53.6937983,41.5523889 C60.3517059,34.7805 60.3517059,23.8032222 53.6937983,17.0313333 L41.6375872,4.77080556 Z" id="Path" fill="#78D0BA"></path>
        </g>
    </g>
</svg>