<?xml version="1.0" encoding="UTF-8"?>
<svg width="61px" height="61px" viewBox="0 0 61 61" version="1.1" xmlns="http://www.w3.org/2000/svg" xmlns:xlink="http://www.w3.org/1999/xlink">
    <title>microphone</title>
    <g id="Page-1" stroke="none" stroke-width="1" fill="none" fill-rule="evenodd">
        <g id="step5" transform="translate(-1142.000000, -343.000000)" fill-rule="nonzero">
            <g id="Rectangle" transform="translate(488.000000, 337.000000)">
                <g id="microphone" transform="translate(654.000000, 6.000000)">
                    <path d="M61,30.5 C61,38.8133164 57.6738357,46.3512878 52.2771377,51.8526993 C49.4024048,54.7865371 45.9380188,57.1409607 42.0761871,58.7256241 C38.6243667,60.1446075 34.8532867,60.9464798 30.9007034,60.9976731 C30.767601,60.9986038 30.6331025,61 30.5,61 C30.3482818,61 30.1960984,60.9986038 30.0443802,60.9962769 C29.921051,60.9948806 29.7991181,60.9925537 29.6757888,60.9888306 C25.8763199,60.8878403 22.2513733,60.0938797 18.9210205,58.724228 C17.0478134,57.9549331 15.2700119,57.0050659 13.6053008,55.8946381 C11.837738,54.7181244 10.2018814,53.3615036 8.72193143,51.8513032 C3.32616428,46.3498916 0,38.8133164 0,30.5 C0,13.6550979 13.6550979,0 30.5,0 C47.3449021,0 61,13.6550979 61,30.5 Z" id="Path" fill="#85D5E8"></path>
                    <path d="M46,20.6814852 L46,48 L15,48 L15,20.6814852 C15,12.0210898 21.9404421,5 30.5006877,5 C39.0609332,5 46,12.0210898 46,20.6814852 L46,20.6814852 Z" id="Path" fill="#FF2751"></path>
                    <path d="M27.2707858,40.4018598 C27.5646722,41.5944617 24.9069183,46.992481 25.0271229,48 L14,48 L14,20.6814852 C14,12.0210898 21.1640095,5 30,5 C24.0527078,5 20.15978,17.2460868 22.4980922,34.7245926 C22.9221213,37.8923398 26.4132627,36.9321352 27.2707858,40.4018598 Z" id="Path" fill="#D10F46"></path>
                    <path d="M52,52.0402516 C49.1619118,54.9139353 45.741687,57.2200848 41.9290828,58.7722569 C38.5212634,60.1621461 34.798254,60.9475771 30.896055,60.9977208 C30.7646494,60.9986324 30.6318653,61 30.5004595,61 C30.3506753,61 30.2004317,60.9986324 30.0506475,60.9963532 C29.9288905,60.9949856 29.8085119,60.9927064 29.6867547,60.9890596 C25.9357183,60.89014 22.3569796,60.1124584 19.0690794,58.7708894 C15.2578536,57.2173497 11.8376288,54.9116561 9,52.0388841 L15.7375305,42.7741714 C16.5484784,41.6605278 17.848752,41 19.2340258,41 L41.7645959,41 C43.1484913,41 44.4501432,41.6605278 45.2610913,42.7741714 L52,52.0402516 Z" id="Path" fill="#4C86CC"></path>
                    <polygon id="Path" fill="#EFA492" points="35 39 35 40.7800353 33.8060775 44.0194346 30.4999999 52 27.1939224 44.0194346 26 40.7800353 26 39"></polygon>
                    <path d="M43,26.2603141 L43,29.739225 C43,36.0765863 38.2965413,41.2882684 32.2622556,41.93316 C31.8485714,41.9774127 31.4263158,42 31.0009022,42 C24.3729323,42 19,36.5117382 19,29.739225 L19,26.2603141 C19,19.4896447 24.3729323,14 31.0009022,14 C31.4263158,14 31.8485714,14.0221264 32.2622556,14.06684 C35.0732331,14.3660071 37.5932331,15.6567121 39.4857142,17.5904646 C41.6556391,19.8095552 43,22.8759014 43,26.2603141 Z" id="Path" fill="#EFA492"></path>
                    <path d="M43,26.2519685 L43,29.7475683 C43,36.1153312 38.1818678,41.3520148 32.0004621,42 C25.81767,41.3520148 21,36.1153312 21,29.7475683 L21,26.2519685 C21,19.8860584 25.81767,14.6475221 32.0004621,14 C34.8799731,14.3006022 37.4614125,15.5974989 39.4000336,17.540528 C41.6228627,19.7702641 43,22.8513201 43,26.2519685 Z" id="Path" fill="#FFBDA9"></path>
                    <path d="M28,25 C28,23.8954129 26.8807339,23 25.5,23 C24.1192661,23 23,23.8954129 23,25 L28,25 Z" id="Path" fill="#EFA492"></path>
                    <path d="M38,25 C38,23.8954129 36.880734,23 35.5,23 C34.119266,23 33,23.8954129 33,25 L38,25 Z" id="Path" fill="#EFA492"></path>
                    <path d="M25.5,24 C26.3284365,24 27,24.627451 27,25.4014706 L27,27.5985294 C27,28.372549 26.3284365,29 25.5,29 C24.6715635,29 24,28.372549 24,27.5985294 L24,25.4014706 C24,24.627451 24.6715635,24 25.5,24 Z" id="Path" fill="#2C2133"></path>
                    <path d="M35.5,24 C36.3284365,24 37,24.627451 37,25.4014706 L37,27.5985294 C37,28.372549 36.3284365,29 35.5,29 C34.6715635,29 34,28.372549 34,27.5985294 L34,25.4014706 C34,24.627451 34.6715635,24 35.5,24 L35.5,24 Z" id="Path" fill="#2C2133"></path>
                    <polyline id="Path" fill="#EFA492" points="31 19 29 31 31 31"></polyline>
                    <path d="M45,26 C32.9661575,26 25.3300477,19 25.3300477,19 C25.3300477,20.2390211 24.3307957,21.7281931 22.9927195,22.9446865 C21.1789863,24.5948374 18.7457822,25.7395239 17.3472016,25.0674489 L17,21.3344285 L19.893037,15.1501173 L24.2335233,14.0457928 L32.2722195,12 L42.2233174,15.9672142 L45,26 Z" id="Path" fill="#FF2751"></path>
                    <path d="M24,12.4458927 C23.2726805,15.0268427 22.7944924,18.1148944 22.6277185,21.6119146 C20.6217989,23.3115999 17.9307683,24.4906479 16.3839917,23.7983983 L16,19.9533196 L19.4162913,11 L24,12.4458927 Z" id="Path" fill="#D10F46"></path>
                    <path d="M36,33 C36,33.5878167 35.8975235,34.1538097 35.7096499,34.6775785 C35.5208275,35.2127336 35.2418635,35.703767 34.8931588,36.1364456 C34.7389696,36.328589 34.5705475,36.5088719 34.3902648,36.673024 C33.4983395,37.4985293 32.3079988,38 31,38 C29.6920012,38 28.5016606,37.4985293 27.6097354,36.673024 C27.4294526,36.5088719 27.2610305,36.328589 27.1068413,36.1364456 C26.7581365,35.703767 26.4796471,35.2127336 26.2903502,34.6775785 C26.1024765,34.1538097 26,33.5878167 26,33 L36,33 Z" id="Path" fill="#2C2133"></path>
                    <path d="M34,36.5 C33.0796305,37.4331427 31.8501853,38 30.499755,38 C29.1498145,38 27.9203695,37.4331427 27,36.5 C27.9189,35.5684662 29.1498145,35 30.499755,35 C31.8501853,35 33.0811,35.5684662 34,36.5 Z" id="Path" fill="#FF2751"></path>
                    <path d="M40,31 C40,30.4476072 38.8806801,30 37.499747,30 C36.1193199,30 35,30.4476072 35,31 C35,31.5523927 36.1193199,32 37.499747,32 C38.8806801,32 40,31.5523927 40,31 Z" id="Path" fill="#EFA492"></path>
                    <path d="M26,31 C26,30.4476072 24.8807933,30 23.5,30 C22.1192065,30 21,30.4476072 21,31 C21,31.5523927 22.1192065,32 23.5,32 C24.8807933,32 26,31.5523927 26,31 Z" id="Path" fill="#EFA492"></path>
                    <path d="M36,32 C36,32.0682545 36,32.1357981 35.9971534,32.2040526 C34.5691242,33.3380732 32.8488472,34 31,34 C29.1497296,34 27.4308758,33.3380732 26.0028466,32.2040526 C26,32.1365091 26,32.0682545 26,32 L36,32 Z" id="Path" fill="#FFFFFF"></path>
                    <polygon id="Path" fill="#FF2751" points="34 44 30.5 52 27 44"></polygon>
                    <path d="M49,24 L46.1095284,24 L46.1095284,18.0362449 C46.1095284,9.64477031 39.1071144,2.81843395 30.5002338,2.81843395 C21.8928855,2.81843395 14.8904715,9.64477031 14.8904715,18.0362449 L14.8904715,24 L12,24 L12,18.0362449 C12,8.09102995 20.2991746,0 30.5002338,0 C40.7012929,0 49,8.09102995 49,18.0362449 L49,24 Z" id="Path" fill="#18282D"></path>
                    <path d="M45.6971092,38 L43,38 L43,35.3334771 L45.6971092,35.3334771 C46.047893,35.3334771 46.3330936,35.0483175 46.3330936,34.6975842 L46.3330936,32 L49,32 L49,34.6975842 C49,36.5185504 47.5183374,38 45.6971092,38 L45.6971092,38 Z" id="Path" fill="#18282D"></path>
                    <path d="M26,41 L20.9761033,42.8909554 C19.4292667,43.4753829 18.2013452,44.6105033 17.5679445,46.042396 L13.1641603,56 C11.2949637,54.8475565 9.5650462,53.5186907 8,52.0393873 L15.21693,42.7742523 C16.0855799,41.6610138 17.4783726,41 18.9622136,41 L26,41 Z" id="Path" fill="#3674B2"></path>
                    <path d="M48.3076158,18 L45.6918865,18 C44.2050772,18 43,19.0833333 43,20.4199367 L43,28.5800633 C43,29.9166667 44.2050772,31 45.6918865,31 L48.3076158,31 C49.7944252,31 51,29.9166667 51,28.5800633 L51,20.4199367 C51,19.0833333 49.7944252,18 48.3076158,18 Z" id="Path" fill="#435C60"></path>
                    <path d="M15.3076158,18 L12.6918865,18 C11.2050771,18 10,19.0833333 10,20.4199367 L10,28.5800633 C10,29.9166667 11.2050771,31 12.6918865,31 L15.3076158,31 C16.7944252,31 18,29.9166667 18,28.5800633 L18,20.4199367 C17.9995023,19.0833333 16.7944252,18 15.3076158,18 Z" id="Path" fill="#435C60"></path>
                    <path d="M51,26 L51,29.2730481 C51,30.7797295 49.7953457,32 48.3074482,32 L45.692054,32 C44.2046545,32 43,30.7797295 43,29.2730481 L43,26 C43,27.5071855 44.2046545,28.7274561 45.692054,28.7274561 L48.3074482,28.7274561 C49.7953457,28.7274561 51,27.5071855 51,26 L51,26 Z" id="Path" fill="#18282D"></path>
                    <path d="M18,26 L18,29.2730481 C18,30.7797295 16.7953456,32 15.3074482,32 L12.692054,32 C11.2046542,32 10,30.7797295 10,29.2730481 L10,26 C10,27.5071855 11.2046542,28.7274561 12.692054,28.7274561 L15.3074482,28.7274561 C16.7953456,28.7274561 18,27.5071855 18,26 Z" id="Path" fill="#18282D"></path>
                    <path d="M41.6664721,34 L40.3339659,34 C39.044811,34 38,35.1192419 38,36.5002345 C38,37.880758 39.044811,39 40.3339659,39 L41.6664721,39 C42.9551891,39 44,37.880758 44,36.5002345 C44,35.1192419 42.9551891,34 41.6664721,34 L41.6664721,34 Z" id="Path" fill="#2C2133"></path>
                    <path d="M42,43 L42,58.7739707 C38.4548177,60.2092517 34.5721752,61 30.5013869,61 C26.4292118,61 22.5465691,60.2092517 19,58.7726043 L19,43 L42,43 Z" id="Path" fill="#E6E6E6"></path>
                </g>
            </g>
        </g>
    </g>
</svg>