<?xml version="1.0" encoding="UTF-8"?>
<svg width="29px" height="20px" viewBox="0 0 29 20" version="1.1" xmlns="http://www.w3.org/2000/svg" xmlns:xlink="http://www.w3.org/1999/xlink">
    <title>Shape</title>
    <g id="Page-1" stroke="none" stroke-width="1" fill="none" fill-rule="evenodd">
        <g id="step2" transform="translate(-386.000000, -275.000000)" fill="#EB7695" fill-rule="nonzero">
            <g id="Group-6" transform="translate(187.000000, 275.000000)">
                <g id="Group-4">
                    <path d="M199.6,12.7995919 C199.6,16.3340497 202.464666,19.2 206,19.2 C209.534232,19.2 212.4,16.3351516 212.4,12.7995919 C212.4,9.30829321 209.603497,6.47203393 206.129163,6.40285687 C207.744406,4.81857986 209.957532,3.8393266 212.4,3.8393266 L212.398804,-5.32907052e-15 C205.33034,-5.32907052e-15 199.6,5.73098237 199.6,12.7995919 L199.6,12.7995919 Z M227.598776,-5.32907052e-15 C220.530311,-5.32907052e-15 214.8,5.73098237 214.8,12.7995919 C214.8,16.3340497 217.665859,19.2 221.2,19.2 C224.734141,19.2 227.6,16.3351516 227.6,12.7995919 C227.6,9.30829321 224.803497,6.47203393 221.329163,6.40285687 C222.944406,4.81857986 225.158757,3.8393266 227.6,3.8393266 L227.598776,-5.32907052e-15 Z" id="Shape" transform="translate(213.600000, 9.600000) rotate(-180.000000) translate(-213.600000, -9.600000) "></path>
                </g>
            </g>
        </g>
    </g>
</svg>