<?xml version="1.0" encoding="UTF-8"?>
<svg width="18px" height="18px" viewBox="0 0 18 18" version="1.1" xmlns="http://www.w3.org/2000/svg" xmlns:xlink="http://www.w3.org/1999/xlink">
    <title>plus</title>
    <g id="Page-1" stroke="none" stroke-width="1" fill="none" fill-rule="evenodd">
        <g id="hiring" transform="translate(-689.000000, -2631.000000)" fill="#505A74" fill-rule="nonzero" stroke="#5A647C">
            <g id="plus" transform="translate(690.000000, 2632.000000)">
                <path d="M15.625,7.625 L8.375,7.625 L8.375,0.375 C8.375,0.175 8.2,0 8,0 C7.8,0 7.625,0.175 7.625,0.375 L7.625,7.625 L0.375,7.625 C0.175,7.625 0,7.8 0,8 C0,8.2 0.175,8.375 0.375,8.375 L7.625,8.375 L7.625,15.625 C7.625,15.825 7.8,16 8,16 C8.2,16 8.375,15.825 8.375,15.625 L8.375,8.375 L15.625,8.375 C15.825,8.375 16,8.2 16,8 C16,7.8 15.825,7.625 15.625,7.625 Z" id="Path"></path>
            </g>
        </g>
    </g>
</svg>