<?xml version="1.0" encoding="UTF-8"?>
<svg width="150px" height="145px" viewBox="0 0 150 145" version="1.1" xmlns="http://www.w3.org/2000/svg" xmlns:xlink="http://www.w3.org/1999/xlink">
    <!-- Generator: Sketch 55.2 (78181) - https://sketchapp.com -->
    <title>Group 11</title>
    <desc>Created with Sketch.</desc>
    <g id="Page-1" stroke="none" stroke-width="1" fill="none" fill-rule="evenodd">
        <g id="site2" transform="translate(-990.000000, -6304.000000)">
            <g id="Group-13" transform="translate(921.000000, 6064.000000)">
                <g id="Group-11" transform="translate(70.000000, 241.000000)">
                    <path d="M34.2646384,0.550611398 L113.807451,-0.0694396346 C132.584562,-0.21581071 147.925076,14.8873881 148.071447,33.6644991 C148.072849,33.8444123 148.072824,34.0243337 148.07137,34.2042464 L147.469223,108.725141 C147.319201,127.291774 132.302037,142.304658 113.735362,142.449389 L34.1925486,143.06944 C15.4154376,143.215811 0.0749243782,128.112612 -0.0714466971,109.335501 C-0.0728491535,109.155588 -0.0728235119,108.975666 -0.0713697748,108.795754 L0.530776566,34.2748594 C0.680799329,15.7082258 15.6979628,0.69534209 34.2646384,0.550611398 Z" id="Rectangle" fill="#78D0BA" transform="translate(74.000000, 71.500000) rotate(-360.000000) translate(-74.000000, -71.500000) "></path>
                    <g id="project-management" transform="translate(25.000000, 23.000000)" fill="#FFFFFF" fill-rule="nonzero">
                        <path d="M95.446795,25.4254472 C95.4465942,25.4254472 95.4465942,25.4254472 95.4463934,25.4254472 L95.4431801,25.422234 L89.1934079,24.5305569 C88.3149855,24.405441 87.7042671,23.5918861 87.829383,22.7134638 C87.8894306,22.291323 88.1149607,21.9105528 88.4559669,21.6546977 L93.5071967,17.8662754 C94.2171242,17.3338799 94.3609172,16.3269275 93.8285217,15.617 L88.0446708,7.90519876 C87.5122754,7.19527122 86.505323,7.05147826 85.7953954,7.58387371 L80.7457723,11.3722961 C80.0388571,11.9087081 79.0311014,11.7705383 78.4946894,11.0636232 C78.2342153,10.7204079 78.1225549,10.2868199 78.1848116,9.8604617 L79.0780952,3.61068944 C79.2040145,2.73226708 78.5940994,1.91831056 77.7158778,1.79219048 C77.7152754,1.79219048 77.7146729,1.79198965 77.7140704,1.79198965 L68.1771429,0.429571429 C67.2989213,0.303451346 66.4845631,0.913165631 66.3584431,1.79158799 C66.3584431,1.79178882 66.3584431,1.79178882 66.3584431,1.79198965 L65.4651594,8.0417619 C65.3400435,8.92018427 64.5264886,9.53090269 63.6480663,9.40578675 C63.2259255,9.34573913 62.8451553,9.12020911 62.5893002,8.7792029 L58.8024845,3.72797308 C58.270089,3.01804555 57.2631366,2.87425259 56.5532091,3.40664803 L51.7253002,7.02958799 C49.5410932,6.79743064 47.3384099,6.79743064 45.1542029,7.02958799 C30.8500166,8.66453002 19.6327598,20.071971 18.2384099,34.4016625 C18.1950311,34.8563375 18.1789648,35.3077992 18.156472,35.7592609 L17.6744845,35.7592609 C16.9121408,35.7606667 16.2556335,36.2976812 16.103205,37.0445611 L14.9930269,42.3239317 L10.5458882,39.2568841 C9.90765631,38.8164679 9.04570186,38.8949917 8.49744099,39.4432526 L3.67756522,44.2631284 C3.13010766,44.8111884 3.05178468,45.6719379 3.49119669,46.3099689 L6.54378468,50.7490745 L1.26280745,51.8592526 C0.524161491,52.0211201 -0.00160662526,52.6760207 -3.67200014e-06,53.4321387 L-3.67200014e-06,59.8586398 C-3.67200014e-06,60.6185735 0.531993789,61.2748799 1.27566046,61.4315259 L6.55663768,62.5417039 L3.50404969,66.9808095 C3.06463768,67.6188406 3.14296066,68.4795901 3.69041822,69.0276501 L8.510294,73.8475259 C9.05855487,74.3957867 9.92050932,74.4743106 10.5587412,74.0338944 L14.9978468,70.9732733 L16.1080248,76.2542505 C16.2604534,77.0011304 16.9169607,77.5381449 17.6793043,77.5395507 L24.1058054,77.5395507 C24.8657391,77.5399524 25.5220455,77.0075569 25.6786915,76.2638903 L26.7888696,70.982913 L31.2279752,74.035501 C31.8660062,74.474913 32.7267557,74.3965901 33.2748157,73.8491325 L35.7699048,71.3460104 L35.7699048,75.9248923 C35.7771346,78.2105176 37.0015839,80.3190124 38.9831553,81.4581097 L38.9831553,90.3845197 C38.9831553,93.9337557 41.8604203,96.8110207 45.4096563,96.8110207 L51.8361573,96.8110207 C55.3853934,96.8110207 58.2626584,93.9337557 58.2626584,90.3845197 L58.2626584,81.4581097 C60.2442298,80.3190124 61.4686791,78.2105176 61.4759089,75.9248923 L61.4759089,69.5658696 C61.5194886,66.890236 62.9192609,64.4200497 65.1920331,63.0076253 C66.5253313,62.1426584 67.7897453,61.1756708 68.974029,60.1156998 L66.8307909,57.7218282 C65.7714224,58.6713437 64.6395549,59.5367122 63.4456315,60.3101014 C60.2554762,62.3123582 58.3026232,65.7995383 58.2626584,69.5658696 L58.2626584,75.9248923 C58.2626584,77.6996108 56.8241263,79.1381429 55.0494079,79.1381429 L42.1964058,79.1381429 C40.4216874,79.1381429 38.9831553,77.6996108 38.9831553,75.9248923 L38.9831553,69.4325197 C38.9460021,65.7374824 37.0238758,62.3175797 33.88694,60.3647267 C21.153029,52.3633313 17.3164079,35.5542153 25.3178033,22.8203043 C30.2822754,14.9195238 38.9464037,10.1106936 48.2774824,10.0773561 C48.2535839,10.1345921 48.2324969,10.1930331 48.214824,10.2524783 C48.1551781,10.6742174 48.2656335,11.1025839 48.5216894,11.4429876 L52.3085052,16.4926108 C52.7077516,17.0093416 52.7461097,17.7190683 52.4049027,18.2759648 C52.0763478,18.8362754 51.4411284,19.1419358 50.7982774,19.0487516 L44.5485052,18.1554679 C43.6700828,18.0295487 42.8561263,18.6394638 42.7300062,19.5176853 C42.7300062,19.5182878 42.7298054,19.5188903 42.7298054,19.5194928 L41.3657805,29.0612402 C41.2398613,29.9394617 41.8497764,30.753619 42.7279979,30.8797391 C42.7286004,30.8797391 42.7292029,30.87994 42.7298054,30.87994 L48.9795776,31.7732236 C49.858,31.8983395 50.4687184,32.7118944 50.3436025,33.5903168 C50.2835549,34.0124576 50.0580248,34.3932277 49.7170186,34.6490828 L44.6673954,38.4358986 C43.9574679,38.968294 43.8136749,39.9752464 44.3460704,40.6851739 L50.1299213,48.3969752 C50.6623168,49.1069027 51.6692692,49.2506957 52.3791967,48.7183002 L57.4304265,44.9314845 C58.1409565,44.4000932 59.1479089,44.5452919 59.6793002,45.2560228 C59.9335487,45.5960248 60.043,46.0229855 59.983354,46.4433188 L59.091677,52.6930911 C58.9655569,53.5713126 59.5752712,54.3856708 60.4536936,54.5117909 C60.4538944,54.5117909 60.4538944,54.5117909 60.4540952,54.5117909 L69.9974493,55.8758157 C70.072559,55.8854555 70.1482712,55.8902754 70.2239834,55.8902754 C71.023882,55.8912795 71.7024803,55.3036563 71.8161491,54.5117909 L72.7078261,48.2620186 C72.832942,47.3835963 73.6464969,46.7728778 74.5249193,46.8979938 C74.94706,46.9580414 75.3278302,47.1835714 75.5836853,47.5245776 L79.3721077,52.5742008 C79.9045031,53.2841284 80.9114555,53.4279213 81.621383,52.8955259 L89.3331843,47.1116749 C90.0431118,46.5792795 90.1869048,45.5723271 89.6545093,44.8623996 L85.8676936,39.8127764 C85.4702547,39.2952422 85.4318965,38.5867205 85.7712961,38.0294224 C86.0928219,37.4616812 86.7338654,37.1540124 87.3779213,37.2582422 L93.6276936,38.1499193 C94.5059151,38.2760393 95.3202733,37.6661242 95.4463934,36.7879027 C95.4463934,36.7877019 95.4463934,36.7877019 95.4463934,36.787501 L96.8088116,27.244147 C96.9349317,26.3657246 96.3252174,25.5515673 95.446795,25.4254472 Z M42.1964058,82.3513934 L55.0494079,82.3513934 L55.0494079,85.5646439 L42.1964058,85.5646439 L42.1964058,82.3513934 L42.1964058,82.3513934 Z M42.1964058,88.7778944 L55.0494079,88.7778944 L55.0494079,90.3845197 C55.0494079,92.1592381 53.6108758,93.5977702 51.8361573,93.5977702 L45.4096563,93.5977702 C43.6349379,93.5977702 42.1964058,92.1592381 42.1964058,90.3845197 L42.1964058,88.7778944 L42.1964058,88.7778944 Z M29.4060621,61.0716418 C30.2832795,61.789 31.1998592,62.4569545 32.1517847,63.0718903 C33.6698447,64.0312464 34.8125569,65.4826315 35.3891346,67.1832443 L31.9429234,70.623029 L28.6059627,68.3223416 C27.1447371,67.3153892 25.1438861,67.6837081 24.1367329,69.1449337 C23.8953375,69.4953789 23.7258385,69.890207 23.6382774,70.3065238 L22.7964058,74.3182671 L18.9774576,74.3182671 L18.1355859,70.3129503 C17.7700787,68.5763892 16.0660518,67.4648054 14.3294907,67.8303126 C13.9131739,67.9178737 13.5183458,68.0873727 13.1679006,68.3287681 L9.82933333,70.623029 L6.90206211,67.7021843 L9.20114286,64.3668302 C10.2090994,62.906207 9.84198551,60.9051553 8.38136232,59.8971988 C8.03071636,59.6552008 7.63548654,59.4853002 7.21856729,59.3975383 L3.21325052,58.55406 L3.21325052,54.7367184 L7.21856729,53.8932402 C8.95452588,53.5251222 10.063499,51.8194886 9.69538095,50.0833292 C9.6080207,49.6714306 9.44073085,49.2808199 9.20274948,48.933588 L6.90206211,45.5885942 L9.82933333,42.6677495 L13.1695072,44.9684369 C14.6313354,45.9743851 16.6321863,45.6048613 17.6381346,44.1430331 C17.8791284,43.7929896 18.0482257,43.3985631 18.1355859,42.982648 L18.4167453,41.6459358 C18.674207,43.4971698 19.1005652,45.3206894 19.6907992,47.0940021 C14.4043996,47.7242008 10.6298344,52.5207805 11.2600331,57.8071801 C11.8902319,63.0935797 16.6868116,66.8681449 21.9732112,66.2379462 C25.1555342,65.858381 27.9412215,63.9221967 29.4060621,61.0716418 Z M26.9109731,58.8079068 C25.7112257,62.1426584 22.0354679,63.8733954 18.7007164,62.6738489 C15.3659648,61.4741014 13.6352277,57.7983437 14.8347743,54.4635921 C15.752559,51.912472 18.1747474,50.213265 20.8859275,50.2188743 C20.9068137,50.2188743 20.9260932,50.2188743 20.9469793,50.2188743 C22.424472,53.4046253 24.4421925,56.3104079 26.9109731,58.8079068 Z M92.4837764,34.7374472 L87.8245631,34.0723043 C85.1892961,33.6959524 82.748029,35.5273043 82.371677,38.1623706 C82.1909317,39.4277888 82.5202899,40.7132899 83.2874534,41.7359068 L86.110294,45.5002298 L80.9690932,49.3561304 L78.144646,45.5934141 C76.5476605,43.4636315 73.5266025,43.0316501 71.3970207,44.6286356 C70.3744037,45.3953975 69.6982153,46.5371056 69.5170683,47.8025238 L68.8663851,52.4681636 L62.5057557,51.5588137 L63.1708986,46.8996004 C63.5482547,44.2645342 61.7179068,41.8224638 59.0828406,41.4453085 C57.816619,41.2639607 56.5305155,41.5933188 55.5072961,42.3608841 L51.7429731,45.1837246 L47.8870725,40.0425238 L51.6497888,37.2180766 C53.7795714,35.6210911 54.2115528,32.6000331 52.6145673,30.4704513 C51.8478054,29.4478344 50.7060973,28.771646 49.4406791,28.590499 L44.7814658,27.9253561 L45.6908157,21.5647267 L50.350029,22.2298696 C52.9850952,22.6072257 55.4271656,20.7768778 55.8043209,18.1418116 C55.9856687,16.8755901 55.6563106,15.5894865 54.8887453,14.5662671 L52.056265,10.7987308 L57.1974658,6.94283023 L60.021913,10.7071532 C61.6188986,12.8369358 64.6399565,13.2689172 66.7695383,11.6719317 C67.7921553,10.9051698 68.4683437,9.7634617 68.6494907,8.49804348 L69.3146335,3.83883023 L75.6752629,4.7465735 L75.0101201,9.40578675 C74.6337681,12.0410538 76.4649193,14.4823209 79.1001863,14.8586729 C80.3656046,15.0394182 81.6511056,14.71006 82.6737226,13.9428965 L86.4380455,11.1200559 L90.2939462,16.2612567 L86.5296232,19.0857039 C84.3998406,20.6826894 83.9678592,23.7037474 85.5648447,25.8333292 C86.3316066,26.8559462 87.4733147,27.5321346 88.7387329,27.7132816 L93.3979462,28.3784244 L92.4837764,34.7374472 Z" id="Shape"></path>
                        <path d="M69.0848861,15.2972816 C61.9864141,15.2972816 56.2318841,21.0518116 56.2318841,28.1502836 C56.2318841,35.2487557 61.9864141,41.0032857 69.0848861,41.0032857 C76.1833582,41.0032857 81.9378882,35.2487557 81.9378882,28.1502836 C81.9298551,21.0550248 76.1801449,15.3051139 69.0848861,15.2972816 Z M69.0848861,37.7900352 C63.7609317,37.7900352 59.4451346,33.4742381 59.4451346,28.1502836 C59.4451346,22.8263292 63.7609317,18.5105321 69.0848861,18.5105321 C74.4088406,18.5105321 78.7246377,22.8263292 78.7246377,28.1502836 C78.718412,33.4716273 74.4062298,37.7838095 69.0848861,37.7900352 Z" id="Shape"></path>
                        <rect id="Rectangle" x="47.0162816" y="71.1050166" width="3.21325052" height="4.81987578"></rect>
                        <path d="M41.595528,55.3263499 C31.6776294,51.4519731 26.7784265,40.2710663 30.6530041,30.3531677 C32.1543954,26.5101201 34.8489068,23.2500766 38.3405052,21.0522133 L36.6230228,18.3338033 C26.1124803,24.9553085 22.9596791,38.8435797 29.5811843,49.3541222 C32.145559,53.4247081 35.9476377,56.5658613 40.429118,58.3162795 C44.3958758,59.836147 47.0152774,63.6438489 47.0162816,67.891766 L50.2295376,67.891766 C50.2345528,62.318383 46.7999896,57.319971 41.595528,55.3263499 Z" id="Path"></path>
                        <rect id="Rectangle" x="79.1487867" y="59.8586398" width="11.2463768" height="3.21325052"></rect>
                        <polygon id="Rectangle" transform="translate(82.362653, 73.513221) rotate(-50.201031) translate(-82.362653, -73.513221) " points="80.7560174 67.2393089 83.9692886 67.2393089 83.9692886 79.7871331 80.7560174 79.7871331"></polygon>
                        <rect id="Rectangle" x="69.5090352" y="72.7116418" width="3.21325052" height="11.2463768"></rect>
                        <polygon id="Rectangle" transform="translate(8.456040, 27.724151) rotate(-14.034854) translate(-8.456040, -27.724151) " points="1.83225392 26.1184096 15.0798251 26.1184096 15.0798251 29.3298933 1.83225392 29.3298933"></polygon>
                        <polygon id="Rectangle" transform="translate(10.865442, 14.070766) rotate(-54.462988) translate(-10.865442, -14.070766) " points="9.25969916 7.16101257 12.4711843 7.16101257 12.4711843 20.9805198 9.25969916 20.9805198"></polygon>
                        <polygon id="Rectangle" transform="translate(21.274613, 6.837362) rotate(-14.341974) translate(-21.274613, -6.837362) " points="19.6680453 0.204646297 22.8811813 0.204646297 22.8811813 13.4700783 19.6680453 13.4700783"></polygon>
                    </g>
                </g>
            </g>
        </g>
    </g>
</svg>