<?xml version="1.0" encoding="UTF-8"?>
<svg width="91px" height="88px" viewBox="0 0 91 88" version="1.1" xmlns="http://www.w3.org/2000/svg" xmlns:xlink="http://www.w3.org/1999/xlink">
    <!-- Generator: Sketch 55.2 (78181) - https://sketchapp.com -->
    <title>Group 12</title>
    <desc>Created with Sketch.</desc>
    <g id="Page-1" stroke="none" stroke-width="1" fill="none" fill-rule="evenodd">
        <g id="site2" transform="translate(-937.000000, -6265.000000)">
            <g id="Group-13" transform="translate(921.000000, 6064.000000)">
                <g id="Group-12" transform="translate(17.000000, 202.000000)">
                    <path d="M20.5598661,0.331489455 L68.484945,-0.0421248096 C79.7512116,-0.129954355 88.9555251,8.93195931 89.0433546,20.1982259 C89.0441961,20.3061736 89.0441808,20.4141263 89.0433087,20.5220738 L88.6804387,65.4339489 C88.5904321,76.5739293 79.5801394,85.5816653 68.4401339,85.6685105 L20.515055,86.0421248 C9.24878843,86.1299544 0.0444749403,77.0680407 -0.043354605,65.8017741 C-0.0441961438,65.6938264 -0.0441808262,65.5858737 -0.0433086536,65.4779262 L0.319561342,20.5660511 C0.409567929,9.42607073 9.41986058,0.418334694 20.5598661,0.331489455 Z" id="Rectangle" fill="#EA688A" transform="translate(44.500000, 43.000000) rotate(-360.000000) translate(-44.500000, -43.000000) "></path>
                    <g id="brain" transform="translate(16.000000, 15.000000)" fill="#FFFFFF" fill-rule="nonzero">
                        <path d="M44.282,23.1190487 C44.4664062,19.8219259 43.7891562,17.3251774 42.2669844,15.6937544 C41.1426094,14.4887173 39.8357969,14.0815439 39.06875,13.9437817 C37.9917344,11.8097778 36.2325469,11.3265185 35.0807188,11.3838285 C33.0009531,9.50569981 31.0670938,9.46760234 29.7829219,9.78897466 C29.0385156,9.97498635 28.4389219,10.2958129 28.0203438,10.5758129 C27.6017656,10.295922 27.0027187,9.97498635 26.2577656,9.78897466 C24.9731563,9.46760234 23.0397344,9.505154 20.9604062,11.3838285 C19.8027812,11.3255361 18.0493906,11.8097778 16.972375,13.9437817 C16.2053281,14.0811072 14.8984063,14.4887173 13.7741406,15.6937544 C12.2525156,17.3251774 11.5751562,19.8224717 11.7595625,23.1190487 C10.4329531,25.3301209 9.35014062,29.7734425 13.5109844,32.9365146 C13.2329531,34.9037193 13.6099688,38.0712671 16.5229531,39.7398051 C16.412375,40.4957505 16.3989219,41.6347446 17.0101094,42.6485302 C17.52275,43.4989006 18.3492969,44.0669786 19.4707188,44.3406472 C20.1383438,45.3538869 22.0520781,47.8825107 24.5237344,47.8825107 C24.5405781,47.8825107 24.5579688,47.8825107 24.5753594,47.8820741 C25.8537344,47.8637349 27.0085156,47.1830019 28.0203438,45.8536296 C29.0327188,47.1830019 30.1875,47.8637349 31.4657656,47.8820741 C31.4831563,47.8825107 31.5,47.8825107 31.5173906,47.8825107 C33.9886094,47.8825107 35.9022344,45.3538869 36.5704063,44.3406472 C37.692375,44.0665419 38.518375,43.4989006 39.0315625,42.6485302 C39.64275,41.6357271 39.6291875,40.4957505 39.5186094,39.7398051 C42.4315938,38.0717037 42.8086094,34.9042651 42.5305781,32.9365146 C46.6909844,29.7734425 45.6086094,25.3301209 44.282,23.1190487 Z M40.9302031,31.7084444 C40.5927813,31.9329903 40.4329844,32.3478051 40.5280313,32.7410058 C40.5690469,32.9082417 41.4834219,36.8528031 38.0326406,38.3286706 C37.5710781,38.5257076 37.3384375,39.0436803 37.49725,39.5191891 C37.501625,39.5317427 37.8902344,40.8032593 37.3766094,41.6555945 C37.0994531,42.114729 36.5873594,42.4009513 35.812,42.5300897 C35.5300313,42.5773567 35.2828438,42.7474308 35.1375938,42.9940273 C34.6509844,43.8208187 33.0569531,45.9552593 31.5173906,45.9552593 C31.5082031,45.9552593 31.5,45.9552593 31.4908125,45.9548226 C30.59525,45.9408499 29.7166406,45.1583782 28.8810156,43.6281481 C28.7115938,43.318347 28.3606094,43.1261131 28.0076563,43.1261131 C27.6542656,43.1261131 27.328875,43.318347 27.1594531,43.6271657 C26.3232813,45.1573957 25.4452188,45.9398674 24.5492188,45.9538402 C24.5405781,45.9542768 24.5318281,45.9542768 24.5231875,45.9542768 C22.983625,45.9542768 21.3895938,43.8198363 20.9034219,42.9934815 C20.7590469,42.7457934 20.5114219,42.5757193 20.2285781,42.5285614 C19.4566094,42.3999688 18.946375,42.1156023 18.6683438,41.6602885 C18.2305156,40.9428772 18.4313281,39.8669786 18.5437656,39.5176608 C18.7025781,39.0416062 18.4699375,38.5241793 18.008375,38.3271423 C14.5566094,36.8504016 15.4714219,32.9067135 15.5115625,32.7428616 C15.6105469,32.3478051 15.4497656,31.9334269 15.110375,31.707462 C10.5791875,28.6921949 13.2305469,24.3813957 13.5462031,23.9025029 C13.6649844,23.7246784 13.7209844,23.5122495 13.706,23.2992749 C13.5027812,20.4632515 14.0057969,18.2974815 15.1600313,17.0356803 C16.2534531,15.8398129 17.5810469,15.8002963 17.6278594,15.7993138 C18.0227031,15.7993138 18.377625,15.5593762 18.5242969,15.1936842 C19.3869375,13.0409045 20.9014531,13.3001637 21.0573125,13.3333489 C21.3860938,13.4147836 21.734125,13.3193762 21.9740938,13.0798752 C24.8363281,10.221692 27.0826719,12.2361637 27.3249375,12.470425 C27.5059531,12.6510877 27.7517188,12.7527173 28.0075469,12.7527173 L28.0325938,12.7527173 C28.2836094,12.7527173 28.5303594,12.6495595 28.7103906,12.4752281 C28.9570312,12.2357271 31.2023906,10.2202729 34.0665938,13.0798752 C34.2983594,13.3116257 34.6478125,13.4060507 34.969375,13.3367329 C35.1397813,13.3001637 36.6532031,13.0409045 37.5163906,15.1941209 C37.662625,15.5598129 38.0179844,15.7997505 38.4123906,15.7997505 C38.4259531,15.7997505 39.7578125,15.832499 40.8527656,17.0062066 C42.0263594,18.2647329 42.539,20.4410916 42.3343594,23.2997115 C42.319375,23.5107212 42.3759219,23.7236959 42.4921875,23.900538 C42.8100313,24.3823782 45.4618281,28.6931774 40.9302031,31.7084444 Z" id="Shape"></path>
                        <path d="M17.9320312,13.9226043 C17.4270469,13.7559142 16.8791875,14.0271813 16.7106406,14.5320546 C16.5420937,15.0369279 16.8154219,15.5824094 17.3212812,15.7510643 C20.2260625,16.7175828 20.3220937,18.9922963 20.3250469,19.1112827 C20.3294219,19.6398441 20.7600312,20.0667758 21.2906094,20.0667758 C21.8240312,20.0667758 22.2561719,19.6350409 22.2556255,19.1026589 C22.2556255,18.9503782 22.2064063,15.3448733 17.9320312,13.9226043 Z" id="Path"></path>
                        <path d="M21.0149844,29.777809 C20.5157969,29.5933255 19.9591875,29.8490916 19.7747813,30.3482885 C19.768,30.3660819 19.0685469,32.1667057 17.7481719,32.5497544 C17.0124063,32.7637115 16.1429844,32.491462 15.1595938,31.7437037 C14.7352188,31.4213489 14.1293906,31.502347 13.8064063,31.9263314 C13.4829844,32.3493333 13.5650156,32.9540897 13.9888438,33.2768811 C15.1040313,34.1248499 16.1902344,34.5512359 17.2320313,34.5512359 C17.58925,34.5512359 17.9412188,34.5011306 18.2872812,34.3999376 C20.5538594,33.7427836 21.5449063,31.1259571 21.5859219,31.0151579 C21.7709844,30.515961 21.5151563,29.9622924 21.0149844,29.777809 Z" id="Path"></path>
                        <path d="M24.416,36.0948928 C24.0394219,35.7186121 23.4277969,35.7186121 23.0507813,36.0948928 C20.2537344,38.8864873 20.934375,41.7644288 20.9647813,41.8858168 C21.0738281,42.321809 21.4649531,42.6099961 21.8965469,42.6099961 C21.9713594,42.6099961 22.0467188,42.6013723 22.1229531,42.5834698 C22.637125,42.4615361 22.9561719,41.9435634 22.8407813,41.4290838 C22.8229531,41.3490682 22.423625,39.4459415 24.416,37.4574503 C24.7930156,37.0811696 24.7930156,36.4711735 24.416,36.0948928 Z" id="Path"></path>
                        <path d="M25.9965781,22.5080702 C24.7954219,21.9096452 23.8729531,22.6294581 23.0594219,23.2649981 C22.4130156,23.7699805 21.6082344,24.3991891 20.3212188,24.9127953 C17.985625,25.8451462 16.0232188,23.4817934 15.936375,23.3748148 C15.6023438,22.9614191 14.9959688,22.8935205 14.5807813,23.2264639 C14.1646094,23.5589708 14.0970156,24.165037 14.4301719,24.5808343 C14.5277344,24.7022222 16.4597344,27.0651384 19.1969531,27.0651384 C19.7777344,27.0651384 20.3951562,26.9587057 21.0381719,26.7028304 C22.5810156,26.0870487 23.5455938,25.3330682 24.2499688,24.7827836 C24.5483438,24.5490682 24.9571875,24.2296608 25.0837344,24.2123041 C25.0837344,24.2123041 25.0991563,24.2156881 25.1329531,24.232499 C25.6099375,24.4704717 26.1897344,24.2772554 26.4287188,23.8013099 C26.6666094,23.3248187 26.4735625,22.746152 25.9965781,22.5080702 Z" id="Path"></path>
                        <path d="M39.3033594,14.5326004 C39.1349219,14.0276179 38.5897969,13.7539493 38.0819688,13.9231501 C33.8075938,15.3454191 33.758375,18.9503782 33.758375,19.1032047 C33.758375,19.6312203 34.1846094,20.0557505 34.7137656,20.0615361 C34.7171563,20.0615361 34.7205469,20.0615361 34.7239375,20.0615361 C35.2487188,20.0615361 35.6779063,19.6375517 35.6889531,19.1133567 C35.6909219,19.0159844 35.7729531,16.7230409 38.6927188,15.7517193 C39.1985781,15.5833918 39.4722344,15.0375828 39.3033594,14.5326004 Z" id="Path"></path>
                        <path d="M42.2085781,31.9266589 C41.8855938,31.5036569 41.2797656,31.4216764 40.8553906,31.7440312 C39.8739687,32.490807 39.0064063,32.7612008 38.2731562,32.5520468 C37.1705469,32.23646 36.4313906,30.8535984 36.2393281,30.3463236 C36.0544844,29.8481092 35.4968906,29.5927797 35.0005469,29.7782456 C34.4999375,29.9622924 34.2441094,30.5163977 34.4289531,31.0155945 C34.4699688,31.1263938 35.461125,33.7432203 37.7275938,34.4003743 C38.0737656,34.5010214 38.425625,34.5512359 38.7824063,34.5512359 C39.8237656,34.5512359 40.9104063,34.1248499 42.0255937,33.2773177 C42.4499687,32.9544172 42.5315625,32.3496608 42.2085781,31.9266589 Z" id="Path"></path>
                        <path d="M32.0981719,33.4019805 C31.7211562,33.0256998 31.1099687,33.0256998 30.7329531,33.4019805 C30.3559375,33.7778246 30.3559375,34.3882573 30.7329531,34.764538 C32.7137344,36.7414581 32.330375,38.6339961 32.3081719,38.7347524 C32.1850156,39.2473762 32.4993594,39.7649123 33.0129844,39.8935049 C33.091625,39.9132632 33.170375,39.9224327 33.2481406,39.9224327 C33.6807187,39.9224327 34.0741406,39.630425 34.1837344,39.1930136 C34.2140313,39.0715166 34.8947813,36.1936842 32.0981719,33.4019805 Z" id="Path"></path>
                        <path d="M41.3429844,26.4417154 C41.1624062,25.9425185 40.609625,25.6838051 40.1081406,25.8620663 C39.9849844,25.9059493 37.0735312,26.914386 35.5601094,24.9047173 C34.727875,23.7984717 34.3672656,22.843961 34.0775312,22.0768811 C33.7130937,21.1123275 33.2993281,20.0185263 31.9606875,19.9087096 C31.4272656,19.8600234 30.9632969,20.2594464 30.9193281,20.7899727 C30.8753594,21.320499 31.27075,21.7858558 31.8023125,21.8293021 C31.8288906,21.8317037 31.843875,21.8350877 31.8477031,21.8350877 L31.8481406,21.8350877 C31.95675,21.9261287 32.1383125,22.4060039 32.2705469,22.7572865 C32.5857656,23.5922651 33.0183437,24.7360624 34.0167187,26.0625965 C35.2303437,27.6742612 36.9161406,28.0775049 38.3002812,28.0775049 C39.6298437,28.0775049 40.6807187,27.7055906 40.7681094,27.6737154 C41.2671875,27.4915244 41.5235625,26.9408031 41.3429844,26.4417154 Z" id="Path"></path>
                        <path d="M28.0072188,10.8264483 C27.4742344,10.8264483 27.0416563,11.2581832 27.0416563,11.7901287 L27.0416563,44.0897934 C27.0416563,44.6217388 27.4742344,45.0534737 28.0072188,45.0534737 C28.5402031,45.0534737 28.9727813,44.6217388 28.9727813,44.0897934 L28.9727813,11.7900195 C28.9727813,11.2581832 28.5402031,10.8264483 28.0072188,10.8264483 Z" id="Path"></path>
                        <path d="M23.048375,32.3184405 C20.1484063,30.3887875 22.0697969,26.4099493 22.1557656,26.2359454 C22.3927813,25.7598908 22.1997344,25.1826433 21.7231875,24.9446706 C21.24675,24.7071345 20.6664063,24.8999142 20.4274219,25.3758596 C19.4508125,27.3258168 18.517625,31.6206784 21.9766094,33.921809 C22.1407813,34.0316257 22.3270469,34.0836959 22.5110156,34.0836959 C22.8228438,34.0836959 23.1294219,33.9333801 23.3162344,33.6543626 C23.6117656,33.2117115 23.492,32.6132865 23.048375,32.3184405 Z" id="Path"></path>
                        <path d="M28,0 C27.4670156,0 27.0344375,0.431734893 27.0344375,0.963680312 L27.0344375,5.78186355 C27.0344375,6.31380897 27.4670156,6.74554386 28,6.74554386 C28.5329844,6.74554386 28.9655625,6.31380897 28.9655625,5.78186355 L28.9655625,0.963680312 C28.9655625,0.431734893 28.5329844,0 28,0 Z" id="Path"></path>
                        <path d="M28,49.1454035 C27.4670156,49.1454035 27.0344375,49.5771384 27.0344375,50.1090838 L27.0344375,54.9272671 C27.0344375,55.4592125 27.4670156,55.8909474 28,55.8909474 C28.5329844,55.8909474 28.9655625,55.4592125 28.9655625,54.9272671 L28.9655625,50.1090838 C28.9655625,49.5771384 28.5329844,49.1454035 28,49.1454035 Z" id="Path"></path>
                        <path d="M5.79315625,26.9817388 L0.9655625,26.9817388 C0.432578125,26.9817388 0,27.4134737 0,27.9454191 C0,28.4773645 0.432578125,28.9090994 0.9655625,28.9090994 L5.79315625,28.9090994 C6.32614062,28.9090994 6.75871875,28.4773645 6.75871875,27.9454191 C6.75871875,27.4134737 6.32603125,26.9817388 5.79315625,26.9817388 Z" id="Path"></path>
                        <path d="M55.0344375,26.9817388 L50.2068438,26.9817388 C49.6738594,26.9817388 49.2412813,27.4134737 49.2412813,27.9454191 C49.2412813,28.4773645 49.6738594,28.9090994 50.2068438,28.9090994 L55.0344375,28.9090994 C55.5674219,28.9090994 56,28.4773645 56,27.9454191 C56,27.4134737 55.5674219,26.9817388 55.0344375,26.9817388 Z" id="Path"></path>
                        <path d="M12.9799688,11.592 L9.566375,8.18506043 C9.18979688,7.80877973 8.57773438,7.80877973 8.20115625,8.18506043 C7.82414062,8.56134113 7.82414062,9.17133723 8.20115625,9.54761793 L11.61475,12.9545575 C11.8029844,13.1429708 12.0501719,13.2368499 12.2973594,13.2368499 C12.5445469,13.2368499 12.7917344,13.1428616 12.9799688,12.9545575 C13.3569844,12.578386 13.3569844,11.9683899 12.9799688,11.592 Z" id="Path"></path>
                        <path d="M47.7988438,46.3431111 L44.3856875,42.9366082 C44.0086719,42.5603275 43.3974844,42.5603275 43.0204688,42.9366082 C42.6434531,43.3128889 42.6434531,43.922885 43.0204688,44.2991657 L46.433625,47.7056686 C46.6224063,47.8940819 46.8690469,47.987961 47.1162344,47.987961 C47.362875,47.987961 47.6100625,47.8935361 47.7988438,47.7056686 C48.1759688,47.3293879 48.1759688,46.7193918 47.7988438,46.3431111 Z" id="Path"></path>
                        <path d="M47.7984062,8.18516959 C47.4213906,7.80888889 46.8102031,7.80888889 46.4331875,8.18516959 L43.0200312,11.5921092 C42.6430156,11.9689357 42.6430156,12.5788226 43.0200312,12.9552125 C43.2088125,13.1430799 43.4554531,13.2370682 43.7026406,13.2370682 C43.9498281,13.2370682 44.1970156,13.1430799 44.38525,12.9552125 L47.7984062,9.5482729 C48.1754219,9.17144639 48.1754219,8.56145029 47.7984062,8.18516959 Z" id="Path"></path>
                        <path d="M12.9799688,42.9367173 C12.6024062,42.5604366 11.9913281,42.5604366 11.6142031,42.9367173 L8.20060938,46.3432203 C7.82359375,46.7190643 7.82359375,47.3294971 8.20060938,47.7057778 C8.38939063,47.894191 8.63657813,47.9880702 8.88365625,47.9880702 C9.13084375,47.9880702 9.37748438,47.8936452 9.56626563,47.7057778 L12.9798594,44.2992749 C13.3569844,43.9234308 13.3569844,43.3129981 12.9799688,42.9367173 Z" id="Path"></path>
                    </g>
                </g>
            </g>
        </g>
    </g>
</svg>