<?xml version="1.0" encoding="UTF-8"?>
<svg width="225px" height="153px" viewBox="0 0 225 153" version="1.1" xmlns="http://www.w3.org/2000/svg" xmlns:xlink="http://www.w3.org/1999/xlink">
    <title>Group 272</title>
    <defs>
        <polygon id="path-1" points="0.124406064 0.102789012 18.479978 0.102789012 18.479978 6.95518125 0.124406064 6.95518125"></polygon>
        <polygon id="path-3" points="0 144.899689 212.382496 144.899689 212.382496 0.26401073 0 0.26401073"></polygon>
        <path d="M1.0194574,1.26962069 C-0.112241522,2.57730585 -0.0884995864,3.57868066 1.10529363,4.82485007 L1.10529363,4.82485007 L17.492708,17.5154843 C18.9360959,18.4014378 20.7112622,16.4494228 21.2427163,15.8215817 L21.2427163,15.8215817 L21.2439338,15.8203133 C21.7656476,15.3668726 22.817598,11.8274978 22.817598,11.8274978 L22.817598,11.8274978 C21.8210455,11.2136087 18.6487577,8.66482759 18.4082945,8.4752069 L18.4082945,8.4752069 L17.8744053,9.68269115 L5.61991398,1.13961319 C4.99897105,0.495283358 4.18870141,0.175655172 3.38025806,0.175655172 L3.38025806,0.175655172 C2.51337304,0.175655172 1.64892308,0.542847076 1.0194574,1.26962069" id="path-5"></path>
        <linearGradient x1="0.000160873381%" y1="50.0010198%" x2="99.9996704%" y2="50.0010198%" id="linearGradient-7">
            <stop stop-color="#4446BC" offset="0%"></stop>
            <stop stop-color="#4490BC" offset="100%"></stop>
        </linearGradient>
        <polygon id="path-8" points="0.412083333 5.9496 0.609166667 5.9496 0.778333333 1.5318 0.08125 0.3456"></polygon>
        <linearGradient x1="50.0448067%" y1="53.9159904%" x2="50.0057156%" y2="16.3565921%" id="linearGradient-10">
            <stop stop-color="#4446BC" offset="0%"></stop>
            <stop stop-color="#4490BC" offset="100%"></stop>
        </linearGradient>
        <path d="M0.193846154,1.09614545 C0.172307692,1.98574545 0.872615385,2.34181818 1.51876923,2.8672 L1.51876923,2.8672 C2.67384615,3.80509091 2.66584615,5.17992727 3.09846154,6.41803636 L3.09846154,6.41803636 C3.408,7.29890909 3.77476923,7.48276364 4.66707692,7.81149091 L4.66707692,7.81149091 C5.48123077,8.11170909 5.87938462,7.96334545 6.98030769,7.93309091 L6.98030769,7.93309091 C7.94584615,7.90632727 8.20738462,7.22850909 7.15323077,6.94109091 L7.15323077,6.94109091 C6.54153846,6.77294545 6.42584615,6.74152727 6.33907692,6.61294545 L6.33907692,6.61294545 C5.44430769,7.09701818 4.79384615,7.64101818 4.02646154,6.73338182 L4.02646154,6.73338182 C2.18461538,4.70283636 2.45169231,2.10210909 0.977846154,0.0523636364 L0.977846154,0.0523636364 C0.649846154,0.350254545 0.209230769,0.450909091 0.193846154,1.09614545" id="path-11"></path>
        <linearGradient x1="50.0032868%" y1="-27.0107104%" x2="50.0032868%" y2="103.394178%" id="linearGradient-13">
            <stop stop-color="#4446BC" offset="0%"></stop>
            <stop stop-color="#4490BC" offset="100%"></stop>
        </linearGradient>
        <polygon id="path-14" points="0.4255 5.86936364 0.662 5.86936364 0.8645 1.34993182 0.028 0.137386364"></polygon>
        <linearGradient x1="50.0616747%" y1="53.9080826%" x2="50.007869%" y2="16.3527053%" id="linearGradient-16">
            <stop stop-color="#4446BC" offset="0%"></stop>
            <stop stop-color="#4490BC" offset="100%"></stop>
        </linearGradient>
        <path d="M0.354461538,1.34107826 C0.333538462,2.29836522 1.03323077,2.68153043 1.67938462,3.24688696 L1.67938462,3.24688696 C2.83446154,4.2573913 2.82646154,5.73558261 3.25907692,7.06852174 L3.25907692,7.06852174 C3.56861538,8.01704348 3.93538462,8.21426087 4.82769231,8.568 L4.82769231,8.568 C5.64123077,8.89106087 6.04,8.7314087 7.14030769,8.69947826 L7.14030769,8.69947826 C8.10646154,8.67130435 8.36861538,7.94003478 7.31446154,7.63074783 L7.31446154,7.63074783 C6.70153846,7.45043478 6.58646154,7.416 6.49969231,7.27826087 L6.49969231,7.27826087 C5.60492308,7.79853913 4.95446154,8.38393043 4.18646154,7.40786087 L4.18646154,7.40786087 C2.34584615,5.22281739 2.61169231,2.42483478 1.13907692,0.219130435 L1.13907692,0.219130435 C0.809846154,0.53906087 0.369846154,0.646747826 0.354461538,1.34107826" id="path-17"></path>
        <linearGradient x1="50.0007833%" y1="-27.0211706%" x2="50.0007833%" y2="103.39186%" id="linearGradient-19">
            <stop stop-color="#4446BC" offset="0%"></stop>
            <stop stop-color="#4490BC" offset="100%"></stop>
        </linearGradient>
        <path d="M8.79677508,0.372448598 C5.52912506,0.635169074 4.58220797,0.743016143 2.80568026,3.45925743 L2.80568026,3.45925743 C1.64168575,5.23748003 0.865286303,9.62096177 3.27732478,16.2874155 L3.27732478,16.2874155 L6.22510307,25.2500085 C6.2771049,26.4237859 1.3091159,35.3581631 0.295684837,39.9247341 L0.295684837,39.9247341 C1.40525882,41.2615361 4.3488044,41.0138641 7.13694915,40.766192 L7.13694915,40.766192 C8.4515071,40.6483127 9.73099404,40.5316873 10.768612,40.5805947 L10.768612,40.5805947 C13.4666606,40.7091334 17.1829776,40.2808802 19.8780027,39.2055446 L19.8780027,39.2055446 L17.9884013,21.1373985 C17.9884013,21.1373985 23.9063307,19.2876958 21.1490243,14.5819269 L21.1490243,14.5819269 C18.5936784,10.2203908 14.4305085,1.49418352 11.6314796,1.49418352 L11.6314796,1.49418352 C10.9621072,0.765588785 10.0333303,0.361789295 9.07129638,0.361789295 L9.07129638,0.361789295 C8.97999084,0.361789295 8.88808062,0.365551402 8.79677508,0.372448598" id="path-20"></path>
        <linearGradient x1="36.3494929%" y1="106.758352%" x2="64.4219266%" y2="-4.10686889%" id="linearGradient-22">
            <stop stop-color="#4446BC" offset="0%"></stop>
            <stop stop-color="#4490BC" offset="100%"></stop>
        </linearGradient>
        <path d="M0.6736,1.93559091 C0.909333333,2.22277273 1.44693333,2.76227273 1.2512,3.18654545 L1.2512,3.18654545 C1.12426667,3.46368182 0.707733333,3.52631818 0.7984,3.91868182 L0.7984,3.91868182 C1.04693333,3.96890909 1.38826667,3.79577273 1.62666667,3.55231818 L1.62666667,3.55231818 C2.0096,3.16113636 1.9424,2.55545455 1.73013333,1.98345455 L1.73013333,1.98345455 C1.55786667,1.51663636 1.28906667,1.07168182 1.09066667,0.783909091 L1.09066667,0.783909091 C0.832533333,0.411636364 0.548266667,0.150454545 0.290133333,0.1475 L0.290133333,0.1475 C-0.137066667,0.948181818 0.270933333,1.4475 0.6736,1.93559091" id="path-23"></path>
        <path d="M8.97284868,1.36246646 L0.0734078947,21.4839578 L5.97104605,24.8836536 L8.89621711,20.1202589 L7.86348684,19.2020884 L13.3079211,5.07705164 C14.273,3.52971863 13.783875,1.46660795 12.2356776,0.550286092 L12.2356776,0.550286092 C11.6800987,0.221839858 11.2023487,0.053611299 10.7730921,0.053611299 L10.7730921,0.053611299 C10.0881974,0.053611299 9.52782895,0.480036804 8.97284868,1.36246646" id="path-25"></path>
        <linearGradient x1="15.0181058%" y1="96.9429513%" x2="94.5958571%" y2="-2.30779545%" id="linearGradient-27">
            <stop stop-color="#4446BC" offset="0%"></stop>
            <stop stop-color="#4490BC" offset="100%"></stop>
        </linearGradient>
        <polygon id="path-28" points="0.119465253 0.265428379 20.6447588 0.265428379 20.6447588 20.9052523 0.119465253 20.9052523"></polygon>
        <path d="M0.198676471,0.0931663394 L1.76887255,11.0205543 L4.60856209,13.7094992 L9.17257353,41.0120563 L17.2946895,70.9723568 L20.8647467,70.9723568 L20.9364624,50.370633 L16.6416993,39.6984733 L19.1731373,12.8945161 C19.4499346,9.96095147 19.3631209,7.01365816 18.9152124,4.11878336 L18.9152124,4.11878336 L18.289902,0.0719493221 L0.198676471,0.0931663394 Z" id="path-30"></path>
        <linearGradient x1="-4.0821541%" y1="50.000087%" x2="103.737391%" y2="50.000087%" id="linearGradient-32">
            <stop stop-color="#263138" offset="0%"></stop>
            <stop stop-color="#000001" offset="100%"></stop>
        </linearGradient>
        <path d="M0.178494401,0.0912188034 L0.378597761,14.0931771 L1.19235142,42.1642056 L5.15561068,72.9692664 L8.67561068,72.9692664 L11.5279931,51.7881999 L8.73382257,40.8138107 L14.8491025,13.2558444 C15.5179328,10.2395652 15.8308217,7.20886001 15.7804927,4.23209537 L15.7804927,4.23209537 L15.7095469,0.0717751237 L0.178494401,0.0912188034 Z" id="path-33"></path>
        <linearGradient x1="-35.9918323%" y1="50.0004305%" x2="90.4558714%" y2="50.0004305%" id="linearGradient-35">
            <stop stop-color="#263138" offset="0%"></stop>
            <stop stop-color="#000001" offset="100%"></stop>
        </linearGradient>
    </defs>
    <g id="Page-1" stroke="none" stroke-width="1" fill="none" fill-rule="evenodd">
        <g id="step4" transform="translate(-203.000000, -407.000000)">
            <g id="Group-272" transform="translate(203.000000, 407.000000)">
                <g id="Group-81">
                    <path d="M19.026329,102.031701 C19.0063641,101.996041 18.9851515,101.962258 18.9645627,101.927223 C18.9814081,101.971016 19.0019968,102.011056 19.0182183,102.0561 C19.0213378,102.047342 19.0232095,102.039834 19.026329,102.031701" id="Fill-1" fill="#F06292"></path>
                    <path d="M48.1666713,84.9829894 C48.0456344,84.646407 47.8796764,84.322337 47.6488327,84.0201635 C46.4896227,82.4992866 44.2086369,82.2133792 42.4236532,82.8984308 C40.6392934,83.5828567 39.2617177,85.0299107 38.0600824,86.5195068 C35.3785515,89.8434144 33.2853602,93.5583332 31.6788125,97.5009768 C33.2541651,96.1527704 34.5107038,94.6694305 35.9768736,93.390042 C35.706724,94.5812184 34.8395002,95.4883642 34.5687267,96.678915 C35.8832883,96.649511 36.5240356,95.4977485 37.489836,94.8871455 C40.3728872,90.9432506 44.0801131,87.7150625 48.1666713,84.9829894" id="Fill-3" fill="#F06292"></path>
                    <path d="M37.4899608,94.8871455 C37.8268679,94.6738098 38.2024569,94.526164 38.660401,94.5155285 C38.0951457,95.712961 37.2279219,96.6207325 36.6620428,97.8175395 C38.1388189,97.7850073 39.5912628,96.5688062 41.0617999,96.2397313 C40.5027836,97.7330811 39.0441007,98.6539905 38.4906996,100.442632 C39.1164733,100.323765 39.6642593,100.057251 40.1764829,99.7356838 C42.6153159,97.1531333 44.7946057,94.3253407 46.6700552,91.3067346 C47.8486061,89.4104869 48.8774205,86.9536856 48.1667961,84.9829894 C44.0802379,87.7150625 40.373012,90.9432506 37.4899608,94.8871455" id="Fill-5" fill="#F488AC"></path>
                    <path d="M43.6762613,108.028186 C44.5434851,107.12104 45.4175718,106.509186 46.5867642,105.891075 C45.3982309,105.620808 44.8267366,106.522324 43.6450662,106.5486 C43.9089768,105.062132 45.6752434,104.7268 45.9391539,103.240332 C45.0126594,103.260352 44.1716395,103.521235 43.3262523,103.72894 C38.7649046,106.893315 34.7507189,110.852225 31.5575884,115.39859 C30.9205844,116.305735 29.7164535,117.335502 28.8960223,116.591643 C28.6764088,110.121503 34.5541898,105.389955 39.1286394,100.814812 C39.4830158,100.460087 39.8324009,100.100356 40.1767948,99.7356212 C39.6639474,100.057189 39.1161614,100.324328 38.4910116,100.442569 C39.0437888,98.653928 40.5024717,97.7330185 41.0621118,96.2396687 C39.5909508,96.5687437 38.1391308,97.7849448 36.6617308,97.8174769 C37.22761,96.62067 38.0948338,95.7128985 38.6607129,94.5154659 C36.8882073,94.5548799 36.3416691,96.6400641 34.5685395,96.6788524 C34.839313,95.4883017 35.7065368,94.5811558 35.9766864,93.390605 C34.5105166,94.6693679 33.253978,96.1533334 31.6786253,97.5009143 C29.1636763,103.672634 27.8447474,110.403031 27.3556082,117.073369 C27.2751248,118.169451 26.6643248,119.672811 25.6280235,119.314957 C25.178814,119.159178 24.9329966,118.685586 24.7445782,118.248904 C22.9034434,113.982816 22.2789174,109.271914 20.4883186,104.983929 C20.0646891,103.969803 19.5749261,102.983829 19.0265162,102.031639 C19.0233967,102.039772 19.0209011,102.047279 19.0184054,102.056038 C19.002184,102.011619 18.9815952,101.970954 18.9647499,101.927161 C18.116867,100.471348 17.1286062,99.0981166 16.0186845,97.8312405 C16.665047,99.8394738 17.8236331,101.843953 17.5846786,104.159991 C16.0891854,103.304771 15.1714256,101.843953 13.6690695,100.692817 C14.3035778,102.751725 15.5226824,104.502204 15.5732185,106.870167 C14.0902033,106.606782 13.1718196,105.14659 11.6888044,104.882579 C11.7212474,105.128447 11.7798941,105.357423 11.8491473,105.580143 C16.5178061,110.252883 21.1028621,114.98881 24.3783477,120.691942 C20.9961749,118.666817 17.3750475,117.045841 13.6154139,115.864049 C13.6441134,115.939123 13.6753085,116.012321 13.6996407,116.0924 C12.2291036,116.420849 10.7517036,116.453381 9.27492751,116.485913 C10.7828987,117.932967 13.1462396,117.881041 14.9380862,118.730005 C12.869851,118.775675 10.8271958,120.005639 8.46385488,120.057566 C9.37849525,120.297803 10.2357366,120.539291 11.0873629,120.781405 C16.422973,120.357862 21.9975376,121.712325 25.344772,125.772585 C25.7609146,126.278084 26.1832963,126.849899 26.8140613,127.02382 C27.4797647,127.207126 28.1691765,126.889938 28.7937024,126.594646 C34.151773,124.057766 39.9752745,122.518746 45.881755,122.052035 C46.4151912,121.45457 46.9442601,120.645646 47.4783202,120.086344 C46.5799013,119.513904 45.4107089,120.13264 44.5179051,119.855491 C45.3857528,118.948345 46.5549452,118.330235 47.41593,117.126546 C47.1464044,116.999546 46.7608329,116.994541 46.4432668,116.97327 C41.5755832,118.248279 36.6698415,120.180187 31.7116922,120.81644 C33.3257267,116.021079 37.2625485,112.253609 41.7808469,109.991375 C43.1334665,109.315082 44.5366222,108.762035 45.9728447,108.304709 C46.3640312,108.011294 46.7658241,107.706618 47.2087946,107.358149 C46.0458412,108.272802 44.8579317,108.002535 43.6762613,108.028186" id="Fill-7" fill="#D81B60"></path>
                    <path d="M61.0166822,117.867027 C60.9904784,117.777564 60.9580355,117.689977 60.9143623,117.604268 C60.5730879,116.935482 59.7988255,116.625801 59.0769708,116.423101 C54.8880926,115.249442 50.6798735,115.863173 46.4435787,116.973019 C46.760521,116.99429 47.1467163,116.999295 47.4156181,117.126296 C46.6413557,118.20924 45.6200281,118.819218 44.7908623,119.59123 C50.0852949,118.709735 55.5874868,117.907067 61.0166822,117.867027" id="Fill-9" fill="#F06292"></path>
                    <path d="M44.7906751,119.591105 C44.6977137,119.67744 44.6053762,119.764401 44.5180299,119.855741 C45.4108337,120.132264 46.5800261,119.514154 47.478445,120.086594 C46.9443849,120.645897 46.415316,121.454821 45.8818797,122.052286 C47.7847809,121.901512 49.6957928,121.860846 51.6030613,121.936546 C54.5846891,122.054162 57.9681098,122.310666 60.1311781,120.250506 C60.7762928,119.635524 61.2579452,118.691466 61.0164951,117.866902 C55.5872996,117.907567 50.0851077,118.709609 44.7906751,119.591105" id="Fill-11" fill="#F488AC"></path>
                    <path d="M5.31052926,93.2699859 C4.25114362,94.0050869 3.54488653,95.1900071 3.78508881,96.4406172 C3.97475502,97.4290933 4.6766448,98.2292586 5.36231313,98.9656108 C7.45924784,101.217835 9.66349369,103.392483 11.8490225,105.580268 C11.7797694,105.357548 11.7211226,105.128572 11.6886797,104.882704 C13.1723187,105.146089 14.0900786,106.606281 15.5730937,106.870292 C15.5231815,104.502329 14.304077,102.75185 13.6689447,100.692942 C15.1713008,101.844078 16.0884368,103.304896 17.5845538,104.160116 C17.6020231,103.99245 17.6101338,103.826661 17.6132533,103.661498 C13.9989889,99.6394012 9.88310721,96.0564878 5.31052926,93.2699859" id="Fill-13" fill="#F06292"></path>
                    <path d="M17.6134405,103.661686 C17.6564897,101.553354 16.6176928,99.6940176 16.0187469,97.8315533 C15.0816461,96.7623724 14.0596945,95.76764 12.9603792,94.8661247 C11.3856505,93.5754751 9.50832926,92.4268408 7.47503256,92.5156785 C6.71137648,92.5488362 5.9470965,92.8284874 5.31071643,93.2701736 C9.88329438,96.0566755 13.999176,99.6389633 17.6134405,103.661686" id="Fill-15" fill="#F488AC"></path>
                    <path d="M46.1569581,105.841589 C46.291721,105.841589 46.4339706,105.855978 46.5862027,105.891013 C45.4170103,106.509123 44.5435475,107.120977 43.6763237,108.028123 C44.8579941,108.002473 46.0459036,108.27274 47.208857,107.358086 C46.7658865,107.706556 46.3647175,108.011231 45.972907,108.305272 C49.335739,107.236091 52.882622,106.704316 56.4089162,106.409024 C58.2076258,106.25825 60.2334356,106.056176 61.36457,104.646033 C62.1020222,103.725749 62.1831295,102.552716 61.8275053,101.45288 C56.4850323,102.46075 51.2511182,103.935957 46.1569581,105.841589" id="Fill-17" fill="#F488AC"></path>
                    <path d="M58.8141209,98.2901937 C56.2935567,97.4112007 53.5159449,98.2883169 51.0727446,99.3687589 C48.3587708,100.56932 45.765834,102.037645 43.326377,103.72869 C44.1717643,103.520985 45.0127842,103.260102 45.9392787,103.240082 C45.6753682,104.72655 43.9084776,105.061881 43.645191,106.548349 C44.6746293,106.525201 45.2417563,105.838273 46.1570205,105.841401 C51.2505567,103.935769 56.4850947,102.460562 61.8275677,101.453318 C61.3764865,100.05819 60.2235156,98.7819294 58.8141209,98.2901937" id="Fill-19" fill="#F06292"></path>
                    <path d="M13.8632902,118.850061 C14.2220338,118.783745 14.5795297,118.738075 14.9382734,118.730568 C13.1464268,117.880979 10.7830859,117.932905 9.27511468,116.485851 C10.7518908,116.453319 12.2286669,116.420787 13.6998278,116.092337 C13.6748718,116.011632 13.6443006,115.939061 13.6156011,115.864612 C12.0452397,115.370374 10.45117,114.951836 8.84025497,114.614628 C6.76390903,114.181075 4.51786174,113.896419 2.58813277,114.780417 C0.846822219,115.578079 -0.40659695,117.668269 0.122471968,119.433762 C4.71127137,119.008342 9.29757515,118.741829 13.8632902,118.850061" id="Fill-21" fill="#F488AC"></path>
                    <path d="M13.8632902,118.850061 C9.29757515,118.741829 4.71127137,119.008342 0.122471968,119.433762 C0.179247052,119.624576 0.251619687,119.812886 0.352067913,119.994316 C1.69720068,122.411703 5.24158809,121.812987 7.94433166,121.236793 C8.96940269,121.019078 10.0237971,120.865801 11.0869262,120.781343 C10.2359238,120.539229 9.37868242,120.29774 8.46404205,120.057503 C10.4174793,120.014335 12.1519269,119.1685 13.8632902,118.850061" id="Fill-23" fill="#F06292"></path>
                    <path d="M40.6457196,132.763927 L40.6457196,123.789439 L19.0268905,123.789439 L19.0268905,124.959344 L34.0604337,140.034857 C37.7551815,139.680757 40.6457196,136.561427 40.6457196,132.763927" id="Fill-25" fill="#EFEBE9"></path>
                    <path d="M19.026641,124.959594 L19.026641,132.764177 C19.026641,136.799412 22.2890246,140.070142 26.3131927,140.070142 L33.3589183,140.070142 C33.5960011,140.070142 33.8293404,140.057004 34.0608081,140.035107 L19.026641,124.959594 Z" id="Fill-27" fill="#D7DEE2"></path>
                    <path d="M180.73824,102.031701 C180.718275,101.996041 180.697687,101.962258 180.676474,101.927223 C180.693943,101.971016 180.713908,102.011056 180.729506,102.0561 C180.733249,102.047342 180.735121,102.039834 180.73824,102.031701" id="Fill-29" fill="#F06292"></path>
                    <path d="M209.878832,84.9829894 C209.757795,84.646407 209.591837,84.322337 209.360993,84.0201635 C208.20116,82.4992866 205.920174,82.2133792 204.135814,82.8984308 C202.351454,83.5828567 200.973878,85.0299107 199.772243,86.5195068 C197.090712,89.8434144 194.996897,93.5583332 193.390349,97.5009768 C194.966326,96.1527704 196.222241,94.6694305 197.689034,93.390042 C197.418261,94.5812184 196.551037,95.4883642 196.280887,96.678915 C197.595449,96.649511 198.236196,95.4977485 199.201997,94.8871455 C202.084424,90.9432506 205.79165,87.7150625 209.878832,84.9829894" id="Fill-31" fill="#F06292"></path>
                    <path d="M199.20181,94.8871455 C199.538717,94.6738098 199.914306,94.526164 200.372874,94.5155285 C199.806994,95.712961 198.939771,96.6207325 198.373892,97.8175395 C199.850668,97.7850073 201.303112,96.5688062 202.774273,96.2397313 C202.214009,97.7330811 200.755949,98.6539905 200.202548,100.442632 C200.828322,100.323765 201.375484,100.057251 201.888956,99.7356838 C204.327165,97.1531333 206.506454,94.3253407 208.381904,91.3067346 C209.560455,89.4104869 210.589269,86.9536856 209.878645,84.9829894 C205.792087,87.7150625 202.084237,90.9432506 199.20181,94.8871455" id="Fill-33" fill="#F488AC"></path>
                    <path d="M205.388422,108.028186 C206.255646,107.12104 207.129109,106.509186 208.298301,105.891075 C207.110392,105.620808 206.538897,106.522324 205.356603,106.5486 C205.620514,105.062132 207.387404,104.7268 207.651315,103.240332 C206.72482,103.260352 205.8838,103.521235 205.038413,103.72894 C200.477065,106.893315 196.462256,110.852225 193.269749,115.39859 C192.632745,116.305735 191.428614,117.335502 190.608183,116.591643 C190.38857,110.121503 196.266351,105.389955 200.8408,100.814812 C201.195177,100.460087 201.544562,100.100356 201.888956,99.7356212 C201.375484,100.057189 200.828322,100.324328 200.202548,100.442569 C200.755949,98.653928 202.214009,97.7330185 202.774273,96.2396687 C201.303112,96.5687437 199.850668,97.7849448 198.373892,97.8174769 C198.939771,96.62067 199.806994,95.7128985 200.372874,94.5154659 C198.600368,94.5548799 198.053206,96.6400641 196.2807,96.6788524 C196.55085,95.4883017 197.418698,94.5811558 197.688847,93.390605 C196.222677,94.6693679 194.966139,96.1533334 193.390786,97.5009143 C190.875213,103.672634 189.556908,110.403031 189.067769,117.073369 C188.987286,118.169451 188.376485,119.672811 187.33956,119.314957 C186.890975,119.159178 186.645157,118.685586 186.456115,118.248904 C184.61498,113.982816 183.990454,109.271914 182.200479,104.983929 C181.77685,103.969803 181.287087,102.983829 180.738053,102.031639 C180.734933,102.039772 180.733062,102.047279 180.729942,102.056038 C180.713721,102.011619 180.693756,101.970954 180.676911,101.927161 C179.829028,100.471348 178.840767,99.0981166 177.730845,97.8312405 C178.376584,99.8394738 179.535794,101.843953 179.296839,104.159991 C177.800722,103.304771 176.883586,101.843953 175.380606,100.692817 C176.015739,102.751725 177.234843,104.502204 177.285379,106.870167 C175.80174,106.606782 174.88398,105.14659 173.400341,104.882579 C173.433408,105.128447 173.491431,105.357423 173.560684,105.580143 C178.229967,110.252883 182.814399,114.98881 186.089885,120.691942 C182.708336,118.666817 179.086584,117.045841 175.326951,115.864049 C175.356274,115.939123 175.386845,116.012321 175.411801,116.0924 C173.941264,116.420849 172.463864,116.453381 170.986464,116.485913 C172.495059,117.932967 174.8584,117.881041 176.649623,118.730005 C174.582012,118.775675 172.539356,120.005639 170.176016,120.057566 C171.090656,120.297803 171.947897,120.539291 172.799524,120.781405 C178.135134,120.357862 183.709698,121.712325 187.056309,125.772585 C187.473075,126.278084 187.895457,126.849899 188.526846,127.02382 C189.191925,127.207126 189.881337,126.889938 190.505863,126.594646 C195.863934,124.057766 201.687435,122.518746 207.593292,122.052035 C208.127352,121.45457 208.655797,120.645646 209.190481,120.086344 C208.291438,119.513904 207.122246,120.13264 206.230066,119.855491 C207.09729,118.948345 208.266482,118.330235 209.127467,117.126546 C208.858565,116.999546 208.47237,116.994541 208.155428,116.97327 C203.287744,118.248279 198.382002,120.180187 193.423229,120.81644 C195.037264,116.021079 198.974709,112.253609 203.493008,109.991375 C204.845627,109.315082 206.248783,108.762035 207.685005,108.304709 C208.076192,108.011294 208.477361,107.706618 208.920955,107.358149 C207.758002,108.272802 206.570092,108.002535 205.388422,108.028186" id="Fill-35" fill="#D81B60"></path>
                    <path d="M222.728531,117.867027 C222.702327,117.777564 222.669884,117.689977 222.626835,117.604268 C222.284937,116.935482 221.510674,116.625801 220.78882,116.423101 C216.599941,115.249442 212.392346,115.863173 208.155428,116.973019 C208.47237,116.99429 208.859189,116.999295 209.127467,117.126296 C208.353204,118.20924 207.331877,118.819218 206.502711,119.59123 C211.797144,118.709735 217.299336,117.907067 222.728531,117.867027" id="Fill-37" fill="#F06292"></path>
                    <path d="M206.502836,119.591105 C206.409874,119.67744 206.317537,119.764401 206.230191,119.855741 C207.122371,120.132264 208.291563,119.514154 209.190606,120.086594 C208.655922,120.645897 208.127477,121.454821 207.593417,122.052286 C209.496942,121.901512 211.407954,121.860846 213.315222,121.936546 C216.296226,122.054162 219.68027,122.310666 221.843339,120.250506 C222.488454,119.635524 222.970106,118.691466 222.728656,117.866902 C217.29946,117.907567 211.796645,118.709609 206.502836,119.591105" id="Fill-39" fill="#F488AC"></path>
                    <path d="M167.022752,93.2699859 C165.963367,94.0050869 165.25711,95.1900071 165.497312,96.4406172 C165.686354,97.4290933 166.388868,98.2292586 167.073912,98.9656108 C169.170847,101.217835 171.375717,103.392483 173.560622,105.580268 C173.491369,105.357548 173.433346,105.128572 173.400903,104.882704 C174.884542,105.146089 175.801678,106.606281 177.285317,106.870292 C177.234781,104.502329 176.015676,102.75185 175.380544,100.692942 C176.883524,101.844078 177.80066,103.304896 179.296777,104.160116 C179.314246,103.99245 179.322357,103.826661 179.325476,103.661498 C175.711212,99.6394012 171.594706,96.0564878 167.022752,93.2699859" id="Fill-41" fill="#F06292"></path>
                    <path d="M179.325289,103.661686 C179.368338,101.553354 178.329542,99.6940176 177.730596,97.8315533 C176.793495,96.7623724 175.772167,95.76764 174.672228,94.8661247 C173.098123,93.5754751 171.220178,92.4268408 169.186881,92.5156785 C168.423225,92.5488362 167.659569,92.8284874 167.022565,93.2701736 C171.594519,96.0566755 175.711025,99.6389633 179.325289,103.661686" id="Fill-43" fill="#F488AC"></path>
                    <g id="Group-47" transform="translate(205.263766, 101.350091)">
                        <mask id="mask-2" fill="white">
                            <use xlink:href="#path-1"></use>
                        </mask>
                        <g id="Clip-46"></g>
                        <path d="M2.60504052,4.49149818 C2.73980335,4.49149818 2.88205302,4.50588739 3.03428511,4.54092199 C1.86509272,5.15903242 0.991629879,5.77088667 0.124406064,6.67803254 C1.3060765,6.65238221 2.49398596,6.92264912 3.65756323,6.00799583 C3.21396889,6.35646497 2.81217599,6.66114086 2.42098942,6.95518125 C5.78382134,5.88600036 9.33070435,5.35422519 12.8576225,5.05893357 C14.6557081,4.90815967 16.681518,4.7060851 17.8126524,3.29594248 C18.5507285,2.37565864 18.6312118,1.20262518 18.2755877,0.102789012 C12.9337385,1.11065936 7.69857665,2.58586623 2.60504052,4.49149818" id="Fill-45" fill="#F488AC" mask="url(#mask-2)"></path>
                    </g>
                    <path d="M220.52597,98.2901937 C218.005406,97.4112007 215.227794,98.2883169 212.784593,99.3687589 C210.07062,100.56932 207.477683,102.037645 205.03885,103.72869 C205.883613,103.520985 206.724633,103.260102 207.651127,103.240082 C207.387217,104.72655 205.620326,105.061881 205.35704,106.548349 C206.386478,106.525201 206.953605,105.838273 207.868869,105.841401 C212.962405,103.935769 218.197567,102.460562 223.539416,101.453318 C223.088335,100.05819 221.935988,98.7819294 220.52597,98.2901937" id="Fill-48" fill="#F06292"></path>
                    <path d="M175.575201,118.850061 C175.933945,118.783745 176.291441,118.738075 176.650185,118.730568 C174.858962,117.880979 172.494997,117.932905 170.987026,116.485851 C172.463802,116.453319 173.941202,116.420787 175.411739,116.092337 C175.386783,116.011632 175.356212,115.939061 175.327512,115.864612 C173.757151,115.370374 172.163081,114.951836 170.552166,114.614628 C168.475196,114.181075 166.229773,113.896419 164.300668,114.780417 C162.559357,115.578079 161.305314,117.668269 161.834383,119.433762 C166.423183,119.008342 171.01011,118.741829 175.575201,118.850061" id="Fill-50" fill="#F488AC"></path>
                    <path d="M175.575201,118.850061 C171.01011,118.741829 166.423183,119.008342 161.834383,119.433762 C161.891158,119.624576 161.963531,119.812886 162.064603,119.994316 C163.409112,122.411703 166.953499,121.812987 169.656867,121.236793 C170.681314,121.019078 171.735708,120.865801 172.799461,120.781343 C171.948459,120.539229 171.091217,120.29774 170.175953,120.057503 C172.130014,120.014335 173.864462,119.1685 175.575201,118.850061" id="Fill-52" fill="#F06292"></path>
                    <path d="M202.357256,132.763927 L202.357256,123.789439 L180.739051,123.789439 L180.739051,124.959344 L195.771971,140.034857 C199.467342,139.680757 202.357256,136.561427 202.357256,132.763927" id="Fill-54" fill="#EFEBE9"></path>
                    <path d="M180.738802,124.959594 L180.738802,132.764177 C180.738802,136.799412 184.001185,140.070142 188.025353,140.070142 L195.071079,140.070142 C195.308162,140.070142 195.541501,140.057004 195.772345,140.035107 L180.738802,124.959594 Z" id="Fill-56" fill="#D7DEE2"></path>
                    <mask id="mask-4" fill="white">
                        <use xlink:href="#path-3"></use>
                    </mask>
                    <g id="Clip-59"></g>
                    <path d="M58.9362809,41.4934778 L75.0235947,41.4934778 L75.0235947,27.8650187 L58.9362809,27.8650187 L58.9362809,41.4934778 Z M54.4978419,45.9441232 L79.4607859,45.9441232 L79.4607859,23.4156246 L54.4978419,23.4156246 L54.4978419,45.9441232 Z" id="Fill-58" fill="#FFFFFF" mask="url(#mask-4)"></path>
                    <path d="M85.4945424,55.7932249 L92.7062259,55.7932249 L92.7062259,49.7797862 L85.4945424,49.7797862 L85.4945424,55.7932249 Z M82.7212979,58.5740962 L95.4800943,58.5740962 L95.4800943,46.9982892 L82.7212979,46.9982892 L82.7212979,58.5740962 Z" id="Fill-60" fill="#FFFFFF" mask="url(#mask-4)"></path>
                    <path d="M76.9695451,16.627671 L89.1736926,16.627671 L89.1736926,6.28433124 L76.9695451,6.28433124 L76.9695451,16.627671 Z M73.6410278,19.9653422 L92.501586,19.9653422 L92.501586,2.94666004 L73.6410278,2.94666004 L73.6410278,19.9653422 Z" id="Fill-61" fill="#FFFFFF" mask="url(#mask-4)"></path>
                    <path d="M87.107953,40.6557755 L110.397592,40.6557755 L110.397592,26.7532958 L87.107953,26.7532958 L87.107953,40.6557755 Z M84.8899813,42.8804726 L112.616811,42.8804726 L112.616811,24.5279732 L84.8899813,24.5279732 L84.8899813,42.8804726 Z" id="Fill-62" fill="#FFFFFF" mask="url(#mask-4)"></path>
                    <polygon id="Fill-63" mask="url(#mask-4)" points="124.400449 51.9875915 178.865848 51.9875915 178.865848 47.3561426 124.400449 47.3561426"></polygon>
                    <polygon id="Fill-65" fill="#FFFFFF" mask="url(#mask-4)" points="124.400449 47.6020105 178.865848 47.6020105 178.865848 44.8517944 124.400449 44.8517944"></polygon>
                    <polygon id="Fill-66" fill="#CCCCC4" mask="url(#mask-4)" points="130.158441 44.8517944 135.526494 44.8517944 135.526494 16.6802229 130.158441 16.6802229"></polygon>
                    <polygon id="Fill-67" fill="#EFEBE9" mask="url(#mask-4)" points="131.431825 36.9990393 134.252486 36.9990393 134.252486 19.0725856 131.431825 19.0725856"></polygon>
                    <path d="M134.252673,41.6757203 C134.252673,42.4564914 133.621284,43.0896166 132.842654,43.0896166 C132.064025,43.0896166 131.432012,42.4564914 131.432012,41.6757203 C131.432012,40.8949492 132.064025,40.261824 132.842654,40.261824 C133.621284,40.261824 134.252673,40.8949492 134.252673,41.6757203" id="Fill-68" fill="#EFEBE9" mask="url(#mask-4)"></path>
                    <polygon id="Fill-69" fill="#CCCCC4" mask="url(#mask-4)" points="138.478798 44.8517944 143.846851 44.8517944 143.846851 16.6802229 138.478798 16.6802229"></polygon>
                    <polygon id="Fill-70" fill="#EFEBE9" mask="url(#mask-4)" points="139.752182 36.9990393 142.572219 36.9990393 142.572219 19.0725856 139.752182 19.0725856"></polygon>
                    <path d="M142.572344,41.6757203 C142.572344,42.4564914 141.940955,43.0896166 141.162325,43.0896166 C140.383696,43.0896166 139.752307,42.4564914 139.752307,41.6757203 C139.752307,40.8949492 140.383696,40.261824 141.162325,40.261824 C141.940955,40.261824 142.572344,40.8949492 142.572344,41.6757203" id="Fill-71" fill="#EFEBE9" mask="url(#mask-4)"></path>
                    <path d="M154.457553,35.6782974 L150.703534,35.6782974 C150.243095,35.6782974 149.871249,35.4924889 149.871249,35.0314086 C149.871249,34.5703282 150.243095,34.3838941 150.703534,34.3838941 L154.457553,34.3838941 C154.917369,34.3838941 155.294205,34.5703282 155.294205,35.0314086 C155.294205,35.4924889 154.917369,35.6782974 154.457553,35.6782974 M157.026781,32.6584401 L148.133682,32.6584401 C147.419938,32.6584401 146.653162,33.2540283 146.653162,33.9703607 L146.653162,43.5404369 C146.653162,44.2617742 147.419938,45.1695457 148.133682,45.1695457 L157.026781,45.1695457 C157.74614,45.1695457 158.269594,44.2617742 158.269594,43.5404369 L158.269594,33.9703607 C158.269594,33.2540283 157.74614,32.6584401 157.026781,32.6584401" id="Fill-72" fill="#FFFFFF" mask="url(#mask-4)"></path>
                    <path d="M169.498208,35.6782974 L165.74419,35.6782974 C165.28375,35.6782974 164.911905,35.4924889 164.911905,35.0314086 C164.911905,34.5703282 165.28375,34.3838941 165.74419,34.3838941 L169.498208,34.3838941 C169.958024,34.3838941 170.334861,34.5703282 170.334861,35.0314086 C170.334861,35.4924889 169.958024,35.6782974 169.498208,35.6782974 M172.067437,32.6584401 L163.174338,32.6584401 C162.460594,32.6584401 161.712535,33.2540283 161.712535,33.9703607 L161.712535,43.5404369 C161.712535,44.2617742 162.460594,45.1695457 163.174338,45.1695457 L172.067437,45.1695457 C172.786796,45.1695457 173.328967,44.2617742 173.328967,43.5404369 L173.328967,33.9703607 C173.328967,33.2540283 172.786796,32.6584401 172.067437,32.6584401" id="Fill-73" fill="#EFEBE9" mask="url(#mask-4)"></path>
                    <path d="M100.012368,108.959918 C96.0212669,108.959918 92.2291904,107.981452 89.6375014,104.626264 C86.4424991,100.489678 86.9940285,95.6924408 87.5262169,91.0534845 C87.9498464,87.3679698 88.3497676,83.8864065 86.9054344,80.8352682 C86.6090809,80.2083992 86.8130969,79.4245 87.3621307,79.0854151 C87.9111645,78.7457046 88.595585,78.9796857 88.8925624,79.6065548 C90.6850329,83.3934196 90.2183542,87.4586843 89.7666491,91.3894412 C89.2781338,95.6436426 88.8164463,99.6613604 91.3313954,102.917701 C94.4864679,107.001735 100.314337,106.697059 105.599411,105.860608 C106.222689,105.766139 106.78732,106.256624 106.873419,106.962321 C106.958893,107.668643 106.527153,108.320537 105.90949,108.418759 C103.975394,108.724686 101.969549,108.959918 100.012368,108.959918" id="Fill-74" fill="#37474F" mask="url(#mask-4)"></path>
                    <path d="M95.8442659,83.154371 L84.6907694,83.154371 C83.03119,83.154371 81.6866811,81.8061646 81.6866811,80.1426467 L81.6866811,72.7403364 C81.6866811,71.0761929 83.03119,69.7273609 84.6907694,69.7273609 L95.8442659,69.7273609 C97.5038453,69.7273609 98.8483541,71.0761929 98.8483541,72.7403364 L98.8483541,80.1426467 C98.8483541,81.8061646 97.5038453,83.154371 95.8442659,83.154371" id="Fill-75" fill="#263238" mask="url(#mask-4)"></path>
                    <polygon id="Fill-76" fill="#455A64" mask="url(#mask-4)" points="101.632392 120.262518 106.664786 120.262518 106.664786 107.139558 101.632392 107.139558"></polygon>
                    <polygon id="Fill-77" fill="#455A64" mask="url(#mask-4)" points="102.341769 141.318938 105.954785 141.318938 105.954785 115.378945 102.341769 115.378945"></polygon>
                    <path d="M118.964578,108.959918 L89.3311031,108.959918 C88.3284925,108.959918 87.516796,108.144738 87.516796,107.139996 C87.516796,106.134628 88.3284925,105.320699 89.3311031,105.320699 L118.964578,105.320699 C119.966564,105.320699 120.779509,106.134628 120.779509,107.139996 C120.779509,108.144738 119.966564,108.959918 118.964578,108.959918" id="Fill-78" fill="#263238" mask="url(#mask-4)"></path>
                    <path d="M120.747939,143.649302 C120.596955,141.94637 119.858255,140.650715 118.964827,140.650715 L89.3313526,140.650715 C88.4379249,140.650715 87.6992249,141.94637 87.5482407,143.649302 L120.747939,143.649302 Z" id="Fill-79" fill="#263238" mask="url(#mask-4)"></path>
                    <path d="M122.676358,54.5910376 L120.449028,53.7971286 L114.703514,66.3038549 C116.301327,67.5131742 117.710722,68.7137348 119.221812,69.6108708 L122.676358,54.5910376 Z" id="Fill-80" fill="#FFCCBC" mask="url(#mask-4)"></path>
                </g>
                <g id="Group-84" transform="translate(96.000000, 58.000000)">
                    <mask id="mask-6" fill="white">
                        <use xlink:href="#path-5"></use>
                    </mask>
                    <g id="Clip-83"></g>
                    <path d="M1.0194574,1.26962069 C-0.112241522,2.57730585 -0.0884995864,3.57868066 1.10529363,4.82485007 L1.10529363,4.82485007 L17.492708,17.5154843 C18.9360959,18.4014378 20.7112622,16.4494228 21.2427163,15.8215817 L21.2427163,15.8215817 L21.2439338,15.8203133 C21.7656476,15.3668726 22.817598,11.8274978 22.817598,11.8274978 L22.817598,11.8274978 C21.8210455,11.2136087 18.6487577,8.66482759 18.4082945,8.4752069 L18.4082945,8.4752069 L17.8744053,9.68269115 L5.61991398,1.13961319 C4.99897105,0.495283358 4.18870141,0.175655172 3.38025806,0.175655172 L3.38025806,0.175655172 C2.51337304,0.175655172 1.64892308,0.542847076 1.0194574,1.26962069" id="Fill-82" fill="url(#linearGradient-7)" mask="url(#mask-6)"></path>
                </g>
                <g id="Group-101" transform="translate(120.000000, 48.000000)">
                    <path d="M4.59413889,5.07366154 C4.89682407,4.66689231 5.19237963,4.16904615 4.9765463,3.65027692 C4.67321296,2.92043077 2.72293519,2.00104615 2.33793519,2.60166154 C2.06312037,3.02996923 1.72284259,3.53827692 1.40525,3.95181538 C0.850435185,4.67550769 -0.44262037,6.32227692 0.27487963,7.39673846 C0.541268519,7.79489231 0.955435185,7.62627692 1.43636111,7.66996923 C2.94525,7.80596923 3.80728704,6.13273846 4.59413889,5.07366154" id="Fill-85" fill="#FFCCBC"></path>
                    <path d="M2.10790741,5.83181538 C2.32633333,5.39612308 2.10855556,4.88535385 1.89207407,4.44904615 C1.76827778,4.19981538 1.6217963,3.92904615 1.35281481,3.82443077 C1.2692037,3.20843077 0.976240741,2.22812308 0.198462963,2.29089231 C0.339759259,3.06689231 0.359203704,3.93089231 0.501148148,4.70750769 C0.567259259,5.07058462 0.637907407,5.44412308 0.849851852,5.75304615 L2.10790741,5.83181538 Z" id="Fill-87" fill="#FFCCBC"></path>
                    <path d="M2.86682407,1.67704615 C3.26025,1.04996923 3.69710185,0.449969231 4.33293519,0.0259692308 C4.41913889,-0.0306461538 4.56432407,0.0364307692 4.51636111,0.145969231 C4.2415463,0.769969231 3.83256481,1.32566154 3.49228704,1.91827692 C3.15589815,2.50289231 2.94136111,3.1872 2.45525,3.67458462 C2.32237963,3.80750769 2.12210185,3.66104615 2.11950926,3.51273846 C2.10978704,2.85489231 2.52006481,2.23027692 2.86682407,1.67704615" id="Fill-89" fill="#FFCCBC"></path>
                    <path d="M4.01942593,1.75249231 C4.4122037,1.12541538 4.8497037,0.525415385 5.48553704,0.101415385 C5.57109259,0.0441846154 5.71692593,0.111876923 5.66896296,0.221415385 C5.39414815,0.845415385 4.98516667,1.40110769 4.64488889,1.99310769 C4.3085,2.57772308 4.09396296,3.26264615 3.60785185,3.75003077 C3.47498148,3.88295385 3.27405556,3.73649231 3.27211111,3.58818462 C3.26174074,2.93033846 3.67266667,2.30572308 4.01942593,1.75249231" id="Fill-91" fill="#FFCCBC"></path>
                    <path d="M4.58655556,2.47784615 C4.97933333,1.85076923 5.41683333,1.25076923 6.05266667,0.826769231 C6.13822222,0.770153846 6.28340741,0.837230769 6.23544444,0.946769231 C5.96062963,1.57138462 5.55164815,2.12646154 5.21137037,2.71907692 C4.87498148,3.30307692 4.66044444,3.988 4.17433333,4.47538462 C4.04146296,4.60830769 3.84118519,4.46184615 3.83859259,4.31353846 C3.82887037,3.65569231 4.23914815,3.03107692 4.58655556,2.47784615" id="Fill-93" fill="#FFCCBC"></path>
                    <path d="M4.95237037,3.52203077 C5.47996296,2.99156923 6.0445,2.49618462 6.762,2.21372308 C6.85792593,2.17556923 6.98496296,2.27218462 6.91301852,2.36818462 C6.50209259,2.9208 5.97514815,3.37864615 5.50718519,3.88633846 C5.04505556,4.38726154 4.67885185,5.01064615 4.09227778,5.38664615 C3.93218519,5.4888 3.77014815,5.30418462 3.80190741,5.15956923 C3.94255556,4.51464615 4.48635185,3.99033846 4.95237037,3.52203077" id="Fill-95" fill="#FFCCBC"></path>
                    <path d="M2.04523148,4.11636923 C2.39523148,4.87452308 2.42828704,5.88990769 1.86115741,6.56867692 C1.78856481,6.65483077 1.65828704,6.5736 1.69199074,6.47513846 C1.95837963,5.69544615 2.09643519,5.0136 1.78337963,4.21913846 C1.71921296,4.05667692 1.97199074,3.95698462 2.04523148,4.11636923" id="Fill-97" fill="#FFAB91"></path>
                    <path d="M3.5940463,5.06707692 C3.6614537,5.08123077 3.66923148,5.15630769 3.61089815,5.18707692 C3.44562037,5.27446154 3.26543519,5.33538462 3.10469444,5.42953846 C2.94136111,5.52553846 2.81367593,5.65907692 2.66071296,5.76738462 C2.55117593,5.84492308 2.36062037,5.72923077 2.43450926,5.60123077 C2.64256481,5.23938462 3.16043519,4.97476923 3.5940463,5.06707692" id="Fill-99" fill="#FFAB91"></path>
                </g>
                <g id="Group-104" transform="translate(107.000000, 136.000000)">
                    <mask id="mask-9" fill="white">
                        <use xlink:href="#path-8"></use>
                    </mask>
                    <g id="Clip-103"></g>
                    <polygon id="Fill-102" fill="url(#linearGradient-10)" mask="url(#mask-9)" points="0.412083333 5.9496 0.609166667 5.9496 0.778333333 1.5318 0.08125 0.3456"></polygon>
                </g>
                <path d="M110.282369,134.473466 C109.392562,133.969191 108.522039,133.434168 107.584711,133 C107.409091,133.559007 107.126722,134.313574 107,134.421808 C108.649449,136.588344 108.350551,139.336641 110.411157,141.482882 C111.27135,142.442234 111.998623,141.867238 113,141.355584 C112.935262,141.263954 112.884298,141.126815 112.690771,140.867913 C111.969008,139.903027 110.690771,136.298079 110.282369,134.473466" id="Fill-105" fill="#FFAB91"></path>
                <g id="Group-109" transform="translate(107.000000, 135.000000)">
                    <mask id="mask-12" fill="white">
                        <use xlink:href="#path-11"></use>
                    </mask>
                    <g id="Clip-108"></g>
                    <path d="M0.193846154,1.09614545 C0.172307692,1.98574545 0.872615385,2.34181818 1.51876923,2.8672 L1.51876923,2.8672 C2.67384615,3.80509091 2.66584615,5.17992727 3.09846154,6.41803636 L3.09846154,6.41803636 C3.408,7.29890909 3.77476923,7.48276364 4.66707692,7.81149091 L4.66707692,7.81149091 C5.48123077,8.11170909 5.87938462,7.96334545 6.98030769,7.93309091 L6.98030769,7.93309091 C7.94584615,7.90632727 8.20738462,7.22850909 7.15323077,6.94109091 L7.15323077,6.94109091 C6.54153846,6.77294545 6.42584615,6.74152727 6.33907692,6.61294545 L6.33907692,6.61294545 C5.44430769,7.09701818 4.79384615,7.64101818 4.02646154,6.73338182 L4.02646154,6.73338182 C2.18461538,4.70283636 2.45169231,2.10210909 0.977846154,0.0523636364 L0.977846154,0.0523636364 C0.649846154,0.350254545 0.209230769,0.450909091 0.193846154,1.09614545" id="Fill-107" fill="url(#linearGradient-13)" mask="url(#mask-12)"></path>
                </g>
                <g id="Group-116" transform="translate(89.000000, 35.000000)">
                    <path d="M37.5727887,65.9397151 C36.75945,65.1251719 35.7026758,64.5105051 34.4955629,64.1972193 L19.4214339,59.2278792 C18.9458855,59.0900334 18.56595,58.7021856 18.4068048,58.1896499 L18.1054984,57.2178372 C17.9111274,56.5931453 17.395321,56.1639437 16.7939661,56.1288556 L3.20812742,55.319325 L2.86090161,55.2278456 L3.59561129,63.8087448 C3.83149839,66.5644071 6.18345,68.7981351 9.17072419,69.1020224 L27.166079,71.1703356 C28.4549661,71.3157002 29.1984823,73.5444157 27.9724984,74.0444199 C23.4107565,75.9015784 19.0943371,95.3904641 18.6502403,97.4487521 C19.5334016,97.9807115 20.0561274,98.2639219 20.9336274,98.8052798 L38.3810952,71.2461507 C39.3001113,69.5067877 39.0157887,67.3845894 37.5727887,65.9397151" id="Fill-110" fill="#1C2021"></path>
                    <path d="M0.62576129,56.8758544 L0.147696774,61.5300289 C-0.178770968,64.7086271 1.32776129,67.8953707 4.22005161,69.7111754 C5.12208387,70.2782228 6.06374516,70.6610581 6.93432581,70.7500313 L29.1051968,72.2387656 C27.1275194,74.9862824 26.1701323,77.2926928 25.949971,80.5640236 C25.4278742,88.3065699 24.7510355,102.690776 24.7510355,102.690776 L27.3873097,102.960202 L36.7875677,70.8070493 C36.5504226,68.2976297 34.901729,66.530071 32.2597935,65.8446015 L17.4580355,60.9241341 C16.8176806,60.757466 16.3131968,60.2956827 16.1307774,59.7073319 L15.5501806,57.8351357 L0.972987097,56.9673339" id="Fill-112" fill="#2A3033"></path>
                    <path d="M10.2258629,0.335967739 C7.3788629,0.679955595 4.59854032,2.12420333 3.14610484,4.31971052 C1.60875,6.64491806 1.11307258,9.4876738 0.992927419,12.2552409 C0.891024194,14.6130302 0.141217742,30.3186761 0.531217742,32.6470165 C6.87312097,34.0718405 13.5710565,34.334374 20.0230403,33.5135651 C20.0985242,29.2697951 20.5143145,11.4406977 19.5833468,7.29529947 C19.1600081,5.41307812 18.4039113,3.44188359 16.9294597,2.12232362 C15.1851532,0.559653831 12.6803468,0.0389727589 10.2258629,0.335967739" id="Fill-114" fill="#E65100"></path>
                </g>
                <g id="Group-119" transform="translate(114.000000, 140.000000)">
                    <mask id="mask-15" fill="white">
                        <use xlink:href="#path-14"></use>
                    </mask>
                    <g id="Clip-118"></g>
                    <polygon id="Fill-117" fill="url(#linearGradient-16)" mask="url(#mask-15)" points="0.4255 5.86936364 0.662 5.86936364 0.8645 1.34993182 0.028 0.137386364"></polygon>
                </g>
                <path d="M117.294455,138.378149 C116.262656,138.296624 115.23499,138.195032 114.217656,138 C114.154288,138.105355 114.083343,138.198795 114,138.272167 C115.648261,140.481484 115.350706,143.284049 117.41086,145.472671 C118.270463,146.450967 118.998508,145.864617 120,145.342859 C119.934565,145.250046 119.884284,145.109573 119.690736,144.845559 C118.975089,143.870399 117.713925,140.252588 117.294455,138.378149" id="Fill-120" fill="#FFCCBC"></path>
                <g id="Group-124" transform="translate(113.000000, 138.000000)">
                    <mask id="mask-18" fill="white">
                        <use xlink:href="#path-17"></use>
                    </mask>
                    <g id="Clip-123"></g>
                    <path d="M0.354461538,1.34107826 C0.333538462,2.29836522 1.03323077,2.68153043 1.67938462,3.24688696 L1.67938462,3.24688696 C2.83446154,4.2573913 2.82646154,5.73558261 3.25907692,7.06852174 L3.25907692,7.06852174 C3.56861538,8.01704348 3.93538462,8.21426087 4.82769231,8.568 L4.82769231,8.568 C5.64123077,8.89106087 6.04,8.7314087 7.14030769,8.69947826 L7.14030769,8.69947826 C8.10646154,8.67130435 8.36861538,7.94003478 7.31446154,7.63074783 L7.31446154,7.63074783 C6.70153846,7.45043478 6.58646154,7.416 6.49969231,7.27826087 L6.49969231,7.27826087 C5.60492308,7.79853913 4.95446154,8.38393043 4.18646154,7.40786087 L4.18646154,7.40786087 C2.34584615,5.22281739 2.61169231,2.42483478 1.13907692,0.219130435 L1.13907692,0.219130435 C0.809846154,0.53906087 0.369846154,0.646747826 0.354461538,1.34107826" id="Fill-122" fill="url(#linearGradient-19)" mask="url(#mask-18)"></path>
                </g>
                <g id="Group-127" transform="translate(89.000000, 54.000000)">
                    <mask id="mask-21" fill="white">
                        <use xlink:href="#path-20"></use>
                    </mask>
                    <g id="Clip-126"></g>
                    <path d="M8.79677508,0.372448598 C5.52912506,0.635169074 4.58220797,0.743016143 2.80568026,3.45925743 L2.80568026,3.45925743 C1.64168575,5.23748003 0.865286303,9.62096177 3.27732478,16.2874155 L3.27732478,16.2874155 L6.22510307,25.2500085 C6.2771049,26.4237859 1.3091159,35.3581631 0.295684837,39.9247341 L0.295684837,39.9247341 C1.40525882,41.2615361 4.3488044,41.0138641 7.13694915,40.766192 L7.13694915,40.766192 C8.4515071,40.6483127 9.73099404,40.5316873 10.768612,40.5805947 L10.768612,40.5805947 C13.4666606,40.7091334 17.1829776,40.2808802 19.8780027,39.2055446 L19.8780027,39.2055446 L17.9884013,21.1373985 C17.9884013,21.1373985 23.9063307,19.2876958 21.1490243,14.5819269 L21.1490243,14.5819269 C18.5936784,10.2203908 14.4305085,1.49418352 11.6314796,1.49418352 L11.6314796,1.49418352 C10.9621072,0.765588785 10.0333303,0.361789295 9.07129638,0.361789295 L9.07129638,0.361789295 C8.97999084,0.361789295 8.88808062,0.365551402 8.79677508,0.372448598" id="Fill-125" fill="url(#linearGradient-22)" mask="url(#mask-21)"></path>
                </g>
                <g id="Group-140" transform="translate(87.000000, 39.000000)">
                    <polygon id="Fill-128" fill="#FFAB91" points="15.2965056 13.1230795 10.1630818 9.45498974 9.86104583 11.9696949 14.8876593 16.1252718"></polygon>
                    <path d="M15.5537999,21.1026038 L14.6405714,17.9370782 L14.887422,16.1253346 L9.86080848,11.9697577 L9.41339181,15.6956423 L13.6988602,22.0694115 C14.3877869,23.0940141 15.9015269,22.3056167 15.5537999,21.1026038" id="Fill-130" fill="#FFCCBC"></path>
                    <path d="M17.4313477,0.270002564 C16.8254957,0.166976923 16.0653621,1.89956667 15.8274124,2.31355385 C15.0637184,3.64157949 14.2240704,4.96520769 13.2930402,6.16947692 C12.5602026,7.11681026 11.4369138,8.27522051 10.1795187,7.70355385 C10.1273003,7.67968205 10.1296739,7.60743846 10.1201796,7.56095128 L10.0792356,7.56786154 L9.91961351,6.6934 C9.79440805,6.00802821 9.17431466,5.55509231 8.52395833,5.67319487 L8.49725575,5.67759231 C7.85936063,5.79381026 7.41550431,6.44400256 7.50985345,7.1218359 L7.64633333,8.09241282 C7.74780316,8.81422051 8.38569828,9.24705385 9.07165805,9.17355385 C9.487625,9.12957949 9.86739511,9.43865641 9.92910776,9.88091282 C9.92910776,9.88091282 10.0044684,10.4180282 10.0044684,10.4186564 C10.264967,12.2781436 18.8127615,14.9335667 19.1978721,12.8862462 C19.2251681,12.7373615 19.595444,7.62314359 19.089875,3.65602821 C18.959329,2.63519487 18.6371178,1.44914359 18.3279612,0.464117949 C18.0342328,0.382451282 17.7345704,0.321515385 17.4313477,0.270002564" id="Fill-132" fill="#FFCCBC"></path>
                    <polygon id="Fill-134" fill="#FFCCBC" points="0.0810159483 41.3091359 13.2887085 46.445341 14.7680318 44.7297128 3.77724727 36.8338026"></polygon>
                    <path d="M18.0629529,44.5164372 C18.6148063,44.5252321 19.2432072,44.59245 19.5707589,45.0629756 C19.7861598,45.3726808 19.8110822,45.7954628 19.7220736,46.1692449 C19.6330649,46.5423987 19.4425865,46.8778603 19.2538882,47.2070397 C18.9109083,47.805091 13.9056569,47.8792192 13.2891239,46.4450269 C13.1004256,46.0077962 13.5104586,45.7910654 13.7727374,45.3984372 C14.5957704,44.1665269 16.6263537,44.4938218 18.0629529,44.5164372" id="Fill-136" fill="#FFCCBC"></path>
                    <path d="M19.1129579,44.7170231 C19.9294636,44.7251897 20.9845125,46.9628564 20.9121188,47.7839205 C20.8705815,48.2582154 20.1329967,48.8141769 19.6784593,48.7262282 C19.571649,48.2820872 20.0861188,48.2161256 20.2142912,47.8926 C20.3264421,47.6105359 20.112228,47.4038564 19.943705,47.136241 C19.4903545,46.4119205 18.4821835,45.8477923 19.1129579,44.7170231" id="Fill-138" fill="#FFCCBC"></path>
                </g>
                <g id="Group-143" transform="translate(106.000000, 85.000000)">
                    <mask id="mask-24" fill="white">
                        <use xlink:href="#path-23"></use>
                    </mask>
                    <g id="Clip-142"></g>
                    <path d="M0.6736,1.93559091 C0.909333333,2.22277273 1.44693333,2.76227273 1.2512,3.18654545 L1.2512,3.18654545 C1.12426667,3.46368182 0.707733333,3.52631818 0.7984,3.91868182 L0.7984,3.91868182 C1.04693333,3.96890909 1.38826667,3.79577273 1.62666667,3.55231818 L1.62666667,3.55231818 C2.0096,3.16113636 1.9424,2.55545455 1.73013333,1.98345455 L1.73013333,1.98345455 C1.55786667,1.51663636 1.28906667,1.07168182 1.09066667,0.783909091 L1.09066667,0.783909091 C0.832533333,0.411636364 0.548266667,0.150454545 0.290133333,0.1475 L0.290133333,0.1475 C-0.137066667,0.948181818 0.270933333,1.4475 0.6736,1.93559091" id="Fill-141" mask="url(#mask-24)"></path>
                </g>
                <g id="Group-148" transform="translate(104.000000, 85.000000)" fill="#FFCCBC">
                    <path d="M0.4495,0.248685714 C1.138,0.256114286 2.027,2.29097143 1.966,3.0384 C1.9305,3.46925714 1.3095,3.97554286 0.9265,3.89497143 C0.836,3.49154286 1.27,3.43154286 1.378,3.13725714 C1.4725,2.88068571 1.292,2.69268571 1.15,2.44925714 C0.768,1.7904 -0.0815,1.27725714 0.4495,0.248685714" id="Fill-144"></path>
                    <path d="M0.1473,0.8988 C0.6558,0.904514286 1.3118,2.4068 1.2663,2.95822857 C1.2408,3.27651429 0.7823,3.64965714 0.4993,3.5908 C0.4328,3.29251429 0.7528,3.24851429 0.8328,3.0308 C0.9023,2.84165714 0.7688,2.70337143 0.6643,2.52337143 C0.3823,2.03708571 -0.2447,1.65822857 0.1473,0.8988" id="Fill-146"></path>
                </g>
                <g id="Group-151" transform="translate(83.000000, 57.000000)">
                    <mask id="mask-26" fill="white">
                        <use xlink:href="#path-25"></use>
                    </mask>
                    <g id="Clip-150"></g>
                    <path d="M8.97284868,1.36246646 L0.0734078947,21.4839578 L5.97104605,24.8836536 L8.89621711,20.1202589 L7.86348684,19.2020884 L13.3079211,5.07705164 C14.273,3.52971863 13.783875,1.46660795 12.2356776,0.550286092 L12.2356776,0.550286092 C11.6800987,0.221839858 11.2023487,0.053611299 10.7730921,0.053611299 L10.7730921,0.053611299 C10.0881974,0.053611299 9.52782895,0.480036804 8.97284868,1.36246646" id="Fill-149" fill="url(#linearGradient-27)" mask="url(#mask-26)"></path>
                </g>
                <g id="Group-228" transform="translate(27.000000, 0.000000)">
                    <g id="Group-154" transform="translate(17.578723, 0.000000)">
                        <mask id="mask-29" fill="white">
                            <use xlink:href="#path-28"></use>
                        </mask>
                        <g id="Clip-153"></g>
                        <path d="M4.8587579,20.9052523 C4.66118825,20.3794274 4.5005066,19.839765 4.33982496,19.3007315 C3.89779413,17.8157163 3.45576329,16.3307011 3.01373246,14.845057 C2.83304376,14.239352 2.65298028,13.632389 2.53731451,13.0115885 C2.03213641,12.8895669 1.40128902,12.7637714 0.967386048,12.4744419 C0.534108302,12.1857414 0.181483988,11.7328778 0.127089812,11.2120847 C0.0551894649,10.5214677 0.503472501,9.88997461 0.979890456,9.3880508 C1.45693363,8.88675597 2.00650238,8.40621739 2.2247043,7.74767826 C2.40351734,7.20801582 2.33474309,6.61237442 2.48729687,6.0639063 C2.67048645,5.40285126 3.16753668,4.86193087 3.75274299,4.5078167 C4.3379493,4.15433151 5.00756036,3.97004119 5.67717142,3.83606905 C6.26112729,2.44225557 7.64223918,1.24594094 8.98146131,0.559097834 C9.59355209,0.245238211 10.4432266,0.077301298 10.8833818,0.607529078 C11.0396869,0.796851216 11.110962,1.04341028 11.2510114,1.24531196 C11.5486163,1.67364543 12.1188173,1.83340564 12.6364998,1.79440906 C13.1548076,1.75478349 13.6437299,1.55099488 14.1376541,1.38997672 C15.2618004,1.02139608 16.45222,0.86100689 17.6326362,0.918872793 C18.4816855,0.960385288 19.4301449,1.18241424 19.8677991,1.91517268 C20.3442171,2.71208679 20.0065981,3.7297719 19.660226,4.59147067 C19.3569941,5.34750126 19.0537622,6.10290288 18.749905,6.85893348 C19.3132286,7.32752149 19.8865558,7.80806007 20.2635637,8.43703728 C20.6411968,9.0653855 20.7925001,9.88116893 20.4648846,10.5378211 C20.0172268,11.4366295 18.9093363,11.7158954 18.000891,12.1360522 C15.2505464,13.4078441 13.8544292,16.4590125 12.6840166,19.2673957 L4.8587579,20.9052523 Z" id="Fill-152" fill="#3E2723" mask="url(#mask-29)"></path>
                    </g>
                    <polygon id="Fill-155" fill="#04D8DB" points="30.4844425 67.8467014 30.9802423 78.534282 33.1728903 106.8848 32.6795914 140.204868 29.0858244 140.204868 23.5657534 119.173128 25.0662824 108.277985 14.757023 79.00287 13.6353776 67.8265741"></polygon>
                    <polygon id="Fill-157" fill="#00E4E7" points="30.5839776 67.8485254 28.6501709 79.5512752 25.5834647 82.4307329 20.0746477 111.670625 10.7426078 143.757897 6.97252868 143.757897 7.41643518 121.694006 12.2212541 110.263603 9.89480889 76.8284329 11.4797426 67.8258823"></polygon>
                    <polygon id="Fill-159" fill="#FFCCBC" points="30.2958135 52.3927945 41.3709679 67.9411109 39.7353913 69.6645084 24.1667778 57.1755371"></polygon>
                    <path d="M44.9322859,67.8018553 C45.5268705,67.8244985 46.2046095,67.9087814 46.546605,68.3987547 C46.7723096,68.722049 46.790441,69.1560432 46.6854039,69.5365744 C46.5803669,69.9177346 46.3671668,70.2573823 46.1558423,70.5901113 C45.7719569,71.1958163 40.3688021,71.149272 39.7348286,69.6642568 C39.5422607,69.2113932 39.9892933,68.9987989 40.2818965,68.6025433 C41.1978444,67.3584264 43.3823645,67.7433604 44.9322859,67.8018553" id="Fill-161" fill="#FFCCBC"></path>
                    <path d="M46.0606212,68.0331302 C46.9415568,68.0608052 48.0294403,70.3817311 47.9325311,71.2220447 C47.8762613,71.7069861 47.0678513,72.260486 46.5801794,72.1585917 C46.4745171,71.7006963 47.0315885,71.6453463 47.1772648,71.3170202 C47.3041846,71.0308356 47.0778548,70.8132095 46.9027931,70.5345726 C46.4295012,69.7804289 45.3541221,69.1772398 46.0606212,68.0331302" id="Fill-163" fill="#FFCCBC"></path>
                    <path d="M44.9933699,68.4489471 C45.8743055,68.4766221 46.962189,70.7975479 46.8659051,71.6378615 C46.8096352,72.1234319 46.0012253,72.6763028 45.5129281,72.5750375 C45.4072659,72.1165131 45.9643372,72.0617921 46.1106388,71.732837 C46.2375586,71.4466524 46.0106036,71.2290263 45.8355418,70.9503894 C45.36225,70.1962457 44.2868709,69.5930566 44.9933699,68.4489471" id="Fill-165" fill="#FFCCBC"></path>
                    <path d="M44.1721429,68.7981552 C45.0537037,68.8258302 46.1415872,71.1467561 46.0446781,71.9870696 C45.9884082,72.472011 45.1799982,73.024882 44.6923263,72.9236167 C44.5866641,72.4657213 45.1437355,72.4110003 45.2894118,72.0814162 C45.4163316,71.7952316 45.1900018,71.5782344 45.01494,71.2989686 C44.541023,70.5460829 43.4656439,69.9422647 44.1721429,68.7981552" id="Fill-167" fill="#FFCCBC"></path>
                    <path d="M43.7691884,69.5226112 C44.4194176,69.5433674 45.2222006,71.2567013 45.1509255,71.8762438 C45.1096609,72.2347608 44.5125754,72.642967 44.1524485,72.5681188 C44.0742959,72.230358 44.485691,72.1894745 44.5932289,71.9466893 C44.6870119,71.7353529 44.5194529,71.5749638 44.3900322,71.3692882 C44.0411593,70.8126434 43.2471293,70.3673275 43.7691884,69.5226112" id="Fill-169" fill="#FFCCBC"></path>
                    <path d="M44.2045293,68.2855388 C43.8775391,69.1679938 46.7254181,69.8667875 47.335008,70.1693255 C47.2374736,71.0517805 45.5393749,70.3095874 45.0360725,70.2724778 C44.4802516,70.2315943 43.9388107,70.7215675 43.3411,70.6429453 C42.7846538,70.569984 42.4432834,70.1913397 42.1500551,69.7623773 C42.0168831,69.5680233 41.8805851,69.2981921 41.6580066,69.2051035" id="Fill-171" fill="#FFCCBC"></path>
                    <path d="M24.6104967,22.8766556 L24.6104967,22.8766556 C17.1122283,22.8766556 10.2566865,28.9915719 9.29759836,36.5342665 L10.5724228,64.1438497 C10.6643302,66.1622376 9.63521738,68.4095731 11.1419986,69.7455207 C15.9330626,73.9948906 30.5838526,69.9908218 30.5838526,69.9908218 C32.4088709,69.3159292 30.6513764,66.5547193 30.8520721,64.7457809 L32.9846989,38.755814 C33.7187077,32.9811743 30.3506453,22.8766556 24.6104967,22.8766556" id="Fill-173" fill="#A0B718"></path>
                    <polygon id="Fill-175" fill="#FFCCBC" points="22.4377933 18.133853 21.12358 23.7776654 27.392665 28.5421677 28.7162567 27.7012252 29.1339039 21.5353617"></polygon>
                    <polygon id="Fill-177" fill="#FFAB91" points="29.1339039 21.5354875 22.4377933 18.1339788 22.0451548 19.8196377 28.8769383 25.3269621"></polygon>
                    <path d="M33.5263274,20.6647943 L33.4375461,7.20342429 L25.3471939,7.20342429 L25.0583421,10.5464381 L24.2393034,11.4911619 L23.6140829,15.2455268 L22.8913282,15.2568484 L22.8544401,14.4171638 C22.8225539,13.6906951 22.2392233,13.0799583 21.5164685,13.0900219 C21.5064649,13.0900219 21.4964614,13.0900219 21.4870831,13.0906509 C20.7724562,13.113923 20.2185109,13.7353525 20.2185109,14.4549024 L20.2185109,15.3971103 C20.2185109,16.1399324 20.8255999,16.700351 21.5639852,16.7236232 C22.0197709,16.7374607 22.3855248,17.114218 22.3855248,17.5771453 L22.3855248,18.8363576 C22.3855248,20.7616568 32.9254906,24.8927791 33.4944411,21.446613 C33.5375814,21.1887324 33.539457,20.9258199 33.5263274,20.6647943" id="Fill-179" fill="#FFCCBC"></path>
                    <path d="M33.892644,13.2930558 C33.892644,14.0553761 33.3505779,14.6761766 32.6847182,14.6761766 L32.4164986,14.6761766 C31.6212183,14.6761766 30.9809926,13.9660614 30.9591098,13.0590762 L30.9428541,12.4326149 C30.9441046,12.1156104 31.1635569,11.8583588 31.4317765,11.8583588 L33.3949686,11.8583588 C33.6694403,11.8583588 33.892644,12.1212712 33.892644,12.4445655 L33.892644,13.2930558 Z M29.629266,13.2930558 C29.629266,14.0553761 29.0121735,14.6761766 28.2537811,14.6761766 L27.9543005,14.6761766 C27.0521075,14.6761766 26.3249761,13.9654324 26.3005925,13.0578183 L26.2830864,12.4326149 C26.284962,12.1156104 26.5419276,11.8583588 26.8570387,11.8583588 L29.0465606,11.8583588 C29.3679239,11.8583588 29.629266,12.1212712 29.629266,12.4445655 L29.629266,13.2930558 Z M33.3949686,11.3595798 L31.4317765,11.3595798 C30.9678629,11.3595798 30.5771002,11.713065 30.474564,12.1860559 L30.0900535,12.1860559 C29.9743877,11.713065 29.5523639,11.3595798 29.0465606,11.3595798 L26.8570387,11.3595798 C26.3524858,11.3595798 25.9292116,11.713065 25.8166719,12.1860559 L22.4004676,12.1860559 C21.4876458,12.1860559 20.6054598,12.5181558 19.9164669,13.120716 L19.8014263,13.2207234 C19.698265,13.3106671 19.687011,13.4685404 19.7770427,13.5723216 C19.8664493,13.6761029 20.0227544,13.6874245 20.126541,13.5968517 L20.2415815,13.4968444 C20.8405427,12.9729064 21.6070629,12.6848348 22.4004676,12.6848348 L25.7947892,12.6848348 L25.8047928,13.0716558 C25.8373042,14.250988 26.781387,15.1749555 27.9543005,15.1749555 L28.2537811,15.1749555 C29.2853948,15.1749555 30.1250658,14.3308681 30.1250658,13.2930558 L30.1250658,12.6848348 L30.4539318,12.6848348 L30.4633101,13.0710268 C30.4926954,14.250988 31.3504978,15.1749555 32.4164986,15.1749555 L32.6847182,15.1749555 C33.6237992,15.1749555 34.3878186,14.3308681 34.3878186,13.2930558 L34.3878186,12.4445655 C34.3878186,11.8464082 33.9426617,11.3595798 33.3949686,11.3595798 L33.3949686,11.3595798 Z" id="Fill-181" fill="#263238"></path>
                    <polygon id="Fill-183" fill="#37474F" points="29.0856369 140.942847 28.3353724 145.874028 43.5851235 145.874028 42.9123863 144.51984 32.6794038 140.942847"></polygon>
                    <polygon id="Fill-185" fill="#37474F" points="6.90831855 144.49619 6.12054082 149.669528 22.1199312 149.669528 21.4140574 148.249297 10.6783976 144.49619"></polygon>
                    <path d="M16.0161544,26.0964528 C13.0407304,28.240636 10.0653065,30.3854483 7.08988255,32.5296316 C4.91536596,34.0970428 2.72959539,35.6745176 0.848932386,37.5878662 C0.578211947,38.8533683 0.139307217,40.1301921 0.248095569,41.4202243 C0.288109675,41.898876 0.358759582,42.3875912 0.591966796,42.8064901 C0.96084684,43.469432 1.68172598,43.856253 2.40260511,44.0820558 C4.79282275,44.8305387 7.40624408,44.158791 9.67516896,43.0933037 C11.9440938,42.0278163 14.026703,40.5761369 16.3512725,39.6395898 C16.7570406,39.4760558 17.1703113,39.3288751 17.5960864,39.2320126 L16.0161544,26.0964528 Z" id="Fill-187" fill="#A0B718"></path>
                    <path d="M0.161565064,40.1133355 L3.99479142,21.9252018 L6.36062546,22.0497392 L7.06649931,40.8605604 C7.15715627,43.2657692 5.33776487,45.203019 3.21576678,44.9608628 C1.10877399,44.7205935 -0.328607741,42.4392932 0.161565064,40.1133355" id="Fill-189" fill="#FFCCBC"></path>
                    <path d="M2.95123603,19.435081 C2.84057201,18.938818 2.77117255,18.358901 3.16568663,17.9494369 C3.72025714,17.3739227 5.81662118,17.2324029 5.92478431,17.9425181 C6.00293686,18.4494737 6.10734867,19.0558078 6.22864143,19.5646503 C6.44121637,20.4540241 6.95014579,22.4893943 5.89227285,23.2366192 C5.50025965,23.5133692 5.19702775,23.1995096 4.75187082,23.0617636 C3.35450319,22.6283983 3.23883742,20.7282581 2.95123603,19.435081" id="Fill-191" fill="#FFCCBC"></path>
                    <path d="M4.87028756,21.0769631 C4.84527875,20.584474 5.23854239,20.1838155 5.60179545,19.8523445 C5.80936862,19.6630224 6.04507672,19.4623786 6.32580069,19.4636366 C6.64091177,18.9132815 7.28363836,18.0974981 7.95199898,18.4459515 C7.52309778,19.1258758 7.16922302,19.9341115 6.7396966,20.6140359 C6.53962607,20.9322983 6.33080245,21.2587375 6.02194357,21.4707028 L4.87028756,21.0769631 Z" id="Fill-193" fill="#FFCCBC"></path>
                    <path d="M5.81418282,16.8728166 C5.70852057,16.1343974 5.55284069,15.4054128 5.1520744,14.7682589 C5.09830545,14.682718 4.94200034,14.6927816 4.94200034,14.8135452 C4.94325079,15.5054202 5.0908028,16.1815707 5.16332837,16.8677848 C5.23522872,17.5445642 5.15895183,18.2704039 5.40216257,18.9113317 C5.46843593,19.0868163 5.70476925,19.0232896 5.76416519,18.8842857 C6.02988386,18.2660011 5.90734066,17.524437 5.81418282,16.8728166" id="Fill-195" fill="#FFCCBC"></path>
                    <path d="M4.75824807,16.5147399 C4.65258582,15.7763206 4.49753115,15.0473361 4.09613965,14.4101822 C4.04237069,14.3246413 3.88606559,14.3347049 3.88606559,14.4554685 C3.88731603,15.1467145 4.03486805,15.8234939 4.10739362,16.5090791 C4.17929396,17.1864875 4.10301707,17.9123272 4.34622781,18.553255 C4.41250118,18.7281106 4.64883449,18.6652129 4.70823043,18.526209 C4.97394911,17.9079244 4.85140591,17.1663603 4.75824807,16.5147399" id="Fill-197" fill="#FFCCBC"></path>
                    <path d="M3.97059539,16.9882968 C3.86493314,16.2498776 3.70925326,15.520893 3.30848697,14.8837391 C3.25471802,14.7981982 3.09841291,14.8082618 3.09841291,14.9290255 C3.09966335,15.6202714 3.24721537,16.2970509 3.31974094,16.982636 C3.39101607,17.6600445 3.3153644,18.3852552 3.55857514,19.0268119 C3.6248485,19.2016676 3.8605566,19.1387699 3.92057776,18.9997659 C4.18629643,18.3814813 4.06375323,17.6399172 3.97059539,16.9882968" id="Fill-199" fill="#FFCCBC"></path>
                    <path d="M3.23733689,17.8374789 C2.97411909,17.1399432 2.66463499,16.4619058 2.13569852,15.9285331 C2.06504861,15.8568297 1.91437049,15.9002291 1.94062975,16.0178479 C2.09130787,16.6927404 2.38203536,17.3210886 2.60086251,17.974596 C2.81718877,18.6199266 2.90034308,19.3445083 3.27610055,19.9175065 C3.37926192,20.0734929 3.59558818,19.960277 3.6237231,19.8112094 C3.74939241,19.1501543 3.46929366,18.4532476 3.23733689,17.8374789" id="Fill-201" fill="#FFCCBC"></path>
                    <path d="M5.59498054,19.4808706 C4.9872663,20.0664483 4.56274164,21.013059 4.80220106,21.8646942 C4.83283686,21.9728782 4.98163932,21.9439453 4.98976718,21.8389061 C5.05666577,21.0036244 5.19921602,20.3092335 5.78817365,19.6752245 C5.90821597,19.5462842 5.72252551,19.35822 5.59498054,19.4808706" id="Fill-203" fill="#FFAB91"></path>
                    <path d="M3.84480104,19.8014602 C3.77977812,19.7895097 3.74289011,19.8574392 3.78290422,19.9083864 C3.89669434,20.0524221 4.03299239,20.1769596 4.13927986,20.3260272 C4.24744299,20.4776107 4.30871459,20.6512084 4.40312287,20.8103397 C4.47064668,20.9241845 4.68509728,20.8858169 4.66946677,20.7373783 C4.62507612,20.3184795 4.26682482,19.8756795 3.84480104,19.8014602" id="Fill-205" fill="#FFAB91"></path>
                    <path d="M86.301245,92.5453781 L109.661981,92.5453781 L113.146959,78.146832 C113.466447,76.823464 112.470471,75.5478982 111.116243,75.5478982 L92.0570241,75.5478982 C91.0935595,75.5478982 90.2545137,76.2102112 90.0269335,77.1524191 L86.301245,92.5453781 Z" id="Fill-207" fill="#EEEBD4"></path>
                    <path d="M87.285467,92.5453781 L91.0111554,77.1524191 C91.2393609,76.2102112 92.0777815,75.5478982 93.0412461,75.5478982 L112.100465,75.5478982 C112.803213,75.5478982 113.407176,75.8925778 113.783559,76.4083391 L97.7429036,92.5453781 L87.285467,92.5453781 Z" id="Fill-209" fill="#D6D5CA"></path>
                    <path d="M113.783496,76.4082133 C114.132369,76.8862359 114.284923,77.5101813 114.131119,78.1473352 L110.645515,92.5452523 L97.7428411,92.5452523 L113.783496,76.4082133 Z" id="Fill-211" fill="#D4C4C1"></path>
                    <path d="M76.682354,92.5441831 L96.8294566,92.5441831 L95.6527918,93.7285471 L75.5056892,93.7285471 C75.5056892,93.0744108 76.03275,92.5441831 76.682354,92.5441831" id="Fill-213" fill="#D6D5CA"></path>
                    <path d="M110.64514,92.5441831 C110.64514,93.1983194 110.12058,93.7285471 109.470976,93.7285471 L95.6529793,93.7285471 L96.8290189,92.5441831 L110.64514,92.5441831 Z" id="Fill-215" fill="#D4C4C1"></path>
                    <path d="M75.5058142,93.7284213 L86.1101777,93.7284213 C86.7604069,93.7284213 87.2849668,93.1981936 87.2849668,92.5446862 L76.682479,92.5446862 C76.032875,92.5446862 75.5058142,93.0742851 75.5058142,93.7284213" id="Fill-217" fill="#EEEBD4"></path>
                    <path d="M164.956912,97.184714 L41.3408323,97.184714 C40.3767424,97.184714 39.5952169,96.3984925 39.5952169,95.4286096 C39.5952169,94.4587268 40.3767424,93.6725053 41.3408323,93.6725053 L164.956912,93.6725053 C165.921001,93.6725053 166.702527,94.4587268 166.702527,95.4286096 C166.702527,96.3984925 165.921001,97.184714 164.956912,97.184714" id="Fill-219" fill="#263238"></path>
                    <polygon id="Fill-221" fill="#263238" points="49.2226109 149.669528 52.3680948 149.669528 52.3680948 97.1851542 49.2226109 97.1851542"></polygon>
                    <polygon id="Fill-223" fill="#263238" points="153.930149 149.669528 157.075633 149.669528 157.075633 97.1851542 153.930149 97.1851542"></polygon>
                    <path d="M136.825682,12.2046107 C136.461803,11.9605676 136.161698,11.6366443 135.94162,11.2693216 C135.438318,10.4277501 135.376421,9.38050308 135.660896,8.43703728 C135.945371,7.49357147 136.554961,6.65011305 137.30335,5.96138301 C138.906415,4.48454454 141.152207,3.69895202 143.369239,3.66435827 C145.585645,3.62976453 147.763288,4.31346275 149.607063,5.43555807 C150.361078,5.89408245 151.091961,6.45890398 151.436458,7.24260957 C151.780954,8.02631516 151.617772,9.07104629 150.86063,9.55787465 C150.5649,12.1234726 150.228532,14.653219 149.932177,17.218817 C149.824014,18.1541061 149.707723,19.1158122 149.238808,19.9529808 C148.646099,21.0128074 148.551691,22.2468607 148.18156,23.3897123 C148.147798,23.4928645 148.071521,23.6205469 147.962108,23.5966458 L136.825682,12.2046107 Z" id="Fill-224" fill="#212121"></path>
                    <polygon id="Fill-225" fill="#FFCCBC" points="148.08265 21.7633659 149.263692 27.4078073 142.883317 32.1723096 141.579108 31.3313671 141.306511 25.1655036"></polygon>
                    <polygon id="Fill-226" fill="#FFAB91" points="141.306574 25.1650004 148.082713 21.7634917 148.435337 23.4491506 141.474758 28.956475"></polygon>
                    <path d="M136.93497,24.2943073 L137.340113,10.8329372 L145.43109,10.8329372 L145.641165,14.1759511 L146.43707,15.1206748 L146.975385,18.8750397 L147.696889,18.8863613 L147.753784,18.0473057 C147.802552,17.3202081 148.400262,16.7094712 149.123017,16.7195349 C149.133021,16.7195349 149.142399,16.7195349 149.152402,16.7201638 C149.867029,16.743436 150.405344,17.3648655 150.389088,18.0844154 L150.365955,19.0266232 C150.349074,19.7700743 149.728856,20.329864 148.989845,20.3531361 C148.533434,20.3676026 148.158927,20.743731 148.148298,21.2066582 C148.148298,21.2066582 148.118913,22.4652416 148.118913,22.4658706 C148.072647,24.3911698 137.436397,28.522292 136.9481,25.0761259 C136.911212,24.8182453 136.915588,24.5553328 136.93497,24.2943073" id="Fill-227" fill="#FFCCBC"></path>
                </g>
                <g id="Group-231" transform="translate(165.000000, 74.000000)">
                    <mask id="mask-31" fill="white">
                        <use xlink:href="#path-30"></use>
                    </mask>
                    <g id="Clip-230"></g>
                    <path d="M0.198676471,0.0931663394 L1.76887255,11.0205543 L4.60856209,13.7094992 L9.17257353,41.0120563 L17.2946895,70.9723568 L20.8647467,70.9723568 L20.9364624,50.370633 L16.6416993,39.6984733 L19.1731373,12.8945161 C19.4499346,9.96095147 19.3631209,7.01365816 18.9152124,4.11878336 L18.9152124,4.11878336 L18.289902,0.0719493221 L0.198676471,0.0931663394 Z" id="Fill-229" fill="url(#linearGradient-32)" mask="url(#mask-31)"></path>
                </g>
                <polygon id="Fill-232" fill="#E0E0E0" points="185.375285 147 186 152 171 152 171.692605 150.627261 181.840634 147"></polygon>
                <g id="Group-236" transform="translate(162.000000, 74.000000)">
                    <mask id="mask-34" fill="white">
                        <use xlink:href="#path-33"></use>
                    </mask>
                    <g id="Clip-235"></g>
                    <path d="M0.178494401,0.0912188034 L0.378597761,14.0931771 L1.19235142,42.1642056 L5.15561068,72.9692664 L8.67561068,72.9692664 L11.5279931,51.7881999 L8.73382257,40.8138107 L14.8491025,13.2558444 C15.5179328,10.2395652 15.8308217,7.20886001 15.7804927,4.23209537 L15.7804927,4.23209537 L15.7095469,0.0717751237 L0.178494401,0.0912188034 Z" id="Fill-234" fill="url(#linearGradient-35)" mask="url(#mask-34)"></path>
                </g>
                <g id="Group-271" transform="translate(140.000000, 27.000000)">
                    <polygon id="Fill-237" fill="#E0E0E0" points="31.4471134 121.011435 31.4161856 125.973941 16.1774227 125.973941 17.064433 124.612041 27.8563918 121.011435"></polygon>
                    <path d="M37.8024124,1.84843624 C35.3770515,0.212025219 35.944268,14.6696006 34.3391134,15.5620745 L40.6700412,15.021827 L44.1222062,17.7111566 L49.1139588,10.7098745 C44.2168454,6.44994129 39.3877732,2.36674796 37.8024124,1.84843624" id="Fill-239" fill="#6D2759"></path>
                    <path d="M58.7324536,19.022855 C56.3194639,17.0411118 52.698433,13.8278298 49.1138969,10.7098119 L44.1221443,17.7110939 L50.4258557,22.6222072 C49.8846186,23.2019392 49.3421443,23.7954594 48.804,24.3946202 C43.9470928,29.795842 39.4347216,35.630766 39.4347216,35.630766 L40.6198763,37.7942631 L54.3963711,27.0200226 L58.6105979,23.7252648 C60.1396701,22.5294501 60.1990515,20.2274441 58.7324536,19.022855" id="Fill-241" fill="#FFCCBC"></path>
                    <path d="M35.1565979,39.9172102 C34.7941237,39.6665153 34.6110309,39.2121308 34.578866,38.7646404 C34.546701,38.3165232 34.6450515,37.8677794 34.7440206,37.4271831 C34.867732,36.8750275 37.6475258,35.6729454 39.7685567,35.4103425 C40.1724742,36.0471076 40.573299,36.6863796 40.9728866,37.3262784 C40.8504124,37.4616536 40.7471134,37.5844941 40.6889691,37.6853988 C40.2201031,38.5001573 38.7745361,39.3130355 37.1019588,39.8877536 C36.4598969,40.1089918 35.7064948,40.297013 35.1565979,39.9172102" id="Fill-243" fill="#FFCCBC"></path>
                    <path d="M36.7900206,38.7858868 C36.4801237,39.7523157 33.6310515,40.2743878 32.7551753,39.9202812 C32.2498144,39.7153382 31.9096082,38.6580324 32.1743505,38.1478682 C32.7025979,38.1660436 32.5844536,38.7984215 32.8931134,39.0566373 C33.161567,39.2810092 33.4677526,39.0942415 33.8246598,38.9820556 C34.7877526,38.6799682 35.7799175,37.6671608 36.7900206,38.7858868" id="Fill-245" fill="#FFCCBC"></path>
                    <path d="M36.9633402,37.4405952 C36.6336495,38.4013835 33.7759175,38.8632888 32.9080825,38.4903802 C32.4076701,38.2754093 32.0891134,37.2105827 32.3643711,36.7060591 C32.8913814,36.7348891 32.7602474,37.36476 33.0633402,37.6298699 C33.3268454,37.8598825 33.6373608,37.6793821 33.9955052,37.574717 C34.9647835,37.2926852 35.9773608,36.3011869 36.9633402,37.4405952" id="Fill-247" fill="#FFCCBC"></path>
                    <path d="M37.6459794,38.6151009 C37.5791753,39.6241479 34.9274227,40.838138 33.9878351,40.7152975 C33.4453608,40.6444762 32.8564948,39.7106376 32.9907216,39.1528415 C33.5096907,39.0387753 33.5480412,39.6774206 33.9123711,39.8491466 C34.2284536,39.99831 34.4814433,39.7413478 34.8018557,39.5445523 C35.6678351,39.013079 36.3890722,37.7903146 37.6459794,38.6151009" id="Fill-249" fill="#FFCCBC"></path>
                    <path d="M37.6133196,39.391503 C37.661567,40.1341867 35.833732,41.2836228 35.1316701,41.2873908 C34.727134,41.2898902 34.2038351,40.6675401 34.2489897,40.2469994 C34.618268,40.1122509 34.7085773,40.5741562 34.9924948,40.6631529 C35.2386804,40.7402416 35.4001237,40.5277777 35.616,40.3522913 C36.1999175,39.8784779 36.6106392,38.9145559 37.6133196,39.391503" id="Fill-251" fill="#FFCCBC"></path>
                    <path d="M38.2777732,37.2144058 C36.4091134,37.3034024 34.4272577,36.5331423 33.7926186,36.3444944 C33.7573608,35.4708227 35.5103505,35.8963773 36.0027216,35.8449848 C36.546433,35.7879517 36.9992165,35.2182475 37.588701,35.1906711 C38.1379794,35.1649749 39.0874639,35.2652528 39.4344742,35.6306407 C39.5915876,35.7960993 39.2012784,36.2423362 39.4301443,36.2943554" id="Fill-253" fill="#FFCCBC"></path>
                    <path d="M36.0041443,0.0811624768 C42.1024948,2.87891766 45.5119794,8.91377085 44.1220825,17.7112819 C42.7816701,26.2029452 43.8016701,49.1647187 43.800433,49.1866545 C43.7274433,49.9600483 40.1528041,50.9703488 38.3899175,51.1696512 C34.2777526,51.6328101 28.1558969,51.1433283 24.4055876,49.3132554 C22.746,48.5035109 22.8765155,47.8980827 22.7138351,46.0266452 L22.3216701,15.4763368 C21.8224948,10.6241369 23.2253814,6.93077412 27.2330103,3.07571316 C29.1517732,1.23059863 35.3528041,-0.217791202 36.0041443,0.0811624768" id="Fill-255" fill="#5A217C"></path>
                    <path d="M24.1397938,11.2106376 L18.5109278,18.6111513 C17.9387629,18.0909594 17.3517526,17.569514 16.7604124,17.0530825 C11.4241237,12.3932908 5.66103093,8.10264748 5.66103093,8.10264748 L3.52639175,9.40751448 L14.1723711,22.8441349 L17.4278351,26.9536512 C18.6098969,28.4452859 20.5849485,28.1030873 22.0701031,26.851493 C24.9637113,24.4141117 28.3428866,20.7583532 31.1987629,17.6440957 L24.1397938,11.2106376 Z" id="Fill-257" fill="#FFCCBC"></path>
                    <path d="M2.19550515,7.19193555 C1.94870103,6.75697988 1.71674227,6.22989383 1.97282474,5.71847622 C2.33282474,4.99960857 4.2763299,4.20615918 4.58251546,4.84417772 C4.80148454,5.29856225 5.07426804,5.83943651 5.33529897,6.28253976 C5.79117526,7.05718703 6.85694845,8.82333267 6.06952577,9.8630898 C5.77694845,10.2479065 5.40024742,10.0467238 4.93942268,10.0561249 C3.492,10.0862083 2.83818557,8.3244498 2.19550515,7.19193555" id="Fill-259" fill="#FFCCBC"></path>
                    <path d="M4.48249485,8.14125449 C4.31795876,7.68310955 4.57527835,7.17983952 4.8245567,6.7524047 C4.96620619,6.50797716 5.13197938,6.24349403 5.39734021,6.15700429 C5.53837113,5.53716113 5.91321649,4.56321141 6.64620619,4.68229149 C6.43465979,5.46069918 6.33136082,6.33687789 6.11981443,7.11528558 C6.02084536,7.4787932 5.91692784,7.85358208 5.68558763,8.15190903 L4.48249485,8.14125449 Z" id="Fill-261" fill="#FFCCBC"></path>
                    <path d="M4.17142268,3.86696897 C3.8596701,3.20137399 3.50338144,2.56084849 2.94173196,2.08452817 C2.86626804,2.01997423 2.72028866,2.07826079 2.75554639,2.19295372 C2.95472165,2.84664069 3.28812371,3.44016089 3.55348454,4.06627142 C3.81575258,4.68423437 3.95183505,5.39495444 4.36503093,5.92517417 C4.4782268,6.06995048 4.68358763,5.93582871 4.70028866,5.78541176 C4.77513402,5.11730983 4.44606186,4.45422179 4.17142268,3.86696897" id="Fill-263" fill="#FFCCBC"></path>
                    <path d="M3.06896907,3.86026288 C2.75721649,3.1946679 2.40092784,2.55414241 1.83927835,2.07782208 C1.76381443,2.01389488 1.61845361,2.07218144 1.65309278,2.18624763 C1.85226804,2.84056134 2.18628866,3.43408154 2.45164948,4.05956533 C2.71329897,4.67815502 2.84938144,5.38824835 3.26257732,5.91846808 C3.37639175,6.06324439 3.58113402,5.92912262 3.59783505,5.77870567 C3.67268041,5.11060374 3.3442268,4.4475157 3.06896907,3.86026288" id="Fill-265" fill="#FFCCBC"></path>
                    <path d="M2.4588866,4.55612927 C2.14713402,3.89116103 1.79146392,3.2500088 1.22919588,2.77368847 C1.15373196,2.70976127 1.00837113,2.76804784 1.04301031,2.88211402 C1.24218557,3.53642773 1.57620619,4.12994793 1.84156701,4.75543173 C2.10321649,5.37402141 2.23929897,6.08411474 2.65249485,6.61433448 C2.76630928,6.75911079 2.97105155,6.62498901 2.98775258,6.47457206 C3.06259794,5.80647013 2.73414433,5.1433821 2.4588866,4.55612927" id="Fill-267" fill="#FFCCBC"></path>
                    <path d="M2.00826804,5.5901831 C1.55919588,5.01295807 1.0717732,4.46957686 0.41857732,4.13051199 C0.330123711,4.08538691 0.200226804,4.17375686 0.259608247,4.27716851 C0.595484536,4.86818176 1.05012371,5.37082505 1.44538144,5.9198469 C1.83507216,6.46260138 2.12146392,7.12192899 2.64105155,7.54560339 C2.78331959,7.66092305 2.95589691,7.48543661 2.93981443,7.33627314 C2.86929897,6.67130489 2.40476289,6.09909376 2.00826804,5.5901831" id="Fill-269" fill="#FFCCBC"></path>
                </g>
            </g>
        </g>
    </g>
</svg>