<?xml version="1.0" encoding="UTF-8"?>
<svg width="17px" height="19px" viewBox="0 0 17 19" version="1.1" xmlns="http://www.w3.org/2000/svg" xmlns:xlink="http://www.w3.org/1999/xlink">
    <!-- Generator: Sketch 62 (91390) - https://sketch.com -->
    <title>Triangle Copy 6</title>
    <desc>Created with Sketch.</desc>
    <g id="Page-1" stroke="none" stroke-width="1" fill="none" fill-rule="evenodd">
        <g id="01-Productly-Copy" transform="translate(-1084.000000, -509.000000)" fill="#74D1BA">
            <g id="02-Header" transform="translate(-497.000000, 59.000000)">
                <g id="Left-side" transform="translate(1277.000000, 192.000000)">
                    <g id="Button" transform="translate(193.000000, 241.000000)">
                        <g id="button" transform="translate(0.000000, 13.000000)">
                            <path d="M120.969676,6.64844919 L129.002707,20.3046024 C129.317729,20.8401396 129.138966,21.5296541 128.603429,21.844676 C128.430543,21.9463738 128.233611,22 128.033031,22 L111.966969,22 C111.345648,22 110.841969,21.4963203 110.841969,20.875 C110.841969,20.6744206 110.895595,20.4774886 110.997293,20.3046024 L119.030324,6.64844919 C119.345346,6.11291192 120.03486,5.93414892 120.570398,6.24917084 C120.735271,6.34615488 120.872692,6.48357631 120.969676,6.64844919 Z" id="Triangle-Copy-6" transform="translate(120.000000, 13.500000) rotate(90.000000) translate(-120.000000, -13.500000) "></path>
                        </g>
                    </g>
                </g>
            </g>
        </g>
    </g>
</svg>